<?xml version="1.0" standalone="no"?>
<!DOCTYPE svg PUBLIC "-//W3C//DTD SVG 1.1//EN" "http://www.w3.org/Graphics/SVG/1.1/DTD/svg11.dtd" >
<svg xmlns="http://www.w3.org/2000/svg">
<metadata>Generated by IcoMoon</metadata>
<defs>
<font id="icomoon" horiz-adv-x="1024">
<font-face units-per-em="1024" ascent="960" descent="-64" />
<missing-glyph horiz-adv-x="1024" />
<glyph unicode="&#x20;" horiz-adv-x="512" d="" />
<glyph unicode="&#xe900;" glyph-name="arrow-down" horiz-adv-x="1016" d="M507.94 194.541l-507.94 506.918h1016.377z" />
<glyph unicode="&#xe901;" glyph-name="arrow-left" horiz-adv-x="1032" d="M260.476 448.257l510.727 511.743v-1024z" />
<glyph unicode="&#xe902;" glyph-name="arrow-right" horiz-adv-x="1032" d="M771.189 447.743l-510.713-511.743v1024z" />
<glyph unicode="&#xe903;" glyph-name="arrow-up" horiz-adv-x="1016" d="M508.451 701.459l507.94-506.918h-1016.391z" />
<glyph unicode="&#xe904;" glyph-name="at" horiz-adv-x="1020" d="M1020.286 175.218h-107.095c-35.876-46.877-84.364-83.733-145.451-110.556-61.087-26.809-135.851-40.22-224.293-40.22-91.637 0-172.358 16.172-242.147 48.488-69.804 32.316-122.734 77.96-158.778 136.916-36.058 58.957-54.080 129.293-54.080 210.98 0 85.597 19.101 163.655 57.275 234.159 38.188 70.504 90.488 124.402 156.914 161.707 66.412 37.291 142.606 55.93 228.554 55.93 73.167 0 138.080-13.762 194.738-41.285 56.644-27.523 100.424-65.894 131.325-115.083 30.901-49.203 46.358-104.348 46.358-165.421 0-46.54-10.132-91.735-30.368-135.599-20.25-43.864-47.605-80.104-82.052-108.678-34.46-28.602-61.802-42.897-82.052-42.897-19.535 0-29.303 12.781-29.303 38.356l3.195 19.185 87.377 407.049h-119.875l-16.508-69.804c-17.055 28.056-38.819 49.105-65.263 63.133-26.472 14.028-55.677 21.049-87.643 21.049-47.605 0-92.618-15.541-135.067-46.61-42.448-31.097-77.077-74.162-103.885-129.209-26.823-55.061-40.234-111.705-40.234-169.947 0-43.696 8.703-83.299 26.108-118.824 17.405-35.511 41.565-63.133 72.466-82.837 30.901-19.718 64.997-29.569 102.288-29.569 54.346 0 104.782 24.314 151.309 72.985 7.455-48.67 41.033-72.985 100.704-72.985 57.878 0 113.205 17.489 165.953 52.482 52.749 34.979 94.65 82.122 125.733 141.443s46.624 122.538 46.624 189.665c0 78.857-19.367 149.809-58.074 212.858-38.721 63.035-92.8 111.789-162.24 146.25-69.439 34.446-147.665 51.669-234.678 51.669-80.987 0-154.252-12.879-219.781-38.622-65.529-25.758-121.557-62.867-168.097-111.355-46.526-48.474-83.201-107.711-110.010-177.683-26.823-69.972-40.234-141.891-40.234-215.773 0-98.028 22.38-183.008 67.141-254.928 44.747-71.934 109.575-127.513 194.458-166.766 84.897-39.239 180.962-58.873 288.239-58.873 112.953 0 208.752 20.25 287.44 60.736 78.66 40.5 139.663 99.99 183.008 178.482zM574.881 617.163c19.886-25.407 29.836-58.873 29.836-100.424 0-40.5-8.703-82.15-26.108-124.948s-39.421-76.544-66.062-101.223c-26.641-24.693-54.879-37.025-84.714-37.025-32.33 0-58.074 13.131-77.259 39.421-19.171 26.276-28.771 59.84-28.771 100.69 0 44.046 7.82 86.494 23.445 127.345 15.626 40.837 36.759 73.433 63.399 97.761s55.229 36.492 85.779 36.492c33.746 0 60.554-12.697 80.454-38.090z" />
<glyph unicode="&#xe905;" glyph-name="barcode" d="M1024 960h-219.431v-1024h219.431zM731.431 960h-73.153v-1024h73.153zM585.139 960h-73.139v-1024h73.139zM438.861 960h-73.153v-1024h73.153zM292.569 960h-146.278v-1024h146.278zM73.139-64h-73.139v1024h73.139z" />
<glyph unicode="&#xe906;" glyph-name="baubles" d="M75.245 560.552c1.44 4.397 0.372 8.329-2.847 11.023-3.264 2.738-7.732 3.236-11.478 1.276-3.724-1.944-6.177-6.204-5.547-10.12 0.131-0.81 1.254-2.064 1.955-2.086 5.914-0.17 11.839-0.093 17.917-0.093zM15.393 466.974c8.63-15.919 29.050-31.771 56.178-28.924 19.461 2.043 34.104 11.992 44.7 28.924zM14.949 523.683h101.217c-6.741 14.719-26.022 30.638-51.233 30.315-25.167-0.323-44.005-16.899-49.984-30.315zM11.598 474.372c0.416-0.044 0.805-0.12 1.188-0.12 34.876-0.005 69.758 0.011 104.634-0.060 1.917-0.005 2.503 0.876 3.034 2.371 4.386 12.299 4.441 24.625 0.553 37.067-0.701 2.234-1.654 3.006-4.069 3.001-26.668-0.099-53.341-0.066-80.014-0.066-7.82 0-15.634 0.055-23.448-0.071-0.986-0.011-2.579-0.767-2.842-1.539-4.644-13.608-4.633-27.144 0.964-40.582zM48.095 559.172c-0.318 12.753 2.245 16.871 13.624 21.608 0 10.465 0 56.2 0 66.746 0 0.975-0.016 1.955 0.016 2.93 0.082 2.355 1.391 3.707 3.674 3.669 2.316-0.044 3.455-1.484 3.45-3.85-0.016-9.769-0.005-54.732-0.005-64.501 0.005-1.654 0-3.307 0-4.874 11.521-4.868 15.125-10.656 13.537-21.816 19.429-5.668 33.967-17.397 42.515-35.95 6.445-13.986 7.387-28.612 3.663-43.495-7.327-29.247-34.345-49.617-64.95-49.097-29.701 0.509-55.657 22.090-62.19 51.446-6.434 28.913 8.811 66.281 46.666 77.183zM11.264 474.241c-5.635 13.52-5.646 27.144-0.975 40.834 0.268 0.778 1.867 1.539 2.864 1.55 7.858 0.126 15.727 0.071 23.59 0.071 26.838 0 53.681-0.033 80.518 0.066 2.431 0.005 3.39-0.772 4.091-3.017 3.915-12.518 3.855-24.926-0.553-37.302-0.537-1.5-1.123-2.388-3.056-2.382-35.095 0.071-70.191 0.055-105.291 0.060-0.383 0-0.772 0.077-1.188 0.12zM75.656 560.262c-6.336 0-12.513-0.071-18.678 0.104-0.728 0.016-1.906 1.325-2.037 2.174-0.657 4.080 1.9 8.521 5.783 10.552 3.904 2.037 8.559 1.517 11.965-1.336 3.357-2.804 4.468-6.905 2.968-11.494zM409.014 516.772c0.422 0 0.898 0 1.369 0 7.201 0.011 14.402 0.197 21.592-0.049 2.617-0.088 2.634 1.484 2.88 3.028 0.832 5.312-1.873 10.711-6.571 13.345-4.846 2.722-11.116 2.119-15.322-1.462-4.501-3.833-5.985-9.309-3.948-14.862zM349.244 437.99c0.027-39.772 31.728-71.313 70.087-72.534 40.801-1.292 73.739 30.709 74.872 70.306 1.166 40.714-31.541 74.599-72.375 74.642-40.018 0.038-72.447-32.286-72.584-72.414zM402.109 515.217c-3.264 14.090 4.791 24.565 16.417 26.985v3.412c0 30.687-0.005 61.374 0.005 92.056 0 3.483 1.051 4.77 3.713 4.726 1.988-0.038 3.088-1.062 3.329-2.979 0.126-0.964 0.082-1.949 0.082-2.924 0.005-30.293 0.033-60.591-0.049-90.884-0.005-2.459 0.444-3.636 3.056-4.518 9.66-3.242 15.163-13.422 13.049-23.393-0.137-0.657-0.225-1.325-0.367-2.174 24.209-6.933 42.039-21.526 52.815-44.262 8.022-16.915 9.802-34.646 5.175-52.832-9.041-35.522-42.022-61.56-80.797-60.153-36.399 1.325-68.126 28.776-74.889 65.563-7.414 40.352 18.010 80.836 58.461 91.377zM408.97 516.739c-2.043 5.575-0.553 11.067 3.959 14.916 4.222 3.592 10.514 4.195 15.376 1.468 4.715-2.645 7.431-8.066 6.593-13.394-0.246-1.55-0.263-3.121-2.891-3.034-7.212 0.241-14.44 0.060-21.663 0.044-0.476 0-0.947 0-1.374 0zM418.394 461.98c0.805 4.342 0.734 7.299-2.333 9.616-1.774 1.342-3.247 3.099-4.791 4.737-1.615 1.714-2.059 3.631-0.17 5.399 1.895 1.769 3.729 1.232 5.35-0.553 0.509-0.564 1.040-1.101 2.075-2.19 0 4.375 0 8.121 0 11.866 0 4.353 0.871 5.826 3.488 5.898 2.689 0.077 3.647-1.506 3.647-6.040 0-3.685 0-7.371 0-11.642 1.15 0.887 1.9 1.407 2.585 2.004 1.813 1.577 3.718 1.911 5.416 0.038 1.61-1.763 1.155-3.565-0.482-5.164-1.468-1.429-2.908-2.897-4.359-4.348-3.674-3.674-3.674-3.674-2.743-10.18 2.76 2.946 5.087 5.514 7.502 7.995 2.141 2.196 4.244 2.431 5.788 0.641 1.818-2.103 0.931-3.91-0.799-5.607-3.275-3.22-6.363-6.648-9.796-9.687-2.415-2.13-3.565-4.441-3.138-7.628 0.175-1.325 0.027-2.694 0.027-4.348 4.917-0.17 9.534-1.358 13.142 3.45 2.503 3.324 5.881 5.985 8.822 8.986 1.736 1.769 3.565 2.47 5.624 0.641 1.637-1.451 1.457-3.614-0.526-5.624-2.305-2.333-4.731-4.54-7.623-7.294 4.030-0.509 6.971-0.969 9.298 2.075 1.473 1.922 3.395 3.505 5.142 5.213 1.522 1.489 3.253 1.906 4.961 0.427 1.774-1.533 1.813-3.324 0.34-5.164-0.717-0.893-1.364-1.84-2.426-3.291 4.561 0 8.603 0.005 12.638 0 0.882 0 2.043 0.307 2.579-0.131 1.155-0.942 2.519-2.158 2.82-3.483 0.4-1.752-0.849-3.269-2.82-3.373-3.8-0.192-7.612-0.181-11.417-0.246-1.117-0.016-2.229 0-4.052 0 1.276-1.369 2.004-2.108 2.683-2.886 1.347-1.555 1.457-3.203 0.044-4.737-1.495-1.621-3.286-1.741-4.923-0.29-1.977 1.741-4.063 3.466-5.607 5.564-2.415 3.269-5.503 2.946-9.304 2.508 2.941-2.743 5.569-5.169 8.17-7.617 1.988-1.867 2.316-4.063 0.887-5.624-1.528-1.67-3.598-1.604-5.646 0.389-3.581 3.472-7.201 6.911-10.547 10.601-2.015 2.229-4.156 3.307-7.146 2.908-1.424-0.186-2.886-0.033-4.43-0.033-0.635-5.049-1.008-9.506 3.631-13.038 3.39-2.585 6.149-5.996 9.194-9.035 1.654-1.654 2.278-3.45 0.575-5.416-1.462-1.687-3.636-1.572-5.618 0.389-2.492 2.459-4.863 5.038-7.77 8.066-0.438-3.932-1.013-6.943 2.136-9.326 1.851-1.402 3.357-3.264 5.010-4.928 1.67-1.687 2.19-3.592 0.389-5.41-1.796-1.813-3.702-1.298-5.421 0.34-0.619 0.586-1.249 1.166-2.42 2.256 0-5.235 0.060-9.857-0.022-14.478-0.049-3.017-2.404-4.917-4.775-3.62-1.166 0.635-2.179 2.486-2.316 3.882-0.334 3.384-0.115 6.828-0.12 10.251 0 1.062 0 2.119 0 3.986-1.331-1.227-2.119-1.988-2.941-2.711-1.566-1.374-3.253-1.413-4.748-0.044-1.599 1.473-1.741 3.269-0.241 4.923 1.506 1.665 2.99 3.422 4.77 4.753 3.203 2.404 3.718 5.476 2.804 9.621-1.61-1.566-3.028-2.93-4.43-4.31-1.046-1.024-2.059-2.086-3.116-3.105-2.114-2.043-3.981-2.262-5.596-0.674-1.676 1.637-1.522 3.477 0.553 5.585 2.88 2.924 5.514 6.199 8.772 8.625 4.759 3.543 4.545 8.115 3.932 13.164-4.879 0.591-9.326 0.871-12.857-3.735-2.65-3.455-6.111-6.308-9.249-9.386-2.075-2.037-3.997-2.185-5.624-0.542-1.599 1.615-1.391 3.45 0.728 5.575 2.667 2.678 5.383 5.306 8.504 8.373-3.828 0.542-6.828 1.024-9.232-2.086-1.418-1.84-3.264-3.362-4.934-5.005-2.234-2.196-4.299-2.524-5.815-0.745-1.736 2.032-1.161 3.932 0.706 5.618 0.553 0.498 1.002 1.117 1.944 2.185-4.419 0-8.269-0.005-12.113 0.005-1.079 0-2.158-0.027-3.225 0.093-2.114 0.241-3.105 1.632-3.056 3.614 0.066 2.185 1.353 3.395 3.576 3.412 3.713 0.033 7.431 0.011 11.144 0.011 0.936 0 1.873 0 3.39 0-0.849 0.947-1.243 1.451-1.703 1.889-1.791 1.714-2.426 3.614-0.63 5.64 1.599 1.813 3.428 1.5 5.772-0.805 1.117-1.095 2.415-2.070 3.286-3.34 2.404-3.505 5.755-3.871 10.032-3.116-2.683 2.7-5.328 5.076-7.584 7.781-0.843 1.013-1.281 2.913-0.958 4.162 0.23 0.914 1.96 1.845 3.121 1.993 0.914 0.12 2.158-0.756 2.952-1.511 3.384-3.247 6.79-6.489 9.933-9.966 1.944-2.152 4.025-3.116 6.889-2.76 1.615 0.197 3.275 0.033 5.219 0.033 0 2.902 0.12 5.52-0.066 8.115-0.060 0.838-0.805 1.736-1.451 2.393-3.691 3.773-7.458 7.469-11.171 11.22-2.234 2.262-2.497 4.195-0.898 5.859 1.687 1.763 3.669 1.528 6.029-0.871 2.251-2.289 4.397-4.676 7.163-7.628zM807.788 516.739c-2.048 5.575-0.553 11.067 3.959 14.916 4.222 3.592 10.514 4.195 15.376 1.468 4.709-2.645 7.431-8.066 6.593-13.394-0.246-1.55-0.268-3.121-2.891-3.034-7.212 0.241-14.44 0.060-21.663 0.044-0.476 0-0.953 0-1.374 0zM863.079 434.31c-2.902-0.153-5.81-0.142-8.723-0.192-0.849-0.011-1.703 0-3.094 0 0.975-1.046 1.533-1.61 2.053-2.207 1.024-1.188 1.112-2.448 0.033-3.614-1.144-1.243-2.513-1.331-3.762-0.225-1.506 1.331-3.105 2.65-4.282 4.249-1.845 2.497-4.206 2.251-7.108 1.917 2.251-2.092 4.255-3.948 6.243-5.815 1.517-1.429 1.769-3.105 0.679-4.299-1.172-1.276-2.749-1.221-4.315 0.296-2.732 2.65-5.503 5.279-8.055 8.099-1.539 1.703-3.176 2.524-5.46 2.223-1.084-0.148-2.207-0.027-3.384-0.027-0.487-3.855-0.767-7.261 2.776-9.955 2.59-1.977 4.693-4.583 7.020-6.9 1.265-1.265 1.741-2.639 0.438-4.14-1.117-1.287-2.776-1.199-4.293 0.296-1.9 1.878-3.713 3.85-5.93 6.16-0.34-3.001-0.778-5.301 1.626-7.119 1.418-1.073 2.568-2.497 3.828-3.767 1.276-1.292 1.676-2.743 0.301-4.129-1.374-1.391-2.831-0.997-4.14 0.257-0.471 0.449-0.953 0.887-1.851 1.725 0-4.003 0.044-7.535-0.016-11.061-0.038-2.305-1.84-3.756-3.647-2.765-0.887 0.487-1.665 1.9-1.769 2.962-0.257 2.59-0.093 5.219-0.093 7.831 0 0.81 0 1.621 0 3.050-1.019-0.942-1.621-1.522-2.251-2.075-1.194-1.051-2.481-1.079-3.62-0.033-1.227 1.128-1.331 2.497-0.186 3.762 1.15 1.27 2.283 2.612 3.641 3.631 2.448 1.834 2.842 4.178 2.147 7.349-1.238-1.199-2.316-2.24-3.384-3.291-0.799-0.783-1.577-1.593-2.382-2.371-1.615-1.561-3.045-1.73-4.277-0.52-1.281 1.254-1.161 2.661 0.422 4.271 2.201 2.234 4.211 4.731 6.703 6.588 3.631 2.705 3.472 6.199 3.006 10.054-3.729 0.455-7.13 0.668-9.824-2.847-2.026-2.645-4.665-4.824-7.064-7.173-1.588-1.561-3.056-1.67-4.299-0.416-1.221 1.238-1.062 2.634 0.559 4.26 2.037 2.048 4.112 4.052 6.494 6.396-2.924 0.411-5.219 0.783-7.053-1.593-1.084-1.407-2.492-2.568-3.767-3.828-1.703-1.676-3.286-1.922-4.441-0.564-1.325 1.55-0.887 3.001 0.537 4.293 0.427 0.378 0.767 0.849 1.484 1.665-3.368 0-6.308-0.005-9.249 0.005-0.821 0-1.648-0.022-2.459 0.071-1.615 0.181-2.377 1.243-2.338 2.76 0.049 1.67 1.035 2.596 2.732 2.607 2.837 0.022 5.673 0.005 8.51 0.011 0.717 0 1.429 0 2.59 0-0.646 0.717-0.953 1.106-1.303 1.44-1.364 1.309-1.851 2.76-0.482 4.31 1.227 1.38 2.623 1.144 4.414-0.613 0.854-0.838 1.84-1.588 2.508-2.552 1.84-2.683 4.397-2.962 7.661-2.388-2.048 2.064-4.069 3.882-5.794 5.947-0.641 0.772-0.98 2.223-0.734 3.182 0.181 0.695 1.5 1.407 2.388 1.522 0.701 0.093 1.648-0.58 2.251-1.155 2.59-2.481 5.191-4.956 7.59-7.612 1.484-1.643 3.077-2.382 5.262-2.108 1.232 0.153 2.503 0.027 3.986 0.027 0 2.212 0.093 4.211-0.049 6.199-0.049 0.635-0.619 1.32-1.112 1.823-2.815 2.886-5.695 5.706-8.532 8.575-1.703 1.725-1.906 3.198-0.684 4.474 1.287 1.347 2.804 1.166 4.605-0.668 1.719-1.747 3.362-3.576 5.47-5.826 0.619 3.318 0.559 5.575-1.78 7.343-1.358 1.029-2.481 2.371-3.658 3.62-1.238 1.309-1.577 2.771-0.131 4.123s2.847 0.942 4.085-0.422c0.389-0.427 0.794-0.843 1.583-1.67 0 3.34 0 6.199 0 9.057 0 3.329 0.668 4.452 2.667 4.512 2.053 0.055 2.782-1.155 2.787-4.616 0-2.815 0-5.635 0-8.893 0.876 0.674 1.451 1.073 1.971 1.528 1.385 1.21 2.842 1.462 4.14 0.033 1.227-1.347 0.882-2.722-0.372-3.943-1.123-1.095-2.218-2.218-3.324-3.324-2.809-2.809-2.809-2.809-2.097-7.776 2.103 2.256 3.882 4.211 5.728 6.106 1.637 1.676 3.242 1.856 4.425 0.493 1.385-1.61 0.712-2.99-0.613-4.288-2.503-2.459-4.863-5.076-7.486-7.398-1.84-1.626-2.722-3.39-2.393-5.826 0.131-1.008 0.022-2.053 0.022-3.318 3.756-0.131 7.278-1.040 10.037 2.634 1.911 2.541 4.49 4.572 6.735 6.867 1.325 1.353 2.722 1.884 4.299 0.487 1.249-1.112 1.112-2.76-0.405-4.299-1.763-1.78-3.614-3.466-5.821-5.569 3.077-0.389 5.323-0.739 7.108 1.583 1.123 1.473 2.59 2.683 3.921 3.986 1.166 1.139 2.486 1.451 3.789 0.323 1.358-1.172 1.385-2.535 0.263-3.943-0.548-0.684-1.040-1.407-1.856-2.513 3.483 0 6.571 0.005 9.66 0 0.668 0 1.555 0.235 1.966-0.099 0.882-0.723 1.928-1.648 2.158-2.661 0.307-1.342-0.652-2.497-2.158-2.574zM811.775 531.634c4.206 3.581 10.481 4.184 15.327 1.462 4.693-2.634 7.403-8.033 6.566-13.345-0.241-1.544-0.263-3.116-2.88-3.023-7.184 0.241-14.391 0.055-21.586 0.044-0.476 0-0.947 0-1.369 0-2.043 5.553-0.553 11.029 3.943 14.862zM892.977 471.262c-10.777 22.736-28.606 37.324-52.815 44.262 0.142 0.849 0.23 1.517 0.367 2.174 2.114 9.972-3.39 20.151-13.049 23.393-2.617 0.882-3.067 2.059-3.056 4.518 0.082 30.293 0.055 60.591 0.049 90.884 0 0.975 0.038 1.96-0.082 2.924-0.246 1.917-1.342 2.941-3.335 2.979-2.661 0.044-3.713-1.243-3.713-4.726-0.005-30.687 0-61.369 0-92.056v-3.406c-11.631-2.426-19.686-12.901-16.422-26.991-40.445-10.541-65.87-51.025-58.456-91.377 6.763-36.787 38.49-64.238 74.889-65.563 38.775-1.407 71.751 24.636 80.792 60.148 4.633 18.186 2.847 35.922-5.169 52.837zM333.167 358.896c-0.17-0.427-1.128-0.821-1.643-0.734-0.504 0.088-1.188 0.756-1.27 1.254-0.082 0.52 0.312 1.331 0.761 1.681 0.914 0.723 2.010 1.221 3.373 2.015-0.378-1.391-0.663-2.864-1.221-4.216zM321.744 348.218c-0.52 0.005-1.413 1.013-1.44 1.61-0.033 0.569 0.843 1.188 1.67 2.223 0.734-1.134 1.566-1.856 1.462-2.415-0.11-0.597-1.095-1.424-1.692-1.418zM321.75 391.083c0.586 0.016 1.583-0.843 1.676-1.429 0.088-0.58-0.739-1.303-1.473-2.442-0.821 1.051-1.681 1.681-1.654 2.256 0.038 0.602 0.92 1.604 1.451 1.615zM310.502 402.040c0.34-0.52 1.385-0.52 1.911-0.98 0.515-0.449 1.117-1.21 1.068-1.78-0.049-0.586-0.849-1.101-1.391-1.73-0.723 0.465-1.484 0.684-1.61 1.090-0.975 3.253-4.118 3.943-6.511 5.339-1.101 0.641-3.231 0.569-4.353-0.088-2.327-1.369-5.334-2.092-6.325-5.219-0.126-0.394-1.166-0.805-1.67-0.695-0.515 0.11-1.249 0.865-1.232 1.325 0.016 0.613 0.509 1.495 1.051 1.763 5.208 2.623 6.872 8.165 3.614 12.929-1.029 1.506-2.623 2.623-3.85 4.014-0.449 0.509-0.761 1.298-0.783 1.966-0.011 0.35 0.783 1.051 1.155 1.013 0.657-0.060 1.681-0.433 1.84-0.909 1.177-3.543 4.545-4.282 7.294-5.64 0.975-0.482 2.847-0.12 3.811 0.564 2.179 1.544 5.421 2.010 6.029 5.405 0.055 0.307 1.21 0.695 1.725 0.559 0.52-0.137 1.177-0.854 1.221-1.364 0.038-0.515-0.515-1.166-0.958-1.61-0.975-0.986-2.256-1.725-3.039-2.831-4.463-6.303-3.406-6.369 1.002-13.12zM307.419 327.508c1.38-2.409 2.070-5.575 5.443-6.412 0.334-0.082 0.608-1.144 0.575-1.736-0.038-0.652-0.46-1.276-0.761-2.026-1.358 1.068-1.917 1.407-2.349 1.867-0.931 0.991-1.626 2.311-2.722 3.039-5.618 3.756-8.241 3.499-13.131-1.101-0.444-0.416-0.455-1.287-0.898-1.698-0.564-0.526-1.336-1.008-2.070-1.101-0.34-0.044-1.177 0.904-1.128 1.331 0.066 0.619 0.602 1.418 1.161 1.708 4.923 2.546 6.703 8.373 3.641 12.814-1.090 1.577-2.771 2.732-4.091 4.167-0.405 0.438-0.794 1.205-0.679 1.714 0.11 0.509 0.81 1.166 1.325 1.243 0.509 0.066 1.479-0.4 1.61-0.832 1.019-3.231 4.134-3.937 6.533-5.345 1.051-0.613 3.083-0.586 4.123 0.044 2.36 1.446 5.525 2.086 6.467 5.366 0.11 0.4 1.15 0.816 1.676 0.723s1.227-0.761 1.314-1.265c0.088-0.509-0.378-1.517-0.794-1.637-3.291-0.958-3.965-4.123-5.377-6.511-0.646-1.090-0.531-3.209 0.131-4.353zM282.115 388.071c-0.608 0.016-1.194 0.887-1.791 1.385 0.509 0.58 0.958 1.539 1.544 1.637 0.591 0.093 1.325-0.674 2.508-1.358-1.051-0.827-1.67-1.681-2.262-1.665zM281.983 348.19c-0.597 0.060-1.117 0.986-1.67 1.533 0.559 0.537 1.090 1.462 1.687 1.506 0.602 0.044 1.27-0.783 2.371-1.544-1.101-0.734-1.785-1.55-2.388-1.495zM281.983 308.336c-0.602 0.060-1.117 0.986-1.676 1.539 0.564 0.537 1.095 1.462 1.692 1.5 0.608 0.044 1.27-0.794 2.355-1.555-1.084-0.728-1.769-1.544-2.371-1.484zM272.767 457.851c-3.401-0.969-3.948-4.304-5.531-6.719-0.531-0.81-0.586-2.519-0.077-3.324 1.583-2.513 2.147-5.919 5.618-6.987 0.433-0.131 0.909-1.117 0.838-1.632-0.077-0.526-0.789-1.303-1.259-1.336-0.613-0.044-1.659 0.405-1.84 0.893-1.265 3.439-4.561 4.277-7.305 5.613-2.026 0.991-8.181-2.541-9.391-4.731-0.427-0.772-1.336-1.32-2.13-1.796-0.115-0.071-1.265 1.177-1.188 1.281 0.537 0.745 1.155 1.55 1.949 1.971 3.631 1.944 5.607 8.696 3.242 12.113-1.205 1.736-2.941 3.105-4.375 4.698-0.411 0.455-0.882 1.161-0.805 1.676 0.071 0.504 0.799 1.27 1.249 1.281 0.624 0.011 1.637-0.433 1.834-0.936 1.325-3.406 4.605-4.233 7.387-5.558 0.914-0.438 2.623-0.060 3.548 0.569 2.234 1.506 5.345 2.075 6.171 5.317 0.093 0.35 1.369 0.657 1.993 0.526 0.482-0.104 0.805-0.931 1.254-1.511-0.465-0.58-0.745-1.281-1.183-1.407zM267.45 287.429c1.457-2.24 2.010-5.405 5.317-6.155 0.35-0.077 0.767-1.194 0.635-1.687-0.137-0.498-0.893-1.101-1.424-1.155-0.531-0.049-1.479 0.411-1.626 0.854-1.15 3.373-4.43 4.091-7.015 5.531-0.953 0.526-2.837 0.241-3.844-0.389-2.283-1.429-5.323-2.075-6.226-5.251-0.115-0.394-1.15-0.821-1.665-0.728s-1.287 0.827-1.276 1.265c0.011 0.613 0.504 1.473 1.040 1.774 3.39 1.889 5.575 5.087 5.547 8.537-0.027 3.318-2.125 6.505-5.443 8.34-0.559 0.312-1.106 1.090-1.172 1.708-0.044 0.422 0.794 1.364 1.155 1.325 0.728-0.088 1.725-0.498 2.048-1.090 2.842-5.147 8.252-6.719 13.022-3.466 1.484 1.013 2.519 2.672 3.877 3.893 0.487 0.438 1.374 0.712 2.015 0.613 0.487-0.071 0.871-0.843 1.369-1.391-0.471-0.619-0.728-1.336-1.161-1.457-3.406-0.969-4.096-4.233-5.492-6.735-0.608-1.090-0.394-3.236 0.318-4.337zM272.455 361.228c0.564-0.35 1.199-1.199 1.139-1.741-0.066-0.531-0.958-1.309-1.517-1.336-0.542-0.027-1.396 0.635-1.654 1.205-2.179 4.764-8.291 6.768-12.518 3.899-1.676-1.139-4.069-1.632-4.37-4.282-0.044-0.394-0.81-0.701-2.283-1.873-0.268 0.739-0.75 1.479-0.734 2.207 0.016 0.641 0.433 1.626 0.942 1.851 3.406 1.495 4.375 4.791 5.646 7.716 0.92 2.125-2.722 7.995-5.082 9.139-0.657 0.318-1.265 1.040-1.533 1.725-0.11 0.285 0.854 1.407 1.095 1.342 0.799-0.23 1.813-0.652 2.179-1.314 2.546-4.551 8.373-6.254 12.578-3.351 1.583 1.090 2.765 2.743 4.244 4.019 0.504 0.433 1.358 0.663 2.026 0.624 0.383-0.016 1.079-0.838 1.013-1.183-0.12-0.652-0.548-1.522-1.090-1.78-3.516-1.648-5.405-4.89-5.498-8.203-0.099-3.516 2.19-6.626 5.416-8.663zM281.983 430.964c0.602 0.044 1.27-0.734 2.311-1.413-0.975-0.799-1.659-1.763-2.152-1.67-0.684 0.126-1.221 1.046-1.823 1.626 0.553 0.52 1.079 1.407 1.665 1.457zM330.604 380.602c0.361 0.422 2.021 0.498 2.163 0.225 0.953-1.785 1.643-3.702 2.563-5.925-1.884 1.385-3.373 2.3-4.594 3.488-0.422 0.411-0.493 1.785-0.131 2.212zM242.086 388.071c-0.602 0.071-1.101 1.002-1.643 1.555 0.575 0.52 1.123 1.424 1.73 1.462 0.597 0.038 1.254-0.794 2.355-1.583-1.144-0.717-1.845-1.506-2.442-1.435zM240.563 349.838c-0.022 0.569 0.871 1.177 1.73 2.201 0.712-1.139 1.528-1.878 1.413-2.426-0.12-0.602-1.117-1.435-1.703-1.407-0.537 0.022-1.418 1.029-1.44 1.632zM242.119 308.342c-0.559-0.005-1.5 0.931-1.572 1.533-0.066 0.564 0.794 1.232 1.566 2.289 0.799-1.068 1.676-1.741 1.615-2.311-0.066-0.591-1.029-1.506-1.61-1.511zM242.195 268.488c-0.553-0.033-1.544 0.86-1.637 1.451-0.088 0.569 0.734 1.281 1.446 2.371 0.832-1.019 1.736-1.643 1.708-2.218-0.033-0.602-0.942-1.566-1.517-1.604zM242.239 430.959c0.591 0.022 1.21-0.805 2.218-1.561-1.062-0.745-1.818-1.659-2.294-1.528-0.684 0.181-1.161 1.128-1.725 1.747 0.602 0.482 1.188 1.32 1.802 1.342zM242.119 470.835c0.597 0.060 1.276-0.723 2.338-1.402-0.991-0.832-1.687-1.813-2.163-1.719-0.701 0.137-1.243 1.057-1.851 1.637 0.553 0.531 1.073 1.424 1.676 1.484zM227.783 327.272c1.457-2.24 2.010-5.405 5.317-6.155 0.345-0.082 0.767-1.194 0.63-1.692-0.131-0.498-0.887-1.101-1.418-1.15s-1.479 0.405-1.632 0.849c-1.15 3.379-4.43 4.096-7.009 5.531-0.953 0.526-2.837 0.246-3.85-0.389-2.278-1.424-5.323-2.075-6.221-5.251-0.115-0.394-1.15-0.816-1.67-0.723-0.509 0.093-1.287 0.827-1.276 1.265 0.016 0.613 0.509 1.468 1.046 1.769 3.39 1.889 5.575 5.093 5.547 8.537-0.027 3.324-2.125 6.505-5.443 8.345-0.564 0.312-1.106 1.090-1.172 1.703-0.049 0.427 0.794 1.364 1.155 1.325 0.728-0.088 1.725-0.498 2.048-1.084 2.837-5.147 8.252-6.719 13.022-3.466 1.484 1.013 2.513 2.667 3.877 3.893 0.487 0.438 1.374 0.706 2.010 0.613 0.493-0.077 0.871-0.849 1.374-1.391-0.471-0.619-0.734-1.336-1.161-1.462-3.406-0.969-4.096-4.227-5.492-6.73-0.608-1.095-0.4-3.242 0.318-4.337zM216.146 412.768c-1.353 2.010-2.032 4.704-4.906 5.449-0.34 0.088-0.613 1.15-0.586 1.747 0.027 0.646 0.444 1.276 0.745 2.053 1.385-1.112 2.168-1.413 2.322-1.917 1.117-3.581 4.523-4.293 7.261-5.668 0.958-0.482 2.82-0.099 3.8 0.58 2.201 1.511 5.432 1.993 6.034 5.394 0.055 0.312 1.21 0.706 1.73 0.575 0.515-0.131 1.172-0.843 1.227-1.353 0.055-0.504-0.444-1.396-0.914-1.577-3.395-1.342-4.233-4.671-5.635-7.414-0.52-1.019-0.038-3.017 0.69-4.091 1.446-2.125 2.026-5.169 5.268-5.761 0.285-0.049 0.657-1.238 0.487-1.725-0.17-0.509-0.925-1.101-1.457-1.134-0.526-0.027-1.38 0.476-1.588 0.958-1.407 3.307-4.622 4.266-7.42 5.547-2.053 0.947-7.924-2.596-9.276-4.934-0.405-0.69-1.298-1.199-2.075-1.5-0.23-0.088-1.298 1.079-1.205 1.265 0.378 0.723 0.953 1.55 1.665 1.867 3.652 1.637 6.034 8.378 3.833 11.636zM202.358 388.071c-0.624 0.044-1.194 0.92-1.791 1.435 0.531 0.564 1.013 1.506 1.615 1.588 0.591 0.088 1.309-0.684 2.513-1.407-1.106-0.81-1.752-1.654-2.338-1.615zM200.671 349.74c-0.066 0.564 0.81 1.232 1.599 2.294 0.783-1.073 1.665-1.758 1.588-2.316-0.077-0.602-1.035-1.506-1.615-1.511-0.559-0.005-1.511 0.931-1.572 1.533zM202.254 308.331c-0.608 0.060-1.134 0.986-1.698 1.533 0.564 0.542 1.095 1.457 1.714 1.517 0.597 0.060 1.276-0.756 2.415-1.517-1.144-0.767-1.829-1.593-2.431-1.533zM202.478 267.677c-0.882 1.013-1.796 1.61-1.785 2.179 0.016 0.613 0.882 1.648 1.424 1.681 0.586 0.033 1.577-0.805 1.719-1.418 0.126-0.542-0.674-1.298-1.358-2.442zM202.358 431.726c0.734-1.046 1.648-1.851 1.5-2.251-0.263-0.706-1.183-1.166-1.823-1.73-0.493 0.608-1.342 1.205-1.364 1.829-0.022 0.564 0.86 1.166 1.687 2.152zM202.374 471.618c0.734-1.079 1.632-1.884 1.479-2.305-0.263-0.706-1.183-1.166-1.829-1.73-0.482 0.619-1.32 1.227-1.342 1.867-0.022 0.564 0.86 1.161 1.692 2.168zM187.425 288.42c1.539-2.563 2.201-5.898 5.596-7.053 0.449-0.153 0.931-1.101 0.865-1.61-0.071-0.515-0.794-1.303-1.249-1.314-0.63-0.022-1.654 0.422-1.856 0.925-1.358 3.351-4.556 4.31-7.36 5.547-2.125 0.942-8.126-2.552-9.353-4.797-0.394-0.728-1.166-1.358-1.917-1.719-0.208-0.099-1.468 1.221-1.369 1.402 0.4 0.728 1.051 1.462 1.785 1.834 3.762 1.911 5.859 8.548 3.483 11.97-1.259 1.818-3.072 3.247-4.556 4.923-0.4 0.449-0.81 1.221-0.69 1.719s0.86 1.123 1.38 1.183c0.526 0.055 1.479-0.4 1.626-0.843 1.106-3.286 4.299-4.030 6.796-5.465 1.019-0.58 3.077-0.367 4.112 0.318 2.229 1.473 5.383 1.999 6.182 5.273 0.093 0.367 1.325 0.706 1.966 0.619 0.487-0.066 0.876-0.838 1.38-1.369-0.471-0.635-0.728-1.358-1.15-1.484-3.412-0.975-3.97-4.304-5.547-6.735-0.537-0.821-0.619-2.503-0.126-3.324zM162.345 348.19c-0.586-0.055-1.254 0.778-2.409 1.577 1.183 0.75 1.884 1.555 2.464 1.473 0.624-0.088 1.134-1.002 1.692-1.555-0.58-0.537-1.123-1.435-1.747-1.495zM162.466 308.347c-0.553-0.027-1.522 0.86-1.621 1.462-0.093 0.559 0.723 1.27 1.435 2.371 0.838-1.046 1.73-1.67 1.698-2.245-0.038-0.597-0.947-1.561-1.511-1.588zM147.555 407.861c1.61-2.481 2.081-5.952 5.646-6.905 0.416-0.11 0.904-1.112 0.827-1.621-0.077-0.52-0.75-1.21-1.27-1.32-0.515-0.11-1.566 0.296-1.687 0.684-0.969 3.138-3.986 3.839-6.308 5.169-1.188 0.679-3.401 0.674-4.611 0-2.344-1.303-5.306-2.086-6.319-5.18-0.131-0.4-1.177-0.794-1.687-0.679-0.515 0.115-1.249 0.893-1.221 1.336 0.038 0.608 0.569 1.446 1.123 1.725 5.032 2.508 6.818 8.176 3.707 12.688-1.144 1.665-2.886 2.902-4.26 4.425-0.389 0.433-0.668 1.254-0.542 1.78 0.126 0.52 0.843 0.893 1.468 1.489 0.657-0.542 1.424-0.854 1.588-1.364 1.177-3.669 4.709-4.321 7.513-5.766 0.865-0.444 2.612 0.016 3.532 0.668 2.185 1.539 5.416 1.993 6.045 5.377 0.060 0.329 1.183 0.734 1.708 0.613 0.509-0.115 1.172-0.821 1.227-1.32 0.049-0.515-0.438-1.418-0.904-1.599-3.297-1.281-3.992-4.578-5.558-7.141-0.471-0.772-0.493-2.322-0.016-3.061zM148.913 325.81c1.21-1.73 3.001-3.039 4.403-4.649 0.427-0.482 0.684-1.385 0.553-1.999-0.099-0.476-0.931-0.794-1.506-1.238-0.597 0.487-1.079 0.794-1.446 1.205-0.914 1.019-1.61 2.316-2.689 3.088-6.341 4.545-6.637 3.187-13.126-1.057-0.542-0.35-0.58-1.396-1.073-1.911-0.476-0.487-1.243-0.958-1.873-0.947-0.449 0.011-1.249 0.854-1.227 1.292 0.027 0.613 0.531 1.457 1.079 1.752 3.34 1.807 5.427 4.978 5.498 8.302 0.077 3.488-2.119 6.681-5.52 8.581-0.548 0.307-1.029 1.161-1.062 1.785-0.022 0.427 0.799 1.249 1.243 1.254 0.635 0.005 1.626-0.438 1.84-0.953 1.396-3.34 4.589-4.304 7.42-5.542 2.053-0.893 8.258 2.716 9.358 4.846 0.361 0.701 1.134 1.309 1.862 1.654 0.241 0.11 1.413-0.947 1.342-1.117-0.329-0.778-0.805-1.725-1.5-2.075-4.26-2.141-6.264-8.444-3.576-12.272zM122.535 348.19c-0.608 0.060-1.128 0.991-1.687 1.544 0.564 0.537 1.095 1.446 1.708 1.511 0.591 0.060 1.27-0.75 2.404-1.506-1.144-0.778-1.829-1.61-2.426-1.55zM114.119 359.279c-0.142-0.509-0.882-1.134-1.407-1.188-0.526-0.049-1.424 0.411-1.621 0.882-0.63 1.462-1.008 3.034-1.544 4.775 1.5-1.024 2.798-1.796 3.937-2.754 0.422-0.356 0.772-1.221 0.635-1.714zM108.566 375.362c0.953 1.823 1.802 3.713 2.946 5.405 0.214 0.312 1.604-0.164 2.448-0.279-0.17-0.756-0.093-1.785-0.564-2.207-1.265-1.15-2.771-2.043-4.178-3.039-0.219 0.038-0.433 0.082-0.652 0.12zM122.371 391.91c0.871-1.051 1.785-1.676 1.752-2.24-0.038-0.613-0.931-1.588-1.506-1.632-0.548-0.038-1.533 0.854-1.648 1.468-0.11 0.553 0.701 1.276 1.402 2.404zM163.971 389.457c-0.005-0.602-0.904-1.194-1.747-2.19-0.679 1.112-1.473 1.84-1.38 2.426 0.093 0.575 1.117 1.429 1.681 1.385 0.553-0.038 1.446-1.046 1.446-1.621zM162.274 431.731c0.838-0.997 1.829-1.714 1.714-2.13-0.203-0.717-1.084-1.243-1.676-1.851-0.537 0.564-1.429 1.084-1.5 1.698-0.066 0.564 0.75 1.238 1.462 2.283zM171.972 460.847c0.723-0.115 1.67-0.569 1.993-1.172 2.683-5 8.252-6.659 12.836-3.537 1.489 1.019 2.574 2.617 3.932 3.85 0.515 0.46 1.27 0.821 1.944 0.871 0.383 0.027 1.155-0.69 1.144-1.051-0.016-0.663-0.345-1.769-0.783-1.906-3.269-0.991-4.025-4.085-5.323-6.527-0.635-1.194-0.482-3.422 0.257-4.594 1.413-2.251 2.004-5.41 5.339-6.111 0.307-0.066 0.679-1.232 0.515-1.725-0.164-0.515-0.92-1.117-1.457-1.15-0.526-0.033-1.418 0.482-1.588 0.958-1.238 3.461-4.545 4.299-7.305 5.596-2.223 1.046-8.17-2.475-9.424-4.994-0.345-0.695-0.975-1.254-1.73-2.196-0.728 0.893-1.495 1.429-1.533 2.010-0.033 0.575 0.52 1.473 1.068 1.763 3.45 1.851 5.575 5.109 5.514 8.537-0.060 3.286-2.081 6.533-5.47 8.318-0.553 0.29-1.068 1.134-1.117 1.758-0.033 0.433 0.838 1.358 1.188 1.303zM193.038 378.209c-3.417-0.975-4.025-4.26-5.503-6.73-0.537-0.893-0.493-2.678 0.060-3.581 1.522-2.47 2.212-5.684 5.492-6.812 0.438-0.153 0.893-1.139 0.805-1.648-0.088-0.515-0.832-1.281-1.292-1.281-0.635 0-1.61 0.46-1.851 0.986-1.643 3.669-4.978 5.596-8.384 5.618-3.433 0.027-6.757-1.938-8.466-5.558-0.257-0.542-1.177-1.024-1.802-1.040-0.449-0.011-1.287 0.799-1.287 1.243 0 0.608 0.476 1.473 1.008 1.785 3.329 1.96 5.553 5.136 5.569 8.597 0.011 3.329-2.059 6.5-5.476 8.247-0.586 0.301-1.013 1.309-1.106 2.043-0.071 0.564 0.487 1.21 0.821 1.938 1.265-0.958 1.78-1.331 2.273-1.73 2.278-1.823 4.419-3.861 6.889-5.372 0.909-0.553 2.864-0.29 3.844 0.356 2.256 1.468 5.377 2.004 6.275 5.213 0.104 0.367 1.188 0.745 1.719 0.635 0.515-0.104 1.194-0.794 1.259-1.303 0.071-0.509-0.422-1.484-0.849-1.604zM245.289 484.618c0.077 0.767 0.12 1.544 0.12 2.327 0 11.554-8.362 21.137-19.357 23.081v128.263c0 2.267-1.834 4.107-4.101 4.107s-4.107-1.84-4.107-4.107v-128.263c-10.996-1.944-19.352-11.527-19.352-23.081 0-0.783 0.038-1.561 0.115-2.327-53.598-10.82-93.956-58.182-93.956-114.973 0-64.78 52.514-117.295 117.3-117.295 64.78 0 117.295 52.514 117.295 117.295 0 56.791-40.358 104.152-93.956 114.973zM623.030 523.119c1.435 4.397 0.372 8.329-2.847 11.023-3.264 2.738-7.732 3.236-11.478 1.276-3.724-1.944-6.182-6.204-5.553-10.12 0.131-0.81 1.259-2.064 1.96-2.086 5.914-0.164 11.839-0.093 17.917-0.093zM563.178 429.541c8.63-15.919 29.050-31.771 56.178-28.924 19.461 2.043 34.104 11.992 44.7 28.924zM562.735 486.249h101.217c-6.741 14.719-26.027 30.638-51.233 30.315-25.167-0.323-44.005-16.899-49.984-30.315zM559.383 436.939c0.416-0.044 0.799-0.12 1.183-0.12 34.882-0.005 69.763 0.011 104.64-0.060 1.917-0.005 2.503 0.876 3.034 2.371 4.386 12.299 4.441 24.625 0.553 37.067-0.701 2.234-1.654 3.006-4.069 3.001-26.668-0.099-53.341-0.066-80.014-0.066-7.82 0-15.634 0.055-23.448-0.071-0.986-0.011-2.579-0.767-2.842-1.539-4.644-13.602-4.633-27.144 0.964-40.582zM595.88 521.739c-0.323 12.753 2.245 16.871 13.624 21.608 0 10.465 0 79.658 0 90.205 0 0.975-0.016 1.955 0.016 2.93 0.082 2.355 1.391 3.713 3.669 3.669 2.322-0.044 3.461-1.484 3.455-3.85-0.016-9.769-0.005-78.191-0.005-87.96 0-1.654 0-3.307 0-4.874 11.521-4.868 15.125-10.656 13.537-21.816 19.429-5.668 33.967-17.397 42.515-35.95 6.445-13.986 7.387-28.612 3.658-43.495-7.321-29.247-34.34-49.617-64.945-49.092-29.707 0.509-55.657 22.084-62.19 51.441-6.434 28.913 8.805 66.281 46.666 77.183zM623.441 522.829c-6.341 0-12.513-0.071-18.678 0.104-0.728 0.016-1.906 1.331-2.043 2.174-0.657 4.080 1.906 8.521 5.788 10.552 3.904 2.037 8.559 1.517 11.965-1.336 3.351-2.804 4.468-6.905 2.968-11.494zM655.727 499.238h-85.627v5.284h85.627zM656.154 409.263h-85.633v5.284h85.633z" />
<glyph unicode="&#xe907;" glyph-name="bookmark" horiz-adv-x="731" d="M367.588 295.31c-123.733-120.946-244.395-238.876-367.588-359.31v1024h731.42v-1020.345c-121.074 118.357-241.92 236.473-363.833 355.655z" />
<glyph unicode="&#xe908;" glyph-name="bullet" d="M511.993 214.922c-104.164 0-188.622 84.457-188.622 188.636 0 104.164 84.457 188.622 188.622 188.622 104.178 0 188.636-84.457 188.636-188.622 0-104.178-84.457-188.636-188.636-188.636z" />
<glyph unicode="&#xe909;" glyph-name="chevron-down" horiz-adv-x="1032" d="M530.449 143.231l500.63 414.892-108.893 194.632-405.638-327.065-403.508 327.065-112.454-194.632 499.529-414.892h30.334z" />
<glyph unicode="&#xe90a;" glyph-name="chevron-left" horiz-adv-x="1016" d="M205.706 433.478l411.809-496.91 193.185 108.098-324.649 402.624 324.649 400.509-193.185 111.618-411.809-495.831v-30.108z" />
<glyph unicode="&#xe90b;" glyph-name="chevron-right" horiz-adv-x="1016" d="M810.105 463.455l-411.506 496.545-193.043-108.004 324.396-402.329-324.396-400.215 193.043-111.551 411.506 495.467v30.086z" />
<glyph unicode="&#xe90c;" glyph-name="chevron-up" horiz-adv-x="1032" d="M500.63 752.754l-500.63-414.892 108.893-194.632 405.653 327.079 403.493-327.079 112.468 194.632-499.543 414.892h-30.334z" />
<glyph unicode="&#xe90d;" glyph-name="clock" d="M1024 446.786c0.085 283.989-228.941 513.285-512.575 513.214-282.399-0.071-511.467-229.651-511.425-512.561 0.057-282.384 229.736-511.553 512.575-511.439 281.703 0.128 511.354 229.495 511.425 510.786zM764.836 301.525c-1.974-17.256-12.157-29.271-28.277-32.509-10.68-2.145-24.414-1.221-33.745 3.891-70.003 38.346-139.239 78.070-208.717 117.396-15.267 8.635-22.866 21.886-22.88 39.312-0.057 95.922-0.327 191.845 0.213 287.753 0.156 25.479 17.795 41.868 41.329 41.428 22.78-0.426 39.34-16.418 39.795-41.187 0.795-43.203 0.227-86.435 0.227-129.667h0.085c0-40.846 0.341-81.706-0.213-122.552-0.156-10.794 3.153-16.787 12.896-22.184 58.954-32.694 117.453-66.211 176.094-99.459 16.389-9.303 25.408-22.766 23.192-42.223z" />
<glyph unicode="&#xe90e;" glyph-name="dd-horizontal" d="M376.338 452.52c0.042 95.916-57.564 137.494-123.036 152.151v4.966c119.117-6.239 206.376-78.714 206.348-161.643-0.042-94.686-102.721-162.209-229.351-162.124-126.644 0.099-228.728 72.829-228.7 162.45 0.042 94.021 89.239 161.912 241.262 161.813l-0.042-116.812-35.947 0.736c-77.002-2.66-166.184-36.188-166.199-81.303-0.014-49.628 84.627-109.342 186.273-109.413 82.208-0.057 149.364 59.545 149.392 149.18zM253.301 609.636v-4.966c65.472-14.656 123.079-56.234 123.036-152.151-0.028-89.635-67.184-149.236-149.392-149.18-101.646 0.071-186.287 59.785-186.273 109.413 0.014 45.115 89.197 78.643 166.199 81.303l35.947-0.736 0.042 116.812c-152.023 0.099-241.22-67.792-241.262-161.813-0.028-89.621 102.056-162.351 228.7-162.435 126.63-0.099 229.308 67.424 229.351 162.11 0.028 82.93-87.23 155.404-206.348 161.643zM142.361 399.143c-0.014-50.123 56.079-79.237 99.722-82.378l0.057 169.891c-51.948-1.938-99.75-37.886-99.779-87.513zM242.083 316.766c-43.643 3.141-99.736 32.255-99.722 82.378 0.028 49.628 47.831 85.575 99.779 87.513zM920.699 529.281l2.292 12.902c-26.214 12.28-94.672 6.578-93.469-39.583 1.061-40.036 52.825-51.919 91.786-41.040l-1.316 14.076c-11.883-3.169-63.718-7.328-63.067 26.61 0.835 42.384 57.805 29.044 63.775 27.035zM928.282 545.819v-13.878l35-0.028-0.028-72.701 24.771-0.014 0.028 72.701 34.335-0.028v13.878zM776.485 460.018l45.879-0.042v14.515l-45.879 0.042 0.014 21.051 43.516-0.042 0.014 14.515-43.53 0.028v21.956l46.261-0.028v14.515l-69.405 0.042-0.042-86.537 23.173-0.028zM624.009 546.484l-25.931 0.014-0.028-86.183 25.931-0.014zM520.792 474.165l-15.958-0.439 0.028 59.941 19.947-1.089c13.963 0 32.085-9.45 32.085-29.412 0-16.51-13.609-29.015-36.103-29.001zM525.362 545.833l-46.416 0.028-0.042-86.183 46.416-0.028c31.505-0.028 58.767 15.915 58.781 42.681 0 26.582-27.247 43.474-58.738 43.502zM520.764 365.87l-15.958-0.424 0.014 59.941 19.961-1.089c13.949-0.014 32.085-9.45 32.071-29.412 0-16.51-13.609-29.030-36.089-29.015zM525.319 437.538l-46.416 0.042-0.028-86.183 46.416-0.042c31.491-0.014 58.767 15.929 58.767 42.696 0.014 26.582-27.233 43.474-58.738 43.488zM879.262 349.983l25.026-0.014 0.028 64.043-25.026 0.028zM879.291 427.466l25.026-0.014v16.51l-25.026 0.014zM989.34 369.689l0.014 30.656h21.22v13.609h-21.22l0.014 16.524-25.578 0.014v-16.51l-19.947 0.014v-13.609l19.933-0.014v-33.571c-0.014-22.678 30.275-23.258 47.491-19.268l0.014 14.147c-7.979-2.716-21.942-0.156-21.942 8.007zM638.283 390.952c0.354 10.738 9.238 15.265 21.037 15.25 10.879 0 18.136-5.461 19.212-15.18zM659.051 419.091c-27.643 0.014-47.053-15.208-47.067-34.434-0.014-21.602 21.051-34.858 47.039-34.872 14.26-0.014 27.106 0.509 37.093 5.234v15.067c-6.706-7.088-56.758-15.944-58.017 8.927l64.185-0.057c1.641 30.119-21.928 40.121-43.233 40.135zM688.547 509.249h-16.863v23.229l17.245-0.014c8.007 0 15.958-3.82 15.944-11.714 0-7.158-9.62-11.516-16.326-11.501zM710.489 501.61c1.019 0.085 20.315 1.613 20.315 22.126 0.014 19.594-25.139 22.876-38.154 22.89l-46.473 0.028-0.028-86.551 25.705-0.014 0.014 34.476 9.577-0.014c10.539 0.184 13.977-8.276 14.161-8.715l13.666-25.762 27.063-0.028-19.862 35.396c-0.156 0.198-2.9 4.173-5.984 6.168zM787.689 362.574c-11.501 0-20.838 7.979-21.758 18.094v3.211c0.934 10.115 10.271 18.080 21.772 18.066 12.11 0 21.942-8.828 21.942-19.707-0.014-10.865-9.832-19.678-21.956-19.664zM796.687 416.459c-13.157 0-23.979-3.282-30.741-10.738l0.014 38.508-25.026 0.028-0.028-93.455 25.026-0.014v8.135c6.437-7.201 16.807-10.497 30.543-10.511 21.093-0.014 38.183 12.86 38.183 34.533 0.014 22.225-16.891 33.486-37.97 33.514z" />
<glyph unicode="&#xe90f;" glyph-name="dd-vertical" horiz-adv-x="1019" d="M828.549 280.156l4.277 24.193c-49.169 22.981-177.574 12.16-175.25-74.374 2.010-75.058 99.108-97.255 172.185-76.798l-2.509 26.388c-22.254-5.945-119.48-13.843-118.268 49.796 1.497 79.463 108.36 54.544 119.566 50.794zM842.748 311.163v-26.017l65.649 0.014 0.029-136.288h46.446l-0.029 136.302h64.409v26.032zM644.831 285.103v27.229l-130.172-0.043 0.029-162.263 129.488 0.029-0.014 27.215-86.035-0.014v39.447l81.616 0.029-0.014 27.215-81.616-0.014-0.014 41.157zM272.092 311.904l-48.642-0.014 0.029-161.578h48.627zM146.267 230.573c0-30.964-25.504-54.444-67.674-54.458l-29.924-0.841-0.029 112.395 37.408-2.010c26.188 0.014 60.203-17.663 60.218-55.085zM32.347 148.9l54.758 0.014c59.077 0.014 110.185 29.966 110.171 80.133-0.014 49.839-51.137 81.459-110.2 81.459l-87.076-0.029 0.029-161.578h32.319zM78.637-26.891l-29.938-0.855-0.029 112.395 37.422-1.996c26.188 0 60.203-17.692 60.218-55.1 0-30.964-25.504-54.444-67.674-54.444zM87.105 107.472l-87.062-0.014 0.029-161.578 87.062 0.014c59.077 0.014 110.2 29.952 110.185 80.133-0.014 49.839-51.137 81.459-110.214 81.445zM750.982 64.005l0.029-120.079 46.931 0.014-0.029 120.093zM797.899 120.146h-46.931l0.014-30.95h46.931zM957.438-18.951l-0.014 57.495h39.803l-0.014 25.518h-39.789v30.95h-47.957v-30.964l-37.408-0.014v-25.504h37.408l0.014-62.926c0.014-42.526 56.81-43.524 89.115-36.039l-0.014 26.531c-14.955-5.104-41.143-0.342-41.143 14.955zM920.786 656.374c-0.029 155.491-163.76 291.223-387.167 302.728v-9.309c122.83-27.386 230.891-105.224 230.92-285.050 0.029-168.065-125.853-279.932-280.032-279.961-190.647-0.043-349.445 111.768-349.474 204.803-0.014 84.596 167.224 147.607 311.638 152.725l67.403-1.312-0.043 219.002c-285.093-0.071-452.331-127.521-452.288-303.811 0.029-168.022 191.559-304.21 429.065-304.153 237.492 0.057 430.006 126.822 429.978 304.339zM325.766 564.251c0.029-93.99 105.281-148.477 187.111-154.279l-0.057 318.538c-97.44-3.721-187.054-71.209-187.054-164.259zM299.007 20.325c0.67 20.115 17.335 28.626 39.447 28.626 20.4 0.014 34.001-10.193 36.054-28.412zM337.94 73.101c-51.878 0-88.259-28.583-88.245-64.637 0-40.487 39.518-65.321 88.259-65.307 26.759 0.014 50.851 1.041 69.555 9.879l-0.014 28.241c-12.574-13.272-106.436-29.952-108.831 16.651l120.393 0.014c3.051 56.468-41.157 75.172-81.117 75.158zM393.168 242.192l-31.634-0.014v43.538l32.304 0.014c15.026 0 29.938-7.128 29.938-21.94 0-13.429-18.020-21.598-30.608-21.598zM434.326 227.908c1.896 0.157 38.092 3.065 38.078 41.514 0 36.738-47.173 42.84-71.58 42.84l-87.162-0.014 0.029-162.263 48.214 0.014-0.029 64.623 17.977 0.014c19.787 0.342 26.245-15.496 26.588-16.323l25.632-48.285 50.752 0.014-37.28 66.319c-0.271 0.371-5.432 7.812-11.22 11.547zM579.253-32.622c-21.569-0.014-39.076 14.912-40.815 33.858v6.059c1.739 18.946 19.231 33.887 40.801 33.901 22.724 0 41.143-16.537 41.157-36.909 0-20.386-18.419-36.909-41.143-36.909zM596.075 68.41c-24.677-0.014-44.978-6.201-57.652-20.172l-0.014 72.207-46.931-0.014 0.029-175.193h46.945l-0.014 15.254c12.089-13.501 31.549-19.659 57.324-19.659 39.532 0.014 71.58 24.164 71.566 64.822 0 41.671-31.72 62.755-71.252 62.755z" />
<glyph unicode="&#xe910;" glyph-name="document" horiz-adv-x="731" d="M475.422 884.572l180.568-180.568h-180.568zM621.706 113.955h-511.993v219.426h511.993zM464.003 960h-464.003v-1024h731.418v755.52z" />
<glyph unicode="&#xe911;" glyph-name="facebook" d="M650.24-64v399.36h97.28l7.68 114.688h-104.96v89.6c-0.299 12.345 4.921 24.164 14.208 32.284 9.316 8.107 21.732 11.662 33.92 9.7 18.133-0.654 36.068-3.925 53.248-9.728l16.384 117.76c-38.13 11.548-77.966 16.398-117.76 14.336-42.34 1.692-82.005-20.708-102.4-57.856-16.939-37.177-24.164-78.052-20.992-118.784v-77.312h-66.048v-114.688h66.048v-399.36h-424.448c-56.548 0-102.4 45.852-102.4 102.4v819.2c0 56.548 45.852 102.4 102.4 102.4h819.2c56.562 0 102.4-45.852 102.4-102.4v-819.2c0-56.548-45.838-102.4-102.4-102.4h-271.36z" />
<glyph unicode="&#xe912;" glyph-name="group" d="M597.625 445.913c57.536-25.818 97.982-66.986 122.541-123.22 20.145 14.373 39.512 28.167 59.785 42.625-31.887 26.243-50.632 60.606-46.925 104.263 2.645 31.251 15.986 57.847 40.22 78.19 49.33 41.394 118.778 36.004 162.096-12.265 43.785-48.779 36.174-117.844-19.834-171.192 4.202-2.462 8.078-4.796 12.011-7.045 57.974-33.373 87.527-83.708 89.437-150.354 0.467-16.41 0.212-32.835 0.028-49.26-0.24-21.433-8.276-29.355-30.105-29.383-75.531-0.085-151.061-0.042-226.592-0.042-241.376 0-482.751 0-724.141 0.014-30.515 0-37.192 5.8-36.018 36.372 1.188 30.444 0.58 61.78 7.781 90.993 12.449 50.618 46.742 85.476 95.591 108.38-36.089 28.577-53.391 65.019-48.284 110.474 3.325 29.553 17.231 53.872 39.527 73.338 45.398 39.612 114.803 36.301 157.739-7.385 48.185-49.019 42.837-111.605-14.147-175.437 19.226-13.737 38.579-27.572 59.106-42.243 24.163 55.159 63.973 96.808 122.145 123.22-50.646 40.474-74.47 91.687-64.623 155.447 6.182 39.965 26.427 72.73 58.611 97.444 65.741 50.491 158.658 40.474 213.067-21.999 49.415-56.729 58.95-160.724-29.015-230.935z" />
<glyph unicode="&#xe913;" glyph-name="holly" d="M580.495 678.543c5.463 26.222-11.199 52.085-36.904 57.303-25.403 5.175-50.432-11.645-55.938-37.622-5.65-26.582 10.451-52.142 36.257-57.548 25.791-5.405 51.107 11.544 56.585 37.867zM614.639 550.365c5.42 25.978-10.71 51.625-35.984 57.174-25.92 5.707-51.064-10.811-56.829-37.306-5.779-26.582 10.193-52.070 36.142-57.648 25.676-5.52 51.165 11.458 56.671 37.781zM695.893 655.153c5.377 26.524-11.070 52.099-36.803 57.217-25.647 5.104-51.222-12.421-56.24-38.543-5.089-26.409 11.688-51.812 37.522-56.829 25.518-4.96 50.23 12.018 55.521 38.154zM439.336 445.189c14.664 64.261 48.548 118.747 81.197 173.003-9.201 6.814-16.849 3.45-25.302-1.409-64.765-37.306-129.745-74.21-194.668-111.185-8.396-4.773-15.066-3.68-18.272 2.746-3.105 6.211-0.489 11.774 7.936 16.533 56.383 31.829 112.767 63.629 169.15 95.443 8.539 4.83 17.036 9.761 25.546 14.649-4.155 5.607-8.381 10.020-11.084 15.267-2.631 5.147-5.894 6.239-11.3 6.512-27.89 1.409-55.909 2.228-83.583 5.65-23.347 2.875-46.291 9.028-70.486 13.945-23.002-35.394-53.867-64.722-91.95-85.941-38.025-21.176-78.796-31.728-121.608-32.864-14.046-74.885-51.61-138.27-89.578-202.244 74.382-2.53 148.132-4.5 218.992-30.621 52.588 76.826 124.613 116.389 215.010 120.515zM679.561 598.756c4.96 3.925 9.301 8.266 14.434 11.055 2.588 1.409 6.987 0.891 9.963-0.288 39.089-15.684 78.393-30.636 119.94-38.442 11.86-2.228 23.965-3.192 37.091-4.888 17.050-90.469 67.654-155.392 150.979-194.452-8.64-36.458-9.833-73.592-7.792-110.768 2.041-37.047 5.29-74.009 8.051-111.53-14.707 5.535-29.629 11.3-44.652 16.777-45.141 16.489-90.699 31.469-138.543 37.939-7.519 1.021-15.167 1.466-22.757 1.61-4.859 0.101-7.432 1.179-8.554 6.771-17.366 86.688-65.828 148.305-143.56 186.33-2.3 1.121-5.29 4.96-4.917 6.972 9.301 49.986 3.479 99.541-2.401 149.066-1.553 13.068-3.853 26.035-5.794 39.003 9.057 2.056 14.922-0.273 20.659-7.806 45.429-59.69 91.389-118.934 137.177-178.322 1.222-1.581 2.501-3.12 3.666-4.744 4.442-6.182 10.049-7.188 16.231-3.062 5.305 3.537 5.635 10.092 0.704 16.791-7.792 10.552-15.914 20.845-23.922 31.239-37.766 49.008-75.547 98.017-113.313 147.039-1.193 1.538-2.3 3.163-2.688 3.709z" />
<glyph unicode="&#xe914;" glyph-name="home" d="M672.427 250.055h-137.685v-137.7h137.685zM349.269 112.228h136.789v137.913h-136.789zM534.556 298.14h137.472v137.372h-137.472zM348.828 298.283h137.671v137.813h-137.671zM880.299-26.738h-744.661v531.84c0 0 7.595 15.943 12.715 20.309 117.547 99.868 235.52 199.211 353.436 298.638 2.432 2.062 5.063 3.897 8.619 6.628 4.196-3.172 8.533-6.116 12.516-9.472 116.252-98.062 232.562-196.053 348.444-294.542 5.561-4.736 8.932-21.205 8.932-21.205zM510.322 870.386c-49.991-42.823-98.916-84.736-147.812-126.663-106.468-91.292-212.907-182.585-319.403-273.835-13.625-11.676-27.876-12.416-37.22-2.261-9.813 10.652-7.268 25.472 6.926 37.632 158.663 136.050 317.369 272.071 476.117 408.036 17.337 14.862 26.126 14.862 43.42 0.057 158.734-135.979 317.44-272 476.117-408.050 14.066-12.060 16.697-27.136 6.983-37.618-9.728-10.51-23.637-9.344-38.372 3.3-151.78 130.062-303.559 260.139-455.339 390.187-3.228 2.759-6.613 5.348-11.42 9.216z" />
<glyph unicode="&#xe915;" glyph-name="info-circle" d="M511.993 960c-282.768 0-511.993-229.225-511.993-511.993 0-282.782 229.225-512.007 511.993-512.007s512.007 229.225 512.007 512.007c0 282.768-229.239 511.993-512.007 511.993zM576.67 81.9h-129.355v501.483h129.355v-501.483zM511.993 616.262l-96.689 98.678 96.689 98.734 96.689-98.734z" />
<glyph unicode="&#xe916;" glyph-name="instagram" horiz-adv-x="974" d="M125.525 960h723.314c70.613-1.948 126.421-60.516 124.985-131.143v-761.714c1.436-70.628-54.372-129.195-124.985-131.143h-723.314c-70.798 1.707-126.905 60.331-125.497 131.143v761.714c-1.408 70.812 54.699 129.436 125.497 131.143zM709.504 846.279c-11.904-0.327-23.168-5.362-31.346-14.009-8.164-8.661-12.558-20.196-12.203-32.1v-110.123c-0.356-11.904 4.039-23.452 12.203-32.1 8.178-8.647 19.442-13.696 31.346-14.009h110.137c11.89 0.313 23.168 5.362 31.332 14.009 8.178 8.647 12.558 20.196 12.203 32.1v110.123c0.356 11.904-4.025 23.438-12.203 32.1-8.164 8.647-19.442 13.682-31.332 14.009h-110.137zM863.687 527.147h-85.547c8.277-28.629 12.416-58.311 12.302-88.107 2.005-109.397-55.196-211.356-149.618-266.638-94.421-55.296-211.328-55.296-305.749 0-94.421 55.282-151.623 157.241-149.618 266.638-0.114 29.796 4.025 59.477 12.302 88.107h-89.131v-432.853c-0.555-21.788 16.64-39.893 38.414-40.476h678.229c21.774 0.583 38.955 18.688 38.414 40.476v432.853zM488.206 649.572c-80.981 1.692-154.923-45.796-187.079-120.135-32.171-74.34-16.142-160.74 40.533-218.61 56.676-57.856 142.734-75.676 217.714-45.070 74.994 30.606 124.004 103.552 124.004 184.548 1.024 108.885-86.3 198.030-195.172 199.268z" />
<glyph unicode="&#xe917;" glyph-name="list" d="M1022.549 188.857h-1022.549v-146.076h1022.549zM1022.549 407.979h-1022.549v-146.076h1022.549zM1022.549 627.1h-1022.549v-146.076h1022.549zM1022.549 700.132h-1022.549v146.091h1022.549z" />
<glyph unicode="&#xe918;" glyph-name="location" d="M629.916-60.971c-1.493-3.868-6.926-4.082-8.704-0.327-0.796 1.664-1.508 3.228-2.19 4.807-60.43 142.251-121.003 284.444-180.878 426.923-4.708 11.179-11.904 16.057-22.030 20.011-137.742 53.803-275.413 107.776-413.099 161.721v0c-4.011 1.579-4.011 7.268 0 8.846 338.304 132.935 674.332 264.988 1014.485 398.649 3.854 1.522 7.666-2.276 6.172-6.13-132.011-340.11-262.443-676.167-393.756-1014.5z" />
<glyph unicode="&#xe919;" glyph-name="mail" d="M485.035 449.863l-340.907 334.777c-3.2 3.214-4.11 8.050-2.318 12.217 1.806 4.167 5.959 6.812 10.496 6.684h717.596c4.537 0.128 8.704-2.517 10.496-6.684 1.806-4.167 0.896-9.003-2.318-12.217l-340.907-334.777c-14.635-13.824-37.504-13.824-52.139 0zM988.999 791.794l-451.826-443.136c-14.635-13.81-37.504-13.81-52.139 0l-451.812 443.136c-20.565-12.956-33.095-35.499-33.223-59.804v-572.444c0.484-39.922 33.166-71.922 73.088-71.552h876.046c39.922-0.37 72.604 31.63 73.088 71.552v572.444c-0.128 24.306-12.658 46.848-33.223 59.804z" />
<glyph unicode="&#xe91a;" glyph-name="minus" horiz-adv-x="1025" d="M1025.494 374.749h-1025.494v146.501h1025.494z" />
<glyph unicode="&#xe91b;" glyph-name="nav" d="M1024 755.194h-1024v204.806h1024v-204.806zM1024 345.597v204.806h-1024v-204.806h1024zM1024-64v204.791h-1024v-204.791h1024z" />
<glyph unicode="&#xe91c;" glyph-name="new-window" d="M0-64h950.847v598.117l-111.973-75.703v-404.756h-733.34v794.469h479.605v111.874h-585.139zM666.198 786.014v173.986l357.802-270.36-357.36-256v172.975c-98.383 5.627-244.276-25.685-291.501-158.358-6.368 68.381 21.882 179.072 72.384 240.956 49.391 60.503 101.816 84.493 218.676 96.801z" />
<glyph unicode="&#xe91d;" glyph-name="padlock" horiz-adv-x="747" d="M373.743 864.281c-101.673-0.399-184.2-82.327-185.354-183.987 0.285-16.027-7.579-31.099-20.885-40.031-13.291-8.946-30.216-10.542-44.96-4.231-18.648 7.949-30.273 26.782-29.048 47.026 1.752 153.187 126.219 276.557 279.42 276.942s278.281-122.373 280.774-275.56c1.482-12.992-2.564-26.013-11.126-35.886-8.576-9.887-20.885-15.713-33.962-16.084-13.291-0.527-26.198 4.502-35.643 13.861-9.445 9.374-14.574 22.238-14.146 35.544-1.097 89.45-66.329 165.182-154.64 179.499-9.958 1.809-20.201 1.994-30.429 2.906zM700.161 587.368h-653.405c-25.757 0.028-46.67-20.785-46.755-46.527v-558.299c0.085-25.757 20.999-46.57 46.755-46.542h653.405c25.757-0.028 46.67 20.785 46.755 46.542v558.299c-0.085 25.742-20.999 46.556-46.755 46.527zM417.165 253.030v-101.859c0-25.742-20.87-46.613-46.613-46.613s-46.613 20.87-46.613 46.613v101.859c-29.361 20.386-42.068 57.468-31.398 91.573 10.684 34.105 42.282 57.326 78.011 57.326 35.743 0 67.341-23.221 78.011-57.326 10.684-34.105-2.037-71.187-31.398-91.573zM186.736 587.368h-93.511v92.955h93.511v-93.026zM653.69 587.368h-93.496v92.955h93.496v-93.026z" />
<glyph unicode="&#xe91e;" glyph-name="payment-card" d="M921.972 408.396h-461.715v-84.797h461.715zM1020.774 490.066v-281.808c0-37.362-30.289-67.637-67.651-67.637h-882.247c-37.362 0-67.651 30.275-67.651 67.637v281.808zM3.226 614.941v72.8c0 37.362 30.289 67.637 67.651 67.637h882.247c37.362 0 67.651-30.275 67.651-67.637v-72.8z" />
<glyph unicode="&#xe91f;" glyph-name="pdf" horiz-adv-x="805" d="M548.568 704.007v180.563l180.563-180.563zM689.956 76.29h-658.416v335.996h658.416zM537.143 960h-464.007v-512h-73.137v-365.712l73.137-73.137v-73.151h731.425v755.528zM194.666 255.272c-6.368-7.208-16.354-10.812-29.987-10.812h-27.936v78.522h27.936c13.405 0 23.334-3.433 29.816-10.3 6.467-6.881 9.701-16.154 9.701-27.85 0-12.493-3.177-22.351-9.53-29.56zM244.055 313.949c-3.291 8.861-8.405 16.496-15.328 22.921-6.923 6.411-15.67 11.439-26.226 15.072-10.57 3.633-23.163 5.456-37.822 5.456h-72.738v-226.22h44.802v78.522h27.936c14.203 0 26.582 1.852 37.138 5.542s19.331 8.832 26.312 15.414c6.995 6.596 12.208 14.488 15.67 23.676 3.476 9.203 5.2 19.36 5.2 30.5 0 10.556-1.638 20.257-4.943 29.118zM420.031 211.837c-2.963-9.602-7.194-17.75-12.693-24.445-5.513-6.695-12.237-11.81-20.186-15.328s-16.924-5.285-26.924-5.285h-37.466v155.177h37.466c10 0 18.975-1.781 26.924-5.356s14.673-8.718 20.186-15.414c5.499-6.71 9.73-14.83 12.693-24.36 2.949-9.545 4.416-20.328 4.416-32.366 0-12.151-1.467-23.035-4.416-32.622zM462.098 289.931c-5.228 13.861-12.636 25.784-22.223 35.771-9.602 10-21.155 17.778-34.674 23.348-13.519 5.556-28.505 8.348-44.973 8.348h-82.439v-226.22h82.439c16.468 0 31.454 2.778 44.973 8.348 13.519 5.556 25.072 13.334 34.674 23.334 9.587 9.986 16.995 21.938 22.223 35.856 5.228 13.904 7.835 29.161 7.835 45.743 0 16.468-2.607 31.625-7.835 45.472zM629.54 357.398v-35.614h-88.066v-64.048h73.764v-35.6h-73.764v-90.958h-44.973v226.22z" />
<glyph unicode="&#xe920;" glyph-name="phone" d="M899.606 38.14c1.111 1.24 1.846 2.856 2.654 4.341 10.629 19.442 9.504 37.701-5.033 54.964-42.994 51.013-85.554 102.4-128.909 153.11-24.648 28.831-57.906 30.46-86.91 6.274-18.216-15.201-36.806-29.999-55.729-44.32-19.355-14.653-37.023-16.139-55.83-1.053-15.173 12.173-29.523 26.783-40.080 43.008-57.315 88.078-113.722 176.763-169.465 265.836-9.721 15.533-16.557 33.446-21.691 51.142-9.793 33.778-2.394 50.118 28.658 67.050 21.288 11.61 43.859 20.942 65.017 32.782 36.475 20.437 45.186 50.032 26.595 87.199-28.557 57.070-57.373 113.996-86.146 170.965-13.254 26.249-31.239 35.119-59.738 28.398-10.327-2.437-21.028-5.74-29.97-11.25-34.080-20.97-68.666-41.422-100.914-65.017-50.493-36.951-72.704-89.29-73.872-151.033-1.154-61.296 11.48-120.255 32.797-177.282 63.546-169.984 159.095-320.238 282.018-453.315 48.95-52.988 101.982-101.102 166.162-135.485 36.258-19.413 74.175-33.143 127.683-34.254 69.344 6.735 130.437 49.383 182.705 107.938z" />
<glyph unicode="&#xe921;" glyph-name="pin" horiz-adv-x="731" d="M365.71 374.855c-121.188 0-219.435 98.247-219.435 219.435s98.247 219.435 219.435 219.435c121.188 0 219.42-98.247 219.42-219.435s-98.233-219.435-219.42-219.435zM365.71 960c-201.984 0-365.71-163.726-365.71-365.71 0-61.326 15.104-119.097 41.785-169.856 68.722-137.316 283.534-466.119 283.534-466.119 17.948-29.753 62.834-29.753 80.782 0 0 0 207.716 319.502 280.32 460.117 28.672 52.181 44.999 112.114 44.999 175.858 0 201.984-163.74 365.71-365.71 365.71z" />
<glyph unicode="&#xe922;" glyph-name="plus" d="M1024 521.137h-438.849v438.863h-146.288v-438.863h-438.863v-146.288h438.863v-438.849h146.288v438.849h438.849z" />
<glyph unicode="&#xe923;" glyph-name="printer" horiz-adv-x="956" d="M682.662 209.079h-409.597v-68.273h409.597zM682.662 72.532h-409.597v-68.259h409.597zM750.935-64h-546.13v341.338h546.13zM887.468 686.935h-819.194c-37.716 0-68.273-30.557-68.273-68.259v-341.338c0-37.702 30.557-68.259 68.273-68.259h68.259v136.532h682.676v-136.532h68.259c37.702 0 68.273 30.557 68.273 68.259v341.338c0 37.702-30.572 68.259-68.273 68.259zM750.935 755.208h-546.13v204.792h546.13z" />
<glyph unicode="&#xe924;" glyph-name="question-circle" d="M532.724 397.787c0-15.946 3.181-31.086 6.376-44.643h-74.147c-5.57 16.738-9.556 37.462-9.556 56.603 0 100.441 109.205 123.554 109.205 201.687 0 31.086-20.724 55.006-62.979 55.006-36.67 0-78.911-15.154-122.762-44.643h-3.181l21.516 81.314c27.906 19.933 72.549 37.462 119.582 37.462 84.495 0 131.541-54.2 131.541-122.762 0-115.595-115.595-125.166-115.595-220.022zM500.040 155.443l-66.174 68.548 66.174 67.771 66.965-67.771zM512 960c-282.775 0-512-229.225-512-511.986 0-282.775 229.225-512 512-512 282.761 0 511.986 229.225 511.986 512 0 282.761-229.225 511.986-511.986 511.986z" />
<glyph unicode="&#xe925;" glyph-name="question" horiz-adv-x="477" d="M274.83 360.107c0-27.904 5.575-54.414 11.164-78.123h-129.749c-9.756 29.284-16.74 65.564-16.74 99.044 0 175.787 191.132 216.235 191.132 352.967 0 54.4-36.267 96.256-110.208 96.256-64.185 0-138.112-26.51-214.855-78.123h-5.575l37.675 142.293c48.825 34.873 126.948 65.579 209.252 65.579 147.883 0 230.187-94.876 230.187-214.855 0-202.283-202.283-219.022-202.283-385.038zM217.628-64l-115.783 119.979 115.783 118.571 117.191-118.571z" />
<glyph unicode="&#xe926;" glyph-name="rss" d="M921.6 960c56.562 0 102.4-45.852 102.4-102.4v-819.2c0-56.548-45.838-102.4-102.4-102.4h-819.2c-56.548 0-102.4 45.852-102.4 102.4v819.2c0 56.548 45.852 102.4 102.4 102.4h819.2zM153.6 811.008v-137.216c319.644-0.427 578.66-259.428 579.072-579.072h137.728c-0.64 395.52-321.266 715.918-716.8 716.288zM153.6 567.808v-137.728c89.003 0.156 174.393-35.115 237.326-98.048 62.919-62.919 98.204-148.324 98.034-237.312h137.728c-0.27 261.163-211.925 472.804-473.088 473.088zM248.832 285.696c-25.259 0.014-49.479-10.012-67.356-27.876-17.849-17.863-27.876-42.098-27.876-67.356 0-52.594 42.638-95.232 95.232-95.232 52.608 0 95.232 42.638 95.232 95.232s-42.624 95.232-95.232 95.232z" />
<glyph unicode="&#xe927;" glyph-name="search" d="M1000.679 71.26l-228.318 228.318c122.597 180.338 87.906 424.335-80.080 563.352-168.001 139.031-414.162 127.463-568.389-26.679-154.227-154.156-165.895-400.331-26.95-568.389 138.946-168.044 382.915-202.848 563.31-80.337l228.318-228.318c30.962-30.948 81.148-30.948 112.11 0v0c30.72 31.033 30.72 81.020 0 112.053zM422.713 255.554c-155.494 0-281.548 126.068-281.548 281.562 0 155.508 126.054 281.562 281.548 281.562 155.508 0 281.562-126.054 281.562-281.562-0.142-155.48-126.083-281.505-281.562-281.761z" />
<glyph unicode="&#xe928;" glyph-name="share" horiz-adv-x="851" d="M664.941 308.357c-50.429 0-96.149-20.083-129.673-52.648l-220.912 152.003c3.135 12.468 4.81 25.522 4.81 38.949 0 24.592-5.568 47.867-15.502 68.68l212.667 146.335c33.982-44.975 87.89-74.048 148.611-74.048 102.819 0 186.186 83.366 186.186 186.186 0 102.834-83.366 186.186-186.186 186.186-102.834 0-186.186-83.352-186.186-186.186 0-11.151 1.031-22.058 2.92-32.679l-234.296-161.222c-25.193 16.633-55.353 26.338-87.789 26.338-88.147 0-159.59-71.443-159.59-159.59 0-88.133 71.443-159.575 159.59-159.575 43.888 0 83.638 17.721 112.496 46.407l217.233-149.484c-6.814-19.353-10.564-40.152-10.564-61.838 0-102.819 83.352-186.171 186.186-186.171 102.819 0 186.186 83.352 186.186 186.171 0 102.834-83.366 186.186-186.186 186.186z" />
<glyph unicode="&#xe929;" glyph-name="signs" horiz-adv-x="1027" d="M577.963-64h-128.199v704.256l-306.204-0.185-143.559 129.678 143.545 127.004 305.749-0.242v63.488h128.313v-426.453h306.873l142.080-129.493-167.097-126.748h-281.5z" />
<glyph unicode="&#xe92a;" glyph-name="snowflake" d="M974.56 404.747c-10.125 17.552-32.566 23.566-50.118 13.427l-145.451-83.968-194.228 112.135 194.228 112.15 145.451-83.982c17.552-10.125 39.994-4.11 50.118 13.427 10.125 17.552 4.125 39.994-13.427 50.118l-108.76 62.796 90.415 52.21c17.552 10.125 23.566 32.566 13.427 50.118-10.125 17.538-32.566 23.552-50.118 13.427l-90.415-52.21v125.591c0 20.264-16.427 36.691-36.691 36.691v0c-20.264 0-36.691-16.427-36.691-36.691v-167.95l-194.228-112.135v224.285l145.451 83.982c17.538 10.125 23.552 32.566 13.427 50.118-10.139 17.538-32.581 23.552-50.118 13.427l-108.76-62.796v104.39c0 20.264-16.427 36.691-36.691 36.691s-36.691-16.427-36.691-36.691v-104.39l-108.76 62.796c-17.552 10.125-39.979 4.11-50.118-13.427-10.125-17.552-4.11-39.994 13.427-50.118l145.451-83.982v-224.285l-194.243 112.135v167.95c0 20.264-16.427 36.691-36.691 36.691v0c-20.264 0-36.691-16.427-36.691-36.691v-125.577l-90.4 52.195c-17.552 10.125-39.994 4.11-50.118-13.427-10.139-17.552-4.125-39.994 13.427-50.118l90.4-52.195-108.76-62.796c-17.538-10.139-23.552-32.566-13.427-50.118 10.139-17.552 32.581-23.566 50.118-13.427l145.451 83.968 194.243-112.15-194.243-112.15-145.451 83.982c-17.538 10.125-39.979 4.11-50.118-13.427v0c-10.125-17.552-4.11-39.994 13.427-50.118l108.76-62.796-90.4-52.195c-17.552-10.125-23.566-32.566-13.427-50.118 10.125-17.552 32.566-23.566 50.118-13.427l90.4 52.195v-125.591c0-20.264 16.427-36.677 36.691-36.677v0c20.264 0 36.691 16.413 36.691 36.677v167.95l194.243 112.15v-224.285l-145.451-83.968c-17.538-10.139-23.552-32.566-13.427-50.118 10.139-17.552 32.566-23.566 50.118-13.427l108.76 62.781v-104.39c0-20.264 16.427-36.691 36.691-36.691s36.691 16.427 36.691 36.691v104.39l108.76-62.781c17.538-10.139 39.979-4.125 50.118 13.427 10.125 17.552 4.11 39.979-13.427 50.118l-145.451 83.968v224.285l194.228-112.135v-167.95c0-20.264 16.427-36.691 36.691-36.691v0c20.264 0 36.691 16.427 36.691 36.691v125.577l90.415-52.195c17.552-10.139 39.994-4.125 50.118 13.427 10.139 17.552 4.125 39.994-13.427 50.118l-90.415 52.195 108.76 62.796c17.552 10.139 23.552 32.566 13.427 50.118z" />
<glyph unicode="&#xe92b;" glyph-name="speech" d="M659.684 632.021c202.425 0 366.507-131.271 366.507-293.205 0-83.442-43.577-158.748-113.522-212.139l40.22-155.122-196.508 84.395c-30.805-6.713-63.218-10.325-96.697-10.325-202.411 0-366.492 131.271-366.492 293.191 0 161.934 164.082 293.205 366.492 293.205zM220.132 327.054c-0.142 3.911-0.242 7.836-0.242 11.762 0 51.655 12.558 101.575 37.305 148.395 23.182 43.847 56.007 82.93 97.55 116.167 82.176 65.735 190.464 101.931 304.939 101.931 21.134 0 42.055-1.237 62.649-3.655-39.41 127.915-183.765 222.791-355.84 222.791-202.411 0-366.492-131.257-366.492-293.191 0-83.442 43.577-158.748 113.508-212.139l-40.206-155.122z" />
<glyph unicode="&#xe92c;" glyph-name="standing-order" d="M1024 228.569h-292.569v-292.569h292.569zM658.278 228.569h-292.569v-292.569h292.569zM1024 594.292h-292.569v-292.569h292.569zM658.278 594.292h-292.569v-292.569h292.569zM292.569 228.569h-292.569v-292.569h292.569zM292.569 594.292h-292.569v-292.569h292.569zM1024 960h-292.569v-292.569h292.569zM658.278 960h-292.569v-292.569h292.569zM292.569 667.431h-292.569v292.569h292.569z" />
<glyph unicode="&#xe92d;" glyph-name="sun" d="M469.339 818.884v98.448c0 23.563 19.092 42.668 42.654 42.668v0c23.577 0 42.668-19.106 42.668-42.668v-98.448c-14.002 1.596-28.235 2.444-42.668 2.444-14.419 0-28.652-0.848-42.654-2.444zM955.411 191.996c-11.788-20.414-37.881-27.401-58.295-15.613l-85.236 49.21c16.906 22.772 31.283 47.542 42.712 73.879l85.193-49.195c20.414-11.774 27.401-37.881 15.627-58.281zM169.409 596.527l-85.193 49.181c-20.414 11.788-27.401 37.881-15.627 58.295 11.788 20.4 37.881 27.387 58.281 15.613l85.251-49.224c-16.906-22.757-31.283-47.528-42.712-73.865zM783.616 62.87c11.788-20.4 4.787-46.493-15.613-58.281-20.414-11.788-46.507-4.787-58.281 15.613l-49.195 85.208c26.337 11.429 51.107 25.791 73.879 42.712zM240.384 833.116c-11.788 20.414-4.802 46.507 15.613 58.281v0c20.414 11.788 46.507 4.802 58.281-15.613l49.195-85.193c-26.337-11.443-51.107-25.805-73.879-42.726zM363.473 105.409l-49.195-85.208c-11.774-20.4-37.867-27.401-58.281-15.613s-27.401 37.881-15.613 58.281l49.21 85.251c22.772-16.921 47.542-31.283 73.879-42.712zM660.527 790.591l49.195 85.193c11.774 20.414 37.867 27.401 58.281 15.613v0c20.4-11.774 27.401-37.867 15.613-58.281l-49.21-85.251c-22.772 16.921-47.542 31.283-73.879 42.726zM554.661 77.102v-98.434c0-23.577-19.092-42.668-42.668-42.668-23.563 0-42.654 19.092-42.654 42.668v98.434c14.002-1.596 28.235-2.444 42.654-2.444 14.434 0 28.666 0.848 42.668 2.444zM212.12 225.594l-85.251-49.21c-20.4-11.788-46.493-4.802-58.281 15.613-11.774 20.4-4.787 46.507 15.627 58.281l85.193 49.195c11.429-26.337 25.805-51.107 42.712-73.879zM939.784 645.708l-85.193-49.181c-11.429 26.337-25.805 51.107-42.712 73.865l85.236 49.224c20.414 11.774 46.507 4.787 58.295-15.613 11.774-20.414 4.787-46.507-15.627-58.295zM141.102 405.324h-98.434c-23.577 0-42.668 19.106-42.668 42.668v0c0 23.563 19.092 42.668 42.668 42.668h98.434c-1.596-14.002-2.444-28.235-2.444-42.668s0.848-28.666 2.444-42.668zM981.332 490.661h-98.434c1.581-14.002 2.43-28.235 2.43-42.668s-0.848-28.666-2.43-42.668h98.434c23.563 0 42.668 19.106 42.668 42.668v0c0 23.563-19.106 42.668-42.668 42.668zM853.341 447.993c0-188.515-152.833-341.333-341.348-341.333-188.5 0-341.333 152.819-341.333 341.333s152.833 341.333 341.333 341.333c188.515 0 341.348-152.819 341.348-341.333z" />
<glyph unicode="&#xe92e;" glyph-name="tick-circle" d="M853.927 600.824l-406.214-412.591c-15.623-15.878-40.974-15.878-56.61 0.014l-221.030 224.624c-5.113 5.198-5.113 13.634 0 18.832l94.63 96.107c5.127 5.198 13.421 5.198 18.534 0l136.243-138.359 321.284 326.326c5.113 5.198 13.421 5.198 18.534 0l94.63-96.121c5.113-5.198 5.113-13.62 0-18.832zM512.007 960c-282.768 0-512.007-229.225-512.007-511.993 0-282.782 229.239-512.007 512.007-512.007s511.993 229.225 511.993 512.007c0 282.768-229.225 511.993-511.993 511.993z" />
<glyph unicode="&#xe92f;" glyph-name="tick" d="M863.445 853.333l9.074-0.313 6.414-4.338 140.26-142.45c7.58-7.708 7.58-20.196 0-27.904l-602.027-611.484c-23.168-23.538-60.743-23.538-83.897 0.014l-327.58 332.9c-7.58 7.708-7.58 20.196 0 27.904l140.245 142.45c7.595 7.708 19.883 7.708 27.477 0l201.899-205.056 476.16 483.627c7.14 4.935 3.172 3.342 11.975 4.651z" />
<glyph unicode="&#xe930;" glyph-name="times" d="M1024 63.989l-383.996 384.011 383.996 383.996-128.004 128.004-383.996-384.011-383.996 384.011-128.004-128.004 383.996-383.996-383.996-384.011 128.004-127.989 383.996 383.996 383.996-383.996z" />
<glyph unicode="&#xe931;" glyph-name="twitter" d="M921.6 960c56.562 0 102.4-45.852 102.4-102.4v-819.2c0-56.548-45.838-102.4-102.4-102.4h-819.2c-56.548 0-102.4 45.852-102.4 102.4v819.2c0 56.548 45.852 102.4 102.4 102.4h819.2zM665.6 704c-73.33 2.005-134.471-55.694-136.704-129.024 0.156-9.998 1.351-19.954 3.584-29.696-108.26 4.608-209.892 53.476-281.088 135.168-12.231-19.499-18.788-42.012-18.944-65.024 0.256-43.989 23.324-84.693 60.928-107.52-21.604 0.398-42.809 5.831-61.952 15.872v-1.536c1.394-63.004 47.403-116.124 109.568-126.464-11.691-3.1-23.737-4.651-35.84-4.608-8.576-0.1-17.138 0.583-25.6 2.048 19.428-53.703 70.386-89.515 127.488-89.6-49.024-36.252-108.487-55.666-169.472-55.296-11.264 0-22.016 0.512-32.768 1.536 63.246-37.988 135.652-57.998 209.408-57.856 100.48-3.499 198.172 33.422 271.204 102.514 73.045 69.092 115.328 164.58 117.404 265.102 0 5.632-0.512 11.264-0.512 16.896 26.468 18.19 49.522 40.889 68.096 67.072-24.917-10.766-51.328-17.664-78.336-20.48 28.103 15.73 49.422 41.244 59.904 71.68-26.98-15.104-56.178-25.813-86.528-31.744-26.51 26.368-62.436 41.116-99.84 40.96z" />
<glyph unicode="&#xe932;" glyph-name="typetalk" d="M934.234 575.207c-22.615 236.53-229.982 405.778-466.67 382.688-207.685-20.264-372.606-195.238-380.697-403.874-8.192-211.377 133.682-394.053 340.127-436.859 15.317-3.187 18.735-7.716 15.403-22.917-11.062-50.363-20.567-101.059-31.427-155.403 37.167 14.668 69.243 30.951 100.799 48.157 122.967 67.036 234.828 148.018 320.887 260.457 73.973 96.674 113.303 205.002 101.578 327.752zM638.846 416.963c-23.61-82.050-80.579-145.466-162.989-150.355-46.715-2.769-84.155 25.326-91.929 71.738-5.336 31.917 0.591 62.579 7.096 93.314 14.206 67.18 28.73 134.274 43.296 201.367 2.106 9.721 4.601 18.663-10.903 17.307-5.466-0.476-13.557-1.428-10.99 8.279 2.25 8.524-1.731 23.696 12.057 22.831 19.845-1.255 21.908 9.663 24.59 24.432 4.673 25.715 11.596 51.013 16.557 76.685 1.918 9.952 6.346 14.264 16.225 15.519 31.787 4.024 63.502 8.581 95.218 13.182 10.182 1.471 12.187-1.486 9.764-11.653-7.413-31.153-13.73-62.565-20.379-93.891-4.99-23.451-4.918-23.465 18.187-23.509 1.961 0 4.11 0.519 5.856-0.101 6.49-2.279 19.744 6.36 17.97-9.144-1.183-10.269 0.937-23.595-18.302-23.278-35.378 0.606-35.436-0.62-42.546-34.427-15.346-72.964-30.821-145.898-45.806-218.934-3.259-15.865-8.091-33.691 8.884-44.811 17.221-11.278 35.306-6.894 51.936 3.058 16.802 10.067 30.417 24.576 36.1 42.676 7.197 22.889 21.086 24.576 40.109 19.716z" />
<glyph unicode="&#xe933;" glyph-name="user" horiz-adv-x="922" d="M921.859-64h-921.859c0 305.447 164.388 445.163 381.034 495.865-106.371 40.404-176.002 143.125-174.135 256.895-6.31 94.7 40.63 185.028 121.749 234.288 81.119 49.274 182.92 49.274 264.039 0 81.119-49.26 128.058-139.588 121.749-234.288 1.867-113.77-67.764-216.491-174.121-256.895 216.633-50.703 381.544-190.475 381.544-495.865z" />
<glyph unicode="&#xe934;" glyph-name="warning" d="M515.755 77.312l-67.385 68.992 67.385 68.196 66.574-68.196zM561.479 674.162h2.404l-12.032-397.895h-70.599l-11.236 327.296zM1026.56 22.443l-476.772 882.304c-14.194 26.268-54.699 26.268-68.892 0l-476.772-882.304c-12.8-23.68 5.817-51.556 34.432-51.556h953.572c28.615 0 47.232 27.876 34.432 51.556z" />
<glyph unicode="&#xe935;" glyph-name="wheelie-bin" d="M232.333 836.644h563.979c0-21.244 0.764-41.739-0.159-62.161-1.803-40.152-3.779-80.348-7.327-120.37-1.168-13.326-7.211-26.249-11.264-39.287-4.745-15.273-13.586-30.359-14.048-45.719-3.404-116.837-5.264-233.717-7.456-350.583-0.721-37.931-8.971-46.931-45.777-48.69-90.314-4.312-150.744-94.9-121.928-182.748 17.062-52.022 16.961-52.21-37.585-52.238-77.319-0.043-154.638-0.13-231.958 0.043-29.71 0.058-40.123 10.283-40.672 39.099-3.606 185.993-7.197 371.986-10.687 557.965-0.808 42.893-0.288 43.224 42.171 43.21 117.558 0 235.102 0 352.66 0 5.654 0.014 12.173-1.63 16.745 0.62 5.755 2.856 9.908 8.928 14.754 13.615-5.149 5.019-9.634 11.149-15.663 14.668-3.75 2.207-9.822 0.505-14.841 0.505-122.577 0.014-245.169-0.014-367.746 0.029-42.215 0.014-53.205 11.134-55.036 53.133-2.336 53.969-5.423 107.895-8.134 161.85-0.245 4.918-0.029 9.879-0.029 17.062zM904.149 871.878c-7.774 0-14.596 0-21.417 0-245.774 0-491.549-0.058-737.323 0.245-8.466 0.014-21.619-6.057-22.658 11.149-0.851 13.846 1.312 24.475 17.927 27.677 129.471 25.052 259.101 51.734 391.586 48.835 120.096-2.625 238.231-24.98 355.746-48.993 18.908-3.865 20.855-9.375 16.139-38.912zM712.387-67.303c-51.416 0.173-92.968 43.7-93.602 98.073-0.649 54.301 42.244 99.689 94.222 99.746 52.094 0.043 94.468-44.522 94.511-99.415 0.043-54.82-42.258-98.592-95.131-98.405zM127.091 837.048c25.643 0 45.546 0.519 65.377-0.519 3.173-0.173 8.264-7.11 8.61-11.235 2.856-34.34 4.658-68.767 7.11-103.136 0.894-12.548-4.673-15.547-15.879-12.692-19.442 4.947-35.797 15.706-41.854 34.455-9.317 28.888-14.999 58.945-23.365 93.126zM903.081 837.452c-7.341-32.696-12.201-61.079-20.35-88.482-6.014-20.249-21.576-33.46-42.546-38.999-12.721-3.36-18.836 0.187-17.624 14.884 2.697 32.508 4.759 65.074 6.057 97.669 0.447 11.552 4.875 15.36 15.85 15.057 17.985-0.505 35.984-0.13 58.613-0.13z" />
<glyph unicode="&#xe936;" glyph-name="youtube" horiz-adv-x="870" d="M162.304 960h59.904l38.912-154.112h3.584l36.864 154.112h60.416l-69.12-225.792v-160.256h-59.392v153.088zM359.424 793.6c-0.782 19.755 6.841 38.926 20.992 52.736 15.858 13.71 36.423 20.693 57.344 19.456 19.954 1.052 39.424-6.343 53.646-20.366 14.222-14.037 21.888-33.394 21.106-53.362v-146.944c2.034-21.063-5.348-41.941-20.167-57.045-14.805-15.104-35.527-22.898-56.633-21.291-20.779-0.953-41.017 6.855-55.808 21.504-14.251 15.787-21.618 36.608-20.48 57.856v147.456zM413.696 640.512c-0.341-6.457 1.664-12.828 5.632-17.92 4.153-4.252 9.941-6.5 15.872-6.144 6.386-0.256 12.615 1.948 17.408 6.144 4.21 5.006 6.4 11.392 6.144 17.92v155.136c0.213 5.86-2.233 11.506-6.656 15.36-4.736 3.897-10.752 5.902-16.896 5.632-5.632 0.1-11.108-1.906-15.36-5.632-4.068-4.053-6.3-9.614-6.144-15.36v-155.136zM708.096 858.624v-284.672h-52.736v31.744c-8.476-10.524-18.688-19.527-30.208-26.624-9.259-5.703-19.84-8.889-30.72-9.216-10.795-0.782-21.248 4.053-27.648 12.8-6.955 11.548-10.169 24.96-9.216 38.4v237.568h52.736v-218.112c-0.356-5.134 0.711-10.283 3.072-14.848 2.887-2.773 6.77-4.252 10.752-4.096 5.404 0.356 10.581 2.304 14.848 5.632 6.187 4.295 11.705 9.472 16.384 15.36v216.064h52.736zM517.632 90.624c3.968-2.034 8.348-3.086 12.8-3.072 5.348-0.37 10.524 1.934 13.824 6.144 3.669 5.788 5.291 12.644 4.608 19.456v142.848c0.683 7.765-1.294 15.531-5.632 22.016-4.011 4.85-10.084 7.509-16.384 7.168-3.868-0.171-7.694-1.038-11.264-2.56-3.94-2.418-7.552-5.348-10.752-8.704v-173.568c3.712-3.911 8.036-7.196 12.8-9.728zM738.816 276.48c-4.665 4.907-11.136 7.694-17.92 7.694-6.77 0-13.241-2.788-17.92-7.694-4.309-7.808-6.272-16.697-5.632-25.6v-24.576h47.104v24.576c0.64 8.903-1.308 17.792-5.632 25.6zM864.768 393.216c-0.441 69.12-56.818 124.814-125.952 124.416q-148.48 6.144-303.616 5.632c-103.424 0.512-204.288-1.536-303.616-5.632-68.949 0.199-125.070-55.452-125.44-124.416-4.096-54.784-6.144-109.056-6.144-163.328s2.048-109.056 6.144-163.84c0.37-68.964 56.491-124.615 125.44-124.416 99.328-4.096 200.192-5.632 303.616-5.632s204.8 1.536 303.616 5.632c69.134-0.398 125.511 55.296 125.952 124.416 4.096 54.784 6.144 109.056 5.632 163.84 0.512 54.272-1.536 108.544-5.632 163.328zM188.416 46.592v-4.096h-59.392v329.728h-61.44v59.904h182.272v-59.904h-61.44v-325.632zM399.872 327.168v-284.672h-52.736v31.232c-8.348-10.638-18.588-19.669-30.208-26.624-9.259-5.703-19.84-8.889-30.72-9.216-10.752-0.54-21.092 4.238-27.648 12.8-6.884 11.577-10.098 24.96-9.216 38.4v242.176h52.736v-218.624c-0.498-5.049 0.768-10.112 3.584-14.336 2.546-3.3 6.613-5.049 10.752-4.608 5.276 0.612 10.268 2.745 14.336 6.144 6.4 3.812 11.961 8.86 16.384 14.848v216.576h52.736v-4.096zM603.136 259.072v-157.696c1.109-16.455-3.2-32.825-12.288-46.592-8.505-11.036-21.916-17.166-35.84-16.384-9.6 0.028-19.072 2.304-27.648 6.656-8.775 4.636-16.455 11.093-22.528 18.944v-21.504h-53.248v389.632h53.248v-123.904c6.187 7.879 13.838 14.478 22.528 19.456 7.438 4.48 15.9 6.94 24.576 7.168 15.104 0.754 29.554-6.187 38.4-18.432 9.643-16.014 14.108-34.603 12.8-53.248v-4.096zM798.72 250.368v-72.704h-101.376v-49.152c-0.853-10.724 1.081-21.49 5.632-31.232 3.527-6.13 10.382-9.557 17.408-8.704 6.969-0.868 13.895 1.82 18.432 7.168 4.75 10.226 6.699 21.532 5.632 32.768v19.456h54.272v-25.6c1.764-23.566-5.362-46.948-19.968-65.536-15.559-15.815-37.248-24.050-59.392-22.528-21.163-0.782-41.6 7.836-55.808 23.552-14.322 18.361-21.589 41.244-20.48 64.512v132.096c-0.825 22.329 7.282 44.075 22.528 60.416 15.132 15.616 36.124 24.164 57.856 23.552 20.949 1.308 41.401-6.756 55.808-22.016 13.98-17.508 20.921-39.595 19.456-61.952v-4.096z" />
</font>
</defs>
</svg>
