<?xml version="1.0" standalone="no"?>
<!DOCTYPE svg PUBLIC "-//W3C//DTD SVG 1.1//EN" "http://www.w3.org/Graphics/SVG/1.1/DTD/svg11.dtd" >
<svg xmlns="http://www.w3.org/2000/svg" xmlns:xlink="http://www.w3.org/1999/xlink" version="1.1">
<metadata>
Created by FontForge 20161013 at Thu Oct  8 23:25:51 2009
 By ,,,
Copyright (c) 2009 by Jeremy Tankard. All rights reserved.
</metadata>
<defs>
<font id="Wayfarer-Regular" horiz-adv-x="477" >
  <font-face 
    font-family="Wayfarer Regular"
    font-weight="400"
    font-stretch="normal"
    units-per-em="1000"
    panose-1="2 0 0 0 0 0 0 0 0 0"
    ascent="759"
    descent="-241"
    x-height="492"
    cap-height="714"
    bbox="-150 -275 1137 1024"
    underline-thickness="46"
    underline-position="-192"
    unicode-range="U+000D-FB04"
  />
<missing-glyph horiz-adv-x="584" 
d="M310 269h-53q-9 25 -9 47q0 28 15 52.5t32.5 39.5t32.5 36.5t15 45.5q0 23 -14.5 37t-41.5 14q-47 0 -102 -37h-2l16 60q41 31 97 31q50 0 79 -28.5t29 -72.5q0 -34 -15.5 -60t-33.5 -40t-33.5 -37t-15.5 -51q0 -15 4 -37zM233 156l50 52l50 -52l-50 -52zM68 0v714h448
v-714h-448zM126 58h332v598h-332v-598z" />
    <glyph glyph-name="f_f" unicode="ff" horiz-adv-x="558" 
d="M96 0v423h-74v69h74v80q0 66 33.5 109t99.5 43q36 0 72 -17l14 -74h-3q-40 21 -71 21q-69 0 -69 -87v-75h185v76q0 68 35 112t100 44q39 0 75 -17l14 -73h-3q-42 20 -73 20q-72 0 -72 -88v-74h96v-69h-96v-423h-76v423h-185v-423h-76z" />
    <glyph glyph-name="fi" unicode="fi" horiz-adv-x="493" 
d="M96 0v423h-74v69h74v47q0 88 50.5 136.5t136.5 48.5q55 0 102 -17l15 -74h-4q-55 21 -102 21q-122 0 -122 -119v-43h261v-492h-76v423h-185v-423h-76z" />
    <glyph glyph-name="fl" unicode="fl" horiz-adv-x="502" 
d="M96 0v423h-74v69h74v47q0 89 47.5 137t129.5 48q59 0 113 -26l44 36h3v-734h-76v635q-40 19 -79 19q-106 0 -106 -119v-43h96v-69h-96v-423h-76z" />
    <glyph glyph-name="f_f_i" unicode="ffi" horiz-adv-x="754" 
d="M96 0v423h-74v69h74v80q0 66 33.5 109t99.5 43q36 0 72 -17l14 -74h-3q-40 21 -71 21q-69 0 -69 -87v-75h185v47q0 88 50.5 136.5t136.5 48.5q55 0 102 -17l15 -74h-4q-55 21 -102 21q-122 0 -122 -119v-43h261v-492h-76v423h-185v-423h-76v423h-185v-423h-76z" />
    <glyph glyph-name="f_f_l" unicode="ffl" horiz-adv-x="763" 
d="M96 0v423h-74v69h74v80q0 66 33.5 109t99.5 43q36 0 72 -17l14 -74h-3q-40 21 -71 21q-69 0 -69 -87v-75h185v47q0 89 47.5 137t129.5 48q59 0 113 -26l44 36h3v-734h-76v635q-40 19 -79 19q-106 0 -106 -119v-43h96v-69h-96v-423h-76v423h-185v-423h-76z" />
    <glyph glyph-name="f_b" unicode="fb" horiz-adv-x="769" 
d="M96 0v423h-74v69h74v47q0 89 47.5 137t129.5 48q59 0 113 -26l44 36h3v-284h2q60 52 121 52q78 0 125 -65.5t47 -180.5q0 -117 -58.5 -191.5t-166.5 -74.5q-87 0 -146 38v607q-40 19 -79 19q-106 0 -106 -119v-43h96v-69h-96v-423h-76zM433 74q29 -13 70 -13
q75 0 110.5 53t35.5 146q0 78 -27.5 124.5t-78.5 46.5q-56 0 -110 -58v-299z" />
    <glyph glyph-name="f_f_b" unicode="ffb" horiz-adv-x="1030" 
d="M96 0v423h-74v69h74v80q0 66 33.5 109t99.5 43q36 0 72 -17l14 -74h-3q-40 21 -71 21q-69 0 -69 -87v-75h185v47q0 89 47.5 137t129.5 48q59 0 113 -26l44 36h3v-284h2q60 52 121 52q78 0 125 -65.5t47 -180.5q0 -117 -58.5 -191.5t-166.5 -74.5q-87 0 -146 38v607
q-40 19 -79 19q-106 0 -106 -119v-43h96v-69h-96v-423h-76v423h-185v-423h-76zM694 74q29 -13 70 -13q75 0 110.5 53t35.5 146q0 78 -27.5 124.5t-78.5 46.5q-56 0 -110 -58v-299z" />
    <glyph glyph-name="f_h" unicode="fh" horiz-adv-x="790" 
d="M96 0v423h-74v69h74v47q0 89 47.5 137t129.5 48q59 0 113 -26l44 36h3v-309h2q44 38 81 57.5t80 19.5q63 0 98.5 -38.5t35.5 -105.5v-358h-77v346q0 84 -72 84q-58 0 -148 -80v-350h-76v635q-40 19 -79 19q-106 0 -106 -119v-43h96v-69h-96v-423h-76z" />
    <glyph glyph-name="f_f_h" unicode="ffh" horiz-adv-x="1051" 
d="M96 0v423h-74v69h74v80q0 66 33.5 109t99.5 43q36 0 72 -17l14 -74h-3q-40 21 -71 21q-69 0 -69 -87v-75h185v47q0 89 47.5 137t129.5 48q59 0 113 -26l44 36h3v-309h2q44 38 81 57.5t80 19.5q63 0 98.5 -38.5t35.5 -105.5v-358h-77v346q0 84 -72 84q-58 0 -148 -80v-350
h-76v635q-40 19 -79 19q-106 0 -106 -119v-43h96v-69h-96v-423h-76v423h-185v-423h-76z" />
    <glyph glyph-name="f_dotlessi" unicode="f&#x131;" horiz-adv-x="493" 
d="M96 0v423h-74v69h74v47q0 88 50.5 136.5t136.5 48.5q55 0 102 -17l15 -74h-4q-55 21 -102 21q-122 0 -122 -119v-43h261v-492h-76v423h-185v-423h-76z" />
    <glyph glyph-name="f_f_dotlessi" unicode="ff&#x131;" horiz-adv-x="754" 
d="M96 0v423h-74v69h74v80q0 66 33.5 109t99.5 43q36 0 72 -17l14 -74h-3q-40 21 -71 21q-69 0 -69 -87v-75h185v47q0 88 50.5 136.5t136.5 48.5q55 0 102 -17l15 -74h-4q-55 21 -102 21q-122 0 -122 -119v-43h261v-492h-76v423h-185v-423h-76v423h-185v-423h-76z" />
    <glyph glyph-name="f_j" unicode="fj" horiz-adv-x="493" 
d="M96 0v423h-74v69h74v47q0 88 50.5 136.5t136.5 48.5q55 0 102 -17l15 -74h-4q-55 21 -102 21q-122 0 -122 -119v-43h261v-594q0 -64 -38.5 -101.5t-109.5 -37.5q-43 0 -76 13l13 69q27 -12 57 -12q78 0 78 79v515h-185v-423h-76z" />
    <glyph glyph-name="f_f_j" unicode="ffj" horiz-adv-x="754" 
d="M96 0v423h-74v69h74v80q0 66 33.5 109t99.5 43q36 0 72 -17l14 -74h-3q-40 21 -71 21q-69 0 -69 -87v-75h185v47q0 88 50.5 136.5t136.5 48.5q55 0 102 -17l15 -74h-4q-55 21 -102 21q-122 0 -122 -119v-43h261v-594q0 -64 -38.5 -101.5t-109.5 -37.5q-44 0 -76 13l13 69
q27 -12 57 -12q78 0 78 79v515h-185v-423h-76v423h-185v-423h-76z" />
    <glyph glyph-name="f_k" unicode="fk" horiz-adv-x="732" 
d="M96 0v423h-74v69h74v47q0 89 47.5 137t129.5 48q59 0 113 -26l44 36h3v-463h2q21 28 58 73l123 148h98l-182 -208l180 -284h-90l-141 226l-48 -55v-171h-76v635q-40 19 -79 19q-106 0 -106 -119v-43h96v-69h-96v-423h-76z" />
    <glyph glyph-name="f_f_k" unicode="ffk" horiz-adv-x="993" 
d="M96 0v423h-74v69h74v80q0 66 33.5 109t99.5 43q36 0 72 -17l14 -74h-3q-40 21 -71 21q-69 0 -69 -87v-75h185v47q0 89 47.5 137t129.5 48q59 0 113 -26l44 36h3v-463h2q21 28 58 73l123 148h98l-182 -208l180 -284h-90l-141 226l-48 -55v-171h-76v635q-40 19 -79 19
q-106 0 -106 -119v-43h96v-69h-96v-423h-76v423h-185v-423h-76z" />
    <glyph glyph-name="f_kcommaaccent" unicode="f&#x137;" horiz-adv-x="732" 
d="M96 0v423h-74v69h74v47q0 89 47.5 137t129.5 48q59 0 113 -26l44 36h3v-463h2q21 28 58 73l123 148h98l-182 -208l180 -284h-90l-141 226l-48 -55v-171h-76v635q-40 19 -79 19q-106 0 -106 -119v-43h96v-69h-96v-423h-76zM465 -87l52 50q66 -35 66 -90q0 -60 -85 -114
l-30 28q44 33 44 64q0 34 -47 62z" />
    <glyph glyph-name="f_f_kcommaaccent" unicode="ff&#x137;" horiz-adv-x="993" 
d="M96 0v423h-74v69h74v80q0 66 33.5 109t99.5 43q36 0 72 -17l14 -74h-3q-40 21 -71 21q-69 0 -69 -87v-75h185v47q0 89 47.5 137t129.5 48q59 0 113 -26l44 36h3v-463h2q21 28 58 73l123 148h98l-182 -208l180 -284h-90l-141 226l-48 -55v-171h-76v635q-40 19 -79 19
q-106 0 -106 -119v-43h96v-69h-96v-423h-76v423h-185v-423h-76zM726 -87l52 50q66 -35 66 -90q0 -60 -85 -114l-30 28q44 33 44 64q0 34 -47 62z" />
    <glyph glyph-name="f_thorn" unicode="f&#xfe;" horiz-adv-x="774" 
d="M96 0v423h-74v69h74v47q0 89 47.5 137t129.5 48q59 0 113 -26l44 36h3v-297h2q60 65 124 65q76 0 125 -66.5t49 -183.5q0 -119 -50 -190.5t-127 -71.5q-64 0 -121 51h-2v-272h-76v866q-40 19 -79 19q-106 0 -106 -119v-43h96v-69h-96v-423h-76zM433 119q56 -58 108 -58
q59 0 85.5 56t26.5 130q0 76 -25.5 130t-81.5 54q-55 0 -113 -69v-243z" />
    <glyph glyph-name=".notdef" horiz-adv-x="584" 
d="M310 269h-53q-9 25 -9 47q0 28 15 52.5t32.5 39.5t32.5 36.5t15 45.5q0 23 -14.5 37t-41.5 14q-47 0 -102 -37h-2l16 60q41 31 97 31q50 0 79 -28.5t29 -72.5q0 -34 -15.5 -60t-33.5 -40t-33.5 -37t-15.5 -51q0 -15 4 -37zM233 156l50 52l50 -52l-50 -52zM68 0v714h448
v-714h-448zM126 58h332v598h-332v-598z" />
    <glyph glyph-name=".null" horiz-adv-x="500" 
 />
    <glyph glyph-name=".null" horiz-adv-x="500" 
 />
    <glyph glyph-name="nonmarkingreturn" horiz-adv-x="333" 
 />
    <glyph glyph-name="CR" unicode="&#xd;" horiz-adv-x="190" 
 />
    <glyph glyph-name="space" unicode=" " horiz-adv-x="190" 
 />
    <glyph glyph-name="space" unicode="&#xa0;" horiz-adv-x="190" 
 />
    <glyph glyph-name="exclam" unicode="!" horiz-adv-x="277" 
d="M139 -10l-68 69l68 70l67 -70zM106 240l-12 425l87 69h3l-12 -494h-66z" />
    <glyph glyph-name="quotedbl" unicode="&#x22;" horiz-adv-x="384" 
d="M74 481v194l77 59h4v-253h-81zM229 481v194l78 59h3v-253h-81z" />
    <glyph glyph-name="numbersign" unicode="#" horiz-adv-x="509" 
d="M170 220l-57 -230l-64 16l53 214h-82v62h97l37 150h-113v62h129l57 230l64 -16l-53 -214h101l57 230l64 -16l-53 -214h82v-62h-97l-38 -150h114v-62h-130l-56 -230l-64 16l53 214h-101zM223 432l-38 -150h101l37 150h-100z" />
    <glyph glyph-name="dollar" unicode="$" 
d="M345 787l-22 -115q56 -23 94 -78l-61 -43q-23 32 -48 47l-38 -195q36 -19 58.5 -34.5t48.5 -39t38.5 -54t12.5 -67.5q0 -83 -59.5 -132t-147.5 -49q-16 0 -24 1l-21 -108l-48 7l21 109q-71 21 -114 87l59 45q25 -41 70 -59l46 238q-34 17 -55.5 30.5t-46 35.5t-36.5 50.5
t-12 64.5q0 77 52.5 118.5t124.5 41.5q21 0 39 -3l22 109zM348 207q0 39 -24 65.5t-69 51.5l-44 -224h11q56 1 91 28.5t35 78.5zM141 532q0 -35 21 -58t64 -47l36 186q-6 1 -21 1q-45 0 -72.5 -22.5t-27.5 -59.5z" />
    <glyph glyph-name="percent" unicode="%" horiz-adv-x="811" 
d="M218 -10l-53 33l427 701l53 -33zM199 362q-72 0 -114.5 50.5t-42.5 130.5t42.5 130.5t114.5 50.5t114 -50.5t42 -130.5t-42 -130.5t-114 -50.5zM199 420q41 0 64 35t23 88t-23 88t-64 35t-64 -35t-23 -88t23 -88t64 -35zM612 -10q-72 0 -114.5 50.5t-42.5 130.5
t42.5 130.5t114.5 50.5t114 -50.5t42 -130.5t-42 -130.5t-114 -50.5zM612 48q41 0 63.5 34.5t22.5 88.5t-22.5 88.5t-63.5 34.5q-42 0 -64.5 -34.5t-22.5 -88.5t22.5 -88.5t64.5 -34.5z" />
    <glyph glyph-name="ampersand" unicode="&#x26;" horiz-adv-x="591" 
d="M304 363v-2q70 -72 120 -134h2q34 50 86 139l63 -37q-59 -102 -102 -162q53 -71 103 -167h-90q-21 45 -61 104h-2q-53 -62 -100 -88t-99 -26q-83 0 -129.5 55t-46.5 130q0 69 37 122t97 83v2q-23 25 -38 45.5t-29 55t-14 70.5q0 79 49.5 125t117.5 46q71 0 117.5 -47
t46.5 -117q0 -125 -128 -197zM228 62q73 0 153 102q-64 81 -149 168q-105 -46 -105 -151q0 -55 29 -87t72 -32zM180 553q0 -38 17 -68.5t57 -72.5q98 48 98 142q0 44 -22.5 70.5t-62.5 26.5t-63.5 -26.5t-23.5 -71.5z" />
    <glyph glyph-name="quotesingle" unicode="'" horiz-adv-x="229" 
d="M74 481v194l77 59h4v-253h-81z" />
    <glyph glyph-name="parenleft" unicode="(" horiz-adv-x="287" 
d="M55 285q0 211 165 439l38 -29q-59 -89 -93 -185.5t-34 -224.5t34 -224.5t93 -185.5l-38 -29q-165 226 -165 439z" />
    <glyph glyph-name="parenright" unicode=")" horiz-adv-x="287" 
d="M232 285q0 -215 -166 -439l-38 29q59 89 93.5 185.5t34.5 224.5t-34.5 224.5t-93.5 185.5l38 29q166 -226 166 -439z" />
    <glyph glyph-name="asterisk" unicode="*" horiz-adv-x="415" 
d="M185 545v2q-14 9 -53.5 18.5t-53.5 17.5q-27 16 -27 38q0 12 9 20.5t22 8.5q12 0 29 -9q15 -9 43 -38t41 -37l2 2q0 16 -11.5 54.5t-11.5 55.5q0 21 9 33.5t25 12.5q15 0 24 -13t9 -33q0 -17 -11.5 -55.5t-11.5 -54.5l2 -2q14 8 41.5 37t42.5 38q16 9 30 9
q13 0 21.5 -8.5t8.5 -20.5q0 -22 -26 -38q-14 -8 -53.5 -17.5t-53.5 -18.5v-2q13 -8 52.5 -17t54.5 -18q26 -16 26 -38q0 -13 -8.5 -21t-21.5 -8q-14 0 -30 9q-15 9 -42.5 38t-41.5 37l-2 -2q0 -16 11.5 -55t11.5 -56q0 -20 -9 -32.5t-24 -12.5q-16 0 -25 12.5t-9 32.5
q0 17 11.5 56t11.5 55l-2 2q-13 -8 -41 -37t-43 -38q-16 -9 -29 -9q-14 0 -22.5 8t-8.5 21q0 22 27 38q14 9 53.5 18t53.5 17z" />
    <glyph glyph-name="plus" unicode="+" horiz-adv-x="412" 
d="M172 437h68v-151h151v-68h-151v-151h-68v151h-151v68h151v151z" />
    <glyph glyph-name="comma" unicode="," horiz-adv-x="268" 
d="M67 65l60 64q78 -64 78 -142q0 -93 -92 -179l-37 34q56 61 56 118q0 53 -65 105z" />
    <glyph glyph-name="hyphen" unicode="-" horiz-adv-x="287" 
d="M35 218v68h217v-68h-217z" />
    <glyph glyph-name="period" unicode="." horiz-adv-x="268" 
d="M201 59l-67 -69l-68 69l68 70z" />
    <glyph glyph-name="slash" unicode="/" horiz-adv-x="289" 
d="M291 707l-207 -860l-73 17l208 860z" />
    <glyph glyph-name="zero" unicode="0" horiz-adv-x="482" 
d="M241 -10q-193 0 -193 367t193 367q192 0 192 -367t-192 -367zM241 65q57 0 82.5 71.5t25.5 220.5t-25.5 220.5t-82.5 71.5t-83 -72t-26 -220t26 -220t83 -72z" />
    <glyph glyph-name="one" unicode="1" horiz-adv-x="425" 
d="M197 611l-162 -65v80l221 93h21v-646h139v-73h-379v73h160v538z" />
    <glyph glyph-name="two" unicode="2" horiz-adv-x="469" 
d="M229 650q-43 0 -70.5 -32t-27.5 -103q0 -18 1 -28h-78q-2 16 -2 34q0 100 51.5 151.5t126.5 51.5q84 0 128.5 -53.5t44.5 -142.5q0 -92 -57.5 -197t-179.5 -256v-2h254v-73h-368v47q143 179 205 282.5t62 196.5q0 62 -24.5 93t-65.5 31z" />
    <glyph glyph-name="three" unicode="3" horiz-adv-x="470" 
d="M230 -10q-82 0 -129.5 50.5t-47.5 148.5q0 18 2 36h77q-1 -10 -1 -29q0 -133 99 -133q47 0 78 37t31 105q0 70 -38.5 112t-110.5 42q-23 0 -42 -4v26l160 258v2h-244v73h310l29 -63l-146 -234v-2q75 -9 120.5 -66.5t45.5 -141.5q0 -96 -53.5 -156.5t-139.5 -60.5z" />
    <glyph glyph-name="four" unicode="4" 
d="M209 438l-86 -145v-2h143v133q0 76 3 119h-2q-17 -36 -58 -105zM18 218v34l285 467h44v-428h105l-28 -73h-77v-218h-81v218h-248z" />
    <glyph glyph-name="five" unicode="5" horiz-adv-x="475" 
d="M428 214q0 -101 -53.5 -162.5t-141.5 -61.5q-80 0 -127.5 50.5t-47.5 148.5q0 20 2 36h77q-1 -10 -1 -29q0 -133 99 -133q48 0 78.5 38.5t30.5 111.5q0 71 -32.5 111t-94.5 40q-48 0 -91 -20l-47 32l42 338h309l-27 -73h-214l-27 -218l2 -1q33 15 71 15q91 0 142 -64.5
t51 -158.5z" />
    <glyph glyph-name="six" unicode="6" 
d="M159 402l2 -2q34 18 79 18q89 0 139 -59.5t50 -149.5q0 -99 -51.5 -159t-132.5 -60q-91 0 -143.5 69.5t-52.5 194.5q0 147 77.5 268t219.5 202l38 -63q-174 -108 -225 -259zM133 255q0 -91 29 -141.5t80 -50.5q43 0 73 37t30 109q0 62 -31.5 98.5t-88.5 36.5
q-49 0 -87 -20q-5 -40 -5 -69z" />
    <glyph glyph-name="seven" unicode="7" horiz-adv-x="413" 
d="M379 714l30 -63q-218 -273 -221 -651h-83q6 205 64 366t141 273v2h-297v73h366z" />
    <glyph glyph-name="eight" unicode="8" 
d="M240 -10q-85 0 -139 54.5t-54 142.5q0 64 29.5 111t86.5 67v2q-41 16 -72 57t-31 111q0 82 48 135.5t132 53.5t131.5 -53.5t47.5 -135.5q0 -70 -30.5 -111t-71.5 -57v-2q57 -20 86 -67t29 -111q0 -89 -53.5 -143t-138.5 -54zM240 63q44 0 76 33.5t32 96.5q0 61 -30.5 95
t-77.5 41q-48 -7 -78.5 -41t-30.5 -95q0 -63 32 -96.5t77 -33.5zM240 399q95 19 95 133q0 55 -27 87t-68 32q-42 0 -69 -32t-27 -87q0 -114 96 -133z" />
    <glyph glyph-name="nine" unicode="9" 
d="M319 312l-2 2q-34 -18 -79 -18q-89 0 -139 59.5t-50 148.5q0 99 51.5 159.5t132.5 60.5q90 0 143 -69.5t53 -194.5q0 -147 -78 -267.5t-219 -202.5l-38 63q173 107 225 259zM345 459q0 91 -29 141.5t-80 50.5q-43 0 -73 -37t-30 -109q0 -62 31.5 -99t88.5 -37q46 0 86 21
q6 36 6 69z" />
    <glyph glyph-name="colon" unicode=":" horiz-adv-x="268" 
d="M201 59l-67 -69l-68 69l68 70zM201 365l-67 -69l-68 69l68 70z" />
    <glyph glyph-name="semicolon" unicode=";" horiz-adv-x="268" 
d="M134 296l-68 69l68 70l67 -70zM67 65l60 64q78 -64 78 -142q0 -93 -92 -179l-37 34q56 61 56 118q0 53 -65 105z" />
    <glyph glyph-name="less" unicode="&#x3c;" horiz-adv-x="412" 
d="M26 234v34l325 184l34 -62l-248 -138v-2l248 -138l-34 -62z" />
    <glyph glyph-name="equal" unicode="=" horiz-adv-x="412" 
d="M21 139v68h370v-68h-370zM21 297v67h370v-67h-370z" />
    <glyph glyph-name="greater" unicode="&#x3e;" horiz-adv-x="412" 
d="M386 268v-34l-325 -184l-34 62l248 138v2l-248 138l34 62z" />
    <glyph glyph-name="question" unicode="?" horiz-adv-x="424" 
d="M226 240h-70q-11 38 -11 68q0 35 14.5 65t35.5 51.5t42 42t35.5 47t14.5 57.5q0 36 -22.5 59t-64.5 23q-74 0 -149 -56h-4l23 81q23 19 61.5 32.5t78.5 13.5q74 0 115.5 -41.5t41.5 -106.5q0 -42 -15 -74.5t-37 -53.5t-44 -41.5t-37 -48.5t-15 -64q0 -19 7 -54zM192 -10
l-68 69l68 70l67 -70z" />
    <glyph glyph-name="at" unicode="@" horiz-adv-x="726" 
d="M379 -170q-68 0 -125 23t-102.5 70t-71.5 128.5t-26 189.5q0 205 89.5 311.5t228.5 106.5q131 0 215.5 -95.5t84.5 -270.5q0 -121 -40 -180.5t-107 -59.5q-66 0 -86 57h-2q-53 -57 -113 -57q-43 0 -70 27.5t-27 72.5q0 119 198 154v25q0 25 -15 39.5t-42 14.5
q-52 0 -118 -42h-3l19 69q53 34 113 34q50 0 81.5 -28.5t31.5 -85.5v-169q0 -50 37 -50q32 0 54 42.5t22 136.5q0 150 -66.5 228t-165.5 78q-110 0 -181 -87.5t-71 -268.5q0 -182 73.5 -267.5t187.5 -85.5q97 0 161 56l37 -46q-79 -70 -201 -70zM336 115q46 0 89 56v77
q-59 -10 -94 -33.5t-35 -56.5q0 -43 40 -43z" />
    <glyph glyph-name="A" unicode="A" horiz-adv-x="555" 
d="M21 0l207 714h99l207 -714h-87l-52 183h-235l-52 -183h-87zM181 256h193l-65 250q-19 76 -29 129h-4q-14 -76 -29 -130z" />
    <glyph glyph-name="B" unicode="B" horiz-adv-x="571" 
d="M385 373v-2q67 -12 97 -61.5t30 -107.5q0 -36 -10.5 -69.5t-34 -64.5t-68.5 -49.5t-106 -18.5h-216v714h186q61 0 106 -16.5t69 -44.5t35 -59.5t11 -66.5q0 -48 -24 -91.5t-75 -62.5zM160 73h133q134 0 134 129q0 21 -5 40t-18 40.5t-42 34t-70 12.5h-132v-256zM160 402
h115q60 0 92 32.5t32 90.5q0 20 -5.5 38t-19 37t-42.5 30t-71 11h-101v-239z" />
    <glyph glyph-name="C" unicode="C" horiz-adv-x="504" 
d="M305 -10q-126 0 -189 99.5t-63 266.5q0 97 25 178t83.5 135.5t141.5 54.5q105 0 164 -89l-61 -46q-41 60 -102 60q-76 0 -121 -79t-45 -214q0 -143 46.5 -217t126.5 -74q64 0 105 61l61 -48q-63 -88 -172 -88z" />
    <glyph glyph-name="D" unicode="D" horiz-adv-x="591" 
d="M77 0v714h156q63 0 115.5 -19.5t96 -60.5t68 -112t24.5 -166q0 -184 -84 -270t-216 -86h-160zM160 73h72q220 0 220 283q0 285 -224 285h-68v-568z" />
    <glyph glyph-name="E" unicode="E" horiz-adv-x="509" 
d="M77 0v714h373v-73h-290v-239h243v-73h-243v-256h315v-73h-398z" />
    <glyph glyph-name="F" unicode="F" 
d="M77 0v714h373v-73h-290v-239h243v-73h-243v-329h-83z" />
    <glyph glyph-name="G" unicode="G" horiz-adv-x="583" 
d="M332 -10q-131 0 -205 93.5t-74 262.5q0 175 74.5 276.5t198.5 101.5q113 0 172 -89l-61 -45q-42 59 -110 59q-79 0 -134 -74.5t-55 -225.5q0 -136 50 -210t149 -74q47 0 85 15v212h-88l-28 73h198v-334q-28 -18 -76 -29.5t-96 -11.5z" />
    <glyph glyph-name="H" unicode="H" horiz-adv-x="626" 
d="M77 0v714h83v-312h306v312h82v-714h-82v329h-306v-329h-83z" />
    <glyph glyph-name="I" unicode="I" horiz-adv-x="237" 
d="M77 0v714h83v-714h-83z" />
    <glyph glyph-name="J" unicode="J" horiz-adv-x="441" 
d="M190 -10q-111 0 -163 86l61 48q36 -59 98 -59q95 0 95 99v550h82v-559q0 -80 -49 -122.5t-124 -42.5z" />
    <glyph glyph-name="K" unicode="K" horiz-adv-x="543" 
d="M202 304l-42 -57v-247h-83v714h83v-217q0 -87 -3 -137h2q3 4 35.5 52t49.5 72l162 230h97l-251 -342l273 -372h-99z" />
    <glyph glyph-name="L" unicode="L" horiz-adv-x="455" 
d="M77 0v714h83v-641h277v-73h-360z" />
    <glyph glyph-name="M" unicode="M" horiz-adv-x="744" 
d="M593 634h-5q-25 -87 -80 -200l-129 -270h-15l-129 270q-51 108 -79 200h-5q9 -108 9 -154v-480h-83v714h114l128 -276q31 -67 52 -120h2q22 56 52 119l129 277h113v-714h-82v480q0 55 8 154z" />
    <glyph glyph-name="N" unicode="N" horiz-adv-x="633" 
d="M555 0h-102l-217 434q-56 113 -82 194h-4q10 -98 10 -231v-397h-83v714h103l218 -435q59 -123 80 -193h5q-10 86 -10 237v391h82v-714z" />
    <glyph glyph-name="O" unicode="O" horiz-adv-x="601" 
d="M301 -10q-112 0 -180 88t-68 279t68 279t180 88q111 0 178.5 -88t67.5 -279t-67.5 -279t-178.5 -88zM301 65q73 0 117.5 69.5t44.5 222.5t-44.5 222.5t-117.5 69.5q-74 0 -118.5 -69.5t-44.5 -222.5t44.5 -222.5t118.5 -69.5z" />
    <glyph glyph-name="P" unicode="P" horiz-adv-x="522" 
d="M77 0v714h177q51 0 91.5 -13.5t65.5 -35t41 -50.5t22.5 -57t6.5 -57q0 -37 -11 -71.5t-35 -67.5t-70 -53t-108 -20h-97v-289h-83zM160 362h95q45 0 75.5 15t44 39.5t18 44t4.5 40.5t-5 41t-18 44.5t-44.5 39.5t-77.5 15h-92v-279z" />
    <glyph glyph-name="Q" unicode="Q" horiz-adv-x="601" 
d="M343 -4v-2q40 -89 161 -110l-45 -65q-73 9 -128 57t-77 118q-92 17 -146.5 105t-54.5 258q0 191 68 279t180 88q111 0 178.5 -88t67.5 -279q0 -172 -55.5 -259t-148.5 -102zM301 65q73 0 117.5 69.5t44.5 222.5t-44.5 222.5t-117.5 69.5q-74 0 -118.5 -69.5t-44.5 -222.5
t44.5 -222.5t118.5 -69.5z" />
    <glyph glyph-name="R" unicode="R" horiz-adv-x="526" 
d="M338 330v-2q38 -30 70 -113l80 -215h-88l-69 186q-30 83 -81 124h-90v-310h-83v714h174q61 0 106.5 -18.5t69 -49.5t34.5 -64t11 -70q0 -64 -34 -115t-100 -67zM160 384h90q42 0 71 12.5t42.5 33.5t18.5 40.5t5 41.5t-5 42t-18.5 41t-42.5 33.5t-71 12.5h-90v-257z" />
    <glyph glyph-name="S" unicode="S" horiz-adv-x="491" 
d="M225 -10q-132 0 -196 104l60 48q45 -77 136 -77q59 0 97 32.5t38 91.5q0 35 -17 62t-43.5 46t-59 36.5t-65.5 36.5t-59.5 42t-43.5 58t-17 79q0 84 55.5 129.5t131.5 45.5q122 0 188 -100l-61 -46q-47 71 -122 71q-48 0 -78 -26.5t-30 -70.5q0 -31 17 -57t44 -44
t59.5 -35.5t65 -38t59.5 -44.5t44 -61t17 -83q0 -91 -63 -145t-157 -54z" />
    <glyph glyph-name="T" unicode="T" horiz-adv-x="495" 
d="M288 0h-82v641h-189v73h460v-73h-189v-641z" />
    <glyph glyph-name="U" unicode="U" horiz-adv-x="632" 
d="M316 -10q-111 0 -175 61t-64 184v479h83v-475q0 -85 40.5 -129.5t115.5 -44.5t116 44.5t41 129.5v475h82v-479q0 -123 -64 -184t-175 -61z" />
    <glyph glyph-name="V" unicode="V" horiz-adv-x="541" 
d="M323 0h-105l-197 714h88l113 -435q27 -101 46 -207h4q25 127 45 204l115 438h88z" />
    <glyph glyph-name="W" unicode="W" horiz-adv-x="798" 
d="M401 629h-4q-16 -123 -30 -202l-80 -427h-107l-158 714h87l87 -422q9 -46 35 -214h4q16 131 32 212l80 424h104l80 -424q19 -101 32 -212h4q17 126 35 214l87 422h87l-158 -714h-107l-80 427q-20 109 -30 202z" />
    <glyph glyph-name="X" unicode="X" horiz-adv-x="542" 
d="M113 0h-92l200 363l-193 351h92l150 -281h2l150 281h93l-194 -351l200 -363h-92l-157 293h-2z" />
    <glyph glyph-name="Y" unicode="Y" horiz-adv-x="519" 
d="M258 369h2q10 24 50 117l101 228h86l-197 -430v-284h-82v284l-197 430h87l100 -228q40 -93 50 -117z" />
    <glyph glyph-name="Z" unicode="Z" horiz-adv-x="514" 
d="M481 0h-442v60l330 579v2h-315v73h414v-59l-333 -580v-2h346v-73z" />
    <glyph glyph-name="bracketleft" unicode="[" horiz-adv-x="276" 
d="M128 660v-750h121v-54h-192v858h192v-54h-121z" />
    <glyph glyph-name="backslash" unicode="\" horiz-adv-x="289" 
d="M205 -153l-209 858l74 19l209 -858z" />
    <glyph glyph-name="bracketright" unicode="]" horiz-adv-x="276" 
d="M148 -90v750h-121v54h192v-858h-192v54h121z" />
    <glyph glyph-name="asciicircum" unicode="^" horiz-adv-x="412" 
d="M186 714h35l174 -325l-64 -31l-126 241h-2l-126 -241l-64 31z" />
    <glyph glyph-name="underscore" unicode="_" horiz-adv-x="400" 
d="M0 -78v68h400v-68h-400z" />
    <glyph glyph-name="grave" unicode="`" horiz-adv-x="372" 
d="M232 556h-77l-94 158h81z" />
    <glyph glyph-name="a" unicode="a" horiz-adv-x="461" 
d="M167 -10q-54 0 -88 35t-34 94q0 84 68 130t194 66v42q0 35 -20.5 55.5t-58.5 20.5q-62 0 -151 -50h-3l21 77q64 42 141 42q65 0 106.5 -36t41.5 -108v-243q0 -47 42 -62l-34 -63q-64 19 -74 80h-2q-69 -80 -149 -80zM181 60q58 0 126 79v111q-185 -29 -185 -126
q0 -30 16 -47t43 -17z" />
    <glyph glyph-name="b" unicode="b" horiz-adv-x="481" 
d="M215 -10q-87 0 -146 38v686h76v-264h2q60 52 121 52q78 0 125 -65.5t47 -180.5q0 -117 -58.5 -191.5t-166.5 -74.5zM215 61q75 0 110.5 53t35.5 146q0 78 -27.5 124.5t-78.5 46.5q-56 0 -110 -58v-299q29 -13 70 -13z" />
    <glyph glyph-name="c" unicode="c" horiz-adv-x="385" 
d="M256 -10q-99 0 -157 68t-58 178q0 120 63.5 193t153.5 73q42 0 80 -15v-70q-37 14 -71 14q-65 0 -106 -52.5t-41 -140.5q0 -86 41.5 -131.5t104.5 -45.5q38 0 76 12v-69q-40 -14 -86 -14z" />
    <glyph glyph-name="d" unicode="d" horiz-adv-x="486" 
d="M220 -10q-79 0 -129 66.5t-50 183.5q0 118 50 190t126 72q64 0 122 -53h2v265h77v-714h-38l-26 60h-1q-63 -70 -133 -70zM228 61q57 0 113 67v243q-53 60 -110 60t-84 -56t-27 -129q0 -76 26 -130.5t82 -54.5z" />
    <glyph glyph-name="e" unicode="e" horiz-adv-x="461" 
d="M263 -10q-106 0 -164 67t-58 183q0 125 57 193.5t141 68.5q77 0 126 -57.5t49 -162.5q0 -29 -3 -51h-291q1 -171 152 -171q56 0 116 28l24 -62q-72 -36 -149 -36zM123 296h216q2 57 -22.5 96.5t-78.5 39.5q-42 0 -75.5 -33t-39.5 -103z" />
    <glyph glyph-name="f" unicode="f" horiz-adv-x="295" 
d="M96 0v423h-74v69h74v76q0 68 35 112t100 44q39 0 75 -17l14 -73h-3q-42 20 -73 20q-72 0 -72 -88v-74h96v-69h-96v-423h-76z" />
    <glyph glyph-name="g" unicode="g" horiz-adv-x="478" 
d="M202 -241q-96 0 -156 38l26 66q55 -34 128 -34q64 0 102.5 31t38.5 94v96h-2q-58 -60 -122 -60q-77 0 -126.5 67.5t-49.5 184.5q0 118 50.5 189t128.5 71q67 0 135 -63h2l23 53h38v-535q0 -53 -19 -92.5t-50.5 -62t-68.5 -33t-78 -10.5zM228 61q57 0 113 67v243
q-53 60 -110 60t-84 -56t-27 -129q0 -76 26 -130.5t82 -54.5z" />
    <glyph glyph-name="h" unicode="h" horiz-adv-x="502" 
d="M69 0v714h76v-289h2q44 38 81 57.5t81 19.5q63 0 98 -38.5t35 -104.5v-359h-77v346q0 84 -72 84q-58 0 -148 -80v-350h-76z" />
    <glyph glyph-name="i" unicode="i" horiz-adv-x="197" 
d="M137 0h-77v492h77v-492zM99 576l-62 64l62 65l61 -65z" />
    <glyph glyph-name="j" unicode="j" horiz-adv-x="214" 
d="M22 -241q-35 0 -59 12l23 66q13 -7 30 -7q61 0 61 73v589h77v-597q0 -63 -35.5 -99.5t-96.5 -36.5zM178 640l-62 -64l-62 64l62 65z" />
    <glyph glyph-name="k" unicode="k" horiz-adv-x="444" 
d="M69 0v714h76v-443h2q21 28 58 73l123 148h98l-182 -208l180 -284h-90l-141 226l-48 -55v-171h-76z" />
    <glyph glyph-name="l" unicode="l" horiz-adv-x="214" 
d="M69 0v675l73 59h3v-734h-76z" />
    <glyph glyph-name="m" unicode="m" horiz-adv-x="755" 
d="M60 0v492h77v-67h1q42 38 76.5 57.5t74.5 19.5q90 0 117 -83h2q49 42 84 62.5t77 20.5q60 0 93 -38.5t33 -105.5v-358h-77v346q0 84 -65 84q-50 0 -137 -80v-350h-77v346q0 84 -66 84q-51 0 -136 -80v-350h-77z" />
    <glyph glyph-name="n" unicode="n" horiz-adv-x="494" 
d="M434 0h-77v346q0 84 -73 84q-59 0 -147 -80v-350h-77v492h77v-67h2q43 38 80 57.5t81 19.5q63 0 98.5 -38.5t35.5 -104.5v-359z" />
    <glyph glyph-name="o" unicode="o" horiz-adv-x="481" 
d="M241 -10q-95 0 -147.5 71.5t-52.5 184.5t52.5 184.5t147.5 71.5t147.5 -71.5t52.5 -184.5t-52.5 -184.5t-147.5 -71.5zM241 61q62 0 91.5 52t29.5 133t-29.5 133t-91.5 52q-61 0 -91 -52t-30 -133t30 -133t91 -52z" />
    <glyph glyph-name="p" unicode="p" horiz-adv-x="478" 
d="M60 -231v723h77v-55h2q60 65 123 65q76 0 125 -66.5t49 -183.5q0 -120 -49.5 -191t-127.5 -71q-65 0 -120 51h-2v-272h-77zM244 61q41 0 68 30.5t36 70t9 85.5q0 76 -26 130t-82 54t-112 -69v-243q54 -58 107 -58z" />
    <glyph glyph-name="q" unicode="q" horiz-adv-x="478" 
d="M217 -10q-77 0 -126.5 67t-49.5 185t50.5 189t129.5 71q66 0 136 -63h2l23 53h36v-674l-74 -59h-3v291h-2q-57 -60 -122 -60zM228 61q57 0 113 67v243q-53 60 -110 60t-84 -56t-27 -129q0 -76 26 -130.5t82 -54.5z" />
    <glyph glyph-name="r" unicode="r" horiz-adv-x="303" 
d="M60 0v492h77v-80h2q35 49 67 70t74 20v-77q-77 0 -143 -91v-334h-77z" />
    <glyph glyph-name="s" unicode="s" horiz-adv-x="377" 
d="M169 -10q-71 0 -124 28v70q58 -29 119 -29q96 0 96 71q0 28 -21.5 48.5t-52.5 35.5t-62.5 32t-53 47.5t-21.5 72.5q0 63 42.5 99.5t106.5 36.5q68 0 112 -30v-70q-58 30 -108 30q-37 0 -57 -16t-20 -45q0 -28 22 -48.5t53 -35.5t62 -33t53 -48.5t22 -72.5
q0 -62 -43.5 -102.5t-124.5 -40.5z" />
    <glyph glyph-name="t" unicode="t" horiz-adv-x="325" 
d="M252 -10q-75 0 -112.5 41.5t-37.5 117.5v274h-80v69h80v90l73 58h3v-148h120v-69h-120v-254q0 -55 19 -81.5t66 -26.5q28 0 41 5v-70q-16 -6 -52 -6z" />
    <glyph glyph-name="u" unicode="u" horiz-adv-x="494" 
d="M434 492v-492h-77v66h-2q-87 -76 -161 -76q-63 0 -98.5 38.5t-35.5 105.5v358h77v-347q0 -84 73 -84q57 0 147 80v351h77z" />
    <glyph glyph-name="v" unicode="v" horiz-adv-x="434" 
d="M262 0h-89l-161 492h82l88 -302q18 -59 33 -126h4q11 47 33 126l88 302h82z" />
    <glyph glyph-name="w" unicode="w" horiz-adv-x="644" 
d="M273 492h98l59 -303q12 -62 21 -128h4q7 51 24 130l68 301h81l-129 -492h-96l-58 304q-10 47 -21 124h-4q-4 -30 -21 -124l-58 -304h-97l-128 492h81l67 -301q17 -69 25 -130h4q5 47 21 128z" />
    <glyph glyph-name="x" unicode="x" horiz-adv-x="449" 
d="M12 0l167 255l-156 237h87l115 -180h2l113 180h87l-156 -237l166 -255h-87l-123 198h-2l-127 -198h-86z" />
    <glyph glyph-name="y" unicode="y" horiz-adv-x="441" 
d="M35 -240l-21 71q7 -1 18 -1q53 0 87.5 34.5t67.5 135.5l-169 492h82l91 -278q23 -69 34 -113h2q14 52 33 111l86 280h83l-163 -492q-40 -122 -86.5 -181.5t-125.5 -59.5q-11 0 -19 1z" />
    <glyph glyph-name="z" unicode="z" horiz-adv-x="403" 
d="M36 0v57l228 364v2h-216v69h308v-57l-228 -364v-2h239v-69h-331z" />
    <glyph glyph-name="braceleft" unicode="{" horiz-adv-x="293" 
d="M40 267v36q41 8 70 30.5t29 59.5q0 29 -35.5 92t-35.5 102q0 51 39 88t100 49l13 -39q-77 -21 -77 -89q0 -30 35 -96t35 -102q0 -40 -29.5 -69.5t-73.5 -42.5v-2q44 -13 73.5 -42.5t29.5 -69.5q0 -36 -35 -102t-35 -97q0 -67 77 -88l-13 -39q-61 11 -100 48t-39 89
q0 38 35.5 101t35.5 93q0 37 -28.5 59t-70.5 31z" />
    <glyph glyph-name="bar" unicode="|" horiz-adv-x="237" 
d="M83 -144v858h71v-858h-71z" />
    <glyph glyph-name="braceright" unicode="}" horiz-adv-x="293" 
d="M253 303v-36q-42 -9 -70.5 -31t-28.5 -59q0 -30 35 -93t35 -101q0 -52 -39 -89t-100 -48l-13 39q77 20 77 88q0 31 -35 97t-35 102q0 40 29.5 69.5t74.5 42.5v2q-45 13 -74.5 42.5t-29.5 69.5q0 36 35 102t35 96q0 69 -77 89l13 39q61 -12 100 -49t39 -88q0 -39 -35 -102
t-35 -92q0 -37 29 -59.5t70 -30.5z" />
    <glyph glyph-name="asciitilde" unicode="~" horiz-adv-x="412" 
d="M391 267v-70q-43 -33 -88 -33q-36 0 -100 30.5t-97 30.5q-34 0 -85 -35v70q47 34 90 34q36 0 99.5 -30.5t95.5 -30.5q36 0 85 34z" />
    <glyph glyph-name="exclamdown" unicode="&#xa1;" horiz-adv-x="277" 
d="M183 -173l-87 -69h-3l13 494h65zM139 363l-68 69l68 70l67 -70z" />
    <glyph glyph-name="cent" unicode="&#xa2;" 
d="M360 717l-17 -88q64 -15 103 -66l-60 -47q-25 31 -58 40l-77 -399q23 -5 44 -5q61 0 99 47l59 -47q-56 -73 -164 -73q-21 0 -53 4l-17 -93l-48 7l19 99q-69 28 -103.5 96.5t-34.5 163.5q0 51 13 98.5t39.5 89t74 67t109.5 25.5h7l18 88zM133 356q0 -131 73 -179l75 385
q-69 -4 -108.5 -59.5t-39.5 -146.5z" />
    <glyph glyph-name="sterling" unicode="&#xa3;" 
d="M40 336v68h74q-32 71 -32 131q0 82 48 135.5t138 53.5q103 0 165 -74l-53 -55q-43 54 -110 54q-53 0 -78.5 -32t-25.5 -81q0 -51 35 -132h204v-68h-177q27 -68 27 -118q0 -61 -39 -113q2 -1 9 -5.5t9 -6t9 -5.5t10 -5.5t9.5 -4.5t10.5 -4.5t10.5 -3.5t11.5 -3t11.5 -1.5
t13.5 -0.5q34 0 53.5 12t37.5 33l49 -55q-54 -65 -133 -65q-39 0 -76.5 18.5t-64.5 37t-40 18.5q-15 0 -22.5 -11t-9 -22.5t-1.5 -30.5h-77q0 68 22 102.5t75 34.5q10 0 26 -4q23 40 23 77q0 54 -35 126h-107z" />
    <glyph glyph-name="currency" unicode="&#xa4;" 
d="M450 184l-46 -45l-62 65q-47 -34 -103 -34q-59 0 -104 34l-62 -65l-46 45l64 67q-30 49 -30 108q0 60 30 107l-64 68l46 45l62 -65q45 34 104 34q56 0 103 -34l62 65l46 -45l-65 -68q32 -46 32 -107t-32 -108zM129 359q0 -50 31 -86t79 -36t79 36t31 86t-31 86t-79 36
t-79 -36t-31 -86z" />
    <glyph glyph-name="yen" unicode="&#xa5;" 
d="M54 297v65h117l-145 352h84l87 -220q26 -67 40 -117h3q14 50 40 117l86 220h85l-146 -352h118v-65h-144v-85h144v-65h-144v-147h-81v147h-144v65h144v85h-144z" />
    <glyph glyph-name="brokenbar" unicode="&#xa6;" horiz-adv-x="236" 
d="M77 0v249h81v-249h-81zM77 465v249h81v-249h-81z" />
    <glyph glyph-name="section" unicode="&#xa7;" horiz-adv-x="500" 
d="M212 -241q-51 0 -86 31t-35 81q0 65 59 102l35 -40q-35 -21 -35 -59q0 -27 16.5 -44.5t45.5 -17.5q38 0 59.5 29t21.5 74q0 50 -22.5 99.5t-54.5 93.5t-64.5 90t-55 107.5t-22.5 128.5q0 128 64.5 209t153.5 81q51 0 85.5 -31t34.5 -82q0 -64 -58 -101l-36 40
q35 21 35 59q0 27 -16.5 44.5t-44.5 17.5q-38 0 -60 -29.5t-22 -74.5q0 -49 22.5 -98.5t55 -93.5t64.5 -90.5t54.5 -108t22.5 -128.5q0 -128 -64.5 -208.5t-152.5 -80.5zM344 -36q0 -15 -4 -53l5 -2q24 52 24 114q0 64 -20.5 122.5t-50.5 102.5t-60.5 85.5t-53 89.5
t-25.5 96q0 13 4 53l-4 2q-25 -50 -25 -114t20.5 -122.5t50.5 -102.5t60.5 -85.5t53 -89.5t25.5 -96z" />
    <glyph glyph-name="dieresis" unicode="&#xa8;" horiz-adv-x="372" 
d="M101 577l-59 62l59 62l60 -62zM271 577l-59 62l59 62l60 -62z" />
    <glyph glyph-name="copyright" unicode="&#xa9;" horiz-adv-x="774" 
d="M387 724q150 0 248.5 -106.5t98.5 -260.5t-98.5 -260.5t-248.5 -106.5t-248.5 106.5t-98.5 260.5t98.5 260.5t248.5 106.5zM387 47q125 0 203.5 89t78.5 221t-78.5 220.5t-203.5 88.5t-203.5 -88.5t-78.5 -220.5t78.5 -221t203.5 -89zM393 141q-87 0 -133.5 59.5
t-46.5 156.5q0 95 49 155t132 60q78 0 124 -57l-49 -43q-33 35 -76 35q-46 0 -75.5 -37.5t-29.5 -112.5t29.5 -112.5t76.5 -37.5q48 0 79 37l50 -43q-51 -60 -130 -60z" />
    <glyph glyph-name="ordfeminine" unicode="&#xaa;" horiz-adv-x="329" 
d="M27 150v57h275v-57h-275zM118 274q-40 0 -65 24t-25 64q0 102 180 131v22q0 19 -12.5 30.5t-34.5 11.5q-45 0 -115 -37h-2l20 64q48 29 102 29q48 0 78.5 -24.5t30.5 -72.5v-156q0 -25 32 -36l-30 -52q-43 12 -58 48h-2q-44 -46 -99 -46zM130 330q40 0 78 45v66
q-114 -21 -114 -76q0 -35 36 -35z" />
    <glyph glyph-name="guillemotleft" unicode="&#xab;" horiz-adv-x="475" 
d="M197 62l-146 195l146 195h53l-99 -195l99 -195h-53zM384 62l-146 195l146 195h53l-99 -195l99 -195h-53z" />
    <glyph glyph-name="logicalnot" unicode="&#xac;" horiz-adv-x="412" 
d="M391 286v-219h-68v151h-302v68h370z" />
    <glyph glyph-name="registered" unicode="&#xae;" horiz-adv-x="493" 
d="M246 266q-93 0 -154.5 66.5t-61.5 162.5t61.5 162.5t154.5 66.5q94 0 155.5 -66.5t61.5 -162.5t-61.5 -162.5t-155.5 -66.5zM246 306q77 0 124.5 54t47.5 135t-47.5 135t-124.5 54t-124 -54t-47 -135t47 -135t124 -54zM163 362v264h77q54 0 76.5 -22.5t22.5 -52.5
q0 -55 -62 -67v-2q20 -12 33 -41l36 -79h-48l-28 61q-15 32 -39 48h-22v-109h-46zM209 512h27q57 0 57 38q0 36 -57 36h-27v-74z" />
    <glyph glyph-name="macron" unicode="&#xaf;" horiz-adv-x="372" 
d="M63 590v64h246v-64h-246z" />
    <glyph glyph-name="degree" unicode="&#xb0;" horiz-adv-x="404" 
d="M358 568q0 -66 -45 -111t-111 -45q-67 0 -111.5 45t-44.5 111q0 67 44.5 111.5t111.5 44.5q66 0 111 -44.5t45 -111.5zM292 568q0 40 -26 67t-64 27t-64 -27t-26 -67t26 -67t64 -27t64 27t26 67z" />
    <glyph glyph-name="plusminus" unicode="&#xb1;" horiz-adv-x="412" 
d="M21 0v68h370v-68h-370zM21 256v68h151v113h68v-113h151v-68h-151v-113h-68v113h-151z" />
    <glyph glyph-name="twosuperior" unicode="&#xb2;" horiz-adv-x="334" 
d="M163 761q-26 0 -43 -17t-17 -54q0 -8 3 -25h-68q-3 13 -3 29q0 62 37 94t92 32q61 0 93 -33t32 -89q0 -55 -37 -114t-116 -143v-2h165v-59h-265v39q96 103 139 164t43 114q0 32 -15 48t-40 16z" />
    <glyph glyph-name="threesuperior" unicode="&#xb3;" horiz-adv-x="334" 
d="M166 374q-60 0 -94.5 30.5t-34.5 93.5q0 14 3 30h64q-2 -11 -2 -25q0 -71 63 -71q30 0 48.5 20t18.5 56q0 38 -23 60.5t-69 22.5q-15 0 -36 -3v27l102 138v2h-161v59h223l25 -46l-96 -129v-2q48 -10 77.5 -44.5t29.5 -83.5q0 -60 -38 -97.5t-100 -37.5z" />
    <glyph glyph-name="acute" unicode="&#xb4;" horiz-adv-x="372" 
d="M217 556h-77l90 158h81z" />
    <glyph glyph-name="mu" unicode="&#xb5;" horiz-adv-x="513" 
d="M377 55h-2q-43 -65 -128 -65q-77 0 -113 51l-2 -1q5 -37 5 -86v-137h-77v675h77v-304q0 -60 29 -93.5t81 -33.5t81 33.5t29 93.5v304h77v-351q0 -46 10 -62.5t32 -16.5q12 0 23 3l9 -68q-21 -7 -45 -7q-67 0 -86 65z" />
    <glyph glyph-name="mu" unicode="&#x3bc;" horiz-adv-x="513" 
d="M377 55h-2q-43 -65 -128 -65q-77 0 -113 51l-2 -1q5 -37 5 -86v-137h-77v675h77v-304q0 -60 29 -93.5t81 -33.5t81 33.5t29 93.5v304h77v-351q0 -46 10 -62.5t32 -16.5q12 0 23 3l9 -68q-21 -7 -45 -7q-67 0 -86 65z" />
    <glyph glyph-name="paragraph" unicode="&#xb6;" horiz-adv-x="605" 
d="M426 -161h-3v825h-73v-867l-60 -48h-3v490q-101 4 -162 71t-61 166q0 102 67.5 170t179.5 68h241v-50h-67v-777z" />
    <glyph glyph-name="periodcentered" unicode="&#xb7;" horiz-adv-x="268" 
d="M201 245l-67 -69l-68 69l68 70z" />
    <glyph glyph-name="cedilla" unicode="&#xb8;" horiz-adv-x="372" 
d="M161 -100l33 102h61l-20 -63q41 -3 64 -25t23 -55q0 -43 -36 -71.5t-97 -28.5q-57 0 -92 22v54q37 -24 86 -24q33 0 52 12t19 34q0 23 -23.5 32.5t-69.5 10.5z" />
    <glyph glyph-name="onesuperior" unicode="&#xb9;" horiz-adv-x="306" 
d="M131 736l-113 -39v63l159 57h24v-378h95v-59h-273v59h108v297z" />
    <glyph glyph-name="ordmasculine" unicode="&#xba;" horiz-adv-x="343" 
d="M27 150v57h289v-57h-289zM173 274q-68 0 -106.5 47.5t-38.5 122.5t38 122t107 47q68 0 106.5 -47t38.5 -122q0 -74 -38 -122t-107 -48zM173 331q39 0 58 31.5t19 81.5q0 49 -19 80.5t-58 31.5t-58 -31.5t-19 -80.5q0 -50 19 -81.5t58 -31.5z" />
    <glyph glyph-name="guillemotright" unicode="&#xbb;" horiz-adv-x="475" 
d="M37 62l99 195l-99 195h54l146 -195l-146 -195h-54zM224 62l99 195l-99 195h54l145 -195l-145 -195h-54z" />
    <glyph glyph-name="onequarter" unicode="&#xbc;" horiz-adv-x="803" 
d="M683 691l-427 -701l-53 33l427 701zM139 636l-113 -39v63l159 57h24v-378h95v-59h-273v59h108v297zM633 0v127h-169v32l198 278h40v-251h74l-24 -59h-50v-127h-69zM633 186v75q0 19 2 47h-2q-13 -20 -25 -36l-59 -84v-2h84z" />
    <glyph glyph-name="onehalf" unicode="&#xbd;" horiz-adv-x="803" 
d="M653 691l-427 -701l-53 33l427 701zM134 636l-113 -39v63l159 57h24v-378h95v-59h-273v59h108v297zM632 381q-26 0 -43 -17t-17 -54q0 -8 3 -25h-68q-3 14 -3 29q0 62 37 94t92 32q61 0 93 -33t32 -89q0 -55 -37 -114t-116 -143v-2h165v-59h-265v39q96 103 139 164
t43 114q0 32 -15 48t-40 16z" />
    <glyph glyph-name="threequarters" unicode="&#xbe;" horiz-adv-x="803" 
d="M677 691l-427 -701l-53 33l427 701zM627 0v127h-169v32l198 278h40v-251h74l-24 -59h-50v-127h-69zM627 186v75q0 19 2 47h-2q-13 -20 -25 -36l-59 -84v-2h84zM175 274q-60 0 -94.5 30.5t-34.5 93.5q0 14 3 30h64q-2 -11 -2 -25q0 -71 63 -71q30 0 48.5 20t18.5 56
q0 38 -23 60.5t-69 22.5q-15 0 -36 -3v27l102 138v2h-161v59h223l25 -46l-96 -129v-2q48 -10 77.5 -44.5t29.5 -83.5q0 -60 -38 -97.5t-100 -37.5z" />
    <glyph glyph-name="questiondown" unicode="&#xbf;" horiz-adv-x="424" 
d="M213 252h70q11 -38 11 -68q0 -36 -14.5 -65.5t-35.5 -51t-42 -42t-35.5 -47.5t-14.5 -58q0 -36 22 -58.5t65 -22.5q73 0 149 55h4l-23 -81q-22 -18 -61 -31.5t-79 -13.5q-74 0 -115.5 41.5t-41.5 106.5q0 41 15 73.5t37 54t44 41.5t37 48.5t15 63.5q0 20 -7 55zM247 502
l68 -70l-68 -69l-67 69z" />
    <glyph glyph-name="Agrave" unicode="&#xc0;" horiz-adv-x="555" 
d="M21 0l207 714h99l207 -714h-87l-52 183h-235l-52 -183h-87zM181 256h193l-65 250q-19 76 -29 129h-4q-14 -76 -29 -130zM319 757h-77l-94 158h81z" />
    <glyph glyph-name="Aacute" unicode="&#xc1;" horiz-adv-x="555" 
d="M21 0l207 714h99l207 -714h-87l-52 183h-235l-52 -183h-87zM181 256h193l-65 250q-19 76 -29 129h-4q-14 -76 -29 -130zM315 757h-77l90 158h81z" />
    <glyph glyph-name="Acircumflex" unicode="&#xc2;" horiz-adv-x="555" 
d="M21 0l207 714h99l207 -714h-87l-52 183h-235l-52 -183h-87zM181 256h193l-65 250q-19 76 -29 129h-4q-14 -76 -29 -130zM215 757h-77l95 158h89l94 -158h-76l-62 105h-2z" />
    <glyph glyph-name="Atilde" unicode="&#xc3;" horiz-adv-x="555" 
d="M21 0l207 714h99l207 -714h-87l-52 183h-235l-52 -183h-87zM181 256h193l-65 250q-19 76 -29 129h-4q-14 -76 -29 -130zM406 860v-68q-29 -24 -63 -24q-26 0 -69.5 23t-63.5 23q-29 0 -62 -27v68q31 24 64 24q25 0 68.5 -23t63.5 -23q29 0 62 27z" />
    <glyph glyph-name="Adieresis" unicode="&#xc4;" horiz-adv-x="555" 
d="M21 0l207 714h99l207 -714h-87l-52 183h-235l-52 -183h-87zM181 256h193l-65 250q-19 76 -29 129h-4q-14 -76 -29 -130zM192 778l-59 62l59 62l60 -62zM362 778l-59 62l59 62l60 -62z" />
    <glyph glyph-name="Aring" unicode="&#xc5;" horiz-adv-x="555" 
d="M21 0l207 714h99l207 -714h-87l-52 183h-235l-52 -183h-87zM181 256h193l-65 250q-19 76 -29 129h-4q-14 -76 -29 -130zM278 740q-49 0 -79.5 26.5t-30.5 65.5q0 40 30.5 66t79.5 26q50 0 80 -26t30 -66q0 -39 -30 -65.5t-80 -26.5zM328 832q0 19 -13.5 31.5t-36.5 12.5
t-36.5 -12.5t-13.5 -31.5t13.5 -31.5t36.5 -12.5t36.5 12.5t13.5 31.5z" />
    <glyph glyph-name="AE" unicode="&#xc6;" horiz-adv-x="809" 
d="M21 0l292 714h429v-73h-321l36 -239h243v-73h-232l38 -256h271v-73h-344l-27 183h-224l-74 -183h-87zM297 472l-85 -216h184l-29 216q-5 40 -16 144h-5q-26 -86 -49 -144z" />
    <glyph glyph-name="Ccedilla" unicode="&#xc7;" horiz-adv-x="504" 
d="M230 -100l29 94q-103 17 -154.5 114t-51.5 248q0 97 25 178t83.5 135.5t141.5 54.5q105 0 164 -89l-61 -46q-41 60 -102 60q-76 0 -121 -79t-45 -214q0 -143 46.5 -217t126.5 -74q64 0 105 61l61 -48q-59 -83 -157 -88l-16 -51q40 -3 63 -25t23 -55q0 -43 -35.5 -71.5
t-96.5 -28.5q-59 0 -92 22v54q38 -24 85 -24q34 0 53 12t19 34q0 41 -93 43z" />
    <glyph glyph-name="Egrave" unicode="&#xc8;" horiz-adv-x="509" 
d="M77 0v714h373v-73h-290v-239h243v-73h-243v-256h315v-73h-398zM312 757h-77l-94 158h81z" />
    <glyph glyph-name="Eacute" unicode="&#xc9;" horiz-adv-x="509" 
d="M77 0v714h373v-73h-290v-239h243v-73h-243v-256h315v-73h-398zM299 757h-77l90 158h81z" />
    <glyph glyph-name="Ecircumflex" unicode="&#xca;" horiz-adv-x="509" 
d="M77 0v714h373v-73h-290v-239h243v-73h-243v-256h315v-73h-398zM203 757h-77l95 158h89l94 -158h-76l-62 105h-2z" />
    <glyph glyph-name="Edieresis" unicode="&#xcb;" horiz-adv-x="509" 
d="M77 0v714h373v-73h-290v-239h243v-73h-243v-256h315v-73h-398zM177 778l-59 62l59 62l60 -62zM347 778l-59 62l59 62l60 -62z" />
    <glyph glyph-name="Igrave" unicode="&#xcc;" horiz-adv-x="237" 
d="M77 0v714h83v-714h-83zM159 757h-77l-94 158h81z" />
    <glyph glyph-name="Iacute" unicode="&#xcd;" horiz-adv-x="237" 
d="M77 0v714h83v-714h-83zM155 757h-77l90 158h81z" />
    <glyph glyph-name="Icircumflex" unicode="&#xce;" horiz-adv-x="237" 
d="M77 0v714h83v-714h-83zM56 757h-77l95 158h89l94 -158h-76l-62 105h-2z" />
    <glyph glyph-name="Idieresis" unicode="&#xcf;" horiz-adv-x="237" 
d="M77 0v714h83v-714h-83zM33 778l-59 62l59 62l60 -62zM203 778l-59 62l59 62l60 -62z" />
    <glyph glyph-name="Eth" unicode="&#xd0;" horiz-adv-x="604" 
d="M12 329v73h78v312h156q63 0 115.5 -19.5t96 -60.5t68 -112t24.5 -166t-24 -165.5t-66.5 -111t-95 -60t-114.5 -19.5h-160v329h-78zM172 73h73q220 0 220 283q0 285 -224 285h-69v-239h144v-73h-144v-256z" />
    <glyph glyph-name="Ntilde" unicode="&#xd1;" horiz-adv-x="633" 
d="M555 0h-102l-217 434q-56 113 -82 194h-4q10 -98 10 -231v-397h-83v714h103l218 -435q59 -123 80 -193h5q-10 86 -10 237v391h82v-714zM445 860v-68q-29 -24 -63 -24q-26 0 -69.5 23t-63.5 23q-29 0 -62 -27v68q31 24 64 24q25 0 68.5 -23t63.5 -23q29 0 62 27z" />
    <glyph glyph-name="Ograve" unicode="&#xd2;" horiz-adv-x="601" 
d="M301 -10q-112 0 -180 88t-68 279t68 279t180 88q111 0 178.5 -88t67.5 -279t-67.5 -279t-178.5 -88zM301 65q73 0 117.5 69.5t44.5 222.5t-44.5 222.5t-117.5 69.5q-74 0 -118.5 -69.5t-44.5 -222.5t44.5 -222.5t118.5 -69.5zM347 757h-77l-94 158h81z" />
    <glyph glyph-name="Oacute" unicode="&#xd3;" horiz-adv-x="601" 
d="M301 -10q-112 0 -180 88t-68 279t68 279t180 88q111 0 178.5 -88t67.5 -279t-67.5 -279t-178.5 -88zM301 65q73 0 117.5 69.5t44.5 222.5t-44.5 222.5t-117.5 69.5q-74 0 -118.5 -69.5t-44.5 -222.5t44.5 -222.5t118.5 -69.5zM337 757h-77l90 158h81z" />
    <glyph glyph-name="Ocircumflex" unicode="&#xd4;" horiz-adv-x="601" 
d="M301 -10q-112 0 -180 88t-68 279t68 279t180 88q111 0 178.5 -88t67.5 -279t-67.5 -279t-178.5 -88zM301 65q73 0 117.5 69.5t44.5 222.5t-44.5 222.5t-117.5 69.5q-74 0 -118.5 -69.5t-44.5 -222.5t44.5 -222.5t118.5 -69.5zM238 757h-77l95 158h89l94 -158h-76l-62 105
h-2z" />
    <glyph glyph-name="Otilde" unicode="&#xd5;" horiz-adv-x="601" 
d="M301 -10q-112 0 -180 88t-68 279t68 279t180 88q111 0 178.5 -88t67.5 -279t-67.5 -279t-178.5 -88zM301 65q73 0 117.5 69.5t44.5 222.5t-44.5 222.5t-117.5 69.5q-74 0 -118.5 -69.5t-44.5 -222.5t44.5 -222.5t118.5 -69.5zM429 860v-68q-29 -24 -63 -24
q-26 0 -69.5 23t-63.5 23q-29 0 -62 -27v68q31 24 64 24q25 0 68.5 -23t63.5 -23q29 0 62 27z" />
    <glyph glyph-name="Odieresis" unicode="&#xd6;" horiz-adv-x="601" 
d="M301 -10q-112 0 -180 88t-68 279t68 279t180 88q111 0 178.5 -88t67.5 -279t-67.5 -279t-178.5 -88zM301 65q73 0 117.5 69.5t44.5 222.5t-44.5 222.5t-117.5 69.5q-74 0 -118.5 -69.5t-44.5 -222.5t44.5 -222.5t118.5 -69.5zM215 778l-59 62l59 62l60 -62zM385 778
l-59 62l59 62l60 -62z" />
    <glyph glyph-name="multiply" unicode="&#xd7;" horiz-adv-x="412" 
d="M342 434l47 -46l-136 -136l135 -136l-46 -46l-136 135l-136 -135l-46 46l135 136l-135 136l46 46l136 -135z" />
    <glyph glyph-name="Oslash" unicode="&#xd8;" horiz-adv-x="601" 
d="M105 -13l-54 38l52 81q-50 94 -50 251q0 191 68 279t180 88q93 0 155 -61l40 63l54 -37l-53 -83q50 -92 50 -249q0 -191 -67.5 -279t-178.5 -88q-96 0 -156 61zM138 357q0 -96 21 -164l251 399q-42 57 -109 57q-74 0 -118.5 -69.5t-44.5 -222.5zM301 65q73 0 117.5 69.5
t44.5 222.5q0 95 -21 163l-251 -398q41 -57 110 -57z" />
    <glyph glyph-name="Ugrave" unicode="&#xd9;" horiz-adv-x="632" 
d="M316 -10q-111 0 -175 61t-64 184v479h83v-475q0 -85 40.5 -129.5t115.5 -44.5t116 44.5t41 129.5v475h82v-479q0 -123 -64 -184t-175 -61zM367 757h-77l-94 158h81z" />
    <glyph glyph-name="Uacute" unicode="&#xda;" horiz-adv-x="632" 
d="M316 -10q-111 0 -175 61t-64 184v479h83v-475q0 -85 40.5 -129.5t115.5 -44.5t116 44.5t41 129.5v475h82v-479q0 -123 -64 -184t-175 -61zM349 757h-77l90 158h81z" />
    <glyph glyph-name="Ucircumflex" unicode="&#xdb;" horiz-adv-x="632" 
d="M316 -10q-111 0 -175 61t-64 184v479h83v-475q0 -85 40.5 -129.5t115.5 -44.5t116 44.5t41 129.5v475h82v-479q0 -123 -64 -184t-175 -61zM253 757h-77l95 158h89l94 -158h-76l-62 105h-2z" />
    <glyph glyph-name="Udieresis" unicode="&#xdc;" horiz-adv-x="632" 
d="M316 -10q-111 0 -175 61t-64 184v479h83v-475q0 -85 40.5 -129.5t115.5 -44.5t116 44.5t41 129.5v475h82v-479q0 -123 -64 -184t-175 -61zM232 778l-59 62l59 62l60 -62zM402 778l-59 62l59 62l60 -62z" />
    <glyph glyph-name="Yacute" unicode="&#xdd;" horiz-adv-x="519" 
d="M258 369h2q10 24 50 117l101 228h86l-197 -430v-284h-82v284l-197 430h87l100 -228q40 -93 50 -117zM291 757h-77l90 158h81z" />
    <glyph glyph-name="Thorn" unicode="&#xde;" horiz-adv-x="522" 
d="M77 0v714h83v-138h97q62 0 108 -20t70 -53t35 -68t11 -72t-11 -71.5t-35 -67.5t-70 -53t-108 -20h-97v-151h-83zM160 224h95q45 0 75.5 15t44 39.5t18 44t4.5 40.5t-5 41t-18 44.5t-44.5 39.5t-77.5 15h-92v-279z" />
    <glyph glyph-name="germandbls" unicode="&#xdf;" horiz-adv-x="517" 
d="M218 12v70q42 -23 86 -23q45 0 70.5 24.5t25.5 62.5q0 31 -17.5 54t-43 37.5t-50.5 30t-42.5 42.5t-17.5 64q0 47 32.5 82t87.5 44q4 78 -24.5 116t-76.5 38q-46 0 -74.5 -32.5t-28.5 -99.5v-522h-76v529q0 84 46 139.5t132 55.5q82 0 130.5 -56t48.5 -163q0 -21 -3 -60
q-52 1 -85 -15.5t-33 -49.5q0 -23 17.5 -41t43 -33t51 -33t43 -50.5t17.5 -76.5q0 -67 -45.5 -111.5t-119.5 -44.5q-60 0 -94 22z" />
    <glyph glyph-name="agrave" unicode="&#xe0;" horiz-adv-x="461" 
d="M167 -10q-54 0 -88 35t-34 94q0 84 68 130t194 66v42q0 35 -20.5 55.5t-58.5 20.5q-62 0 -151 -50h-3l21 77q64 42 141 42q65 0 106.5 -36t41.5 -108v-243q0 -47 42 -62l-34 -63q-64 19 -74 80h-2q-69 -80 -149 -80zM181 60q58 0 126 79v111q-185 -29 -185 -126
q0 -30 16 -47t43 -17zM278 556h-77l-94 158h81z" />
    <glyph glyph-name="aacute" unicode="&#xe1;" horiz-adv-x="461" 
d="M167 -10q-54 0 -88 35t-34 94q0 84 68 130t194 66v42q0 35 -20.5 55.5t-58.5 20.5q-62 0 -151 -50h-3l21 77q64 42 141 42q65 0 106.5 -36t41.5 -108v-243q0 -47 42 -62l-34 -63q-64 19 -74 80h-2q-69 -80 -149 -80zM181 60q58 0 126 79v111q-185 -29 -185 -126
q0 -30 16 -47t43 -17zM269 556h-77l90 158h81z" />
    <glyph glyph-name="acircumflex" unicode="&#xe2;" horiz-adv-x="461" 
d="M167 -10q-54 0 -88 35t-34 94q0 84 68 130t194 66v42q0 35 -20.5 55.5t-58.5 20.5q-62 0 -151 -50h-3l21 77q64 42 141 42q65 0 106.5 -36t41.5 -108v-243q0 -47 42 -62l-34 -63q-64 19 -74 80h-2q-69 -80 -149 -80zM181 60q58 0 126 79v111q-185 -29 -185 -126
q0 -30 16 -47t43 -17zM166 556h-77l95 158h89l94 -158h-76l-62 105h-2z" />
    <glyph glyph-name="atilde" unicode="&#xe3;" horiz-adv-x="461" 
d="M167 -10q-54 0 -88 35t-34 94q0 84 68 130t194 66v42q0 35 -20.5 55.5t-58.5 20.5q-62 0 -151 -50h-3l21 77q64 42 141 42q65 0 106.5 -36t41.5 -108v-243q0 -47 42 -62l-34 -63q-64 19 -74 80h-2q-69 -80 -149 -80zM181 60q58 0 126 79v111q-185 -29 -185 -126
q0 -30 16 -47t43 -17zM360 659v-68q-29 -24 -63 -24q-26 0 -69.5 23t-63.5 23q-29 0 -62 -27v68q31 24 64 24q25 0 68.5 -23t63.5 -23q29 0 62 27z" />
    <glyph glyph-name="adieresis" unicode="&#xe4;" horiz-adv-x="461" 
d="M167 -10q-54 0 -88 35t-34 94q0 84 68 130t194 66v42q0 35 -20.5 55.5t-58.5 20.5q-62 0 -151 -50h-3l21 77q64 42 141 42q65 0 106.5 -36t41.5 -108v-243q0 -47 42 -62l-34 -63q-64 19 -74 80h-2q-69 -80 -149 -80zM181 60q58 0 126 79v111q-185 -29 -185 -126
q0 -30 16 -47t43 -17zM143 577l-59 62l59 62l60 -62zM313 577l-59 62l59 62l60 -62z" />
    <glyph glyph-name="aring" unicode="&#xe5;" horiz-adv-x="461" 
d="M167 -10q-54 0 -88 35t-34 94q0 84 68 130t194 66v42q0 35 -20.5 55.5t-58.5 20.5q-62 0 -151 -50h-3l21 77q64 42 141 42q65 0 106.5 -36t41.5 -108v-243q0 -47 42 -62l-34 -63q-64 19 -74 80h-2q-69 -80 -149 -80zM181 60q58 0 126 79v111q-185 -29 -185 -126
q0 -30 16 -47t43 -17zM231 547q-49 0 -79.5 26.5t-30.5 65.5q0 40 30.5 66t79.5 26q50 0 80 -26t30 -66q0 -39 -30 -65.5t-80 -26.5zM281 639q0 19 -13.5 31.5t-36.5 12.5t-36.5 -12.5t-13.5 -31.5t13.5 -31.5t36.5 -12.5t36.5 12.5t13.5 31.5z" />
    <glyph glyph-name="ae" unicode="&#xe6;" horiz-adv-x="727" 
d="M358 422h2q51 80 147 80q78 0 125.5 -56.5t47.5 -159.5q0 -30 -3 -51h-291q1 -87 40.5 -131t111.5 -44q56 0 116 28l24 -62q-72 -36 -149 -36q-117 0 -174 87h-2q-78 -87 -176 -87q-58 0 -95 34.5t-37 95.5q0 86 68 133t181 47h13v48q0 85 -79 85q-62 0 -151 -50h-3
l21 77q64 42 139 42q97 0 124 -80zM189 60q72 0 137 74q-15 45 -15 101h-17q-80 0 -126 -30t-46 -81q0 -31 18.5 -47.5t48.5 -16.5zM389 300h216q2 56 -22.5 94t-78.5 38q-43 0 -76.5 -31.5t-38.5 -100.5z" />
    <glyph glyph-name="ccedilla" unicode="&#xe7;" horiz-adv-x="385" 
d="M149 -100l32 101q-66 24 -103 86t-37 149q0 120 63.5 193t153.5 73q42 0 80 -15v-70q-37 14 -71 14q-65 0 -106 -52.5t-41 -140.5q0 -86 41.5 -131.5t104.5 -45.5q38 0 76 12v-69q-40 -14 -86 -14q-9 0 -17 1l-16 -52q41 -3 64 -25t23 -55q0 -43 -36 -71.5t-97 -28.5
q-57 0 -92 22v54q37 -24 86 -24q33 0 52 12t19 34q0 23 -23.5 32.5t-69.5 10.5z" />
    <glyph glyph-name="egrave" unicode="&#xe8;" horiz-adv-x="461" 
d="M263 -10q-106 0 -164 67t-58 183q0 125 57 193.5t141 68.5q77 0 126 -57.5t49 -162.5q0 -29 -3 -51h-291q1 -171 152 -171q56 0 116 28l24 -62q-72 -36 -149 -36zM123 296h216q2 57 -22.5 96.5t-78.5 39.5q-42 0 -75.5 -33t-39.5 -103zM280 556h-77l-94 158h81z" />
    <glyph glyph-name="eacute" unicode="&#xe9;" horiz-adv-x="461" 
d="M263 -10q-106 0 -164 67t-58 183q0 125 57 193.5t141 68.5q77 0 126 -57.5t49 -162.5q0 -29 -3 -51h-291q1 -171 152 -171q56 0 116 28l24 -62q-72 -36 -149 -36zM123 296h216q2 57 -22.5 96.5t-78.5 39.5q-42 0 -75.5 -33t-39.5 -103zM271 556h-77l90 158h81z" />
    <glyph glyph-name="ecircumflex" unicode="&#xea;" horiz-adv-x="461" 
d="M263 -10q-106 0 -164 67t-58 183q0 125 57 193.5t141 68.5q77 0 126 -57.5t49 -162.5q0 -29 -3 -51h-291q1 -171 152 -171q56 0 116 28l24 -62q-72 -36 -149 -36zM123 296h216q2 57 -22.5 96.5t-78.5 39.5q-42 0 -75.5 -33t-39.5 -103zM175 556h-77l95 158h89l94 -158
h-76l-62 105h-2z" />
    <glyph glyph-name="edieresis" unicode="&#xeb;" horiz-adv-x="461" 
d="M263 -10q-106 0 -164 67t-58 183q0 125 57 193.5t141 68.5q77 0 126 -57.5t49 -162.5q0 -29 -3 -51h-291q1 -171 152 -171q56 0 116 28l24 -62q-72 -36 -149 -36zM123 296h216q2 57 -22.5 96.5t-78.5 39.5q-42 0 -75.5 -33t-39.5 -103zM149 577l-59 62l59 62l60 -62z
M319 577l-59 62l59 62l60 -62z" />
    <glyph glyph-name="igrave" unicode="&#xec;" horiz-adv-x="197" 
d="M139 556h-77l-94 158h81zM137 0h-77v492h77v-492z" />
    <glyph glyph-name="iacute" unicode="&#xed;" horiz-adv-x="197" 
d="M137 556h-77l90 158h81zM137 0h-77v492h77v-492z" />
    <glyph glyph-name="icircumflex" unicode="&#xee;" horiz-adv-x="197" 
d="M137 0h-77v492h77v-492zM36 556h-77l95 158h89l94 -158h-76l-62 105h-2z" />
    <glyph glyph-name="idieresis" unicode="&#xef;" horiz-adv-x="197" 
d="M13 577l-59 62l59 62l60 -62zM183 577l-59 62l59 62l60 -62zM137 0h-77v492h77v-492z" />
    <glyph glyph-name="eth" unicode="&#xf0;" horiz-adv-x="480" 
d="M333 450l1 1q-22 88 -76 139l-100 -51l-25 49l74 38q-42 24 -101 35l22 63q82 -16 146 -63l99 50l26 -50l-79 -40q115 -120 115 -329q0 -144 -53 -223t-148 -79q-91 0 -142 68t-51 176q0 111 54.5 180t134.5 69q54 0 103 -33zM356 280q0 44 -6 86q-51 46 -110 46
q-41 0 -69.5 -28.5t-39.5 -66.5t-11 -82q0 -77 28 -125.5t86 -48.5q60 0 91 60t31 159z" />
    <glyph glyph-name="ntilde" unicode="&#xf1;" horiz-adv-x="494" 
d="M434 0h-77v346q0 84 -73 84q-59 0 -147 -80v-350h-77v492h77v-67h2q43 38 80 57.5t81 19.5q63 0 98.5 -38.5t35.5 -104.5v-359zM379 659v-68q-29 -24 -63 -24q-26 0 -69.5 23t-63.5 23q-29 0 -62 -27v68q31 24 64 24q25 0 68.5 -23t63.5 -23q29 0 62 27z" />
    <glyph glyph-name="ograve" unicode="&#xf2;" horiz-adv-x="483" 
d="M241 -10q-95 0 -147.5 71.5t-52.5 184.5t52.5 184.5t147.5 71.5t147.5 -71.5t52.5 -184.5t-52.5 -184.5t-147.5 -71.5zM241 61q62 0 91.5 52t29.5 133t-29.5 133t-91.5 52q-61 0 -91 -52t-30 -133t30 -133t91 -52zM280 556h-77l-94 158h81z" />
    <glyph glyph-name="oacute" unicode="&#xf3;" horiz-adv-x="483" 
d="M241 -10q-95 0 -147.5 71.5t-52.5 184.5t52.5 184.5t147.5 71.5t147.5 -71.5t52.5 -184.5t-52.5 -184.5t-147.5 -71.5zM241 61q62 0 91.5 52t29.5 133t-29.5 133t-91.5 52q-61 0 -91 -52t-30 -133t30 -133t91 -52zM276 556h-77l90 158h81z" />
    <glyph glyph-name="ocircumflex" unicode="&#xf4;" horiz-adv-x="483" 
d="M241 -10q-95 0 -147.5 71.5t-52.5 184.5t52.5 184.5t147.5 71.5t147.5 -71.5t52.5 -184.5t-52.5 -184.5t-147.5 -71.5zM241 61q62 0 91.5 52t29.5 133t-29.5 133t-91.5 52q-61 0 -91 -52t-30 -133t30 -133t91 -52zM177 556h-77l95 158h89l94 -158h-76l-62 105h-2z" />
    <glyph glyph-name="otilde" unicode="&#xf5;" horiz-adv-x="483" 
d="M241 -10q-95 0 -147.5 71.5t-52.5 184.5t52.5 184.5t147.5 71.5t147.5 -71.5t52.5 -184.5t-52.5 -184.5t-147.5 -71.5zM241 61q62 0 91.5 52t29.5 133t-29.5 133t-91.5 52q-61 0 -91 -52t-30 -133t30 -133t91 -52zM371 659v-68q-29 -24 -63 -24q-26 0 -69.5 23t-63.5 23
q-29 0 -62 -27v68q31 24 64 24q25 0 68.5 -23t63.5 -23q29 0 62 27z" />
    <glyph glyph-name="odieresis" unicode="&#xf6;" horiz-adv-x="483" 
d="M241 -10q-95 0 -147.5 71.5t-52.5 184.5t52.5 184.5t147.5 71.5t147.5 -71.5t52.5 -184.5t-52.5 -184.5t-147.5 -71.5zM241 61q62 0 91.5 52t29.5 133t-29.5 133t-91.5 52q-61 0 -91 -52t-30 -133t30 -133t91 -52zM158 577l-59 62l59 62l60 -62zM328 577l-59 62l59 62
l60 -62z" />
    <glyph glyph-name="divide" unicode="&#xf7;" horiz-adv-x="412" 
d="M206 28l-64 66l64 66l64 -66zM21 218v68h370v-68h-370zM206 344l-64 66l64 66l64 -66z" />
    <glyph glyph-name="oslash" unicode="&#xf8;" horiz-adv-x="483" 
d="M85 -12l-46 36l42 56q-40 65 -40 166q0 113 52.5 184.5t147.5 71.5q72 0 122 -45l34 47l46 -36l-42 -57q40 -65 40 -165q0 -113 -52.5 -184.5t-147.5 -71.5q-71 0 -122 43zM120 246q0 -54 15 -95l182 247q-30 33 -76 33q-61 0 -91 -52t-30 -133zM241 61q62 0 91.5 52
t29.5 133q0 56 -14 94l-184 -247q29 -32 77 -32z" />
    <glyph glyph-name="ugrave" unicode="&#xf9;" horiz-adv-x="494" 
d="M434 492v-492h-77v66h-2q-87 -76 -161 -76q-63 0 -98.5 38.5t-35.5 105.5v358h77v-347q0 -84 73 -84q57 0 147 80v351h77zM295 556h-77l-94 158h81z" />
    <glyph glyph-name="uacute" unicode="&#xfa;" horiz-adv-x="494" 
d="M434 492v-492h-77v66h-2q-87 -76 -161 -76q-63 0 -98.5 38.5t-35.5 105.5v358h77v-347q0 -84 73 -84q57 0 147 80v351h77zM279 556h-77l90 158h81z" />
    <glyph glyph-name="ucircumflex" unicode="&#xfb;" horiz-adv-x="494" 
d="M434 492v-492h-77v66h-2q-87 -76 -161 -76q-63 0 -98.5 38.5t-35.5 105.5v358h77v-347q0 -84 73 -84q57 0 147 80v351h77zM183 556h-77l95 158h89l94 -158h-76l-62 105h-2z" />
    <glyph glyph-name="udieresis" unicode="&#xfc;" horiz-adv-x="494" 
d="M434 492v-492h-77v66h-2q-87 -76 -161 -76q-63 0 -98.5 38.5t-35.5 105.5v358h77v-347q0 -84 73 -84q57 0 147 80v351h77zM164 577l-59 62l59 62l60 -62zM334 577l-59 62l59 62l60 -62z" />
    <glyph glyph-name="yacute" unicode="&#xfd;" horiz-adv-x="441" 
d="M35 -240l-21 71q7 -1 18 -1q53 0 87.5 34.5t67.5 135.5l-169 492h82l91 -278q23 -69 34 -113h2q14 52 33 111l86 280h83l-163 -492q-40 -122 -86.5 -181.5t-125.5 -59.5q-11 0 -19 1zM263 556h-77l90 158h81z" />
    <glyph glyph-name="thorn" unicode="&#xfe;" horiz-adv-x="486" 
d="M69 -231v945h76v-277h2q60 65 124 65q76 0 125 -66.5t49 -183.5q0 -119 -50 -190.5t-127 -71.5q-64 0 -121 51h-2v-272h-76zM253 61q59 0 85.5 56t26.5 130q0 76 -25.5 130t-81.5 54q-55 0 -113 -69v-243q56 -58 108 -58z" />
    <glyph glyph-name="ydieresis" unicode="&#xff;" horiz-adv-x="441" 
d="M35 -240l-21 71q7 -1 18 -1q53 0 87.5 34.5t67.5 135.5l-169 492h82l91 -278q23 -69 34 -113h2q14 52 33 111l86 280h83l-163 -492q-40 -122 -86.5 -181.5t-125.5 -59.5q-11 0 -19 1zM140 577l-59 62l59 62l60 -62zM310 577l-59 62l59 62l60 -62z" />
    <glyph glyph-name="Amacron" unicode="&#x100;" horiz-adv-x="555" 
d="M21 0l207 714h99l207 -714h-87l-52 183h-235l-52 -183h-87zM181 256h193l-65 250q-19 76 -29 129h-4q-14 -76 -29 -130zM154 791v64h246v-64h-246z" />
    <glyph glyph-name="amacron" unicode="&#x101;" horiz-adv-x="461" 
d="M167 -10q-54 0 -88 35t-34 94q0 84 68 130t194 66v42q0 35 -20.5 55.5t-58.5 20.5q-62 0 -151 -50h-3l21 77q64 42 141 42q65 0 106.5 -36t41.5 -108v-243q0 -47 42 -62l-34 -63q-64 19 -74 80h-2q-69 -80 -149 -80zM181 60q58 0 126 79v111q-185 -29 -185 -126
q0 -30 16 -47t43 -17zM107 590v64h246v-64h-246z" />
    <glyph glyph-name="Abreve" unicode="&#x102;" horiz-adv-x="555" 
d="M21 0l207 714h99l207 -714h-87l-52 183h-235l-52 -183h-87zM181 256h193l-65 250q-19 76 -29 129h-4q-14 -76 -29 -130zM277 811q55 0 59 57h65q0 -48 -33.5 -79.5t-90.5 -31.5t-90.5 31.5t-33.5 79.5h65q4 -57 59 -57z" />
    <glyph glyph-name="abreve" unicode="&#x103;" horiz-adv-x="461" 
d="M167 -10q-54 0 -88 35t-34 94q0 84 68 130t194 66v42q0 35 -20.5 55.5t-58.5 20.5q-62 0 -151 -50h-3l21 77q64 42 141 42q65 0 106.5 -36t41.5 -108v-243q0 -47 42 -62l-34 -63q-64 19 -74 80h-2q-69 -80 -149 -80zM181 60q58 0 126 79v111q-185 -29 -185 -126
q0 -30 16 -47t43 -17zM229 610q55 0 59 57h65q0 -48 -33.5 -79.5t-90.5 -31.5t-90.5 31.5t-33.5 79.5h65q4 -57 59 -57z" />
    <glyph glyph-name="Aogonek" unicode="&#x104;" horiz-adv-x="555" 
d="M443 14l-48 169h-235l-52 -183h-87l207 714h99l207 -714q-68 -22 -104.5 -58.5t-36.5 -75.5q0 -48 55 -48q35 0 76 24h2v-62q-37 -21 -89 -21q-55 0 -85.5 27t-30.5 72q0 46 34.5 88.5t87.5 67.5zM181 256h193l-65 250q-19 76 -29 129h-4q-14 -76 -29 -130z" />
    <glyph glyph-name="aogonek" unicode="&#x105;" horiz-adv-x="461" 
d="M338 21v2q-17 19 -20 47h-2q-69 -80 -149 -80q-54 0 -88 35t-34 94q0 84 68 130t194 66v42q0 35 -20.5 55.5t-58.5 20.5q-62 0 -151 -50h-3l21 77q64 42 141 42q65 0 106.5 -36t41.5 -108v-243q0 -47 42 -62l-30 -56q-55 -20 -91 -54.5t-36 -75.5q0 -49 55 -49
q34 0 76 24h2v-62q-37 -21 -89 -21q-55 0 -86 27t-31 72q0 54 42 97t100 66zM181 60q58 0 126 79v111q-185 -29 -185 -126q0 -30 16 -47t43 -17z" />
    <glyph glyph-name="Cacute" unicode="&#x106;" horiz-adv-x="504" 
d="M305 -10q-126 0 -189 99.5t-63 266.5q0 97 25 178t83.5 135.5t141.5 54.5q105 0 164 -89l-61 -46q-41 60 -102 60q-76 0 -121 -79t-45 -214q0 -143 46.5 -217t126.5 -74q64 0 105 61l61 -48q-63 -88 -172 -88zM337 757h-77l90 158h81z" />
    <glyph glyph-name="cacute" unicode="&#x107;" horiz-adv-x="385" 
d="M256 -10q-99 0 -157 68t-58 178q0 120 63.5 193t153.5 73q42 0 80 -15v-70q-37 14 -71 14q-65 0 -106 -52.5t-41 -140.5q0 -86 41.5 -131.5t104.5 -45.5q38 0 76 12v-69q-40 -14 -86 -14zM262 556h-77l90 158h81z" />
    <glyph glyph-name="Ccircumflex" unicode="&#x108;" horiz-adv-x="504" 
d="M305 -10q-126 0 -189 99.5t-63 266.5q0 97 25 178t83.5 135.5t141.5 54.5q105 0 164 -89l-61 -46q-41 60 -102 60q-76 0 -121 -79t-45 -214q0 -143 46.5 -217t126.5 -74q64 0 105 61l61 -48q-63 -88 -172 -88zM231 757h-77l95 158h89l94 -158h-76l-62 105h-2z" />
    <glyph glyph-name="ccircumflex" unicode="&#x109;" horiz-adv-x="385" 
d="M256 -10q-99 0 -157 68t-58 178q0 120 63.5 193t153.5 73q42 0 80 -15v-70q-37 14 -71 14q-65 0 -106 -52.5t-41 -140.5q0 -86 41.5 -131.5t104.5 -45.5q38 0 76 12v-69q-40 -14 -86 -14zM168 556h-77l95 158h89l94 -158h-76l-62 105h-2z" />
    <glyph glyph-name="Cdotaccent" unicode="&#x10a;" horiz-adv-x="504" 
d="M305 -10q-126 0 -189 99.5t-63 266.5q0 97 25 178t83.5 135.5t141.5 54.5q105 0 164 -89l-61 -46q-41 60 -102 60q-76 0 -121 -79t-45 -214q0 -143 46.5 -217t126.5 -74q64 0 105 61l61 -48q-63 -88 -172 -88zM295 777l-62 64l62 65l62 -65z" />
    <glyph glyph-name="cdotaccent" unicode="&#x10b;" horiz-adv-x="385" 
d="M256 -10q-99 0 -157 68t-58 178q0 120 63.5 193t153.5 73q42 0 80 -15v-70q-37 14 -71 14q-65 0 -106 -52.5t-41 -140.5q0 -86 41.5 -131.5t104.5 -45.5q38 0 76 12v-69q-40 -14 -86 -14zM231 576l-62 64l62 65l62 -65z" />
    <glyph glyph-name="Ccaron" unicode="&#x10c;" horiz-adv-x="504" 
d="M305 -10q-126 0 -189 99.5t-63 266.5q0 97 25 178t83.5 135.5t141.5 54.5q105 0 164 -89l-61 -46q-41 60 -102 60q-76 0 -121 -79t-45 -214q0 -143 46.5 -217t126.5 -74q64 0 105 61l61 -48q-63 -88 -172 -88zM156 915h77l61 -104h2l62 104h76l-94 -158h-89z" />
    <glyph glyph-name="ccaron" unicode="&#x10d;" horiz-adv-x="385" 
d="M256 -10q-99 0 -157 68t-58 178q0 120 63.5 193t153.5 73q42 0 80 -15v-70q-37 14 -71 14q-65 0 -106 -52.5t-41 -140.5q0 -86 41.5 -131.5t104.5 -45.5q38 0 76 12v-69q-40 -14 -86 -14zM94 714h77l61 -104h2l62 104h76l-94 -158h-89z" />
    <glyph glyph-name="Dcaron" unicode="&#x10e;" horiz-adv-x="591" 
d="M77 0v714h156q63 0 115.5 -19.5t96 -60.5t68 -112t24.5 -166q0 -184 -84 -270t-216 -86h-160zM160 73h72q220 0 220 283q0 285 -224 285h-68v-568zM136 915h77l61 -104h2l62 104h76l-94 -158h-89z" />
    <glyph glyph-name="dcaron" unicode="&#x10f;" horiz-adv-x="486" 
d="M220 -10q-79 0 -129 66.5t-50 183.5q0 118 50 190t126 72q64 0 122 -53h2v265h77v-714h-38l-26 60h-1q-63 -70 -133 -70zM228 61q57 0 113 67v243q-53 60 -110 60t-84 -56t-27 -129q0 -76 26 -130.5t82 -54.5zM539 556h-71l33 158h75z" />
    <glyph glyph-name="Dcroat" unicode="&#x110;" horiz-adv-x="604" 
d="M12 329v73h78v312h156q63 0 115.5 -19.5t96 -60.5t68 -112t24.5 -166t-24 -165.5t-66.5 -111t-95 -60t-114.5 -19.5h-160v329h-78zM172 73h73q220 0 220 283q0 285 -224 285h-69v-239h144v-73h-144v-256z" />
    <glyph glyph-name="dcroat" unicode="&#x111;" horiz-adv-x="486" 
d="M211 573v63h130v78h77v-78h61v-63h-61v-573h-38l-26 60h-1q-63 -70 -133 -70q-79 0 -129 66.5t-50 183.5q0 118 50 190t126 72q64 0 122 -53h2v124h-130zM228 61q57 0 113 67v243q-53 60 -110 60t-84 -56t-27 -129q0 -76 26 -130.5t82 -54.5z" />
    <glyph glyph-name="Emacron" unicode="&#x112;" horiz-adv-x="509" 
d="M77 0v714h373v-73h-290v-239h243v-73h-243v-256h315v-73h-398zM137 791v64h246v-64h-246z" />
    <glyph glyph-name="emacron" unicode="&#x113;" horiz-adv-x="461" 
d="M263 -10q-106 0 -164 67t-58 183q0 125 57 193.5t141 68.5q77 0 126 -57.5t49 -162.5q0 -29 -3 -51h-291q1 -171 152 -171q56 0 116 28l24 -62q-72 -36 -149 -36zM123 296h216q2 57 -22.5 96.5t-78.5 39.5q-42 0 -75.5 -33t-39.5 -103zM116 590v64h246v-64h-246z" />
    <glyph glyph-name="Ebreve" unicode="&#x114;" horiz-adv-x="509" 
d="M77 0v714h373v-73h-290v-239h243v-73h-243v-256h315v-73h-398zM262 811q55 0 59 57h65q0 -48 -33.5 -79.5t-90.5 -31.5t-90.5 31.5t-33.5 79.5h65q4 -57 59 -57z" />
    <glyph glyph-name="ebreve" unicode="&#x115;" horiz-adv-x="461" 
d="M263 -10q-106 0 -164 67t-58 183q0 125 57 193.5t141 68.5q77 0 126 -57.5t49 -162.5q0 -29 -3 -51h-291q1 -171 152 -171q56 0 116 28l24 -62q-72 -36 -149 -36zM123 296h216q2 57 -22.5 96.5t-78.5 39.5q-42 0 -75.5 -33t-39.5 -103zM237 610q55 0 59 57h65
q0 -48 -33.5 -79.5t-90.5 -31.5t-90.5 31.5t-33.5 79.5h65q4 -57 59 -57z" />
    <glyph glyph-name="Edotaccent" unicode="&#x116;" horiz-adv-x="509" 
d="M77 0v714h373v-73h-290v-239h243v-73h-243v-256h315v-73h-398zM264 777l-62 64l62 65l62 -65z" />
    <glyph glyph-name="edotaccent" unicode="&#x117;" horiz-adv-x="461" 
d="M263 -10q-106 0 -164 67t-58 183q0 125 57 193.5t141 68.5q77 0 126 -57.5t49 -162.5q0 -29 -3 -51h-291q1 -171 152 -171q56 0 116 28l24 -62q-72 -36 -149 -36zM123 296h216q2 57 -22.5 96.5t-78.5 39.5q-42 0 -75.5 -33t-39.5 -103zM238 576l-62 64l62 65l62 -65z" />
    <glyph glyph-name="Eogonek" unicode="&#x118;" horiz-adv-x="509" 
d="M371 -2v2h-294v714h373v-73h-290v-239h243v-73h-243v-256h315v-73q-65 -26 -99 -61t-34 -73q0 -48 55 -48q34 0 76 24h2v-62q-37 -21 -89 -21q-55 0 -86 27t-31 72q0 42 28.5 79.5t73.5 60.5z" />
    <glyph glyph-name="eogonek" unicode="&#x119;" horiz-adv-x="461" 
d="M190 -142q0 73 76 132v2q-107 -4 -166 64t-59 184q0 125 57 193.5t141 68.5q77 0 126 -57.5t49 -162.5q0 -29 -3 -51h-291q1 -171 152 -171q56 0 116 28l24 -62q-66 -30 -108 -72.5t-42 -85.5q0 -50 55 -50q35 0 76 24h2v-62q-37 -21 -89 -21q-55 0 -85.5 27t-30.5 72z
M123 296h216q2 57 -22.5 96.5t-78.5 39.5q-42 0 -75.5 -33t-39.5 -103z" />
    <glyph glyph-name="Ecaron" unicode="&#x11a;" horiz-adv-x="509" 
d="M77 0v714h373v-73h-290v-239h243v-73h-243v-256h315v-73h-398zM123 915h77l61 -104h2l62 104h76l-94 -158h-89z" />
    <glyph glyph-name="ecaron" unicode="&#x11b;" horiz-adv-x="461" 
d="M263 -10q-106 0 -164 67t-58 183q0 125 57 193.5t141 68.5q77 0 126 -57.5t49 -162.5q0 -29 -3 -51h-291q1 -171 152 -171q56 0 116 28l24 -62q-72 -36 -149 -36zM123 296h216q2 57 -22.5 96.5t-78.5 39.5q-42 0 -75.5 -33t-39.5 -103zM97 714h77l61 -104h2l62 104h76
l-94 -158h-89z" />
    <glyph glyph-name="Gcircumflex" unicode="&#x11c;" horiz-adv-x="583" 
d="M332 -10q-131 0 -205 93.5t-74 262.5q0 175 74.5 276.5t198.5 101.5q113 0 172 -89l-61 -45q-42 59 -110 59q-79 0 -134 -74.5t-55 -225.5q0 -136 50 -210t149 -74q47 0 85 15v212h-88l-28 73h198v-334q-28 -18 -76 -29.5t-96 -11.5zM249 757h-77l95 158h89l94 -158h-76
l-62 105h-2z" />
    <glyph glyph-name="gcircumflex" unicode="&#x11d;" horiz-adv-x="478" 
d="M202 -241q-96 0 -156 38l26 66q55 -34 128 -34q64 0 102.5 31t38.5 94v96h-2q-58 -60 -122 -60q-77 0 -126.5 67.5t-49.5 184.5q0 118 50.5 189t128.5 71q67 0 135 -63h2l23 53h38v-535q0 -53 -19 -92.5t-50.5 -62t-68.5 -33t-78 -10.5zM228 61q57 0 113 67v243
q-53 60 -110 60t-84 -56t-27 -129q0 -76 26 -130.5t82 -54.5zM182 556h-77l95 158h89l94 -158h-76l-62 105h-2z" />
    <glyph glyph-name="Gbreve" unicode="&#x11e;" horiz-adv-x="583" 
d="M332 -10q-131 0 -205 93.5t-74 262.5q0 175 74.5 276.5t198.5 101.5q113 0 172 -89l-61 -45q-42 59 -110 59q-79 0 -134 -74.5t-55 -225.5q0 -136 50 -210t149 -74q47 0 85 15v212h-88l-28 73h198v-334q-28 -18 -76 -29.5t-96 -11.5zM310 811q55 0 59 57h65
q0 -48 -33.5 -79.5t-90.5 -31.5t-90.5 31.5t-33.5 79.5h65q4 -57 59 -57z" />
    <glyph glyph-name="gbreve" unicode="&#x11f;" horiz-adv-x="478" 
d="M202 -241q-96 0 -156 38l26 66q55 -34 128 -34q64 0 102.5 31t38.5 94v96h-2q-58 -60 -122 -60q-77 0 -126.5 67.5t-49.5 184.5q0 118 50.5 189t128.5 71q67 0 135 -63h2l23 53h38v-535q0 -53 -19 -92.5t-50.5 -62t-68.5 -33t-78 -10.5zM228 61q57 0 113 67v243
q-53 60 -110 60t-84 -56t-27 -129q0 -76 26 -130.5t82 -54.5zM254 610q55 0 59 57h65q0 -48 -33.5 -79.5t-90.5 -31.5t-90.5 31.5t-33.5 79.5h65q4 -57 59 -57z" />
    <glyph glyph-name="Gdotaccent" unicode="&#x120;" horiz-adv-x="583" 
d="M332 -10q-131 0 -205 93.5t-74 262.5q0 175 74.5 276.5t198.5 101.5q113 0 172 -89l-61 -45q-42 59 -110 59q-79 0 -134 -74.5t-55 -225.5q0 -136 50 -210t149 -74q47 0 85 15v212h-88l-28 73h198v-334q-28 -18 -76 -29.5t-96 -11.5zM309 777l-62 64l62 65l62 -65z" />
    <glyph glyph-name="gdotaccent" unicode="&#x121;" horiz-adv-x="478" 
d="M202 -241q-96 0 -156 38l26 66q55 -34 128 -34q64 0 102.5 31t38.5 94v96h-2q-58 -60 -122 -60q-77 0 -126.5 67.5t-49.5 184.5q0 118 50.5 189t128.5 71q67 0 135 -63h2l23 53h38v-535q0 -53 -19 -92.5t-50.5 -62t-68.5 -33t-78 -10.5zM228 61q57 0 113 67v243
q-53 60 -110 60t-84 -56t-27 -129q0 -76 26 -130.5t82 -54.5zM253 576l-62 64l62 65l62 -65z" />
    <glyph glyph-name="Gcommaaccent" unicode="&#x122;" horiz-adv-x="583" 
d="M332 -10q-131 0 -205 93.5t-74 262.5q0 175 74.5 276.5t198.5 101.5q113 0 172 -89l-61 -45q-42 59 -110 59q-79 0 -134 -74.5t-55 -225.5q0 -136 50 -210t149 -74q47 0 85 15v212h-88l-28 73h198v-334q-28 -18 -76 -29.5t-96 -11.5zM261 -87l52 50q66 -35 66 -90
q0 -60 -85 -114l-30 28q44 33 44 64q0 34 -47 62z" />
    <glyph glyph-name="gcommaaccent" unicode="&#x123;" horiz-adv-x="478" 
d="M202 -241q-96 0 -156 38l26 66q55 -34 128 -34q64 0 102.5 31t38.5 94v96h-2q-58 -60 -122 -60q-77 0 -126.5 67.5t-49.5 184.5q0 118 50.5 189t128.5 71q67 0 135 -63h2l23 53h38v-535q0 -53 -19 -92.5t-50.5 -62t-68.5 -33t-78 -10.5zM228 61q57 0 113 67v243
q-53 60 -110 60t-84 -56t-27 -129q0 -76 26 -130.5t82 -54.5zM304 607l-52 -50q-66 35 -66 90q0 60 85 114l30 -28q-44 -33 -44 -64q0 -34 47 -62z" />
    <glyph glyph-name="Hcircumflex" unicode="&#x124;" horiz-adv-x="626" 
d="M77 0v714h83v-312h306v312h82v-714h-82v329h-306v-329h-83zM250 757h-77l95 158h89l94 -158h-76l-62 105h-2z" />
    <glyph glyph-name="hcircumflex" unicode="&#x125;" horiz-adv-x="502" 
d="M69 0v714h76v-289h2q44 38 81 57.5t81 19.5q63 0 98 -38.5t35 -104.5v-359h-77v346q0 84 -72 84q-58 0 -148 -80v-350h-76zM44 757h-77l95 158h89l94 -158h-76l-62 105h-2z" />
    <glyph glyph-name="Hbar" unicode="&#x126;" horiz-adv-x="651" 
d="M638 593v-73h-77v-520h-82v329h-307v-329h-82v520h-78v73h78v121h82v-121h307v121h82v-121h77zM172 402h307v118h-307v-118z" />
    <glyph glyph-name="hbar" unicode="&#x127;" horiz-adv-x="502" 
d="M7 573v63h62v78h76v-78h130v-63h-130v-148h2q44 38 81 57.5t81 19.5q63 0 98 -38.5t35 -104.5v-359h-77v346q0 84 -72 84q-58 0 -148 -80v-350h-76v573h-62z" />
    <glyph glyph-name="Itilde" unicode="&#x128;" horiz-adv-x="237" 
d="M77 0v714h83v-714h-83zM247 860v-68q-29 -24 -63 -24q-26 0 -69.5 23t-63.5 23q-29 0 -62 -27v68q31 24 64 24q25 0 68.5 -23t63.5 -23q29 0 62 27z" />
    <glyph glyph-name="itilde" unicode="&#x129;" horiz-adv-x="197" 
d="M229 659v-68q-29 -24 -63 -24q-26 0 -69.5 23t-63.5 23q-29 0 -62 -27v68q31 24 64 24q25 0 68.5 -23t63.5 -23q29 0 62 27zM137 0h-77v492h77v-492z" />
    <glyph glyph-name="imacron" unicode="&#x12b;" horiz-adv-x="197" 
d="M-24 590v64h246v-64h-246zM137 0h-77v492h77v-492z" />
    <glyph glyph-name="Ibreve" unicode="&#x12c;" horiz-adv-x="237" 
d="M77 0v714h83v-714h-83zM118 811q55 0 59 57h65q0 -48 -33.5 -79.5t-90.5 -31.5t-90.5 31.5t-33.5 79.5h65q4 -57 59 -57z" />
    <glyph glyph-name="Iogonek" unicode="&#x12e;" horiz-adv-x="237" 
d="M77 4v710h83v-714q-37 -24 -59 -58.5t-22 -69.5q0 -54 49 -54q32 0 66 23h2v-62q-33 -20 -79 -20q-53 0 -82 29t-29 74q0 78 71 142z" />
    <glyph glyph-name="iogonek" unicode="&#x12f;" horiz-adv-x="197" 
d="M99 576l-62 64l62 65l61 -65zM60 7v485h77v-492q-37 -24 -59 -58.5t-22 -69.5q0 -54 49 -54q32 0 66 23h2v-62q-33 -20 -79 -20q-53 0 -82 29t-29 74q0 80 77 145z" />
    <glyph glyph-name="Idotaccent" unicode="&#x130;" horiz-adv-x="237" 
d="M77 0v714h83v-714h-83zM118 777l-62 64l62 65l62 -65z" />
    <glyph glyph-name="dotlessi" unicode="&#x131;" horiz-adv-x="197" 
d="M137 0h-77v492h77v-492z" />
    <glyph glyph-name="IJ" unicode="&#x132;" horiz-adv-x="678" 
d="M77 0v714h83v-714h-83zM427 -10q-111 0 -163 86l61 48q36 -59 98 -59q95 0 95 99v550h82v-559q0 -80 -49 -122.5t-124 -42.5z" />
    <glyph glyph-name="ij" unicode="&#x133;" horiz-adv-x="411" 
d="M137 0h-77v492h77v-492zM99 576l-62 64l62 65l61 -65zM219 -241q-35 0 -59 12l23 66q13 -7 30 -7q61 0 61 73v589h77v-597q0 -63 -35.5 -99.5t-96.5 -36.5zM375 640l-62 -64l-62 64l62 65z" />
    <glyph glyph-name="Jcircumflex" unicode="&#x134;" horiz-adv-x="441" 
d="M190 -10q-111 0 -163 86l61 48q36 -59 98 -59q95 0 95 99v550h82v-559q0 -80 -49 -122.5t-124 -42.5zM261 757h-77l95 158h89l94 -158h-76l-62 105h-2z" />
    <glyph glyph-name="jcircumflex" unicode="&#x135;" horiz-adv-x="214" 
d="M22 -241q-35 0 -59 12l23 66q13 -7 30 -7q61 0 61 73v589h77v-597q0 -63 -35.5 -99.5t-96.5 -36.5zM53 556h-76l94 158h89l94 -158h-76l-61 105h-2z" />
    <glyph glyph-name="Kcommaaccent" unicode="&#x136;" horiz-adv-x="543" 
d="M202 304l-42 -57v-247h-83v714h83v-217q0 -87 -3 -137h2q3 4 35.5 52t49.5 72l162 230h97l-251 -342l273 -372h-99zM230 -87l52 50q66 -35 66 -90q0 -60 -85 -114l-30 28q44 33 44 64q0 34 -47 62z" />
    <glyph glyph-name="kcommaaccent" unicode="&#x137;" horiz-adv-x="440" 
d="M65 0v714h76v-443h2q21 28 58 73l123 148h98l-182 -208l180 -284h-90l-141 226l-48 -55v-171h-76zM173 -87l52 50q66 -35 66 -90q0 -60 -85 -114l-30 28q44 33 44 64q0 34 -47 62z" />
    <glyph glyph-name="Lacute" unicode="&#x139;" horiz-adv-x="455" 
d="M77 0v714h83v-641h277v-73h-360zM157 757h-77l90 158h81z" />
    <glyph glyph-name="lacute" unicode="&#x13a;" horiz-adv-x="214" 
d="M69 0v675l73 59h3v-734h-76zM144 757h-77l90 158h81z" />
    <glyph glyph-name="Lcommaaccent" unicode="&#x13b;" horiz-adv-x="455" 
d="M77 0v714h83v-641h277v-73h-360zM200 -87l52 50q66 -35 66 -90q0 -60 -85 -114l-30 28q44 33 44 64q0 34 -47 62z" />
    <glyph glyph-name="lcommaaccent" unicode="&#x13c;" horiz-adv-x="214" 
d="M69 0v675l73 59h3v-734h-76zM53 -87l52 50q66 -35 66 -90q0 -60 -85 -114l-30 28q44 33 44 64q0 34 -47 62z" />
    <glyph glyph-name="Lcaron" unicode="&#x13d;" horiz-adv-x="455" 
d="M77 0v714h83v-641h277v-73h-360zM347 596h-71l33 158h75z" />
    <glyph glyph-name="lcaron" unicode="&#x13e;" horiz-adv-x="214" 
d="M69 0v675l73 59h3v-734h-76zM267 556h-71l33 158h75z" />
    <glyph glyph-name="Ldot" unicode="&#x13f;" horiz-adv-x="455" 
d="M77 0v714h83v-641h277v-73h-360zM343 306l-62 64l62 65l62 -65z" />
    <glyph glyph-name="ldot" unicode="&#x140;" horiz-adv-x="323" 
d="M69 0v675l73 59h3v-734h-76zM263 265l-62 64l62 65l62 -65z" />
    <glyph glyph-name="Lslash" unicode="&#x141;" horiz-adv-x="467" 
d="M330 478l29 -62l-187 -92v-251h278v-73h-360v286l-63 -31l-29 61l92 46v352h82v-314z" />
    <glyph glyph-name="lslash" unicode="&#x142;" horiz-adv-x="232" 
d="M211 501l39 -53l-96 -74v-374h-77v318l-44 -36l-39 53l83 65v275l74 59h3v-278z" />
    <glyph glyph-name="Nacute" unicode="&#x143;" horiz-adv-x="633" 
d="M555 0h-102l-217 434q-56 113 -82 194h-4q10 -98 10 -231v-397h-83v714h103l218 -435q59 -123 80 -193h5q-10 86 -10 237v391h82v-714zM350 757h-77l90 158h81z" />
    <glyph glyph-name="nacute" unicode="&#x144;" horiz-adv-x="494" 
d="M434 0h-77v346q0 84 -73 84q-59 0 -147 -80v-350h-77v492h77v-67h2q43 38 80 57.5t81 19.5q63 0 98.5 -38.5t35.5 -104.5v-359zM284 556h-77l90 158h81z" />
    <glyph glyph-name="Ncommaaccent" unicode="&#x145;" horiz-adv-x="633" 
d="M555 0h-102l-217 434q-56 113 -82 194h-4q10 -98 10 -231v-397h-83v714h103l218 -435q59 -123 80 -193h5q-10 86 -10 237v391h82v-714zM259 -87l52 50q66 -35 66 -90q0 -60 -85 -114l-30 28q44 33 44 64q0 34 -47 62z" />
    <glyph glyph-name="ncommaaccent" unicode="&#x146;" horiz-adv-x="494" 
d="M434 0h-77v346q0 84 -73 84q-59 0 -147 -80v-350h-77v492h77v-67h2q43 38 80 57.5t81 19.5q63 0 98.5 -38.5t35.5 -104.5v-359zM191 -87l52 50q66 -35 66 -90q0 -60 -85 -114l-30 28q44 33 44 64q0 34 -47 62z" />
    <glyph glyph-name="Ncaron" unicode="&#x147;" horiz-adv-x="633" 
d="M555 0h-102l-217 434q-56 113 -82 194h-4q10 -98 10 -231v-397h-83v714h103l218 -435q59 -123 80 -193h5q-10 86 -10 237v391h82v-714zM175 915h77l61 -104h2l62 104h76l-94 -158h-89z" />
    <glyph glyph-name="ncaron" unicode="&#x148;" horiz-adv-x="494" 
d="M434 0h-77v346q0 84 -73 84q-59 0 -147 -80v-350h-77v492h77v-67h2q43 38 80 57.5t81 19.5q63 0 98.5 -38.5t35.5 -104.5v-359zM112 714h77l61 -104h2l62 104h76l-94 -158h-89z" />
    <glyph glyph-name="Eng" unicode="&#x14a;" horiz-adv-x="633" 
d="M473 0l-229 429q-60 112 -90 189h-4q10 -98 10 -227v-391h-83v714h102l214 -404q62 -114 85 -183h4q-9 90 -9 227v360h82v-773q0 -89 -42.5 -135.5t-124.5 -46.5q-39 0 -61 8v69q20 -6 50 -6q52 0 74 29t22 87v54z" />
    <glyph glyph-name="eng" unicode="&#x14b;" horiz-adv-x="494" 
d="M357 -43v389q0 84 -73 84q-59 0 -147 -80v-350h-77v492h77v-67h2q43 38 80 57.5t81 19.5q63 0 98.5 -38.5t35.5 -104.5v-410q0 -63 -35.5 -99.5t-96.5 -36.5q-35 0 -59 12l23 66q13 -7 30 -7q61 0 61 73z" />
    <glyph glyph-name="Omacron" unicode="&#x14c;" horiz-adv-x="601" 
d="M301 -10q-112 0 -180 88t-68 279t68 279t180 88q111 0 178.5 -88t67.5 -279t-67.5 -279t-178.5 -88zM301 65q73 0 117.5 69.5t44.5 222.5t-44.5 222.5t-117.5 69.5q-74 0 -118.5 -69.5t-44.5 -222.5t44.5 -222.5t118.5 -69.5zM177 791v64h246v-64h-246z" />
    <glyph glyph-name="omacron" unicode="&#x14d;" horiz-adv-x="483" 
d="M241 -10q-95 0 -147.5 71.5t-52.5 184.5t52.5 184.5t147.5 71.5t147.5 -71.5t52.5 -184.5t-52.5 -184.5t-147.5 -71.5zM241 61q62 0 91.5 52t29.5 133t-29.5 133t-91.5 52q-61 0 -91 -52t-30 -133t30 -133t91 -52zM118 590v64h246v-64h-246z" />
    <glyph glyph-name="Obreve" unicode="&#x14e;" horiz-adv-x="601" 
d="M301 -10q-112 0 -180 88t-68 279t68 279t180 88q111 0 178.5 -88t67.5 -279t-67.5 -279t-178.5 -88zM301 65q73 0 117.5 69.5t44.5 222.5t-44.5 222.5t-117.5 69.5q-74 0 -118.5 -69.5t-44.5 -222.5t44.5 -222.5t118.5 -69.5zM300 811q55 0 59 57h65q0 -48 -33.5 -79.5
t-90.5 -31.5t-90.5 31.5t-33.5 79.5h65q4 -57 59 -57z" />
    <glyph glyph-name="obreve" unicode="&#x14f;" horiz-adv-x="483" 
d="M241 -10q-95 0 -147.5 71.5t-52.5 184.5t52.5 184.5t147.5 71.5t147.5 -71.5t52.5 -184.5t-52.5 -184.5t-147.5 -71.5zM241 61q62 0 91.5 52t29.5 133t-29.5 133t-91.5 52q-61 0 -91 -52t-30 -133t30 -133t91 -52zM240 610q55 0 59 57h65q0 -48 -33.5 -79.5t-90.5 -31.5
t-90.5 31.5t-33.5 79.5h65q4 -57 59 -57z" />
    <glyph glyph-name="Ohungarumlaut" unicode="&#x150;" horiz-adv-x="601" 
d="M301 -10q-112 0 -180 88t-68 279t68 279t180 88q111 0 178.5 -88t67.5 -279t-67.5 -279t-178.5 -88zM301 65q73 0 117.5 69.5t44.5 222.5t-44.5 222.5t-117.5 69.5q-74 0 -118.5 -69.5t-44.5 -222.5t44.5 -222.5t118.5 -69.5zM270 757h-79l91 158h83zM419 757h-78l91 158
h82z" />
    <glyph glyph-name="ohungarumlaut" unicode="&#x151;" horiz-adv-x="483" 
d="M241 -10q-95 0 -147.5 71.5t-52.5 184.5t52.5 184.5t147.5 71.5t147.5 -71.5t52.5 -184.5t-52.5 -184.5t-147.5 -71.5zM241 61q62 0 91.5 52t29.5 133t-29.5 133t-91.5 52q-61 0 -91 -52t-30 -133t30 -133t91 -52zM205 556h-79l91 158h83zM354 556h-78l91 158h82z" />
    <glyph glyph-name="OE" unicode="&#x152;" horiz-adv-x="880" 
d="M53 357q0 101 19.5 175t53.5 114.5t74 59t88 18.5q109 0 160 -91h2v81h371v-73h-290v-239h244v-73h-244v-256h316v-73h-397v81h-2q-49 -91 -160 -91q-48 0 -88 18.5t-74 59t-53.5 114.5t-19.5 175zM292 65q71 0 114 69.5t43 222.5t-43 222.5t-114 69.5t-112.5 -69.5
t-41.5 -222.5t41.5 -222.5t112.5 -69.5z" />
    <glyph glyph-name="oe" unicode="&#x153;" horiz-adv-x="782" 
d="M403 96h-2q-46 -106 -162 -106q-93 0 -145.5 71.5t-52.5 184.5t52.5 184.5t146.5 71.5q115 0 161 -108h2q22 52 64 80t94 28q75 0 124.5 -56.5t49.5 -163.5q0 -6 -3 -51h-292q1 -171 152 -171q58 0 117 28l23 -62q-70 -36 -149 -36q-134 0 -180 106zM241 61q62 0 91.5 52
t29.5 133t-29.5 133t-91.5 52q-61 0 -91 -52t-30 -133t30 -133t91 -52zM443 296h217q1 57 -23.5 96.5t-77.5 39.5q-43 0 -76.5 -33t-39.5 -103z" />
    <glyph glyph-name="Racute" unicode="&#x154;" horiz-adv-x="526" 
d="M338 330v-2q38 -30 70 -113l80 -215h-88l-69 186q-30 83 -81 124h-90v-310h-83v714h174q61 0 106.5 -18.5t69 -49.5t34.5 -64t11 -70q0 -64 -34 -115t-100 -67zM160 384h90q42 0 71 12.5t42.5 33.5t18.5 40.5t5 41.5t-5 42t-18.5 41t-42.5 33.5t-71 12.5h-90v-257z
M277 757h-77l90 158h81z" />
    <glyph glyph-name="racute" unicode="&#x155;" horiz-adv-x="303" 
d="M60 0v492h77v-80h2q35 49 67 70t74 20v-77q-77 0 -143 -91v-334h-77zM183 556h-77l90 158h81z" />
    <glyph glyph-name="Rcommaaccent" unicode="&#x156;" horiz-adv-x="526" 
d="M338 330v-2q38 -30 70 -113l80 -215h-88l-69 186q-30 83 -81 124h-90v-310h-83v714h174q61 0 106.5 -18.5t69 -49.5t34.5 -64t11 -70q0 -64 -34 -115t-100 -67zM160 384h90q42 0 71 12.5t42.5 33.5t18.5 40.5t5 41.5t-5 42t-18.5 41t-42.5 33.5t-71 12.5h-90v-257z
M218 -87l52 50q66 -35 66 -90q0 -60 -85 -114l-30 28q44 33 44 64q0 34 -47 62z" />
    <glyph glyph-name="rcommaaccent" unicode="&#x157;" horiz-adv-x="303" 
d="M60 0v492h77v-80h2q35 49 67 70t74 20v-77q-77 0 -143 -91v-334h-77zM66 -87l52 50q66 -35 66 -90q0 -60 -85 -114l-30 28q44 33 44 64q0 34 -47 62z" />
    <glyph glyph-name="Rcaron" unicode="&#x158;" horiz-adv-x="526" 
d="M338 330v-2q38 -30 70 -113l80 -215h-88l-69 186q-30 83 -81 124h-90v-310h-83v714h174q61 0 106.5 -18.5t69 -49.5t34.5 -64t11 -70q0 -64 -34 -115t-100 -67zM160 384h90q42 0 71 12.5t42.5 33.5t18.5 40.5t5 41.5t-5 42t-18.5 41t-42.5 33.5t-71 12.5h-90v-257z
M113 915h77l61 -104h2l62 104h76l-94 -158h-89z" />
    <glyph glyph-name="rcaron" unicode="&#x159;" horiz-adv-x="303" 
d="M60 0v492h77v-80h2q35 49 67 70t74 20v-77q-77 0 -143 -91v-334h-77zM24 714h77l61 -104h2l62 104h76l-94 -158h-89z" />
    <glyph glyph-name="Sacute" unicode="&#x15a;" horiz-adv-x="491" 
d="M225 -10q-132 0 -196 104l60 48q45 -77 136 -77q59 0 97 32.5t38 91.5q0 35 -17 62t-43.5 46t-59 36.5t-65.5 36.5t-59.5 42t-43.5 58t-17 79q0 84 55.5 129.5t131.5 45.5q122 0 188 -100l-61 -46q-47 71 -122 71q-48 0 -78 -26.5t-30 -70.5q0 -31 17 -57t44 -44
t59.5 -35.5t65 -38t59.5 -44.5t44 -61t17 -83q0 -91 -63 -145t-157 -54zM281 757h-77l90 158h81z" />
    <glyph glyph-name="sacute" unicode="&#x15b;" horiz-adv-x="377" 
d="M169 -10q-71 0 -124 28v70q58 -29 119 -29q96 0 96 71q0 28 -21.5 48.5t-52.5 35.5t-62.5 32t-53 47.5t-21.5 72.5q0 63 42.5 99.5t106.5 36.5q68 0 112 -30v-70q-58 30 -108 30q-37 0 -57 -16t-20 -45q0 -28 22 -48.5t53 -35.5t62 -33t53 -48.5t22 -72.5
q0 -62 -43.5 -102.5t-124.5 -40.5zM225 556h-77l90 158h81z" />
    <glyph glyph-name="Scircumflex" unicode="&#x15c;" horiz-adv-x="491" 
d="M225 -10q-132 0 -196 104l60 48q45 -77 136 -77q59 0 97 32.5t38 91.5q0 35 -17 62t-43.5 46t-59 36.5t-65.5 36.5t-59.5 42t-43.5 58t-17 79q0 84 55.5 129.5t131.5 45.5q122 0 188 -100l-61 -46q-47 71 -122 71q-48 0 -78 -26.5t-30 -70.5q0 -31 17 -57t44 -44
t59.5 -35.5t65 -38t59.5 -44.5t44 -61t17 -83q0 -91 -63 -145t-157 -54zM182 757h-77l95 158h89l94 -158h-76l-62 105h-2z" />
    <glyph glyph-name="scircumflex" unicode="&#x15d;" horiz-adv-x="377" 
d="M169 -10q-71 0 -124 28v70q58 -29 119 -29q96 0 96 71q0 28 -21.5 48.5t-52.5 35.5t-62.5 32t-53 47.5t-21.5 72.5q0 63 42.5 99.5t106.5 36.5q68 0 112 -30v-70q-58 30 -108 30q-37 0 -57 -16t-20 -45q0 -28 22 -48.5t53 -35.5t62 -33t53 -48.5t22 -72.5
q0 -62 -43.5 -102.5t-124.5 -40.5zM125 556h-77l95 158h89l94 -158h-76l-62 105h-2z" />
    <glyph glyph-name="Scedilla" unicode="&#x15e;" horiz-adv-x="491" 
d="M168 -100l29 91q-113 11 -168 103l60 48q45 -77 136 -77q59 0 97 32.5t38 91.5q0 35 -17 62t-43.5 46t-59 36.5t-65.5 36.5t-59.5 42t-43.5 58t-17 79q0 84 55.5 129.5t131.5 45.5q122 0 188 -100l-61 -46q-47 71 -122 71q-48 0 -78 -26.5t-30 -70.5q0 -31 17 -57t44 -44
t59.5 -35.5t65 -38t59.5 -44.5t44 -61t17 -83q0 -83 -52.5 -135.5t-133.5 -61.5l-17 -53q41 -3 64 -25t23 -55q0 -43 -36 -71.5t-97 -28.5q-57 0 -92 22v54q38 -24 86 -24q33 0 52 12t19 34q0 23 -23.5 32.5t-69.5 10.5z" />
    <glyph glyph-name="Scedilla" unicode="&#xf6c1;" horiz-adv-x="491" 
d="M168 -100l29 91q-113 11 -168 103l60 48q45 -77 136 -77q59 0 97 32.5t38 91.5q0 35 -17 62t-43.5 46t-59 36.5t-65.5 36.5t-59.5 42t-43.5 58t-17 79q0 84 55.5 129.5t131.5 45.5q122 0 188 -100l-61 -46q-47 71 -122 71q-48 0 -78 -26.5t-30 -70.5q0 -31 17 -57t44 -44
t59.5 -35.5t65 -38t59.5 -44.5t44 -61t17 -83q0 -83 -52.5 -135.5t-133.5 -61.5l-17 -53q41 -3 64 -25t23 -55q0 -43 -36 -71.5t-97 -28.5q-57 0 -92 22v54q38 -24 86 -24q33 0 52 12t19 34q0 23 -23.5 32.5t-69.5 10.5z" />
    <glyph glyph-name="scedilla" unicode="&#x15f;" horiz-adv-x="377" 
d="M119 -100l29 91q-59 4 -103 27v70q58 -29 119 -29q96 0 96 71q0 28 -21.5 48.5t-52.5 35.5t-62.5 32t-53 47.5t-21.5 72.5q0 63 42.5 99.5t106.5 36.5q68 0 112 -30v-70q-58 30 -108 30q-37 0 -57 -16t-20 -45q0 -28 22 -48.5t53 -35.5t62 -33t53 -48.5t22 -72.5
q0 -53 -33 -91.5t-94 -47.5l-16 -55q40 -3 63 -25t23 -55q0 -43 -36 -71.5t-97 -28.5q-57 0 -92 22v54q39 -24 86 -24q33 0 52 12t19 34q0 23 -23.5 32.5t-69.5 10.5z" />
    <glyph glyph-name="scedilla" unicode="&#xf6c2;" horiz-adv-x="377" 
d="M119 -100l29 91q-59 4 -103 27v70q58 -29 119 -29q96 0 96 71q0 28 -21.5 48.5t-52.5 35.5t-62.5 32t-53 47.5t-21.5 72.5q0 63 42.5 99.5t106.5 36.5q68 0 112 -30v-70q-58 30 -108 30q-37 0 -57 -16t-20 -45q0 -28 22 -48.5t53 -35.5t62 -33t53 -48.5t22 -72.5
q0 -53 -33 -91.5t-94 -47.5l-16 -55q40 -3 63 -25t23 -55q0 -43 -36 -71.5t-97 -28.5q-57 0 -92 22v54q39 -24 86 -24q33 0 52 12t19 34q0 23 -23.5 32.5t-69.5 10.5z" />
    <glyph glyph-name="Scaron" unicode="&#x160;" horiz-adv-x="491" 
d="M225 -10q-132 0 -196 104l60 48q45 -77 136 -77q59 0 97 32.5t38 91.5q0 35 -17 62t-43.5 46t-59 36.5t-65.5 36.5t-59.5 42t-43.5 58t-17 79q0 84 55.5 129.5t131.5 45.5q122 0 188 -100l-61 -46q-47 71 -122 71q-48 0 -78 -26.5t-30 -70.5q0 -31 17 -57t44 -44
t59.5 -35.5t65 -38t59.5 -44.5t44 -61t17 -83q0 -91 -63 -145t-157 -54zM102 915h77l61 -104h2l62 104h76l-94 -158h-89z" />
    <glyph glyph-name="scaron" unicode="&#x161;" horiz-adv-x="377" 
d="M169 -10q-71 0 -124 28v70q58 -29 119 -29q96 0 96 71q0 28 -21.5 48.5t-52.5 35.5t-62.5 32t-53 47.5t-21.5 72.5q0 63 42.5 99.5t106.5 36.5q68 0 112 -30v-70q-58 30 -108 30q-37 0 -57 -16t-20 -45q0 -28 22 -48.5t53 -35.5t62 -33t53 -48.5t22 -72.5
q0 -62 -43.5 -102.5t-124.5 -40.5zM55 714h77l61 -104h2l62 104h76l-94 -158h-89z" />
    <glyph glyph-name="Tcommaaccent" unicode="&#x162;" horiz-adv-x="495" 
d="M288 0h-82v641h-189v73h460v-73h-189v-641zM193 -87l52 50q66 -35 66 -90q0 -60 -85 -114l-30 28q44 33 44 64q0 34 -47 62z" />
    <glyph glyph-name="Tcommaaccent" unicode="&#x21a;" horiz-adv-x="495" 
d="M288 0h-82v641h-189v73h460v-73h-189v-641zM193 -87l52 50q66 -35 66 -90q0 -60 -85 -114l-30 28q44 33 44 64q0 34 -47 62z" />
    <glyph glyph-name="tcommaaccent" unicode="&#x163;" horiz-adv-x="325" 
d="M252 -10q-75 0 -112.5 41.5t-37.5 117.5v274h-80v69h80v90l73 58h3v-148h120v-69h-120v-254q0 -55 19 -81.5t66 -26.5q28 0 41 5v-70q-16 -6 -52 -6zM139 -87l52 50q66 -35 66 -90q0 -60 -85 -114l-30 28q44 33 44 64q0 34 -47 62z" />
    <glyph glyph-name="tcommaaccent" unicode="&#x21b;" horiz-adv-x="325" 
d="M252 -10q-75 0 -112.5 41.5t-37.5 117.5v274h-80v69h80v90l73 58h3v-148h120v-69h-120v-254q0 -55 19 -81.5t66 -26.5q28 0 41 5v-70q-16 -6 -52 -6zM139 -87l52 50q66 -35 66 -90q0 -60 -85 -114l-30 28q44 33 44 64q0 34 -47 62z" />
    <glyph glyph-name="Tcaron" unicode="&#x164;" horiz-adv-x="495" 
d="M288 0h-82v641h-189v73h460v-73h-189v-641zM108 915h77l61 -104h2l62 104h76l-94 -158h-89z" />
    <glyph glyph-name="tcaron" unicode="&#x165;" horiz-adv-x="325" 
d="M252 -10q-75 0 -112.5 41.5t-37.5 117.5v274h-80v69h80v90l73 58h3v-148h120v-69h-120v-254q0 -55 19 -81.5t66 -26.5q28 0 41 5v-70q-16 -6 -52 -6zM305 556h-71l33 158h75z" />
    <glyph glyph-name="Tbar" unicode="&#x166;" horiz-adv-x="495" 
d="M63 329v73h143v239h-189v73h460v-73h-189v-239h143v-73h-143v-329h-82v329h-143z" />
    <glyph glyph-name="tbar" unicode="&#x167;" horiz-adv-x="325" 
d="M22 240v62h80v121h-80v69h80v90l73 58h3v-148h120v-69h-120v-121h102v-62h-102v-71q0 -55 19 -81.5t66 -26.5q28 0 41 5v-70q-16 -6 -52 -6q-75 0 -112.5 41.5t-37.5 117.5v91h-80z" />
    <glyph glyph-name="Utilde" unicode="&#x168;" horiz-adv-x="632" 
d="M316 -10q-111 0 -175 61t-64 184v479h83v-475q0 -85 40.5 -129.5t115.5 -44.5t116 44.5t41 129.5v475h82v-479q0 -123 -64 -184t-175 -61zM446 860v-68q-29 -24 -63 -24q-26 0 -69.5 23t-63.5 23q-29 0 -62 -27v68q31 24 64 24q25 0 68.5 -23t63.5 -23q29 0 62 27z" />
    <glyph glyph-name="utilde" unicode="&#x169;" horiz-adv-x="494" 
d="M434 492v-492h-77v66h-2q-87 -76 -161 -76q-63 0 -98.5 38.5t-35.5 105.5v358h77v-347q0 -84 73 -84q57 0 147 80v351h77zM376 659v-68q-29 -24 -63 -24q-26 0 -69.5 23t-63.5 23q-29 0 -62 -27v68q31 24 64 24q25 0 68.5 -23t63.5 -23q29 0 62 27z" />
    <glyph glyph-name="Umacron" unicode="&#x16a;" horiz-adv-x="632" 
d="M316 -10q-111 0 -175 61t-64 184v479h83v-475q0 -85 40.5 -129.5t115.5 -44.5t116 44.5t41 129.5v475h82v-479q0 -123 -64 -184t-175 -61zM193 791v64h246v-64h-246z" />
    <glyph glyph-name="umacron" unicode="&#x16b;" horiz-adv-x="494" 
d="M434 492v-492h-77v66h-2q-87 -76 -161 -76q-63 0 -98.5 38.5t-35.5 105.5v358h77v-347q0 -84 73 -84q57 0 147 80v351h77zM123 590v64h246v-64h-246z" />
    <glyph glyph-name="Ubreve" unicode="&#x16c;" horiz-adv-x="632" 
d="M316 -10q-111 0 -175 61t-64 184v479h83v-475q0 -85 40.5 -129.5t115.5 -44.5t116 44.5t41 129.5v475h82v-479q0 -123 -64 -184t-175 -61zM316 811q55 0 59 57h65q0 -48 -33.5 -79.5t-90.5 -31.5t-90.5 31.5t-33.5 79.5h65q4 -57 59 -57z" />
    <glyph glyph-name="ubreve" unicode="&#x16d;" horiz-adv-x="494" 
d="M434 492v-492h-77v66h-2q-87 -76 -161 -76q-63 0 -98.5 38.5t-35.5 105.5v358h77v-347q0 -84 73 -84q57 0 147 80v351h77zM246 610q55 0 59 57h65q0 -48 -33.5 -79.5t-90.5 -31.5t-90.5 31.5t-33.5 79.5h65q4 -57 59 -57z" />
    <glyph glyph-name="Uring" unicode="&#x16e;" horiz-adv-x="632" 
d="M316 -10q-111 0 -175 61t-64 184v479h83v-475q0 -85 40.5 -129.5t115.5 -44.5t116 44.5t41 129.5v475h82v-479q0 -123 -64 -184t-175 -61zM316 740q-49 0 -79.5 26.5t-30.5 65.5q0 40 30.5 66t79.5 26q50 0 80 -26t30 -66q0 -39 -30 -65.5t-80 -26.5zM366 832
q0 19 -13.5 31.5t-36.5 12.5t-36.5 -12.5t-13.5 -31.5t13.5 -31.5t36.5 -12.5t36.5 12.5t13.5 31.5z" />
    <glyph glyph-name="uring" unicode="&#x16f;" horiz-adv-x="494" 
d="M434 492v-492h-77v66h-2q-87 -76 -161 -76q-63 0 -98.5 38.5t-35.5 105.5v358h77v-347q0 -84 73 -84q57 0 147 80v351h77zM246 547q-49 0 -79.5 26.5t-30.5 65.5q0 40 30.5 66t79.5 26q50 0 80 -26t30 -66q0 -39 -30 -65.5t-80 -26.5zM296 639q0 19 -13.5 31.5
t-36.5 12.5t-36.5 -12.5t-13.5 -31.5t13.5 -31.5t36.5 -12.5t36.5 12.5t13.5 31.5z" />
    <glyph glyph-name="Uhungarumlaut" unicode="&#x170;" horiz-adv-x="632" 
d="M316 -10q-111 0 -175 61t-64 184v479h83v-475q0 -85 40.5 -129.5t115.5 -44.5t116 44.5t41 129.5v475h82v-479q0 -123 -64 -184t-175 -61zM273 757h-79l91 158h83zM422 757h-78l91 158h82z" />
    <glyph glyph-name="uhungarumlaut" unicode="&#x171;" horiz-adv-x="494" 
d="M434 492v-492h-77v66h-2q-87 -76 -161 -76q-63 0 -98.5 38.5t-35.5 105.5v358h77v-347q0 -84 73 -84q57 0 147 80v351h77zM206 556h-79l91 158h83zM355 556h-78l91 158h82z" />
    <glyph glyph-name="Uogonek" unicode="&#x172;" horiz-adv-x="632" 
d="M302 -10v2q-103 2 -164 62.5t-61 180.5v479h83v-475q0 -85 40.5 -129.5t115.5 -44.5t116 44.5t41 129.5v475h82v-479q0 -125 -70 -187q-23 -21 -81 -49q-49 -23 -81 -57t-32 -74q0 -50 55 -50q36 0 77 24h2v-62q-39 -21 -90 -21q-55 0 -85.5 27t-30.5 72q0 40 23 75
t60 57z" />
    <glyph glyph-name="uogonek" unicode="&#x173;" horiz-adv-x="494" 
d="M228 -142q0 52 37.5 93t91.5 64v51h-2q-87 -76 -161 -76q-63 0 -98.5 38.5t-35.5 105.5v358h77v-347q0 -84 73 -84q57 0 147 80v351h77v-492q-56 -18 -95 -54.5t-39 -78.5q0 -49 55 -49q35 0 77 24h2v-62q-38 -21 -90 -21q-55 0 -85.5 27t-30.5 72z" />
    <glyph glyph-name="Wcircumflex" unicode="&#x174;" horiz-adv-x="798" 
d="M401 629h-4q-16 -123 -30 -202l-80 -427h-107l-158 714h87l87 -422q9 -46 35 -214h4q16 131 32 212l80 424h104l80 -424q19 -101 32 -212h4q17 126 35 214l87 422h87l-158 -714h-107l-80 427q-20 109 -30 202zM336 757h-77l95 158h89l94 -158h-76l-62 105h-2z" />
    <glyph glyph-name="wcircumflex" unicode="&#x175;" horiz-adv-x="644" 
d="M273 492h98l59 -303q12 -62 21 -128h4q7 51 24 130l68 301h81l-129 -492h-96l-58 304q-10 47 -21 124h-4q-4 -30 -21 -124l-58 -304h-97l-128 492h81l67 -301q17 -69 25 -130h4q5 47 21 128zM259 556h-77l95 158h89l94 -158h-76l-62 105h-2z" />
    <glyph glyph-name="Ycircumflex" unicode="&#x176;" horiz-adv-x="519" 
d="M258 369h2q10 24 50 117l101 228h86l-197 -430v-284h-82v284l-197 430h87l100 -228q40 -93 50 -117zM196 757h-77l95 158h89l94 -158h-76l-62 105h-2z" />
    <glyph glyph-name="ycircumflex" unicode="&#x177;" horiz-adv-x="441" 
d="M35 -240l-21 71q7 -1 18 -1q53 0 87.5 34.5t67.5 135.5l-169 492h82l91 -278q23 -69 34 -113h2q14 52 33 111l86 280h83l-163 -492q-40 -122 -86.5 -181.5t-125.5 -59.5q-11 0 -19 1zM161 556h-77l95 158h89l94 -158h-76l-62 105h-2z" />
    <glyph glyph-name="Ydieresis" unicode="&#x178;" horiz-adv-x="519" 
d="M258 369h2q10 24 50 117l101 228h86l-197 -430v-284h-82v284l-197 430h87l100 -228q40 -93 50 -117zM173 778l-59 62l59 62l60 -62zM343 778l-59 62l59 62l60 -62z" />
    <glyph glyph-name="Zacute" unicode="&#x179;" horiz-adv-x="514" 
d="M481 0h-442v60l330 579v2h-315v73h414v-59l-333 -580v-2h346v-73zM292 757h-77l90 158h81z" />
    <glyph glyph-name="zacute" unicode="&#x17a;" horiz-adv-x="403" 
d="M36 0v57l228 364v2h-216v69h308v-57l-228 -364v-2h239v-69h-331zM234 556h-77l90 158h81z" />
    <glyph glyph-name="Zdotaccent" unicode="&#x17b;" horiz-adv-x="514" 
d="M481 0h-442v60l330 579v2h-315v73h414v-59l-333 -580v-2h346v-73zM260 777l-62 64l62 65l62 -65z" />
    <glyph glyph-name="zdotaccent" unicode="&#x17c;" horiz-adv-x="403" 
d="M36 0v57l228 364v2h-216v69h308v-57l-228 -364v-2h239v-69h-331zM200 576l-62 64l62 65l62 -65z" />
    <glyph glyph-name="Zcaron" unicode="&#x17d;" horiz-adv-x="514" 
d="M481 0h-442v60l330 579v2h-315v73h414v-59l-333 -580v-2h346v-73zM121 915h77l61 -104h2l62 104h76l-94 -158h-89z" />
    <glyph glyph-name="zcaron" unicode="&#x17e;" horiz-adv-x="403" 
d="M36 0v57l228 364v2h-216v69h308v-57l-228 -364v-2h239v-69h-331zM63 714h77l61 -104h2l62 104h76l-94 -158h-89z" />
    <glyph glyph-name="florin" unicode="&#x192;" 
d="M48 322v68h145l29 144q8 39 19 69.5t30.5 59.5t51.5 45t74 16q41 0 75 -15l-12 -68q-29 13 -56 13q-78 0 -105 -130l-27 -134h146v-68h-159l-108 -553h-80l109 553h-132z" />
    <glyph glyph-name="Aringacute" unicode="&#x1fa;" horiz-adv-x="555" 
d="M278 741q-49 0 -79.5 26t-30.5 66q0 38 29 64t77 27l56 100h81l-72 -113q49 -26 49 -78q0 -40 -30 -66t-80 -26zM328 833q0 19 -13.5 31.5t-36.5 12.5t-36.5 -12.5t-13.5 -31.5t13.5 -31.5t36.5 -12.5t36.5 12.5t13.5 31.5zM21 0l207 714h99l207 -714h-87l-52 183h-235
l-52 -183h-87zM181 256h193l-65 250q-19 76 -29 129h-4q-14 -76 -29 -130z" />
    <glyph glyph-name="aringacute" unicode="&#x1fb;" horiz-adv-x="461" 
d="M232 547q-50 0 -80 26.5t-30 65.5q0 38 28.5 64.5t76.5 27.5l56 99h81l-72 -113q50 -24 50 -78q0 -39 -30.5 -65.5t-79.5 -26.5zM282 639q0 19 -13.5 31.5t-36.5 12.5t-36.5 -12.5t-13.5 -31.5t13.5 -31.5t36.5 -12.5t36.5 12.5t13.5 31.5zM181 60q58 0 126 79v111
q-185 -29 -185 -126q0 -30 16 -47t43 -17zM77 383h-3l21 77q64 42 141 42q65 0 106.5 -36t41.5 -108v-243q0 -47 42 -62l-34 -63q-64 19 -74 80h-2q-69 -80 -149 -80q-54 0 -88 35t-34 94q0 84 68 130t194 66v42q0 35 -20.5 55.5t-58.5 20.5q-62 0 -151 -50z" />
    <glyph glyph-name="AEacute" unicode="&#x1fc;" horiz-adv-x="811" 
d="M21 0l292 714h429v-73h-321l36 -239h243v-73h-232l38 -256h271v-73h-344l-27 183h-224l-74 -183h-87zM297 472l-85 -216h184l-29 216q-5 40 -16 144h-5q-26 -86 -49 -144zM522 757h-77l90 158h81z" />
    <glyph glyph-name="aeacute" unicode="&#x1fd;" horiz-adv-x="727" 
d="M358 422h2q51 80 147 80q78 0 125.5 -56.5t47.5 -159.5q0 -30 -3 -51h-291q1 -87 40.5 -131t111.5 -44q56 0 116 28l24 -62q-72 -36 -149 -36q-117 0 -174 87h-2q-78 -87 -176 -87q-58 0 -95 34.5t-37 95.5q0 86 68 133t181 47h13v48q0 85 -79 85q-62 0 -151 -50h-3
l21 77q64 42 139 42q97 0 124 -80zM189 60q72 0 137 74q-15 45 -15 101h-17q-80 0 -126 -30t-46 -81q0 -31 18.5 -47.5t48.5 -16.5zM389 300h216q2 56 -22.5 94t-78.5 38q-43 0 -76.5 -31.5t-38.5 -100.5zM409 556h-77l90 158h81z" />
    <glyph glyph-name="Oslashacute" unicode="&#x1fe;" horiz-adv-x="601" 
d="M337 757h-77l90 158h81zM105 -13l-54 38l52 81q-50 94 -50 251q0 191 68 279t180 88q93 0 155 -61l40 63l54 -37l-53 -83q50 -92 50 -249q0 -191 -67.5 -279t-178.5 -88q-96 0 -156 61zM138 357q0 -96 21 -164l251 399q-42 57 -109 57q-74 0 -118.5 -69.5t-44.5 -222.5z
M301 65q73 0 117.5 69.5t44.5 222.5q0 95 -21 163l-251 -398q41 -57 110 -57z" />
    <glyph glyph-name="oslashacute" unicode="&#x1ff;" horiz-adv-x="483" 
d="M280 556h-77l90 158h81zM85 -12l-46 36l42 56q-40 65 -40 166q0 113 52.5 184.5t147.5 71.5q72 0 122 -45l34 47l46 -36l-42 -57q40 -65 40 -165q0 -113 -52.5 -184.5t-147.5 -71.5q-71 0 -122 43zM120 246q0 -54 15 -95l182 247q-30 33 -76 33q-61 0 -91 -52t-30 -133z
M241 61q62 0 91.5 52t29.5 133q0 56 -14 94l-184 -247q29 -32 77 -32z" />
    <glyph glyph-name="Scommaaccent" unicode="&#x218;" horiz-adv-x="491" 
d="M225 -10q-132 0 -196 104l60 48q45 -77 136 -77q59 0 97 32.5t38 91.5q0 35 -17 62t-43.5 46t-59 36.5t-65.5 36.5t-59.5 42t-43.5 58t-17 79q0 84 55.5 129.5t131.5 45.5q122 0 188 -100l-61 -46q-47 71 -122 71q-48 0 -78 -26.5t-30 -70.5q0 -31 17 -57t44 -44
t59.5 -35.5t65 -38t59.5 -44.5t44 -61t17 -83q0 -91 -63 -145t-157 -54zM177 -87l52 50q66 -35 66 -90q0 -60 -85 -114l-30 28q44 33 44 64q0 34 -47 62z" />
    <glyph glyph-name="scommaaccent" unicode="&#x219;" horiz-adv-x="377" 
d="M169 -10q-71 0 -124 28v70q58 -29 119 -29q96 0 96 71q0 28 -21.5 48.5t-52.5 35.5t-62.5 32t-53 47.5t-21.5 72.5q0 63 42.5 99.5t106.5 36.5q68 0 112 -30v-70q-58 30 -108 30q-37 0 -57 -16t-20 -45q0 -28 22 -48.5t53 -35.5t62 -33t53 -48.5t22 -72.5
q0 -62 -43.5 -102.5t-124.5 -40.5zM127 -87l52 50q66 -35 66 -90q0 -60 -85 -114l-30 28q44 33 44 64q0 34 -47 62z" />
    <glyph glyph-name="circumflex" unicode="&#x2c6;" horiz-adv-x="372" 
d="M124 556h-77l95 158h89l94 -158h-76l-62 105h-2z" />
    <glyph glyph-name="caron" unicode="&#x2c7;" horiz-adv-x="372" 
d="M47 714h77l61 -104h2l62 104h76l-94 -158h-89z" />
    <glyph glyph-name="breve" unicode="&#x2d8;" horiz-adv-x="372" 
d="M186 610q55 0 59 57h65q0 -48 -33.5 -79.5t-90.5 -31.5t-90.5 31.5t-33.5 79.5h65q4 -57 59 -57z" />
    <glyph glyph-name="dotaccent" unicode="&#x2d9;" horiz-adv-x="372" 
d="M186 576l-62 64l62 65l62 -65z" />
    <glyph glyph-name="ring" unicode="&#x2da;" horiz-adv-x="372" 
d="M186 547q-49 0 -79.5 26.5t-30.5 65.5q0 40 30.5 66t79.5 26q50 0 80 -26t30 -66q0 -39 -30 -65.5t-80 -26.5zM236 639q0 19 -13.5 31.5t-36.5 12.5t-36.5 -12.5t-13.5 -31.5t13.5 -31.5t36.5 -12.5t36.5 12.5t13.5 31.5z" />
    <glyph glyph-name="ogonek" unicode="&#x2db;" horiz-adv-x="372" 
d="M108 -142q0 44 31 83t75 59h85q-57 -25 -88 -60.5t-31 -71.5q0 -50 55 -50q35 0 77 24h2v-62q-38 -21 -90 -21q-55 0 -85.5 27t-30.5 72z" />
    <glyph glyph-name="tilde" unicode="&#x2dc;" horiz-adv-x="372" 
d="M315 659v-68q-29 -24 -63 -24q-26 0 -69.5 23t-63.5 23q-29 0 -62 -27v68q31 24 64 24q25 0 68.5 -23t63.5 -23q29 0 62 27z" />
    <glyph glyph-name="hungarumlaut" unicode="&#x2dd;" horiz-adv-x="372" 
d="M149 556h-79l91 158h83zM298 556h-78l91 158h82z" />
    <glyph glyph-name="uni0315" unicode="&#x315;" horiz-adv-x="372" 
d="M200 556h-71l33 158h75z" />
    <glyph glyph-name="uni0326" unicode="&#x326;" horiz-adv-x="268" 
d="M79 -87l52 50q66 -35 66 -90q0 -60 -85 -114l-30 28q44 33 44 64q0 34 -47 62z" />
    <glyph glyph-name="Delta" unicode="&#x394;" horiz-adv-x="555" 
d="M516 60v-60h-477v60l189 654h99zM247 504l-119 -431h299l-118 432q-16 58 -29 128h-4q-13 -68 -29 -129z" />
    <glyph glyph-name="Delta" unicode="&#x2206;" horiz-adv-x="555" 
d="M516 60v-60h-477v60l189 654h99zM247 504l-119 -431h299l-118 432q-16 58 -29 128h-4q-13 -68 -29 -129z" />
    <glyph glyph-name="uni03A9" unicode="&#x3a9;" horiz-adv-x="600" 
d="M300 649q-72 0 -117.5 -59t-45.5 -175q0 -87 26.5 -163t90.5 -192v-60h-206v73h124v2q-58 91 -89 169.5t-31 176.5q0 127 64 215t184 88t184 -88t64 -215q0 -98 -31 -176.5t-89 -169.5v-2h124v-73h-206v60q64 117 91 192.5t27 162.5q0 116 -45.5 175t-118.5 59z" />
    <glyph glyph-name="uni03A9" unicode="&#x2126;" horiz-adv-x="600" 
d="M300 649q-72 0 -117.5 -59t-45.5 -175q0 -87 26.5 -163t90.5 -192v-60h-206v73h124v2q-58 91 -89 169.5t-31 176.5q0 127 64 215t184 88t184 -88t64 -215q0 -98 -31 -176.5t-89 -169.5v-2h124v-73h-206v60q64 117 91 192.5t27 162.5q0 116 -45.5 175t-118.5 59z" />
    <glyph glyph-name="pi" unicode="&#x3c0;" horiz-adv-x="576" 
d="M516 65l9 -68q-23 -7 -49 -7q-51 0 -77.5 28.5t-26.5 79.5v325h-180v-423h-76v423h-85v69h515v-69h-97v-314q0 -47 43 -47q12 0 24 3z" />
    <glyph glyph-name="Wgrave" unicode="&#x1e80;" horiz-adv-x="798" 
d="M401 629h-4q-16 -123 -30 -202l-80 -427h-107l-158 714h87l87 -422q9 -46 35 -214h4q16 131 32 212l80 424h104l80 -424q19 -101 32 -212h4q17 126 35 214l87 422h87l-158 -714h-107l-80 427q-20 109 -30 202zM445 757h-77l-94 158h81z" />
    <glyph glyph-name="wgrave" unicode="&#x1e81;" horiz-adv-x="644" 
d="M273 492h98l59 -303q12 -62 21 -128h4q7 51 24 130l68 301h81l-129 -492h-96l-58 304q-10 47 -21 124h-4q-4 -30 -21 -124l-58 -304h-97l-128 492h81l67 -301q17 -69 25 -130h4q5 47 21 128zM363 556h-77l-94 158h81z" />
    <glyph glyph-name="Wacute" unicode="&#x1e82;" horiz-adv-x="798" 
d="M401 629h-4q-16 -123 -30 -202l-80 -427h-107l-158 714h87l87 -422q9 -46 35 -214h4q16 131 32 212l80 424h104l80 -424q19 -101 32 -212h4q17 126 35 214l87 422h87l-158 -714h-107l-80 427q-20 109 -30 202zM437 757h-77l90 158h81z" />
    <glyph glyph-name="wacute" unicode="&#x1e83;" horiz-adv-x="644" 
d="M273 492h98l59 -303q12 -62 21 -128h4q7 51 24 130l68 301h81l-129 -492h-96l-58 304q-10 47 -21 124h-4q-4 -30 -21 -124l-58 -304h-97l-128 492h81l67 -301q17 -69 25 -130h4q5 47 21 128zM358 556h-77l90 158h81z" />
    <glyph glyph-name="Wdieresis" unicode="&#x1e84;" horiz-adv-x="798" 
d="M401 629h-4q-16 -123 -30 -202l-80 -427h-107l-158 714h87l87 -422q9 -46 35 -214h4q16 131 32 212l80 424h104l80 -424q19 -101 32 -212h4q17 126 35 214l87 422h87l-158 -714h-107l-80 427q-20 109 -30 202zM313 778l-59 62l59 62l60 -62zM483 778l-59 62l59 62l60 -62
z" />
    <glyph glyph-name="wdieresis" unicode="&#x1e85;" horiz-adv-x="644" 
d="M273 492h98l59 -303q12 -62 21 -128h4q7 51 24 130l68 301h81l-129 -492h-96l-58 304q-10 47 -21 124h-4q-4 -30 -21 -124l-58 -304h-97l-128 492h81l67 -301q17 -69 25 -130h4q5 47 21 128zM236 577l-59 62l59 62l60 -62zM406 577l-59 62l59 62l60 -62z" />
    <glyph glyph-name="Ygrave" unicode="&#x1ef2;" horiz-adv-x="519" 
d="M258 369h2q10 24 50 117l101 228h86l-197 -430v-284h-82v284l-197 430h87l100 -228q40 -93 50 -117zM305 757h-77l-94 158h81z" />
    <glyph glyph-name="ygrave" unicode="&#x1ef3;" horiz-adv-x="441" 
d="M35 -240l-21 71q7 -1 18 -1q53 0 87.5 34.5t67.5 135.5l-169 492h82l91 -278q23 -69 34 -113h2q14 52 33 111l86 280h83l-163 -492q-40 -122 -86.5 -181.5t-125.5 -59.5q-11 0 -19 1zM265 556h-77l-94 158h81z" />
    <glyph glyph-name="endash" unicode="&#x2013;" horiz-adv-x="400" 
d="M0 221v68h400v-68h-400z" />
    <glyph glyph-name="emdash" unicode="&#x2014;" horiz-adv-x="800" 
d="M0 221v68h800v-68h-800z" />
    <glyph glyph-name="quoteleft" unicode="&#x2018;" horiz-adv-x="268" 
d="M202 472l-60 -63q-39 36 -56 70t-17 78q0 89 91 177l38 -35q-57 -60 -57 -117q0 -59 61 -110z" />
    <glyph glyph-name="quoteright" unicode="&#x2019;" horiz-adv-x="268" 
d="M65 670l60 64q73 -66 73 -148q0 -89 -91 -177l-38 35q57 60 57 117q0 59 -61 109z" />
    <glyph glyph-name="quotesinglbase" unicode="&#x201a;" horiz-adv-x="268" 
d="M65 69l60 64q73 -66 73 -148q0 -89 -91 -177l-38 35q57 60 57 117q0 59 -61 109z" />
    <glyph glyph-name="quotedblleft" unicode="&#x201c;" horiz-adv-x="451" 
d="M142 409q-39 36 -56 70t-17 78q0 89 91 177l38 -35q-57 -60 -57 -117q0 -59 61 -110zM325 409q-40 36 -57 70t-17 78q0 89 92 177l37 -35q-56 -60 -56 -117q0 -59 61 -110z" />
    <glyph glyph-name="quotedblright" unicode="&#x201d;" horiz-adv-x="451" 
d="M65 670l60 64q73 -66 73 -148q0 -89 -91 -177l-38 35q57 60 57 117q0 59 -61 109zM248 670l60 64q73 -66 73 -148q0 -89 -91 -177l-38 35q56 59 56 117q0 60 -60 109z" />
    <glyph glyph-name="quotedblbase" unicode="&#x201e;" horiz-adv-x="451" 
d="M65 69l60 64q73 -66 73 -148q0 -89 -91 -177l-38 35q57 60 57 117q0 59 -61 109zM248 69l60 64q73 -66 73 -148q0 -89 -91 -177l-38 35q56 59 56 117q0 60 -60 109z" />
    <glyph glyph-name="dagger" unicode="&#x2020;" horiz-adv-x="410" 
d="M217 205h-24q0 191 -30 240v11q10 14 21 42.5t11 44.5l-2 2q-17 0 -54 -11.5t-54 -11.5q-20 0 -32.5 9.5t-12.5 23.5q0 15 12.5 24t32.5 9q17 0 54 -11t54 -11l2 2q0 16 -11.5 54.5t-11.5 55.5q0 20 9 33t24 13q16 0 25 -12.5t9 -33.5q0 -17 -11.5 -55.5t-11.5 -54.5
l2 -2q16 0 53 11t54 11q20 0 32.5 -9t12.5 -24q0 -14 -12.5 -23.5t-32.5 -9.5q-17 0 -54 11.5t-53 11.5l-2 -2q0 -17 11 -45t20 -42v-11q-30 -54 -30 -240z" />
    <glyph glyph-name="daggerdbl" unicode="&#x2021;" horiz-adv-x="410" 
d="M195 357q0 56 -32 88v11q10 14 21 42.5t11 44.5l-2 2q-17 0 -54 -11.5t-54 -11.5q-20 0 -32.5 9.5t-12.5 23.5q0 15 12.5 24t32.5 9q17 0 54 -11t54 -11l2 2q0 16 -11.5 54.5t-11.5 55.5q0 20 9 33t24 13q16 0 25 -12.5t9 -33.5q0 -17 -11.5 -55.5t-11.5 -54.5l2 -2
q16 0 53 11t54 11q20 0 32.5 -9t12.5 -24q0 -14 -12.5 -23.5t-32.5 -9.5q-17 0 -54 11.5t-53 11.5l-2 -2q0 -17 11 -45t20 -42v-11q-31 -33 -31 -88q0 -53 31 -89v-11q-9 -13 -20 -41t-11 -45l2 -2q16 0 53 11t54 11q20 0 32.5 -9t12.5 -24q0 -14 -12.5 -23.5t-32.5 -9.5
q-17 0 -54 11.5t-53 11.5l-2 -2q0 -16 11.5 -55t11.5 -56q0 -20 -9 -32.5t-25 -12.5q-15 0 -24 12.5t-9 32.5q0 17 11.5 56t11.5 55l-2 2q-17 0 -54 -11.5t-54 -11.5q-20 0 -32.5 9.5t-12.5 23.5q0 15 12.5 24t32.5 9q17 0 54 -11t54 -11l2 2q0 17 -11.5 45t-20.5 41v11
q32 34 32 89z" />
    <glyph glyph-name="bullet" unicode="&#x2022;" horiz-adv-x="450" 
d="M100 245q0 52 36.5 88.5t88.5 36.5t88.5 -36.5t36.5 -88.5t-36.5 -88.5t-88.5 -36.5t-88.5 36.5t-36.5 88.5z" />
    <glyph glyph-name="ellipsis" unicode="&#x2026;" horiz-adv-x="1011" 
d="M236 59l-68 -69l-67 69l67 70zM573 59l-68 -69l-67 69l67 70zM910 59l-68 -69l-67 69l67 70z" />
    <glyph glyph-name="perthousand" unicode="&#x2030;" horiz-adv-x="1180" 
d="M218 -10l-53 33l427 701l53 -33zM199 362q-72 0 -114.5 50.5t-42.5 130.5t42.5 130.5t114.5 50.5t114 -50.5t42 -130.5t-42 -130.5t-114 -50.5zM199 420q41 0 64 35t23 88t-23 88t-64 35t-64 -35t-23 -88t23 -88t64 -35zM612 -10q-72 0 -114.5 50.5t-42.5 130.5
t42.5 130.5t114.5 50.5t114 -50.5t42 -130.5t-42 -130.5t-114 -50.5zM612 48q41 0 63.5 34.5t22.5 88.5t-22.5 88.5t-63.5 34.5q-42 0 -64.5 -34.5t-22.5 -88.5t22.5 -88.5t64.5 -34.5zM981 -10q-72 0 -114.5 50.5t-42.5 130.5t42.5 130.5t114.5 50.5t114 -50.5t42 -130.5
t-42 -130.5t-114 -50.5zM981 48q41 0 63.5 34.5t22.5 88.5t-22.5 88.5t-63.5 34.5q-42 0 -64.5 -34.5t-22.5 -88.5t22.5 -88.5t64.5 -34.5z" />
    <glyph glyph-name="guilsinglleft" unicode="&#x2039;" horiz-adv-x="288" 
d="M51 257l146 195h53l-99 -195l99 -195h-53z" />
    <glyph glyph-name="guilsinglright" unicode="&#x203a;" horiz-adv-x="288" 
d="M91 452l146 -195l-146 -195h-54l99 195l-99 195h54z" />
    <glyph glyph-name="fraction" unicode="&#x2044;" horiz-adv-x="180" 
d="M330 691l-427 -701l-53 33l427 701z" />
    <glyph glyph-name="zerosuperior" unicode="&#x2070;" horiz-adv-x="334" 
d="M167 374q-139 0 -139 223t139 223t139 -223t-139 -223zM167 433q67 0 67 164t-67 164t-67 -164t67 -164z" />
    <glyph glyph-name="foursuperior" unicode="&#x2074;" horiz-adv-x="334" 
d="M180 380v127h-169v32l198 278h40v-251h74l-24 -59h-50v-127h-69zM180 566v75q0 19 2 47h-2q-13 -20 -25 -36l-59 -84v-2h84z" />
    <glyph glyph-name="fivesuperior" unicode="&#x2075;" horiz-adv-x="334" 
d="M37 498q0 15 3 30h64q-2 -12 -2 -25q0 -36 17.5 -53.5t45.5 -17.5q30 0 48.5 20.5t18.5 59.5q0 81 -80 81q-34 0 -61 -11l-40 23l30 209h226l-24 -59h-146l-15 -108l1 -1q19 6 42 6q65 0 102 -40t37 -99q0 -62 -38.5 -100.5t-101.5 -38.5q-58 0 -92.5 31t-34.5 93z" />
    <glyph glyph-name="sixsuperior" unicode="&#x2076;" horiz-adv-x="334" 
d="M171 374q-64 0 -102 43t-38 119q0 89 55 162.5t156 123.5l31 -51q-111 -57 -148 -135l1 -1q19 6 42 6q64 0 100 -37.5t36 -92.5q0 -62 -37 -99.5t-96 -37.5zM170 433q26 0 44 19.5t18 56.5q0 34 -19 53.5t-54 19.5q-28 0 -54 -10q-3 -13 -3 -35q0 -49 18 -76.5t50 -27.5z
" />
    <glyph glyph-name="sevensuperior" unicode="&#x2077;" horiz-adv-x="284" 
d="M268 814l26 -46q-150 -161 -153 -388h-69q8 217 132 373v2h-197v59h261z" />
    <glyph glyph-name="eightsuperior" unicode="&#x2078;" horiz-adv-x="334" 
d="M167 374q-61 0 -100 34t-39 89q0 71 69 105v2q-59 31 -59 98q0 51 34 84.5t95 33.5t95.5 -33.5t34.5 -84.5q0 -67 -59 -98v-2q68 -33 68 -105q0 -55 -39 -89t-100 -34zM167 433q28 0 48 17.5t20 49.5q0 31 -19 49.5t-49 23.5q-30 -5 -48.5 -23.5t-18.5 -49.5
q0 -32 19.5 -49.5t47.5 -17.5zM167 629q59 13 59 71q0 29 -16.5 45t-42.5 16q-25 0 -41.5 -16t-16.5 -45q0 -58 58 -71z" />
    <glyph glyph-name="ninesuperior" unicode="&#x2079;" horiz-adv-x="334" 
d="M92 372l-31 51q111 56 148 135l-1 1q-18 -6 -42 -6q-64 0 -99.5 37.5t-35.5 92.5q0 62 37 99.5t95 37.5q64 0 102.5 -43.5t38.5 -119.5q0 -89 -55.5 -162t-156.5 -123zM175 612q29 0 55 10q2 12 2 35q0 49 -17.5 76.5t-49.5 27.5q-27 0 -45 -19.5t-18 -57.5
q0 -33 19 -52.5t54 -19.5z" />
    <glyph glyph-name="plussuperior" unicode="&#x207a;" horiz-adv-x="334" 
d="M31 573v57h106v107h60v-107h107v-57h-107v-107h-60v107h-106z" />
    <glyph glyph-name="minussuperior" unicode="&#x207b;" horiz-adv-x="334" 
d="M304 573h-273v57h273v-57z" />
    <glyph glyph-name="equalsuperior" unicode="&#x207c;" horiz-adv-x="334" 
d="M31 508v57h273v-57h-273zM31 638v57h273v-57h-273z" />
    <glyph glyph-name="parenleftsuperior" unicode="&#x207d;" horiz-adv-x="206" 
d="M46 597q0 72 34 141t81 119l30 -25q-78 -105 -78 -235q0 -132 78 -235l-30 -26q-47 50 -81 119t-34 142z" />
    <glyph glyph-name="parenrightsuperior" unicode="&#x207e;" horiz-adv-x="206" 
d="M160 597q0 -73 -34 -142t-81 -119l-30 26q79 102 79 235q0 131 -79 235l30 25q47 -50 81 -119t34 -141z" />
    <glyph glyph-name="n.superior" unicode="&#x207f;" horiz-adv-x="365" 
d="M318 281h-67v227q0 48 -42 48q-39 0 -96 -47v-228h-67v325h67v-37h2q52 44 104 44q46 0 72.5 -26t26.5 -71v-235z" />
    <glyph glyph-name="zeroinferior" unicode="&#x2080;" horiz-adv-x="334" 
d="M167 -237q-139 0 -139 223t139 223t139 -223t-139 -223zM167 -178q67 0 67 164t-67 164t-67 -164t67 -164z" />
    <glyph glyph-name="oneinferior" unicode="&#x2081;" horiz-adv-x="306" 
d="M131 125l-113 -39v63l159 57h24v-378h95v-59h-273v59h108v297z" />
    <glyph glyph-name="twoinferior" unicode="&#x2082;" horiz-adv-x="334" 
d="M163 150q-26 0 -43 -17t-17 -54q0 -8 3 -25h-68q-3 14 -3 29q0 62 37 94t92 32q61 0 93 -33t32 -89q0 -55 -37 -114t-116 -143v-2h165v-59h-265v39q96 103 139 164t43 114q0 32 -15 48t-40 16z" />
    <glyph glyph-name="threeinferior" unicode="&#x2083;" horiz-adv-x="334" 
d="M166 -237q-60 0 -94.5 30.5t-34.5 93.5q0 13 3 30h64q-2 -11 -2 -25q0 -71 63 -71q30 0 48.5 20t18.5 56q0 38 -23 60.5t-69 22.5q-15 0 -36 -3v27l102 138v2h-161v59h223l25 -46l-96 -129v-2q48 -10 77.5 -44.5t29.5 -83.5q0 -60 -38 -97.5t-100 -37.5z" />
    <glyph glyph-name="fourinferior" unicode="&#x2084;" horiz-adv-x="334" 
d="M180 -231v127h-169v32l198 278h40v-251h74l-24 -59h-50v-127h-69zM180 -45v75q0 19 2 47h-2q-13 -20 -25 -36l-59 -84v-2h84z" />
    <glyph glyph-name="fiveinferior" unicode="&#x2085;" horiz-adv-x="334" 
d="M37 -113q0 15 3 30h64q-2 -12 -2 -25q0 -36 17.5 -53.5t45.5 -17.5q30 0 48.5 20.5t18.5 59.5q0 81 -80 81q-34 0 -61 -11l-40 23l30 209h226l-24 -59h-146l-15 -108l1 -1q19 6 42 6q65 0 102 -40t37 -99q0 -62 -38.5 -100.5t-101.5 -38.5q-58 0 -92.5 31t-34.5 93z" />
    <glyph glyph-name="sixinferior" unicode="&#x2086;" horiz-adv-x="334" 
d="M171 -237q-64 0 -102 43t-38 119q0 89 55 162.5t156 123.5l31 -51q-111 -57 -148 -135l1 -1q20 6 42 6q64 0 100 -37.5t36 -92.5q0 -62 -37 -99.5t-96 -37.5zM170 -178q26 0 44 19.5t18 56.5q0 34 -19 53.5t-54 19.5q-28 0 -54 -10q-3 -13 -3 -35q0 -49 18 -76.5
t50 -27.5z" />
    <glyph glyph-name="seveninferior" unicode="&#x2087;" horiz-adv-x="284" 
d="M267 203l26 -46q-150 -161 -153 -388h-69q8 217 132 373v2h-197v59h261z" />
    <glyph glyph-name="eightinferior" unicode="&#x2088;" horiz-adv-x="334" 
d="M167 -237q-61 0 -100 34t-39 89q0 71 69 105v2q-59 31 -59 98q0 51 34 84.5t95 33.5t95.5 -33.5t34.5 -84.5q0 -67 -59 -98v-2q68 -33 68 -105q0 -55 -39 -89t-100 -34zM167 -178q28 0 48 17.5t20 49.5q0 31 -19 49.5t-49 23.5q-30 -5 -48.5 -23.5t-18.5 -49.5
q0 -32 19.5 -49.5t47.5 -17.5zM167 18q59 13 59 71q0 29 -16.5 45t-42.5 16q-25 0 -41.5 -16t-16.5 -45q0 -58 58 -71z" />
    <glyph glyph-name="nineinferior" unicode="&#x2089;" horiz-adv-x="334" 
d="M92 -239l-31 51q111 56 148 135l-1 1q-18 -6 -42 -6q-64 0 -99.5 37.5t-35.5 92.5q0 62 37 99.5t95 37.5q64 0 102.5 -43.5t38.5 -119.5q0 -89 -55.5 -162t-156.5 -123zM175 1q29 0 55 10q2 12 2 35q0 49 -17.5 76.5t-49.5 27.5q-27 0 -45 -19.5t-18 -57.5
q0 -33 19 -52.5t54 -19.5z" />
    <glyph glyph-name="plusinferior" unicode="&#x208a;" horiz-adv-x="334" 
d="M31 -38v57h106v107h60v-107h107v-57h-107v-107h-60v107h-106z" />
    <glyph glyph-name="minusinferior" unicode="&#x208b;" horiz-adv-x="334" 
d="M304 -38h-273v57h273v-57z" />
    <glyph glyph-name="equalinferior" unicode="&#x208c;" horiz-adv-x="334" 
d="M31 -103v57h273v-57h-273zM31 27v57h273v-57h-273z" />
    <glyph glyph-name="parenleftinferior" unicode="&#x208d;" horiz-adv-x="206" 
d="M46 -14q0 72 34 141t81 119l30 -25q-78 -105 -78 -235q0 -132 78 -235l-30 -26q-47 50 -81 119t-34 142z" />
    <glyph glyph-name="parenrightinferior" unicode="&#x208e;" horiz-adv-x="206" 
d="M160 -14q0 -73 -34 -142t-81 -119l-30 26q79 102 79 235q0 131 -79 235l30 25q47 -50 81 -119t34 -141z" />
    <glyph glyph-name="Euro" unicode="&#x20ac;" 
d="M38 397v65h61q15 118 64.5 190t135.5 72q92 0 146 -85l-58 -43q-34 53 -86 53q-101 0 -119 -187h224l-17 -65h-211q-1 -16 -1 -41t1 -43h191l-17 -66h-170q19 -182 125 -182q53 0 88 54l58 -44q-54 -85 -150 -85q-174 0 -204 257h-61v66h56q-1 22 -1 43t1 41h-56z" />
    <glyph glyph-name="afii61289" unicode="&#x2113;" horiz-adv-x="462" 
d="M32 159l-13 60q61 12 100 25v308q0 172 129 172q63 0 99.5 -51.5t36.5 -146.5q0 -221 -184 -313v-7q0 -75 24.5 -108t76.5 -33q44 0 83 15l21 -71q-46 -19 -110 -19q-169 0 -176 191q-37 -12 -87 -22zM200 555v-273q62 39 88.5 99.5t26.5 147.5q0 129 -61 129
q-33 0 -43.5 -28t-10.5 -75z" />
    <glyph glyph-name="afii61352" unicode="&#x2116;" horiz-adv-x="970" 
d="M542 0h-106l-201 427q-47 99 -80 201h-4q9 -88 9 -228v-400h-83v714h106l202 -427q47 -101 79 -201h3q-8 101 -8 234v394h83v-714zM644 150v57h290v-57h-290zM791 274q-69 0 -107 47.5t-38 122.5t38 122t107 47q68 0 106 -47t38 -122q0 -74 -38 -122t-106 -48zM791 331
q38 0 57 32t19 81t-19 80.5t-57 31.5q-39 0 -58 -31.5t-19 -80.5q0 -50 19 -81.5t58 -31.5z" />
    <glyph glyph-name="uni2117" unicode="&#x2117;" horiz-adv-x="774" 
d="M387 724q150 0 248.5 -106.5t98.5 -260.5t-98.5 -260.5t-248.5 -106.5t-248.5 106.5t-98.5 260.5t98.5 260.5t248.5 106.5zM387 47q125 0 203.5 89t78.5 221t-78.5 220.5t-203.5 88.5t-203.5 -88.5t-78.5 -220.5t78.5 -221t203.5 -89zM260 146v424h130q84 0 124 -41
t40 -92q0 -53 -40 -93.5t-124 -40.5h-56v-157h-74zM334 366h54q90 0 90 71q0 69 -91 69h-53v-140z" />
    <glyph glyph-name="trademark" unicode="&#x2122;" horiz-adv-x="774" 
d="M138 348v310h-111v56h284v-56h-110v-310h-63zM360 348v366h76l68 -125q20 -36 34 -65h2q6 12 18.5 35.5t15.5 29.5l69 125h76v-366h-63v207q0 47 1 67h-2q-11 -25 -31 -59l-78 -140h-13l-79 140q-21 39 -30 59h-2q1 -20 1 -67v-207h-63z" />
    <glyph glyph-name="estimated" unicode="&#x212e;" horiz-adv-x="754" 
d="M172 318v-185q32 -48 88.5 -75t120.5 -27q134 0 209 103h90q-103 -144 -304 -144q-146 0 -248.5 94t-102.5 253t103 252t252 93q86 0 154.5 -31t110.5 -83t63.5 -116t19.5 -134h-556zM586 362v178q-33 46 -87.5 73t-119.5 27t-119.5 -27t-87.5 -73v-178h414z" />
    <glyph glyph-name="onethird" unicode="&#x2153;" horiz-adv-x="803" 
d="M651 691l-427 -701l-53 33l427 701zM132 636l-113 -39v63l159 57h24v-378h95v-59h-273v59h108v297zM639 -6q-60 0 -94.5 30.5t-34.5 93.5q0 14 3 30h64q-2 -11 -2 -25q0 -71 63 -71q30 0 48.5 20t18.5 56q0 38 -23 60.5t-69 22.5q-15 0 -36 -3v27l102 138v2h-161v59h223
l25 -46l-96 -129v-2q48 -10 77.5 -44.5t29.5 -83.5q0 -60 -38 -97.5t-100 -37.5z" />
    <glyph glyph-name="twothirds" unicode="&#x2154;" horiz-adv-x="803" 
d="M651 691l-427 -701l-53 33l427 701zM160 661q-26 0 -43 -17t-17 -54q0 -8 3 -25h-68q-3 13 -3 29q0 62 37 94t92 32q61 0 93 -33t32 -89q0 -55 -37 -114t-116 -143v-2h165v-59h-265v39q96 103 139 164t43 114q0 32 -15 48t-40 16zM639 -6q-60 0 -94.5 30.5t-34.5 93.5
q0 14 3 30h64q-2 -11 -2 -25q0 -71 63 -71q30 0 48.5 20t18.5 56q0 38 -23 60.5t-69 22.5q-15 0 -36 -3v27l102 138v2h-161v59h223l25 -46l-96 -129v-2q48 -10 77.5 -44.5t29.5 -83.5q0 -60 -38 -97.5t-100 -37.5z" />
    <glyph glyph-name="onefifth" unicode="&#x2155;" horiz-adv-x="803" 
d="M661 691l-427 -701l-53 33l427 701zM134 636l-113 -39v63l159 57h24v-378h95v-59h-273v59h108v297zM503 118q0 15 3 30h64q-2 -12 -2 -25q0 -36 17.5 -53.5t45.5 -17.5q30 0 48.5 20.5t18.5 59.5q0 81 -80 81q-34 0 -61 -11l-40 23l30 209h226l-24 -59h-146l-15 -108
l1 -1q19 6 42 6q65 0 102 -40t37 -99q0 -62 -38.5 -100.5t-101.5 -38.5q-58 0 -92.5 31t-34.5 93z" />
    <glyph glyph-name="twofifths" unicode="&#x2156;" horiz-adv-x="803" 
d="M662 691l-427 -701l-53 33l427 701zM163 661q-26 0 -43 -17t-17 -54q0 -8 3 -25h-68q-3 13 -3 29q0 62 37 94t92 32q61 0 93 -33t32 -89q0 -55 -37 -114t-116 -143v-2h165v-59h-265v39q96 103 139 164t43 114q0 32 -15 48t-40 16zM503 118q0 15 3 30h64q-2 -12 -2 -25
q0 -36 17.5 -53.5t45.5 -17.5q30 0 48.5 20.5t18.5 59.5q0 81 -80 81q-34 0 -61 -11l-40 23l30 209h226l-24 -59h-146l-15 -108l1 -1q19 6 42 6q65 0 102 -40t37 -99q0 -62 -38.5 -100.5t-101.5 -38.5q-58 0 -92.5 31t-34.5 93z" />
    <glyph glyph-name="threefifths" unicode="&#x2157;" horiz-adv-x="803" 
d="M656 691l-427 -701l-53 33l427 701zM503 118q0 15 3 30h64q-2 -12 -2 -25q0 -36 17.5 -53.5t45.5 -17.5q30 0 48.5 20.5t18.5 59.5q0 81 -80 81q-34 0 -61 -11l-40 23l30 209h226l-24 -59h-146l-15 -108l1 -1q19 6 42 6q65 0 102 -40t37 -99q0 -62 -38.5 -100.5
t-101.5 -38.5q-58 0 -92.5 31t-34.5 93zM171 274q-60 0 -94.5 30.5t-34.5 93.5q0 14 3 30h64q-2 -11 -2 -25q0 -71 63 -71q30 0 48.5 20t18.5 56q0 38 -23 60.5t-69 22.5q-15 0 -36 -3v27l102 138v2h-161v59h223l25 -46l-96 -129v-2q48 -10 77.5 -44.5t29.5 -83.5
q0 -60 -38 -97.5t-100 -37.5z" />
    <glyph glyph-name="fourfifths" unicode="&#x2158;" horiz-adv-x="803" 
d="M656 691l-427 -701l-53 33l427 701zM508 118q0 15 3 30h64q-2 -12 -2 -25q0 -36 17.5 -53.5t45.5 -17.5q30 0 48.5 20.5t18.5 59.5q0 81 -80 81q-34 0 -61 -11l-40 23l30 209h226l-24 -59h-146l-15 -108l1 -1q20 6 42 6q65 0 102 -40t37 -99q0 -62 -38.5 -100.5
t-101.5 -38.5q-58 0 -92.5 31t-34.5 93zM192 280v127h-169v32l198 278h40v-251h74l-24 -59h-50v-127h-69zM192 466v75q0 19 2 47h-2q-13 -20 -25 -36l-59 -84v-2h84z" />
    <glyph glyph-name="onesixth" unicode="&#x2159;" horiz-adv-x="803" 
d="M681 691l-427 -701l-53 33l427 701zM136 636l-113 -39v63l159 57h24v-378h95v-59h-273v59h108v297zM621 -6q-64 0 -102 43t-38 119q0 89 55 162.5t156 123.5l31 -51q-111 -57 -148 -135l1 -1q20 6 42 6q64 0 100 -37.5t36 -92.5q0 -62 -37 -99.5t-96 -37.5zM620 53
q26 0 44 19.5t18 56.5q0 34 -19 53.5t-54 19.5q-28 0 -54 -10q-3 -13 -3 -35q0 -49 18 -76.5t50 -27.5z" />
    <glyph glyph-name="fivesixths" unicode="&#x215a;" horiz-adv-x="803" 
d="M673 691l-427 -701l-53 33l427 701zM624 -6q-64 0 -102 43t-38 119q0 89 55 162.5t156 123.5l31 -51q-111 -57 -148 -135l1 -1q19 6 42 6q64 0 100 -37.5t36 -92.5q0 -62 -37 -99.5t-96 -37.5zM623 53q26 0 44 19.5t18 56.5q0 34 -19 53.5t-54 19.5q-28 0 -54 -10
q-3 -13 -3 -35q0 -49 18 -76.5t50 -27.5zM46 398q0 15 3 30h64q-2 -12 -2 -25q0 -36 17.5 -53.5t45.5 -17.5q30 0 48.5 20.5t18.5 59.5q0 81 -80 81q-34 0 -61 -11l-40 23l30 209h226l-24 -59h-146l-15 -108l1 -1q20 6 42 6q65 0 102 -40t37 -99q0 -62 -38.5 -100.5
t-101.5 -38.5q-58 0 -92.5 31t-34.5 93z" />
    <glyph glyph-name="oneeighth" unicode="&#x215b;" horiz-adv-x="803" 
d="M652 691l-427 -701l-53 33l427 701zM134 636l-113 -39v63l159 57h24v-378h95v-59h-273v59h108v297zM634 -6q-61 0 -100 34t-39 89q0 71 69 105v2q-59 31 -59 98q0 51 34 84.5t95 33.5t95.5 -33.5t34.5 -84.5q0 -67 -59 -98v-2q68 -33 68 -105q0 -55 -39 -89t-100 -34z
M634 53q28 0 48 17.5t20 49.5q0 31 -19 49.5t-49 23.5q-30 -5 -48.5 -23.5t-18.5 -49.5q0 -32 19.5 -49.5t47.5 -17.5zM634 249q59 13 59 71q0 29 -16.5 45t-42.5 16q-25 0 -41.5 -16t-16.5 -45q0 -58 58 -71z" />
    <glyph glyph-name="threeeighths" unicode="&#x215c;" horiz-adv-x="803" 
d="M641 691l-427 -701l-53 33l427 701zM631 -6q-61 0 -100 34t-39 89q0 71 69 105v2q-59 31 -59 98q0 51 34 84.5t95 33.5t95.5 -33.5t34.5 -84.5q0 -67 -59 -98v-2q68 -33 68 -105q0 -55 -39 -89t-100 -34zM631 53q28 0 48 17.5t20 49.5q0 31 -19 49.5t-49 23.5
q-30 -5 -48.5 -23.5t-18.5 -49.5q0 -32 19.5 -49.5t47.5 -17.5zM631 249q59 13 59 71q0 29 -16.5 45t-42.5 16q-25 0 -41.5 -16t-16.5 -45q0 -58 58 -71zM172 274q-60 0 -94.5 30.5t-34.5 93.5q0 14 3 30h64q-2 -11 -2 -25q0 -71 63 -71q30 0 48.5 20t18.5 56q0 38 -23 60.5
t-69 22.5q-15 0 -36 -3v27l102 138v2h-161v59h223l25 -46l-96 -129v-2q48 -10 77.5 -44.5t29.5 -83.5q0 -60 -38 -97.5t-100 -37.5z" />
    <glyph glyph-name="fiveeighths" unicode="&#x215d;" horiz-adv-x="803" 
d="M639 691l-427 -701l-53 33l427 701zM34 398q0 15 3 30h64q-2 -12 -2 -25q0 -36 17.5 -53.5t45.5 -17.5q30 0 48.5 20.5t18.5 59.5q0 81 -80 81q-34 0 -61 -11l-40 23l30 209h226l-24 -59h-146l-15 -108l1 -1q20 6 42 6q65 0 102 -40t37 -99q0 -62 -38.5 -100.5
t-101.5 -38.5q-58 0 -92.5 31t-34.5 93zM631 -6q-61 0 -100 34t-39 89q0 71 69 105v2q-59 31 -59 98q0 51 34 84.5t95 33.5t95.5 -33.5t34.5 -84.5q0 -67 -59 -98v-2q68 -33 68 -105q0 -55 -39 -89t-100 -34zM631 53q28 0 48 17.5t20 49.5q0 31 -19 49.5t-49 23.5
q-30 -5 -48.5 -23.5t-18.5 -49.5q0 -32 19.5 -49.5t47.5 -17.5zM631 249q59 13 59 71q0 29 -16.5 45t-42.5 16q-25 0 -41.5 -16t-16.5 -45q0 -58 58 -71z" />
    <glyph glyph-name="seveneighths" unicode="&#x215e;" horiz-adv-x="803" 
d="M628 691l-427 -701l-53 33l427 701zM632 -6q-61 0 -100 34t-39 89q0 71 69 105v2q-59 31 -59 98q0 51 34 84.5t95 33.5t95.5 -33.5t34.5 -84.5q0 -67 -59 -98v-2q68 -33 68 -105q0 -55 -39 -89t-100 -34zM632 53q28 0 48 17.5t20 49.5q0 31 -19 49.5t-49 23.5
q-30 -5 -48.5 -23.5t-18.5 -49.5q0 -32 19.5 -49.5t47.5 -17.5zM632 249q59 13 59 71q0 29 -16.5 45t-42.5 16q-25 0 -41.5 -16t-16.5 -45q0 -58 58 -71zM316 714l26 -46q-150 -161 -153 -388h-69q8 217 132 373v2h-197v59h261z" />
    <glyph glyph-name="arrowleft" unicode="&#x2190;" horiz-adv-x="780" 
d="M712 287v-72h-428l-69 1v-2l50 -35l165 -124l-46 -57l-330 253l330 252l46 -57l-165 -123l-50 -35v-2l69 1h428z" />
    <glyph glyph-name="arrowup" unicode="&#x2191;" horiz-adv-x="780" 
d="M426 -73h-72v429l1 69h-2l-35 -50l-124 -165l-57 46l253 330l252 -330l-57 -46l-123 165l-35 50h-2l1 -69v-429z" />
    <glyph glyph-name="arrowright" unicode="&#x2192;" horiz-adv-x="780" 
d="M67 215v72h429l69 -1v2l-50 35l-165 123l46 57l330 -252l-330 -253l-46 57l165 124l50 35v2l-69 -1h-429z" />
    <glyph glyph-name="arrowdown" unicode="&#x2193;" horiz-adv-x="780" 
d="M354 556h72v-429l-1 -68h2l35 50l123 164l57 -46l-252 -330l-253 330l57 46l124 -164l35 -50h2l-1 68v429z" />
    <glyph glyph-name="uni2196" unicode="&#x2196;" horiz-adv-x="780" 
d="M632 76l-50 -50l-300 299l-52 52l-1 -1l10 -60l30 -204l-73 -8l-54 412l411 -54l-8 -73l-203 29l-60 10l-1 -1l53 -52z" />
    <glyph glyph-name="uni2197" unicode="&#x2197;" horiz-adv-x="780" 
d="M198 26l-50 50l298 299l53 52l-1 1l-60 -10l-203 -29l-9 73l412 54l-54 -412l-73 8l29 204l10 60l-1 1l-51 -52z" />
    <glyph glyph-name="uni2198" unicode="&#x2198;" horiz-adv-x="780" 
d="M139 427l50 50l300 -299l52 -52l1 1l-10 60l-29 204l72 8l55 -412l-412 54l8 73l203 -29l61 -10l1 1l-53 52z" />
    <glyph glyph-name="uni2199" unicode="&#x2199;" horiz-adv-x="780" 
d="M587 477l50 -50l-299 -299l-53 -52l1 -1l61 10l203 29l8 -73l-412 -54l55 412l72 -8l-29 -204l-10 -60l1 -1l52 52z" />
    <glyph glyph-name="partialdiff" unicode="&#x2202;" horiz-adv-x="495" 
d="M358 440l2 1q-18 212 -157 212q-62 0 -146 -48h-3l22 79q62 40 136 40q114 0 172 -93.5t58 -260.5q0 -180 -58.5 -280t-172.5 -100q-78 0 -127.5 49.5t-49.5 146.5q0 127 67.5 200t169.5 73q45 0 87 -19zM210 61q31 0 55.5 12t48 43t36.5 94t13 155q-42 23 -89 23
q-74 0 -117.5 -53.5t-43.5 -149.5q0 -60 25.5 -92t71.5 -32z" />
    <glyph glyph-name="product" unicode="&#x220f;" horiz-adv-x="615" 
d="M409 -144v785h-203v-785h-83v785h-83v73h535v-73h-84v-785h-82z" />
    <glyph glyph-name="summation" unicode="&#x2211;" horiz-adv-x="514" 
d="M39 -84l211 384l-198 355v59h413v-73h-314v-2l189 -339l-203 -369v-2h344v-73h-442v60z" />
    <glyph glyph-name="minus" unicode="&#x2212;" horiz-adv-x="412" 
d="M21 218v68h370v-68h-370z" />
    <glyph glyph-name="radical" unicode="&#x221a;" horiz-adv-x="568" 
d="M161 417l89 -292q24 -79 33 -132h2q7 50 28 133l177 704h80l-239 -945h-86l-137 434l-79 -28l-24 70z" />
    <glyph glyph-name="infinity" unicode="&#x221e;" horiz-adv-x="718" 
d="M192 102q-71 0 -111 48t-40 116t40 116t111 48q50 0 88 -28.5t78 -80.5h2q38 51 76.5 80t89.5 29q71 0 111 -48t40 -116t-40 -116t-111 -48q-51 0 -89.5 29t-76.5 80h-2q-39 -52 -77.5 -80.5t-88.5 -28.5zM195 171q34 0 61.5 24.5t60.5 70.5q-33 46 -60.5 70.5
t-61.5 24.5q-39 0 -59.5 -27t-20.5 -68q0 -42 20.5 -68.5t59.5 -26.5zM523 171q38 0 59 26.5t21 68.5q0 41 -21 68t-59 27q-34 0 -62 -24.5t-62 -70.5q34 -46 62 -70.5t62 -24.5z" />
    <glyph glyph-name="integral" unicode="&#x222b;" horiz-adv-x="397" 
d="M30 -227l12 69q26 -12 57 -12q36 0 56.5 24.5t20.5 89.5q0 90 -16.5 296.5t-16.5 289.5q0 194 148 194q41 0 76 -14l-13 -69q-29 12 -57 12q-36 0 -56.5 -24.5t-20.5 -89.5q0 -90 17 -296.5t17 -289.5q0 -194 -148 -194q-41 0 -76 14z" />
    <glyph glyph-name="approxequal" unicode="&#x2248;" horiz-adv-x="412" 
d="M21 136v70q44 32 90 32q36 0 99.5 -29.5t95.5 -29.5q36 0 85 34v-70q-43 -33 -88 -33q-36 0 -100 29.5t-97 29.5q-37 0 -85 -33zM21 294v70q44 32 90 32q36 0 99.5 -29.5t95.5 -29.5q36 0 85 34v-70q-43 -33 -88 -33q-36 0 -100 29.5t-97 29.5q-37 0 -85 -33z" />
    <glyph glyph-name="notequal" unicode="&#x2260;" horiz-adv-x="412" 
d="M391 364v-67h-126l-52 -90h178v-68h-217l-59 -103l-50 29l43 74h-87v68h126l51 90h-177v67h216l60 104l50 -30l-43 -74h87z" />
    <glyph glyph-name="lessequal" unicode="&#x2264;" horiz-adv-x="412" 
d="M21 0v68h370v-68h-370zM21 266v53l335 128l24 -67l-165 -61q-41 -15 -82 -25v-2q32 -8 82 -26l165 -61l-24 -67z" />
    <glyph glyph-name="greaterequal" unicode="&#x2265;" horiz-adv-x="412" 
d="M391 68v-68h-370v68h370zM391 319v-53l-335 -128l-24 67l166 61q53 19 82 26v2q-38 9 -82 25l-166 61l24 67z" />
    <glyph glyph-name="lozenge" unicode="&#x25ca;" horiz-adv-x="412" 
d="M189 0l-155 304l155 304h34l156 -304l-156 -304h-34zM114 304l91 -187h2l92 187l-92 187h-2z" />
    <glyph glyph-name="F_I.cap" horiz-adv-x="715" 
d="M77 0v714h373v-73h-290v-239h243v-73h-243v-329h-83zM554 0v714h83v-714h-83z" />
    <glyph glyph-name="F_L.cap" horiz-adv-x="932" 
d="M77 0v714h373v-73h-290v-239h243v-73h-243v-329h-83zM554 0v714h83v-641h277v-73h-360z" />
    <glyph glyph-name="Imacron" horiz-adv-x="237" 
d="M77 0v714h83v-714h-83zM-5 791v64h246v-64h-246z" />
    <glyph glyph-name="S_S.cap" horiz-adv-x="983" 
d="M716 -10q-132 0 -196 104l60 48q45 -77 136 -77q59 0 97 32.5t38 91.5q0 47 -31.5 81.5t-76.5 57.5t-89.5 48.5t-76 69t-31.5 103.5q0 84 55.5 129.5t131.5 45.5q122 0 188 -100l-61 -46q-47 71 -122 71q-48 0 -78 -26.5t-30 -70.5q0 -31 17 -57t44 -44t59.5 -35.5
t65 -38t59.5 -44.5t44 -61t17 -83q0 -91 -63 -145t-157 -54zM225 -10q-132 0 -196 104l60 48q45 -77 136 -77q59 0 97 32.5t38 91.5q0 35 -17 62t-43.5 46t-59 36.5t-65.5 36.5t-59.5 42t-43.5 58t-17 79q0 84 55.5 129.5t131.5 45.5q122 0 188 -100l-61 -46q-47 71 -122 71
q-48 0 -78 -26.5t-30 -70.5q0 -31 17 -57t44 -44t59.5 -35.5t65 -38t59.5 -44.5t44 -61t17 -83q0 -91 -63 -145t-157 -54z" />
    <glyph glyph-name="ibreve" horiz-adv-x="197" 
d="M98 610q55 0 59 57h65q0 -48 -33.5 -79.5t-90.5 -31.5t-90.5 31.5t-33.5 79.5h65q4 -57 59 -57zM137 0h-77v492h77v-492z" />
    <glyph glyph-name="A.small" 
d="M284 530l178 -530h-85l-42 133h-193l-43 -133h-84l179 530h90zM241 464h-4q-11 -52 -20 -82l-54 -182h151l-54 184q-13 44 -19 80z" />
    <glyph glyph-name="B.small" horiz-adv-x="491" 
d="M344 277v-2q49 -12 72 -47t23 -75q0 -61 -45 -107t-144 -46h-184v530h158q100 0 145.5 -42.5t45.5 -100.5q0 -33 -17.5 -63.5t-53.5 -46.5zM144 67h106q108 0 108 86q0 32 -23 58t-85 26h-106v-170zM144 304h93q46 0 71.5 22t25.5 59q0 77 -111 77h-79v-158z" />
    <glyph glyph-name="C.small" horiz-adv-x="438" 
d="M262 -8q-104 0 -160 74.5t-56 198.5q0 117 58 195t156 78q89 0 146 -75l-59 -42q-36 46 -85 46q-61 0 -98 -54.5t-37 -147.5q0 -99 37 -150.5t100 -51.5q55 0 91 48l58 -45q-59 -74 -151 -74z" />
    <glyph glyph-name="D.small" horiz-adv-x="508" 
d="M66 0v530h135q113 0 187 -65t74 -200q0 -136 -72.5 -200.5t-185.5 -64.5h-138zM144 67h57q180 0 180 198q0 197 -184 197h-53v-395z" />
    <glyph glyph-name="E.small" horiz-adv-x="438" 
d="M66 0v530h323v-68h-245v-158h205v-67h-205v-170h266v-67h-344z" />
    <glyph glyph-name="F.small" horiz-adv-x="411" 
d="M66 0v530h323v-68h-245v-161h205v-67h-205v-234h-78z" />
    <glyph glyph-name="G.small" horiz-adv-x="503" 
d="M289 -8q-113 0 -178 70.5t-65 195.5q0 128 64.5 204t168.5 76q96 0 154 -76l-59 -42q-37 47 -96 47q-62 0 -106.5 -51.5t-44.5 -155.5q0 -94 41 -145.5t122 -51.5q35 0 67 10v138h-72l-27 67h178v-253q-59 -33 -147 -33z" />
    <glyph glyph-name="H.small" horiz-adv-x="538" 
d="M66 0v530h78v-225h250v225h78v-530h-78v238h-250v-238h-78z" />
    <glyph glyph-name="I.small" horiz-adv-x="210" 
d="M66 0v530h78v-530h-78z" />
    <glyph glyph-name="J.small" horiz-adv-x="380" 
d="M164 -8q-98 0 -141 69l56 45q29 -43 81 -43q76 0 76 67v400h78v-408q0 -63 -42.5 -96.5t-107.5 -33.5z" />
    <glyph glyph-name="K.small" horiz-adv-x="468" 
d="M174 218l-30 -35v-183h-78v530h78v-165v-83h2q6 8 61 78l139 170h95l-217 -254l236 -276h-98z" />
    <glyph glyph-name="L.small" horiz-adv-x="395" 
d="M66 0v530h78v-463h234v-67h-312z" />
    <glyph glyph-name="M.small" horiz-adv-x="637" 
d="M497 446h-4q-18 -55 -56 -124l-111 -203h-15l-111 203q-37 68 -56 123h-4q4 -48 4 -94v-351h-78v530h101l106 -201q29 -54 44 -89h3q12 30 43 89l107 201h101v-530h-78v351q0 47 4 95z" />
    <glyph glyph-name="N.small" horiz-adv-x="543" 
d="M400 86h4q-5 50 -5 144v300h79v-530h-101l-174 312q-40 75 -60 132h-4q5 -62 5 -140v-304h-78v530h100l174 -312q30 -54 60 -132z" />
    <glyph glyph-name="O.small" horiz-adv-x="518" 
d="M391 265q0 104 -36.5 153t-95.5 49t-95.5 -49t-36.5 -152q0 -105 36.5 -154t95.5 -49t95.5 49t36.5 153zM472 265q0 -135 -60.5 -204t-152.5 -69t-152.5 69t-60.5 205q0 135 60.5 204t152.5 69t152.5 -69t60.5 -205z" />
    <glyph glyph-name="P.small" horiz-adv-x="449" 
d="M66 0v530h154q101 0 147.5 -49.5t46.5 -112.5t-46.5 -113t-147.5 -50h-76v-205h-78zM144 272h74q37 0 61.5 10t35 26.5t14.5 30.5t4 29t-4 28.5t-14.5 29.5t-35.5 26t-62 10h-73v-190z" />
    <glyph glyph-name="Q.small" horiz-adv-x="518" 
d="M302 -1v-2q33 -51 133 -68l-42 -62q-63 7 -109 42t-67 87q-76 14 -123.5 82.5t-47.5 187.5q0 135 60.5 204t152.5 69t152.5 -69t60.5 -205q0 -118 -47 -185t-123 -81zM391 265q0 104 -36.5 153t-95.5 49t-95.5 -49t-36.5 -152q0 -105 36.5 -154t95.5 -49t95.5 49
t36.5 153z" />
    <glyph glyph-name="R.small" horiz-adv-x="454" 
d="M302 240v-2q28 -24 53 -81l69 -157h-84l-58 135q-26 62 -63 87h-75v-222h-78v530h151q100 0 145.5 -46.5t45.5 -106.5q0 -47 -27 -84t-79 -53zM144 289h73q63 0 86.5 26.5t23.5 61.5q0 33 -23.5 59t-86.5 26h-73v-173z" />
    <glyph glyph-name="S.small" horiz-adv-x="431" 
d="M203 -8q-116 0 -170 82l56 45q36 -56 114 -56q47 0 76 21.5t29 60.5q0 32 -26 54.5t-63.5 37.5t-75 32t-63.5 49t-26 78q0 68 47 105.5t114 37.5q105 0 162 -84l-58 -39q-40 51 -100 51q-38 0 -61.5 -18t-23.5 -48t26 -51.5t63.5 -37t75 -34t63.5 -53t26 -82.5
q0 -69 -53.5 -110t-131.5 -41z" />
    <glyph glyph-name="T.small" horiz-adv-x="424" 
d="M251 0h-78v462h-160v68h398v-68h-160v-462z" />
    <glyph glyph-name="U.small" horiz-adv-x="542" 
d="M271 -8q-92 0 -148.5 49t-56.5 142v347h78v-345q0 -59 33 -90.5t94 -31.5t94 31.5t33 90.5v345h78v-347q0 -93 -56.5 -142t-148.5 -49z" />
    <glyph glyph-name="V.small" horiz-adv-x="464" 
d="M230 73h4q16 76 32 127l98 330h84l-169 -530h-94l-170 530h84l98 -328q10 -35 33 -129z" />
    <glyph glyph-name="W.small" horiz-adv-x="689" 
d="M483 71h4q12 78 25 138l73 321h85l-138 -530h-97l-67 326q-10 47 -22 126h-4q-13 -84 -21 -126l-67 -326h-97l-138 530h85l73 -321q14 -63 26 -138h4q11 87 23 136l67 323h95l67 -323q13 -60 24 -136z" />
    <glyph glyph-name="X.small" horiz-adv-x="469" 
d="M235 327h2l124 203h88l-166 -261l172 -269h-88l-132 211h-2l-130 -211h-88l172 269l-167 261h89z" />
    <glyph glyph-name="Y.small" horiz-adv-x="448" 
d="M223 279h2q10 22 38 80l87 171h84l-170 -321v-209h-79v209l-171 321h85l87 -171q4 -9 12 -25.5t14.5 -30t10.5 -24.5z" />
    <glyph glyph-name="Z.small" horiz-adv-x="443" 
d="M410 0h-375v52l267 408v2h-254v68h351v-52l-269 -409v-2h280v-67z" />
    <glyph glyph-name="Agrave.small" 
d="M279 572h-77l-94 158h81zM284 530l178 -530h-85l-42 133h-193l-43 -133h-84l179 530h90zM241 464h-4q-11 -52 -20 -82l-54 -182h151l-54 184q-13 44 -19 80z" />
    <glyph glyph-name="Aacute.small" 
d="M280 572h-77l90 158h81zM284 530l178 -530h-85l-42 133h-193l-43 -133h-84l179 530h90zM241 464h-4q-11 -52 -20 -82l-54 -182h151l-54 184q-13 44 -19 80z" />
    <glyph glyph-name="Acircumflex.small" 
d="M284 530l178 -530h-85l-42 133h-193l-43 -133h-84l179 530h90zM241 464h-4q-11 -52 -20 -82l-54 -182h151l-54 184q-13 44 -19 80zM176 572h-77l95 158h89l94 -158h-76l-62 105h-2z" />
    <glyph glyph-name="Atilde.small" 
d="M367 675v-68q-29 -24 -63 -24q-26 0 -69.5 23t-63.5 23q-29 0 -62 -27v68q31 24 64 24q25 0 68.5 -23t63.5 -23q29 0 62 27zM284 530l178 -530h-85l-42 133h-193l-43 -133h-84l179 530h90zM241 464h-4q-11 -52 -20 -82l-54 -182h151l-54 184q-13 44 -19 80z" />
    <glyph glyph-name="Adieresis.small" 
d="M284 530l178 -530h-85l-42 133h-193l-43 -133h-84l179 530h90zM241 464h-4q-11 -52 -20 -82l-54 -182h151l-54 184q-13 44 -19 80zM153 593l-59 62l59 62l60 -62zM323 593l-59 62l59 62l60 -62z" />
    <glyph glyph-name="Amacron.small" 
d="M115 606v64h246v-64h-246zM284 530l178 -530h-85l-42 133h-193l-43 -133h-84l179 530h90zM241 464h-4q-11 -52 -20 -82l-54 -182h151l-54 184q-13 44 -19 80z" />
    <glyph glyph-name="Abreve.small" 
d="M238 626q55 0 59 57h65q0 -48 -33.5 -79.5t-90.5 -31.5t-90.5 31.5t-33.5 79.5h65q4 -57 59 -57zM284 530l178 -530h-85l-42 133h-193l-43 -133h-84l179 530h90zM241 464h-4q-11 -52 -20 -82l-54 -182h151l-54 184q-13 44 -19 80z" />
    <glyph glyph-name="Aring.small" 
d="M238 563q-49 0 -79.5 26.5t-30.5 65.5q0 40 30.5 66t79.5 26q50 0 80 -26t30 -66q0 -39 -30 -65.5t-80 -26.5zM288 655q0 19 -13.5 31.5t-36.5 12.5t-36.5 -12.5t-13.5 -31.5t13.5 -31.5t36.5 -12.5t36.5 12.5t13.5 31.5zM284 530l178 -530h-85l-42 133h-193l-43 -133
h-84l179 530h90zM241 464h-4q-11 -52 -20 -82l-54 -182h151l-54 184q-13 44 -19 80z" />
    <glyph glyph-name="Aringacute.small" 
d="M238 564q-49 0 -79.5 26t-30.5 66q0 38 28.5 64t77.5 27l55 100h81l-71 -113q49 -26 49 -78q0 -40 -30 -66t-80 -26zM288 656q0 19 -13.5 31.5t-36.5 12.5t-36.5 -12.5t-13.5 -31.5t13.5 -31.5t36.5 -12.5t36.5 12.5t13.5 31.5zM284 530l178 -530h-85l-42 133h-193
l-43 -133h-84l179 530h90zM241 464h-4q-11 -52 -20 -82l-54 -182h151l-54 184q-13 44 -19 80z" />
    <glyph glyph-name="Aogonek.small" 
d="M15 0l179 530h90l178 -530q-66 -22 -102 -59t-36 -75q0 -48 55 -48q35 0 76 24h2v-62q-37 -21 -89 -21q-55 0 -85.5 27t-30.5 72t34.5 87.5t86.5 68.5l-38 119h-193l-43 -133h-84zM241 464h-4q-11 -52 -20 -82l-54 -182h151l-54 184q-13 44 -19 80z" />
    <glyph glyph-name="AE.small" horiz-adv-x="690" 
d="M631 462h-253l22 -158h197v-67h-188l24 -170h229v-67h-298l-19 133h-184l-63 -133h-83l253 530h363v-68zM271 376l-79 -176h145l-21 180q-6 45 -8 79h-4q-31 -78 -33 -83z" />
    <glyph glyph-name="AEacute.small" horiz-adv-x="690" 
d="M431 572h-77l90 158h81zM631 462h-253l22 -158h197v-67h-188l24 -170h229v-67h-298l-19 133h-184l-63 -133h-83l253 530h363v-68zM271 376l-79 -176h145l-21 180q-6 45 -8 79h-4q-31 -78 -33 -83z" />
    <glyph glyph-name="Cacute.small" horiz-adv-x="438" 
d="M286 572h-77l90 158h81zM262 -8q-104 0 -160 74.5t-56 198.5q0 117 58 195t156 78q89 0 146 -75l-59 -42q-36 46 -85 46q-61 0 -98 -54.5t-37 -147.5q0 -99 37 -150.5t100 -51.5q55 0 91 48l58 -45q-59 -74 -151 -74z" />
    <glyph glyph-name="Ccircumflex.small" horiz-adv-x="438" 
d="M262 -8q-104 0 -160 74.5t-56 198.5q0 117 58 195t156 78q89 0 146 -75l-59 -42q-36 46 -85 46q-61 0 -98 -54.5t-37 -147.5q0 -99 37 -150.5t100 -51.5q55 0 91 48l58 -45q-59 -74 -151 -74zM187 572h-77l95 158h89l94 -158h-76l-62 105h-2z" />
    <glyph glyph-name="Ccaron.small" horiz-adv-x="438" 
d="M107 730h77l61 -104h2l62 104h76l-94 -158h-89zM262 -8q-104 0 -160 74.5t-56 198.5q0 117 58 195t156 78q89 0 146 -75l-59 -42q-36 46 -85 46q-61 0 -98 -54.5t-37 -147.5q0 -99 37 -150.5t100 -51.5q55 0 91 48l58 -45q-59 -74 -151 -74z" />
    <glyph glyph-name="Cdotaccent.small" horiz-adv-x="438" 
d="M262 -8q-104 0 -160 74.5t-56 198.5q0 117 58 195t156 78q89 0 146 -75l-59 -42q-36 46 -85 46q-61 0 -98 -54.5t-37 -147.5q0 -99 37 -150.5t100 -51.5q55 0 91 48l58 -45q-59 -74 -151 -74zM250 592l-62 64l62 65l62 -65z" />
    <glyph glyph-name="Ccedilla.small" horiz-adv-x="438" 
d="M185 -100l30 97q-82 15 -125.5 86.5t-43.5 181.5q0 117 58 195t156 78q89 0 146 -75l-59 -42q-36 46 -85 46q-61 0 -98 -54.5t-37 -147.5q0 -99 37 -150.5t100 -51.5q55 0 91 48l58 -45q-54 -69 -137 -74l-17 -53q41 -3 64 -25t23 -55q0 -43 -36 -71.5t-97 -28.5
q-57 0 -92 22v54q37 -24 86 -24q33 0 52 12t19 34q0 23 -23.5 32.5t-69.5 10.5z" />
    <glyph glyph-name="Dcaron.small" horiz-adv-x="508" 
d="M97 730h77l61 -104h2l62 104h76l-94 -158h-89zM66 0v530h135q113 0 187 -65t74 -200q0 -136 -72.5 -200.5t-185.5 -64.5h-138zM144 67h57q180 0 180 198q0 197 -184 197h-53v-395z" />
    <glyph glyph-name="Dcroat.small" horiz-adv-x="528" 
d="M20 239v65h66v226h135q113 0 187 -65t74 -200q0 -136 -72.5 -200.5t-185.5 -64.5h-138v239h-66zM164 67h57q180 0 180 198q0 197 -184 197h-53v-158h115v-65h-115v-172z" />
    <glyph glyph-name="Egrave.small" horiz-adv-x="438" 
d="M272 572h-77l-94 158h81zM66 0v530h323v-68h-245v-158h205v-67h-205v-170h266v-67h-344z" />
    <glyph glyph-name="Eacute.small" horiz-adv-x="438" 
d="M259 572h-77l90 158h81zM66 0v530h323v-68h-245v-158h205v-67h-205v-170h266v-67h-344z" />
    <glyph glyph-name="Ecircumflex.small" horiz-adv-x="438" 
d="M66 0v530h323v-68h-245v-158h205v-67h-205v-170h266v-67h-344zM166 572h-77l95 158h89l94 -158h-76l-62 105h-2z" />
    <glyph glyph-name="Ecaron.small" horiz-adv-x="438" 
d="M86 730h77l61 -104h2l62 104h76l-94 -158h-89zM66 0v530h323v-68h-245v-158h205v-67h-205v-170h266v-67h-344z" />
    <glyph glyph-name="Edieresis.small" horiz-adv-x="438" 
d="M66 0v530h323v-68h-245v-158h205v-67h-205v-170h266v-67h-344zM138 593l-59 62l59 62l60 -62zM308 593l-59 62l59 62l60 -62z" />
    <glyph glyph-name="Emacron.small" horiz-adv-x="438" 
d="M101 606v64h246v-64h-246zM66 0v530h323v-68h-245v-158h205v-67h-205v-170h266v-67h-344z" />
    <glyph glyph-name="Ebreve.small" horiz-adv-x="438" 
d="M226 626q55 0 59 57h65q0 -48 -33.5 -79.5t-90.5 -31.5t-90.5 31.5t-33.5 79.5h65q4 -57 59 -57zM66 0v530h323v-68h-245v-158h205v-67h-205v-170h266v-67h-344z" />
    <glyph glyph-name="Edotaccent.small" horiz-adv-x="438" 
d="M66 0v530h323v-68h-245v-158h205v-67h-205v-170h266v-67h-344zM226 592l-62 64l62 65l62 -65z" />
    <glyph glyph-name="Eogonek.small" horiz-adv-x="438" 
d="M66 0v530h323v-68h-245v-158h205v-67h-205v-170h266v-67q-65 -26 -99 -61t-34 -73q0 -48 55 -48q34 0 76 24h2v-62q-37 -21 -89 -21q-55 0 -86 27t-31 72q0 42 28.5 79.5t73.5 60.5v2h-240z" />
    <glyph glyph-name="F_I.small" horiz-adv-x="622" 
d="M66 0v530h323v-68h-245v-161h205v-67h-205v-234h-78zM477 0v530h78v-530h-78z" />
    <glyph glyph-name="F_L.small" horiz-adv-x="806" 
d="M66 0v530h323v-68h-245v-161h205v-67h-205v-234h-78zM477 0v530h78v-463h234v-67h-312z" />
    <glyph glyph-name="Gcircumflex.small" horiz-adv-x="503" 
d="M289 -8q-113 0 -178 70.5t-65 195.5q0 128 64.5 204t168.5 76q96 0 154 -76l-59 -42q-37 47 -96 47q-62 0 -106.5 -51.5t-44.5 -155.5q0 -94 41 -145.5t122 -51.5q35 0 67 10v138h-72l-27 67h178v-253q-59 -33 -147 -33zM200 572h-77l95 158h89l94 -158h-76l-62 105h-2z
" />
    <glyph glyph-name="Gbreve.small" horiz-adv-x="503" 
d="M266 626q55 0 59 57h65q0 -48 -33.5 -79.5t-90.5 -31.5t-90.5 31.5t-33.5 79.5h65q4 -57 59 -57zM289 -8q-113 0 -178 70.5t-65 195.5q0 128 64.5 204t168.5 76q96 0 154 -76l-59 -42q-37 47 -96 47q-62 0 -106.5 -51.5t-44.5 -155.5q0 -94 41 -145.5t122 -51.5
q35 0 67 10v138h-72l-27 67h178v-253q-59 -33 -147 -33z" />
    <glyph glyph-name="Gdotaccent.small" horiz-adv-x="503" 
d="M289 -8q-113 0 -178 70.5t-65 195.5q0 128 64.5 204t168.5 76q96 0 154 -76l-59 -42q-37 47 -96 47q-62 0 -106.5 -51.5t-44.5 -155.5q0 -94 41 -145.5t122 -51.5q35 0 67 10v138h-72l-27 67h178v-253q-59 -33 -147 -33zM266 592l-62 64l62 65l62 -65z" />
    <glyph glyph-name="Gcommaaccent.small" horiz-adv-x="503" 
d="M289 -8q-113 0 -178 70.5t-65 195.5q0 128 64.5 204t168.5 76q96 0 154 -76l-59 -42q-37 47 -96 47q-62 0 -106.5 -51.5t-44.5 -155.5q0 -94 41 -145.5t122 -51.5q35 0 67 10v138h-72l-27 67h178v-253q-59 -33 -147 -33zM210 -87l52 50q66 -35 66 -90q0 -60 -85 -114
l-30 28q44 33 44 64q0 34 -47 62z" />
    <glyph glyph-name="Hcircumflex.small" horiz-adv-x="538" 
d="M66 0v530h78v-225h250v225h78v-530h-78v238h-250v-238h-78zM206 572h-77l95 158h89l94 -158h-76l-62 105h-2z" />
    <glyph glyph-name="Hbar.small" horiz-adv-x="578" 
d="M20 384v63h66v83h78v-83h250v83h78v-83h66v-63h-66v-384h-78v238h-250v-238h-78v384h-66zM164 305h250v79h-250v-79z" />
    <glyph glyph-name="Igrave.small" horiz-adv-x="210" 
d="M144 572h-77l-94 158h81zM66 0v530h78v-530h-78z" />
    <glyph glyph-name="Iacute.small" horiz-adv-x="210" 
d="M142 572h-77l90 158h81zM66 0v530h78v-530h-78z" />
    <glyph glyph-name="Icircumflex.small" horiz-adv-x="210" 
d="M66 0v530h78v-530h-78zM42 572h-77l95 158h89l94 -158h-76l-62 105h-2z" />
    <glyph glyph-name="Itilde.small" horiz-adv-x="210" 
d="M232 675v-68q-29 -24 -63 -24q-26 0 -69.5 23t-63.5 23q-29 0 -62 -27v68q31 24 64 24q25 0 68.5 -23t63.5 -23q29 0 62 27zM66 0v530h78v-530h-78z" />
    <glyph glyph-name="Idieresis.small" horiz-adv-x="210" 
d="M66 0v530h78v-530h-78zM20 593l-59 62l59 62l60 -62zM190 593l-59 62l59 62l60 -62z" />
    <glyph glyph-name="Imacron.small" horiz-adv-x="210" 
d="M-20 606v64h246v-64h-246zM66 0v530h78v-530h-78z" />
    <glyph glyph-name="Ibreve.small" horiz-adv-x="210" 
d="M104 626q55 0 59 57h65q0 -48 -33.5 -79.5t-90.5 -31.5t-90.5 31.5t-33.5 79.5h65q4 -57 59 -57zM66 0v530h78v-530h-78z" />
    <glyph glyph-name="Idotaccent.small" horiz-adv-x="210" 
d="M66 0v530h78v-530h-78zM104 592l-62 64l62 65l62 -65z" />
    <glyph glyph-name="Iogonek.small" horiz-adv-x="210" 
d="M66 4v526h78v-530q-36 -25 -58.5 -59.5t-22.5 -68.5q0 -54 50 -54q32 0 66 23h2v-62q-33 -20 -79 -20q-53 0 -82 29t-29 74q0 79 75 142z" />
    <glyph glyph-name="dotlessi.small" horiz-adv-x="210" 
d="M66 0v530h78v-530h-78z" />
    <glyph glyph-name="IJ.small" horiz-adv-x="590" 
d="M66 0v530h78v-530h-78zM374 -8q-98 0 -141 69l56 45q29 -43 81 -43q76 0 76 67v400h78v-408q0 -63 -42.5 -96.5t-107.5 -33.5z" />
    <glyph glyph-name="Jcircumflex.small" horiz-adv-x="380" 
d="M164 -8q-98 0 -141 69l56 45q29 -43 81 -43q76 0 76 67v400h78v-408q0 -63 -42.5 -96.5t-107.5 -33.5zM212 572h-77l95 158h89l94 -158h-76l-62 105h-2z" />
    <glyph glyph-name="Kcommaaccent.small" horiz-adv-x="468" 
d="M174 218l-30 -35v-183h-78v530h78v-165v-83h2q6 8 61 78l139 170h95l-217 -254l236 -276h-98zM194 -87l52 50q66 -35 66 -90q0 -60 -85 -114l-30 28q44 33 44 64q0 34 -47 62z" />
    <glyph glyph-name="Lacute.small" horiz-adv-x="395" 
d="M144 572h-77l90 158h81zM66 0v530h78v-463h234v-67h-312z" />
    <glyph glyph-name="Lcaron.small" horiz-adv-x="395" 
d="M66 0v530h78v-463h234v-67h-312zM296 372h-71l33 158h75z" />
    <glyph glyph-name="Lcommaaccent.small" horiz-adv-x="395" 
d="M66 0v530h78v-463h234v-67h-312zM161 -87l52 50q66 -35 66 -90q0 -60 -85 -114l-30 28q44 33 44 64q0 34 -47 62z" />
    <glyph glyph-name="Lslash.small" horiz-adv-x="414" 
d="M279 371l28 -59l-143 -71v-174h233v-67h-312v204l-54 -27l-29 59l83 40v254h79v-217z" />
    <glyph glyph-name="Ldot.small" horiz-adv-x="395" 
d="M66 0v530h78v-463h234v-67h-312zM293 219l-62 64l62 65l62 -65z" />
    <glyph glyph-name="Nacute.small" horiz-adv-x="543" 
d="M305 572h-77l90 158h81zM400 86h4q-5 50 -5 144v300h79v-530h-101l-174 312q-40 75 -60 132h-4q5 -62 5 -140v-304h-78v530h100l174 -312q30 -54 60 -132z" />
    <glyph glyph-name="Ncaron.small" horiz-adv-x="543" 
d="M136 730h77l61 -104h2l62 104h76l-94 -158h-89zM400 86h4q-5 50 -5 144v300h79v-530h-101l-174 312q-40 75 -60 132h-4q5 -62 5 -140v-304h-78v530h100l174 -312q30 -54 60 -132z" />
    <glyph glyph-name="Ntilde.small" horiz-adv-x="543" 
d="M402 675v-68q-29 -24 -63 -24q-26 0 -69.5 23t-63.5 23q-29 0 -62 -27v68q31 24 64 24q25 0 68.5 -23t63.5 -23q29 0 62 27zM400 86h4q-5 50 -5 144v300h79v-530h-101l-174 312q-40 75 -60 132h-4q5 -62 5 -140v-304h-78v530h100l174 -312q30 -54 60 -132z" />
    <glyph glyph-name="Ncommaaccent.small" horiz-adv-x="543" 
d="M400 86h4q-5 50 -5 144v300h79v-530h-101l-174 312q-40 75 -60 132h-4q5 -62 5 -140v-304h-78v530h100l174 -312q30 -54 60 -132zM219 -87l52 50q66 -35 66 -90q0 -60 -85 -114l-30 28q44 33 44 64q0 34 -47 62z" />
    <glyph glyph-name="Ograve.small" horiz-adv-x="518" 
d="M303 572h-77l-94 158h81zM391 265q0 104 -36.5 153t-95.5 49t-95.5 -49t-36.5 -152q0 -105 36.5 -154t95.5 -49t95.5 49t36.5 153zM472 265q0 -135 -60.5 -204t-152.5 -69t-152.5 69t-60.5 205q0 135 60.5 204t152.5 69t152.5 -69t60.5 -205z" />
    <glyph glyph-name="Oacute.small" horiz-adv-x="518" 
d="M294 572h-77l90 158h81zM391 265q0 104 -36.5 153t-95.5 49t-95.5 -49t-36.5 -152q0 -105 36.5 -154t95.5 -49t95.5 49t36.5 153zM472 265q0 -135 -60.5 -204t-152.5 -69t-152.5 69t-60.5 205q0 135 60.5 204t152.5 69t152.5 -69t60.5 -205z" />
    <glyph glyph-name="Ocircumflex.small" horiz-adv-x="518" 
d="M391 265q0 104 -36.5 153t-95.5 49t-95.5 -49t-36.5 -152q0 -105 36.5 -154t95.5 -49t95.5 49t36.5 153zM472 265q0 -135 -60.5 -204t-152.5 -69t-152.5 69t-60.5 205q0 135 60.5 204t152.5 69t152.5 -69t60.5 -205zM196 572h-77l95 158h89l94 -158h-76l-62 105h-2z" />
    <glyph glyph-name="Otilde.small" horiz-adv-x="518" 
d="M388 675v-68q-29 -24 -63 -24q-26 0 -69.5 23t-63.5 23q-29 0 -62 -27v68q31 24 64 24q25 0 68.5 -23t63.5 -23q29 0 62 27zM391 265q0 104 -36.5 153t-95.5 49t-95.5 -49t-36.5 -152q0 -105 36.5 -154t95.5 -49t95.5 49t36.5 153zM472 265q0 -135 -60.5 -204t-152.5 -69
t-152.5 69t-60.5 205q0 135 60.5 204t152.5 69t152.5 -69t60.5 -205z" />
    <glyph glyph-name="Odieresis.small" horiz-adv-x="518" 
d="M391 265q0 104 -36.5 153t-95.5 49t-95.5 -49t-36.5 -152q0 -105 36.5 -154t95.5 -49t95.5 49t36.5 153zM472 265q0 -135 -60.5 -204t-152.5 -69t-152.5 69t-60.5 205q0 135 60.5 204t152.5 69t152.5 -69t60.5 -205zM173 593l-59 62l59 62l60 -62zM343 593l-59 62l59 62
l60 -62z" />
    <glyph glyph-name="Omacron.small" horiz-adv-x="518" 
d="M135 606v64h246v-64h-246zM391 265q0 104 -36.5 153t-95.5 49t-95.5 -49t-36.5 -152q0 -105 36.5 -154t95.5 -49t95.5 49t36.5 153zM472 265q0 -135 -60.5 -204t-152.5 -69t-152.5 69t-60.5 205q0 135 60.5 204t152.5 69t152.5 -69t60.5 -205z" />
    <glyph glyph-name="Obreve.small" horiz-adv-x="518" 
d="M257 626q55 0 59 57h65q0 -48 -33.5 -79.5t-90.5 -31.5t-90.5 31.5t-33.5 79.5h65q4 -57 59 -57zM391 265q0 104 -36.5 153t-95.5 49t-95.5 -49t-36.5 -152q0 -105 36.5 -154t95.5 -49t95.5 49t36.5 153zM472 265q0 -135 -60.5 -204t-152.5 -69t-152.5 69t-60.5 205
q0 135 60.5 204t152.5 69t152.5 -69t60.5 -205z" />
    <glyph glyph-name="Ohungarumlaut.small" horiz-adv-x="518" 
d="M391 265q0 104 -36.5 153t-95.5 49t-95.5 -49t-36.5 -152q0 -105 36.5 -154t95.5 -49t95.5 49t36.5 153zM472 265q0 -135 -60.5 -204t-152.5 -69t-152.5 69t-60.5 205q0 135 60.5 204t152.5 69t152.5 -69t60.5 -205zM224 572h-79l91 158h83zM373 572h-78l91 158h82z" />
    <glyph glyph-name="Oslash.small" horiz-adv-x="518" 
d="M94 -12l-50 37l44 61q-42 69 -42 180q0 135 60.5 204t152.5 69q75 0 128 -46l36 49l51 -37l-45 -60q43 -70 43 -180q0 -135 -60.5 -204t-152.5 -69q-77 0 -129 45zM391 265q0 62 -16 107l-200 -274q34 -35 84 -35q59 0 95.5 49t36.5 153zM127 266q0 -67 16 -108l200 275
q-33 34 -84 34q-59 0 -95.5 -49t-36.5 -152z" />
    <glyph glyph-name="Oslashacute.small" horiz-adv-x="518" 
d="M294 572h-77l90 158h81zM94 -12l-50 37l44 61q-42 69 -42 180q0 135 60.5 204t152.5 69q75 0 128 -46l36 49l51 -37l-45 -60q43 -70 43 -180q0 -135 -60.5 -204t-152.5 -69q-77 0 -129 45zM391 265q0 62 -16 107l-200 -274q34 -35 84 -35q59 0 95.5 49t36.5 153zM127 266
q0 -67 16 -108l200 275q-33 34 -84 34q-59 0 -95.5 -49t-36.5 -152z" />
    <glyph glyph-name="OE.small" horiz-adv-x="748" 
d="M375 265q0 103 -34 152.5t-92 49.5q-54 0 -88 -50.5t-34 -150.5q0 -102 34 -152.5t88 -50.5q58 0 92 50t34 152zM46 266q0 131 57.5 202t139.5 71q84 0 130 -67h2v58h324v-68h-245v-158h205v-67h-205v-170h266v-67h-345v57h-2q-44 -65 -130 -65q-83 0 -140 71t-57 203z
" />
    <glyph glyph-name="Racute.small" horiz-adv-x="454" 
d="M250 572h-77l90 158h81zM302 240v-2q28 -24 53 -81l69 -157h-84l-58 135q-26 62 -63 87h-75v-222h-78v530h151q100 0 145.5 -46.5t45.5 -106.5q0 -47 -27 -84t-79 -53zM144 289h73q63 0 86.5 26.5t23.5 61.5q0 33 -23.5 59t-86.5 26h-73v-173z" />
    <glyph glyph-name="Rcaron.small" horiz-adv-x="454" 
d="M87 730h77l61 -104h2l62 104h76l-94 -158h-89zM302 240v-2q28 -24 53 -81l69 -157h-84l-58 135q-26 62 -63 87h-75v-222h-78v530h151q100 0 145.5 -46.5t45.5 -106.5q0 -47 -27 -84t-79 -53zM144 289h73q63 0 86.5 26.5t23.5 61.5q0 33 -23.5 59t-86.5 26h-73v-173z" />
    <glyph glyph-name="Rcommaaccent.small" horiz-adv-x="454" 
d="M302 240v-2q28 -24 53 -81l69 -157h-84l-58 135q-26 62 -63 87h-75v-222h-78v530h151q100 0 145.5 -46.5t45.5 -106.5q0 -47 -27 -84t-79 -53zM144 289h73q63 0 86.5 26.5t23.5 61.5q0 33 -23.5 59t-86.5 26h-73v-173zM182 -87l52 50q66 -35 66 -90q0 -60 -85 -114
l-30 28q44 33 44 64q0 34 -47 62z" />
    <glyph glyph-name="Sacute.small" horiz-adv-x="431" 
d="M252 572h-77l90 158h81zM203 -8q-116 0 -170 82l56 45q36 -56 114 -56q47 0 76 21.5t29 60.5q0 32 -26 54.5t-63.5 37.5t-75 32t-63.5 49t-26 78q0 68 47 105.5t114 37.5q105 0 162 -84l-58 -39q-40 51 -100 51q-38 0 -61.5 -18t-23.5 -48t26 -51.5t63.5 -37t75 -34
t63.5 -53t26 -82.5q0 -69 -53.5 -110t-131.5 -41z" />
    <glyph glyph-name="Scircumflex.small" horiz-adv-x="431" 
d="M203 -8q-116 0 -170 82l56 45q36 -56 114 -56q47 0 76 21.5t29 60.5q0 32 -26 54.5t-63.5 37.5t-75 32t-63.5 49t-26 78q0 68 47 105.5t114 37.5q105 0 162 -84l-58 -39q-40 51 -100 51q-38 0 -61.5 -18t-23.5 -48t26 -51.5t63.5 -37t75 -34t63.5 -53t26 -82.5
q0 -69 -53.5 -110t-131.5 -41zM155 572h-77l95 158h89l94 -158h-76l-62 105h-2z" />
    <glyph glyph-name="Scaron.small" horiz-adv-x="431" 
d="M78 730h77l61 -104h2l62 104h76l-94 -158h-89zM203 -8q-116 0 -170 82l56 45q36 -56 114 -56q47 0 76 21.5t29 60.5q0 32 -26 54.5t-63.5 37.5t-75 32t-63.5 49t-26 78q0 68 47 105.5t114 37.5q105 0 162 -84l-58 -39q-40 51 -100 51q-38 0 -61.5 -18t-23.5 -48t26 -51.5
t63.5 -37t75 -34t63.5 -53t26 -82.5q0 -69 -53.5 -110t-131.5 -41z" />
    <glyph glyph-name="Scedilla.small" horiz-adv-x="431" 
d="M147 -100l29 93q-99 10 -143 81l56 45q36 -56 114 -56q47 0 76 21.5t29 60.5q0 32 -26 54.5t-63.5 37.5t-75 32t-63.5 49t-26 78q0 68 47 105.5t114 37.5q105 0 162 -84l-58 -39q-40 51 -100 51q-38 0 -61.5 -18t-23.5 -48t26 -51.5t63.5 -37t75 -34t63.5 -53t26 -82.5
q0 -61 -42 -100.5t-108 -47.5l-17 -56q40 -3 63 -25t23 -55q0 -43 -35.5 -71.5t-96.5 -28.5q-59 0 -92 22v54q37 -24 85 -24q34 0 53 12t19 34q0 41 -93 43z" />
    <glyph glyph-name="Scommaaccent.small" horiz-adv-x="431" 
d="M203 -8q-116 0 -170 82l56 45q36 -56 114 -56q47 0 76 21.5t29 60.5q0 32 -26 54.5t-63.5 37.5t-75 32t-63.5 49t-26 78q0 68 47 105.5t114 37.5q105 0 162 -84l-58 -39q-40 51 -100 51q-38 0 -61.5 -18t-23.5 -48t26 -51.5t63.5 -37t75 -34t63.5 -53t26 -82.5
q0 -69 -53.5 -110t-131.5 -41zM151 -87l52 50q66 -35 66 -90q0 -60 -85 -114l-30 28q44 33 44 64q0 34 -47 62z" />
    <glyph glyph-name="S_S.small" horiz-adv-x="861" 
d="M634 -8q-116 0 -170 82l56 45q36 -56 114 -56q47 0 76 21.5t29 60.5q0 32 -26 54.5t-63.5 37.5t-75 32t-63.5 49t-26 78q0 68 47 105.5t114 37.5q105 0 162 -84l-58 -39q-40 51 -100 51q-38 0 -61.5 -18t-23.5 -48t26 -51.5t63.5 -37t75 -34t63.5 -53t26 -82.5
q0 -69 -53.5 -110t-131.5 -41zM203 -8q-116 0 -170 82l56 45q36 -56 114 -56q47 0 76 21.5t29 60.5q0 32 -26 54.5t-63.5 37.5t-75 32t-63.5 49t-26 78q0 68 47 105.5t114 37.5q105 0 162 -84l-58 -39q-40 51 -100 51q-38 0 -61.5 -18t-23.5 -48t26 -51.5t63.5 -37t75 -34
t63.5 -53t26 -82.5q0 -69 -53.5 -110t-131.5 -41z" />
    <glyph glyph-name="Tcaron.small" horiz-adv-x="424" 
d="M73 730h77l61 -104h2l62 104h76l-94 -158h-89zM251 0h-78v462h-160v68h398v-68h-160v-462z" />
    <glyph glyph-name="Tcommaaccent.small" horiz-adv-x="424" 
d="M251 0h-78v462h-160v68h398v-68h-160v-462zM154 -87l52 50q66 -35 66 -90q0 -60 -85 -114l-30 28q44 33 44 64q0 34 -47 62z" />
    <glyph glyph-name="Tbar.small" horiz-adv-x="424" 
d="M65 239v65h108v158h-160v68h398v-68h-160v-158h108v-65h-108v-239h-78v239h-108z" />
    <glyph glyph-name="Ugrave.small" horiz-adv-x="542" 
d="M315 572h-77l-94 158h81zM271 -8q-92 0 -148.5 49t-56.5 142v347h78v-345q0 -59 33 -90.5t94 -31.5t94 31.5t33 90.5v345h78v-347q0 -93 -56.5 -142t-148.5 -49z" />
    <glyph glyph-name="Uacute.small" horiz-adv-x="542" 
d="M303 572h-77l90 158h81zM271 -8q-92 0 -148.5 49t-56.5 142v347h78v-345q0 -59 33 -90.5t94 -31.5t94 31.5t33 90.5v345h78v-347q0 -93 -56.5 -142t-148.5 -49z" />
    <glyph glyph-name="Ucircumflex.small" horiz-adv-x="542" 
d="M271 -8q-92 0 -148.5 49t-56.5 142v347h78v-345q0 -59 33 -90.5t94 -31.5t94 31.5t33 90.5v345h78v-347q0 -93 -56.5 -142t-148.5 -49zM208 572h-77l95 158h89l94 -158h-76l-62 105h-2z" />
    <glyph glyph-name="Utilde.small" horiz-adv-x="542" 
d="M401 675v-68q-29 -24 -63 -24q-26 0 -69.5 23t-63.5 23q-29 0 -62 -27v68q31 24 64 24q25 0 68.5 -23t63.5 -23q29 0 62 27zM271 -8q-92 0 -148.5 49t-56.5 142v347h78v-345q0 -59 33 -90.5t94 -31.5t94 31.5t33 90.5v345h78v-347q0 -93 -56.5 -142t-148.5 -49z" />
    <glyph glyph-name="Udieresis.small" horiz-adv-x="542" 
d="M271 -8q-92 0 -148.5 49t-56.5 142v347h78v-345q0 -59 33 -90.5t94 -31.5t94 31.5t33 90.5v345h78v-347q0 -93 -56.5 -142t-148.5 -49zM186 593l-59 62l59 62l60 -62zM356 593l-59 62l59 62l60 -62z" />
    <glyph glyph-name="Umacron.small" horiz-adv-x="542" 
d="M147 606v64h246v-64h-246zM271 -8q-92 0 -148.5 49t-56.5 142v347h78v-345q0 -59 33 -90.5t94 -31.5t94 31.5t33 90.5v345h78v-347q0 -93 -56.5 -142t-148.5 -49z" />
    <glyph glyph-name="Ubreve.small" horiz-adv-x="542" 
d="M271 626q55 0 59 57h65q0 -48 -33.5 -79.5t-90.5 -31.5t-90.5 31.5t-33.5 79.5h65q4 -57 59 -57zM271 -8q-92 0 -148.5 49t-56.5 142v347h78v-345q0 -59 33 -90.5t94 -31.5t94 31.5t33 90.5v345h78v-347q0 -93 -56.5 -142t-148.5 -49z" />
    <glyph glyph-name="Uring.small" horiz-adv-x="542" 
d="M271 563q-49 0 -79.5 26.5t-30.5 65.5q0 40 30.5 66t79.5 26q50 0 80 -26t30 -66q0 -39 -30 -65.5t-80 -26.5zM321 655q0 19 -13.5 31.5t-36.5 12.5t-36.5 -12.5t-13.5 -31.5t13.5 -31.5t36.5 -12.5t36.5 12.5t13.5 31.5zM271 -8q-92 0 -148.5 49t-56.5 142v347h78v-345
q0 -59 33 -90.5t94 -31.5t94 31.5t33 90.5v345h78v-347q0 -93 -56.5 -142t-148.5 -49z" />
    <glyph glyph-name="Uhungarumlaut.small" horiz-adv-x="542" 
d="M271 -8q-92 0 -148.5 49t-56.5 142v347h78v-345q0 -59 33 -90.5t94 -31.5t94 31.5t33 90.5v345h78v-347q0 -93 -56.5 -142t-148.5 -49zM233 572h-79l91 158h83zM382 572h-78l91 158h82z" />
    <glyph glyph-name="Uogonek.small" horiz-adv-x="542" 
d="M256 -8v2q-86 3 -138 51.5t-52 137.5v347h78v-345q0 -59 33 -90.5t94 -31.5t94 31.5t33 90.5v345h78v-347q0 -87 -54 -138q-17 -16 -59 -39t-58 -37q-59 -49 -59 -101q0 -50 54 -50q36 0 77 24h2v-62q-38 -21 -90 -21q-55 0 -85.5 27t-30.5 72q0 40 23 76t60 58z" />
    <glyph glyph-name="Wgrave.small" horiz-adv-x="689" 
d="M384 572h-77l-94 158h81zM483 71h4q12 78 25 138l73 321h85l-138 -530h-97l-67 326q-10 47 -22 126h-4q-13 -84 -21 -126l-67 -326h-97l-138 530h85l73 -321q14 -63 26 -138h4q11 87 23 136l67 323h95l67 -323q13 -60 24 -136z" />
    <glyph glyph-name="Wacute.small" horiz-adv-x="689" 
d="M388 572h-77l90 158h81zM483 71h4q12 78 25 138l73 321h85l-138 -530h-97l-67 326q-10 47 -22 126h-4q-13 -84 -21 -126l-67 -326h-97l-138 530h85l73 -321q14 -63 26 -138h4q11 87 23 136l67 323h95l67 -323q13 -60 24 -136z" />
    <glyph glyph-name="Wcircumflex.small" horiz-adv-x="689" 
d="M483 71h4q12 78 25 138l73 321h85l-138 -530h-97l-67 326q-10 47 -22 126h-4q-13 -84 -21 -126l-67 -326h-97l-138 530h85l73 -321q14 -63 26 -138h4q11 87 23 136l67 323h95l67 -323q13 -60 24 -136zM281 572h-77l95 158h89l94 -158h-76l-62 105h-2z" />
    <glyph glyph-name="Wdieresis.small" horiz-adv-x="689" 
d="M483 71h4q12 78 25 138l73 321h85l-138 -530h-97l-67 326q-10 47 -22 126h-4q-13 -84 -21 -126l-67 -326h-97l-138 530h85l73 -321q14 -63 26 -138h4q11 87 23 136l67 323h95l67 -323q13 -60 24 -136zM258 593l-59 62l59 62l60 -62zM428 593l-59 62l59 62l60 -62z" />
    <glyph glyph-name="Ygrave.small" horiz-adv-x="448" 
d="M269 572h-77l-94 158h81zM223 279h2q10 22 38 80l87 171h84l-170 -321v-209h-79v209l-171 321h85l87 -171q4 -9 12 -25.5t14.5 -30t10.5 -24.5z" />
    <glyph glyph-name="Yacute.small" horiz-adv-x="448" 
d="M258 572h-77l90 158h81zM223 279h2q10 22 38 80l87 171h84l-170 -321v-209h-79v209l-171 321h85l87 -171q4 -9 12 -25.5t14.5 -30t10.5 -24.5z" />
    <glyph glyph-name="Ycircumflex.small" horiz-adv-x="448" 
d="M223 279h2q10 22 38 80l87 171h84l-170 -321v-209h-79v209l-171 321h85l87 -171q4 -9 12 -25.5t14.5 -30t10.5 -24.5zM160 572h-77l95 158h89l94 -158h-76l-62 105h-2z" />
    <glyph glyph-name="Ydieresis.small" horiz-adv-x="448" 
d="M223 279h2q10 22 38 80l87 171h84l-170 -321v-209h-79v209l-171 321h85l87 -171q4 -9 12 -25.5t14.5 -30t10.5 -24.5zM137 593l-59 62l59 62l60 -62zM307 593l-59 62l59 62l60 -62z" />
    <glyph glyph-name="Zacute.small" horiz-adv-x="443" 
d="M254 572h-77l90 158h81zM410 0h-375v52l267 408v2h-254v68h351v-52l-269 -409v-2h280v-67z" />
    <glyph glyph-name="Zcaron.small" horiz-adv-x="443" 
d="M84 730h77l61 -104h2l62 104h76l-94 -158h-89zM410 0h-375v52l267 408v2h-254v68h351v-52l-269 -409v-2h280v-67z" />
    <glyph glyph-name="Zdotaccent.small" horiz-adv-x="443" 
d="M410 0h-375v52l267 408v2h-254v68h351v-52l-269 -409v-2h280v-67zM220 592l-62 64l62 65l62 -65z" />
    <glyph glyph-name="Eng.small" horiz-adv-x="543" 
d="M66 530h98l174 -293q44 -74 62 -120h4q-5 52 -5 139v274h79v-567q0 -80 -39.5 -124.5t-116.5 -44.5q-25 0 -52 6v70q22 -5 40 -5q49 0 68.5 28t19.5 83v24l-190 313q-40 66 -65 129h-4q5 -92 5 -141v-301h-78v530z" />
    <glyph glyph-name="Eth.small" horiz-adv-x="528" 
d="M20 239v65h66v226h135q113 0 187 -65t74 -200q0 -136 -72.5 -200.5t-185.5 -64.5h-138v239h-66zM164 67h57q180 0 180 198q0 197 -184 197h-53v-158h115v-65h-115v-172z" />
    <glyph glyph-name="Thorn.small" horiz-adv-x="449" 
d="M145 530v-100h76q100 0 147 -49.5t47 -112.5t-46.5 -113t-147.5 -50h-76v-105h-79v530h79zM145 172h74q37 0 61.5 10t35 26.5t14.5 30.5t4 29t-4 28.5t-14.5 29.5t-36 26t-62.5 10h-72v-190z" />
    <glyph glyph-name="a.superior" horiz-adv-x="330" 
d="M118 274q-40 0 -65 24t-25 64q0 102 180 131v22q0 19 -12.5 30.5t-34.5 11.5q-45 0 -115 -37h-2l20 64q48 29 102 29q48 0 78.5 -24.5t30.5 -72.5v-156q0 -25 32 -36l-30 -52q-43 12 -58 48h-2q-44 -46 -99 -46zM130 330q40 0 78 45v66q-114 -21 -114 -76q0 -35 36 -35z
" />
    <glyph glyph-name="b.superior" horiz-adv-x="344" 
d="M154 274q-63 0 -108 29v446h67v-165h2q35 29 76 29q56 0 90.5 -43.5t34.5 -118.5q0 -78 -41.5 -127.5t-120.5 -49.5zM153 331q95 0 95 122q0 47 -17 75t-49 28q-35 0 -69 -32v-185q19 -8 40 -8z" />
    <glyph glyph-name="c.superior" horiz-adv-x="274" 
d="M182 274q-70 0 -112 45t-42 118q0 79 45.5 127.5t109.5 48.5q31 0 63 -10v-59q-33 12 -56 12q-43 0 -68.5 -33t-25.5 -85q0 -50 26 -78.5t68 -28.5q19 0 59 10v-55q-34 -12 -67 -12z" />
    <glyph glyph-name="d.superior" horiz-adv-x="348" 
d="M249 319h-2q-41 -45 -89 -45q-58 0 -94 44t-36 122t36 125.5t92 47.5q38 0 77 -29h2v165h67v-468h-32zM164 331q32 0 71 39v154q-36 32 -69 32q-36 0 -53 -34t-17 -78q0 -47 16 -80t52 -33z" />
    <glyph glyph-name="e.superior" horiz-adv-x="326" 
d="M188 274q-76 0 -118 44.5t-42 121.5q0 82 41.5 127.5t102.5 45.5q56 0 91.5 -38t35.5 -108q0 -20 -3 -38h-200q3 -98 98 -98q41 0 83 20l21 -50q-52 -27 -110 -27zM98 481h136q-1 32 -16 54t-47 22q-26 0 -46.5 -18.5t-26.5 -57.5z" />
    <glyph glyph-name="f.superior" horiz-adv-x="212" 
d="M63 281v270h-51v55h51v45q0 46 25.5 76t72.5 30q33 0 59 -14l12 -60h-2q-36 17 -59 17q-41 0 -41 -50v-44h65v-55h-65v-270h-67z" />
    <glyph glyph-name="g.superior" horiz-adv-x="348" 
d="M302 606v-347q0 -68 -46 -100t-110 -32q-68 0 -116 28l23 53q46 -24 91 -24q41 0 66 18.5t25 57.5v46h-2q-34 -32 -77 -32q-56 0 -92 44.5t-36 122.5t37 125t94 47q49 0 93 -40h2l19 33h29zM164 331q36 0 71 37v156q-34 32 -69 32q-36 0 -53 -34t-17 -78q0 -47 16 -80
t52 -33z" />
    <glyph glyph-name="h.superior" horiz-adv-x="365" 
d="M318 281h-67v227q0 48 -42 48q-39 0 -96 -47v-228h-67v468h67v-180h2q52 44 104 44q46 0 72.5 -26t26.5 -71v-235z" />
    <glyph glyph-name="i.superior" horiz-adv-x="160" 
d="M113 281h-67v325h67v-325zM80 651l-51 51l51 51l51 -51z" />
    <glyph glyph-name="j.superior" horiz-adv-x="164" 
d="M117 606v-384q0 -44 -28.5 -69.5t-78.5 -25.5q-37 0 -65 14l21 53q20 -10 40 -10q44 0 44 43v379h67zM84 651l-52 51l52 51l51 -51z" />
    <glyph glyph-name="k.superior" horiz-adv-x="324" 
d="M314 606l-131 -137l127 -188h-76l-95 142l-26 -28v-114h-67v468h67v-274h2q17 23 47 56l67 75h85z" />
    <glyph glyph-name="l.superior" horiz-adv-x="159" 
d="M46 281v440l65 48h2v-488h-67z" />
    <glyph glyph-name="m.superior" horiz-adv-x="544" 
d="M296 563h3q57 50 105 50q45 0 69.5 -26t24.5 -71v-235h-67v227q0 48 -37 48q-32 0 -89 -47v-228h-67v227q0 48 -37 48q-31 0 -88 -47v-228h-67v325h67v-37h2q55 44 99 44q61 0 82 -50z" />
    <glyph glyph-name="o.superior" horiz-adv-x="346" 
d="M318 444q0 -74 -38 -122t-107 -48q-68 0 -106.5 47.5t-38.5 122.5t38 122t107 47q68 0 106.5 -47t38.5 -122zM250 444q0 49 -19 80.5t-58 31.5t-58 -31.5t-19 -80.5q0 -50 19 -81.5t58 -31.5t58 31.5t19 81.5z" />
    <glyph glyph-name="p.superior" horiz-adv-x="348" 
d="M46 134v472h67v-28h2q37 35 78 35q56 0 91.5 -44t35.5 -122q0 -79 -36 -126t-92 -47q-46 0 -77 28h-2v-168h-67zM181 331q37 0 53.5 34t16.5 80t-15.5 78.5t-51.5 32.5q-34 0 -71 -39v-154q36 -32 68 -32z" />
    <glyph glyph-name="q.superior" horiz-adv-x="348" 
d="M156 274q-56 0 -92 44.5t-36 122.5t37 125t94 47q49 0 93 -40h2l19 33h29v-445l-65 -47h-2v192h-2q-34 -32 -77 -32zM164 331q36 0 71 37v156q-34 32 -69 32q-36 0 -53 -34t-17 -78q0 -47 16 -80t52 -33z" />
    <glyph glyph-name="r.superior" horiz-adv-x="225" 
d="M46 281v325h67v-44h2q40 55 97 51v-60q-55 0 -99 -56v-216h-67z" />
    <glyph glyph-name="s.superior" horiz-adv-x="272" 
d="M123 274q-53 0 -92 22v56q44 -22 89 -22q59 0 59 39q0 20 -23 35.5t-50 25t-50 33.5t-23 58q0 43 31 67.5t76 24.5q51 0 88 -21v-57q-52 22 -82 22q-22 0 -34 -9t-12 -24q0 -19 23 -34.5t50 -26t50 -35t23 -58.5q0 -41 -32 -68.5t-91 -27.5z" />
    <glyph glyph-name="t.superior" horiz-adv-x="246" 
d="M178 274q-111 0 -111 108v169h-55v55h55v58l65 47h2v-105h82v-55h-82v-156q0 -32 11.5 -47.5t39.5 -15.5q20 0 35 5v-55q-20 -8 -42 -8z" />
    <glyph glyph-name="u.superior" horiz-adv-x="365" 
d="M46 606h67v-226q0 -49 43 -49q40 0 95 47v228h67v-325h-67v37h-2q-51 -44 -103 -44q-47 0 -73.5 26t-26.5 71v235z" />
    <glyph glyph-name="v.superior" horiz-adv-x="311" 
d="M154 351h3q10 40 17 62l60 193h72l-115 -325h-72l-115 325h72l60 -193q12 -37 18 -62z" />
    <glyph glyph-name="w.superior" horiz-adv-x="454" 
d="M228 538h-2q-5 -37 -8 -54l-41 -203h-78l-91 325h69l47 -200q7 -31 11 -58h3q5 40 8 57l41 201h80l40 -201q4 -15 9 -57h3q3 21 10 58l48 200h69l-91 -325h-78l-41 203q-3 17 -8 54z" />
    <glyph glyph-name="x.superior" horiz-adv-x="332" 
d="M8 281l119 169l-111 156h75l75 -109h2l73 109h76l-111 -157l118 -168h-76l-81 121h-2l-82 -121h-75z" />
    <glyph glyph-name="y.superior" horiz-adv-x="313" 
d="M159 370h2q11 42 20 68l56 168h72l-120 -329q-27 -76 -58.5 -113t-86.5 -37q-10 0 -22 2l-17 58q14 -3 26 -3q29 0 51 21.5t43 82.5l-118 318h72l59 -168q12 -35 21 -68z" />
    <glyph glyph-name="z.superior" horiz-adv-x="297" 
d="M32 281v44l151 224v2h-143v55h223v-43l-152 -225v-2h159v-55h-238z" />
    <glyph glyph-name="a.supcap" horiz-adv-x="420" 
d="M19 281l155 433h74l153 -433h-76l-35 105h-159l-35 -105h-77zM150 447h120l-45 139q-1 4 -4.5 15t-6 19.5t-3.5 14.5h-2q-2 -9 -13 -50z" />
    <glyph glyph-name="b.supcap" horiz-adv-x="414" 
d="M290 505v-2q41 -8 61 -36.5t20 -61.5q0 -51 -38 -87.5t-123 -36.5h-156v433h135q79 0 120.5 -33.5t41.5 -83.5q0 -63 -61 -92zM126 341h84q88 0 88 65q0 63 -88 63h-84v-128zM126 530h74q37 0 57 17t20 46q0 60 -89 60h-62v-123z" />
    <glyph glyph-name="c.supcap" horiz-adv-x="370" 
d="M219 274q-87 0 -134 61t-47 163q0 94 50 159t131 65q76 0 125 -67l-53 -36q-31 40 -73 40q-48 0 -77.5 -44t-29.5 -117q0 -78 29.5 -119.5t79.5 -41.5q47 0 79 41l52 -39q-51 -65 -132 -65z" />
    <glyph glyph-name="d.supcap" horiz-adv-x="427" 
d="M54 281v433h112q98 0 160.5 -55t62.5 -162q0 -108 -61 -162t-160 -54h-114zM126 341h41q150 0 150 157q0 155 -152 155h-39v-312z" />
    <glyph glyph-name="e.supcap" horiz-adv-x="372" 
d="M54 281v433h277v-61h-205v-123h171v-61h-171v-128h222v-60h-294z" />
    <glyph glyph-name="f.supcap" horiz-adv-x="350" 
d="M54 281v433h277v-61h-205v-128h171v-61h-171v-183h-72z" />
    <glyph glyph-name="g.supcap" horiz-adv-x="426" 
d="M245 274q-95 0 -151 58t-56 160t55 166t140 64q86 0 134 -67l-53 -37q-31 41 -81 41q-51 0 -86.5 -41.5t-35.5 -123.5q0 -75 34 -116t100 -41q27 0 53 8v106h-58l-24 60h154v-208q-53 -29 -125 -29z" />
    <glyph glyph-name="h.supcap" horiz-adv-x="454" 
d="M54 281v433h72v-184h202v184h72v-433h-72v188h-202v-188h-72z" />
    <glyph glyph-name="i.supcap" horiz-adv-x="179" 
d="M54 281v433h72v-433h-72z" />
    <glyph glyph-name="j.supcap" horiz-adv-x="326" 
d="M144 274q-82 0 -120 59l50 42q24 -37 66 -37q60 0 60 51v325h72v-330q0 -53 -36 -81.5t-92 -28.5z" />
    <glyph glyph-name="k.supcap" horiz-adv-x="399" 
d="M148 457l-22 -26v-150h-72v433h72v-131v-61h2q18 25 45 57l111 135h85l-176 -207l192 -226h-88z" />
    <glyph glyph-name="l.supcap" horiz-adv-x="335" 
d="M54 281v433h72v-373h195v-60h-267z" />
    <glyph glyph-name="m.supcap" horiz-adv-x="539" 
d="M415 623h-4q-23 -50 -40 -80l-95 -166h-14l-95 166q-19 35 -40 80h-4q3 -25 3 -59v-283h-72v433h89l89 -158q27 -49 36 -70h3q10 23 35 70l90 158h89v-433h-72v283q0 23 2 59z" />
    <glyph glyph-name="n.supcap" horiz-adv-x="458" 
d="M125 629h-3q4 -52 4 -110v-238h-72v433h89l146 -254q31 -56 44 -94h3q-4 33 -4 110v238h72v-433h-89l-146 254q-29 50 -44 94z" />
    <glyph glyph-name="o.supcap" horiz-adv-x="438" 
d="M219 274q-77 0 -129 57.5t-52 166.5t52 166.5t129 57.5t129 -57.5t52 -166.5t-52 -166.5t-129 -57.5zM219 337q48 0 77.5 39t29.5 122q0 82 -29.5 121.5t-77.5 39.5t-78 -39.5t-30 -121.5q0 -83 30 -122t78 -39z" />
    <glyph glyph-name="p.supcap" horiz-adv-x="382" 
d="M54 281v433h130q84 0 124 -41t40 -92q0 -53 -40 -93.5t-124 -40.5h-58v-166h-72zM126 507h58q53 0 72 23t19 51q0 16 -5 30t-27 28t-60 14h-57v-146z" />
    <glyph glyph-name="q.supcap" horiz-adv-x="438" 
d="M400 498q0 -94 -39.5 -149.5t-100.5 -69.5v-2q26 -38 110 -51l-39 -54q-53 5 -93.5 34t-57.5 72q-63 14 -102.5 69.5t-39.5 150.5q0 109 52 166.5t129 57.5t129 -57.5t52 -166.5zM111 498q0 -83 30 -122t78 -39t77.5 39t29.5 122q0 82 -29.5 121.5t-77.5 39.5t-78 -39.5
t-30 -121.5z" />
    <glyph glyph-name="r.supcap" horiz-adv-x="384" 
d="M258 475v-2q22 -18 43 -64l58 -128h-75l-49 110q-21 49 -46 67h-63v-177h-72v433h129q85 0 123.5 -38.5t38.5 -89.5q0 -37 -22 -67t-65 -44zM126 518h56q52 0 71 21t19 47q0 67 -90 67h-56v-135z" />
    <glyph glyph-name="s.supcap" horiz-adv-x="365" 
d="M176 274q-50 0 -88.5 19.5t-58.5 50.5l50 41q31 -48 98 -48q37 0 59.5 16.5t22.5 46.5q0 25 -22 43t-53 30t-62 26t-53 40t-22 64q0 57 39.5 88t95.5 31q91 0 141 -71l-52 -36q-36 44 -87 44q-30 0 -47 -14t-17 -37q0 -24 21.5 -41t52.5 -29t62.5 -26.5t53 -42.5
t21.5 -68q0 -57 -44.5 -92t-110.5 -35z" />
    <glyph glyph-name="t.supcap" horiz-adv-x="366" 
d="M219 281h-72v372h-133v61h338v-61h-133v-372z" />
    <glyph glyph-name="u.supcap" horiz-adv-x="457" 
d="M228 274q-78 0 -126 43t-48 126v271h72v-271q0 -106 102 -106q50 0 77 27t27 79v271h72v-271q0 -83 -48.5 -126t-127.5 -43z" />
    <glyph glyph-name="v.supcap" horiz-adv-x="407" 
d="M201 354h4q13 56 24 92l84 268h75l-144 -433h-80l-145 433h75l83 -265q18 -66 24 -95z" />
    <glyph glyph-name="w.supcap" horiz-adv-x="602" 
d="M416 362h5q9 54 19 95l61 257h77l-117 -433h-86l-56 260q-7 31 -17 89h-4q-7 -48 -16 -89l-55 -260h-86l-117 433h76l62 -256q10 -42 20 -96h4q9 60 17 95l56 257h83l56 -257q10 -45 18 -95z" />
    <glyph glyph-name="x.supcap" horiz-adv-x="414" 
d="M206 554h2l101 160h80l-140 -213l146 -220h-80l-109 169h-2l-105 -169h-80l144 221l-141 212h80z" />
    <glyph glyph-name="y.supcap" horiz-adv-x="398" 
d="M198 516h2q13 29 30 61l73 137h76l-144 -263v-170h-72v170l-144 263h78l72 -137q21 -40 29 -61z" />
    <glyph glyph-name="z.supcap" horiz-adv-x="379" 
d="M351 281h-319v46l220 324v2h-208v61h298v-45l-222 -326v-2h231v-60z" />
    <glyph glyph-name="ampersand.small" horiz-adv-x="507" 
d="M143 282v2q-61 59 -61 123q0 60 40.5 95.5t97.5 35.5q58 0 96 -37t38 -90q0 -92 -96 -142v-2q54 -50 89 -90h2q35 48 66 103l56 -34q-43 -73 -79 -120q44 -54 84 -126h-83q-15 30 -48 73h-2q-78 -81 -160 -81q-66 0 -103.5 41t-37.5 97q0 51 28 91t73 61zM190 59
q53 0 113 65q-49 56 -112 115q-77 -36 -77 -103q0 -35 20.5 -56t55.5 -21zM155 406q0 -26 13.5 -47t40.5 -48q72 37 72 96q0 29 -16.5 46.5t-45.5 17.5q-30 0 -47 -18t-17 -47z" />
    <glyph glyph-name="grave.cap" horiz-adv-x="372" 
d="M232 757h-77l-94 158h81z" />
    <glyph glyph-name="acute.cap" horiz-adv-x="360" 
d="M217 757h-77l90 158h81z" />
    <glyph glyph-name="circumflex.cap" horiz-adv-x="372" 
d="M124 757h-77l95 158h89l94 -158h-76l-62 105h-2z" />
    <glyph glyph-name="caron.cap" horiz-adv-x="372" 
d="M47 915h77l61 -104h2l62 104h76l-94 -158h-89z" />
    <glyph glyph-name="tilde.cap" horiz-adv-x="372" 
d="M315 860v-68q-29 -24 -63 -24q-26 0 -69.5 23t-63.5 23q-29 0 -62 -27v68q31 24 64 24q25 0 68.5 -23t63.5 -23q29 0 62 27z" />
    <glyph glyph-name="dieresis.cap" horiz-adv-x="372" 
d="M101 778l-59 62l59 62l60 -62zM271 778l-59 62l59 62l60 -62z" />
    <glyph glyph-name="macron.cap" horiz-adv-x="372" 
d="M63 791v64h246v-64h-246z" />
    <glyph glyph-name="breve.cap" horiz-adv-x="372" 
d="M186 821q55 0 59 57h65q0 -48 -33.5 -79.5t-90.5 -31.5t-90.5 31.5t-33.5 79.5h65q4 -57 59 -57z" />
    <glyph glyph-name="ring.cap" horiz-adv-x="372" 
d="M186 740q-49 0 -79.5 26.5t-30.5 65.5q0 40 30.5 66t79.5 26q50 0 80 -26t30 -66q0 -39 -30 -65.5t-80 -26.5zM236 832q0 19 -13.5 31.5t-36.5 12.5t-36.5 -12.5t-13.5 -31.5t13.5 -31.5t36.5 -12.5t36.5 12.5t13.5 31.5z" />
    <glyph glyph-name="hungarumlaut.cap" horiz-adv-x="372" 
d="M149 757h-79l91 158h83zM298 757h-78l91 158h82z" />
    <glyph glyph-name="dotaccent.cap" horiz-adv-x="372" 
d="M186 777l-62 64l62 65l62 -65z" />
    <glyph glyph-name="hyphen.cap" horiz-adv-x="287" 
d="M35 331v68h217v-68h-217z" />
    <glyph glyph-name="exclamdown.cap" horiz-adv-x="277" 
d="M183 49l-87 -69h-3l13 494h65zM139 585l-68 69l68 70l67 -70z" />
    <glyph glyph-name="exclam.small" horiz-adv-x="239" 
d="M50 57l65 68l65 -68l-65 -67zM83 185l-12 300l86 63h3l-13 -363h-64z" />
    <glyph glyph-name="exclamdown.small" horiz-adv-x="239" 
d="M70 -20l13 364h64l12 -301l-85 -63h-4zM50 471l65 68l65 -68l-65 -67z" />
    <glyph glyph-name="questiondown.cap" horiz-adv-x="424" 
d="M192 474h70q11 -38 11 -68q0 -36 -14.5 -65.5t-35.5 -51t-42 -42t-35.5 -47.5t-14.5 -58q0 -36 22 -58.5t65 -22.5q73 0 149 55h4l-23 -81q-22 -18 -61 -31.5t-79 -13.5q-74 0 -115.5 41.5t-41.5 106.5q0 41 15 73.5t37 54t44 41.5t37 48.5t15 63.5q0 20 -7 55zM226 724
l68 -70l-68 -69l-67 69z" />
    <glyph glyph-name="question.small" horiz-adv-x="364" 
d="M195 185h-68q-11 27 -11 53q0 30 19 55.5t41.5 40.5t41.5 37.5t19 46.5t-18.5 39t-53.5 15q-54 0 -130 -46h-2l23 77q49 35 120 35q65 0 100.5 -33.5t35.5 -85.5q0 -35 -19.5 -62.5t-43 -43t-43 -38t-19.5 -47.5q0 -19 8 -43zM165 -10l-65 67l65 68l65 -68z" />
    <glyph glyph-name="questiondown.small" horiz-adv-x="364" 
d="M170 344h67q11 -28 11 -53q0 -30 -19 -55.5t-41.5 -41t-41.5 -37.5t-19 -46t18.5 -39t53.5 -15q55 0 131 46h2l-24 -78q-50 -34 -119 -34q-65 0 -101 32.5t-36 82.5q0 30 13 54t31.5 39.5t37 30t31.5 32.5t13 39q0 13 -8 43zM200 539l65 -68l-65 -67l-65 67z" />
    <glyph glyph-name="quoteleft.small" horiz-adv-x="268" 
d="M202 292l-60 -63q-39 36 -56 70t-17 78q0 89 91 177l38 -35q-57 -60 -57 -117q0 -59 61 -110z" />
    <glyph glyph-name="quoteright.small" horiz-adv-x="268" 
d="M65 490l60 64q73 -66 73 -148q0 -89 -91 -177l-38 35q57 60 57 117q0 59 -61 109z" />
    <glyph glyph-name="quotedblleft.small" horiz-adv-x="451" 
d="M142 229q-39 36 -56 70t-17 78q0 89 91 177l38 -35q-57 -60 -57 -117q0 -59 61 -110zM325 229q-40 36 -57 70t-17 78q0 89 92 177l37 -35q-56 -60 -56 -117q0 -59 61 -110z" />
    <glyph glyph-name="quotedblright.small" horiz-adv-x="451" 
d="M65 490l60 64q73 -66 73 -148q0 -89 -91 -177l-38 35q57 60 57 117q0 59 -61 109zM248 490l60 64q73 -66 73 -148q0 -89 -91 -177l-38 35q56 59 56 117q0 60 -60 109z" />
    <glyph glyph-name="guilsinglleft.cap" horiz-adv-x="288" 
d="M51 366l146 195h53l-99 -195l99 -195h-53z" />
    <glyph glyph-name="guilsinglright.cap" horiz-adv-x="288" 
d="M91 561l146 -195l-146 -195h-54l99 195l-99 195h54z" />
    <glyph glyph-name="guillemotleft.cap" horiz-adv-x="475" 
d="M197 171l-146 195l146 195h53l-99 -195l99 -195h-53zM384 171l-146 195l146 195h53l-99 -195l99 -195h-53z" />
    <glyph glyph-name="guillemotright.cap" horiz-adv-x="475" 
d="M37 171l99 195l-99 195h54l146 -195l-146 -195h-54zM224 171l99 195l-99 195h54l145 -195l-145 -195h-54z" />
    <glyph glyph-name="endash.cap" horiz-adv-x="400" 
d="M0 331v68h400v-68h-400z" />
    <glyph glyph-name="emdash.cap" horiz-adv-x="800" 
d="M0 331v68h800v-68h-800z" />
    <glyph glyph-name="periodcentered.cap" horiz-adv-x="268" 
d="M201 367l-67 -69l-68 69l68 70z" />
    <glyph glyph-name="periodcentered.small" horiz-adv-x="268" 
d="M201 265l-67 -69l-68 69l68 70z" />
    <glyph glyph-name="parenleft.cap" horiz-adv-x="287" 
d="M55 356q0 211 165 439l38 -29q-59 -89 -93 -185.5t-34 -224.5t34 -224.5t93 -185.5l-38 -29q-165 226 -165 439z" />
    <glyph glyph-name="parenright.cap" horiz-adv-x="287" 
d="M232 356q0 -215 -166 -439l-38 29q59 89 93.5 185.5t34.5 224.5t-34.5 224.5t-93.5 185.5l38 29q166 -226 166 -439z" />
    <glyph glyph-name="parenleft.small" horiz-adv-x="247" 
d="M43 265q0 97 43.5 187t100.5 156l34 -30q-104 -134 -104 -313q0 -178 104 -312l-34 -30q-57 66 -100.5 156t-43.5 186z" />
    <glyph glyph-name="parenright.small" horiz-adv-x="247" 
d="M220 265q0 -96 -43.5 -186t-100.5 -156l-35 30q105 135 105 312q0 178 -105 313l35 30q57 -66 100.5 -156t43.5 -187z" />
    <glyph glyph-name="bracketleft.cap" horiz-adv-x="276" 
d="M128 731v-750h121v-54h-192v858h192v-54h-121z" />
    <glyph glyph-name="bracketright.cap" horiz-adv-x="276" 
d="M148 -19v750h-121v54h192v-858h-192v54h121z" />
    <glyph glyph-name="bracketleft.small" horiz-adv-x="245" 
d="M125 545v-559h100v-53h-169v665h169v-53h-100z" />
    <glyph glyph-name="bracketright.small" horiz-adv-x="245" 
d="M121 -14v559h-100v53h169v-665h-169v53h100z" />
    <glyph glyph-name="braceleft.cap" horiz-adv-x="293" 
d="M40 338v36q41 8 70 30.5t29 59.5q0 29 -35.5 92.5t-35.5 101.5q0 51 39 88t100 49l13 -39q-77 -21 -77 -89q0 -31 35 -96t35 -102q0 -41 -29.5 -70t-73.5 -42v-2q44 -13 73.5 -42t29.5 -70q0 -36 -35 -102t-35 -97q0 -67 77 -88l-13 -39q-61 11 -100 48t-39 89
q0 38 35.5 101t35.5 93q0 37 -28.5 59t-70.5 31z" />
    <glyph glyph-name="braceright.cap" horiz-adv-x="293" 
d="M253 374v-36q-42 -9 -70.5 -31t-28.5 -59q0 -30 35 -93t35 -101q0 -52 -39 -89t-100 -48l-13 39q77 20 77 88q0 31 -35 97t-35 102q0 40 29.5 69.5t74.5 42.5v2q-45 13 -74.5 42.5t-29.5 69.5q0 37 35 102t35 96q0 69 -77 89l13 39q61 -12 100 -49t39 -88q0 -38 -35 -101
t-35 -93q0 -37 29 -59.5t70 -30.5z" />
    <glyph glyph-name="braceleft.small" horiz-adv-x="252" 
d="M40 248v35q78 11 78 64q0 23 -28 69.5t-28 80.5q0 42 32.5 71.5t86.5 39.5l11 -37q-59 -14 -59 -67q0 -25 27.5 -73t27.5 -77q0 -32 -21 -54.5t-56 -33.5v-2q34 -10 55.5 -33t21.5 -54q0 -29 -27.5 -77.5t-27.5 -72.5q0 -54 59 -67l-11 -37q-54 10 -86.5 39.5t-32.5 70.5
q0 34 28 80.5t28 69.5q0 27 -21.5 43.5t-56.5 21.5z" />
    <glyph glyph-name="braceright.small" horiz-adv-x="252" 
d="M199 283v-35q-35 -5 -56.5 -21.5t-21.5 -43.5q0 -23 28 -69.5t28 -80.5q0 -41 -32.5 -70.5t-86.5 -39.5l-11 37q59 13 59 67q0 24 -27.5 72.5t-27.5 77.5q0 31 21.5 54t55.5 33v2q-35 11 -56 33.5t-21 54.5q0 29 27.5 77t27.5 73q0 53 -59 67l11 37q54 -10 86.5 -39.5
t32.5 -71.5q0 -34 -28 -80.5t-28 -69.5q0 -53 78 -64z" />
    <glyph glyph-name="at.cap" horiz-adv-x="726" 
d="M379 -58q-68 0 -125 23t-102.5 70t-71.5 128.5t-26 189.5q0 205 89.5 311.5t228.5 106.5q131 0 215.5 -95.5t84.5 -270.5q0 -121 -40 -180.5t-107 -59.5q-66 0 -86 57h-2q-53 -57 -113 -57q-43 0 -70 27.5t-27 72.5q0 119 198 154v25q0 25 -15 39.5t-42 14.5
q-52 0 -118 -42h-3l19 69q53 34 113 34q50 0 81.5 -28.5t31.5 -85.5v-169q0 -50 37 -50q32 0 54 42.5t22 136.5q0 150 -66.5 228t-165.5 78q-110 0 -181 -87.5t-71 -268.5q0 -182 73.5 -267.5t187.5 -85.5q97 0 161 56l37 -46q-79 -70 -201 -70zM336 227q46 0 89 56v77
q-59 -10 -94 -33.5t-35 -56.5q0 -43 40 -43z" />
    <glyph glyph-name="at.small" horiz-adv-x="616" 
d="M416 330v-126q0 -35 25 -35q23 0 40 31.5t17 96.5q0 105 -52 162t-128 57q-85 0 -141 -64t-56 -192t57 -190t145 -62q78 0 130 42l32 -41q-66 -54 -163 -54q-111 0 -185 76.5t-74 227.5q0 147 72.5 228.5t181.5 81.5q105 0 172 -76.5t67 -194.5q0 -89 -33.5 -135
t-85.5 -46q-50 0 -68 42h-2q-39 -42 -88 -42q-35 0 -57 21t-22 56q0 93 157 117v17q0 38 -41 38q-44 0 -98 -32h-2l16 57q42 25 92 25q41 0 66.5 -22t25.5 -64zM291 168q33 0 66 38v57q-96 -18 -96 -66q0 -29 30 -29z" />
    <glyph glyph-name="copyright.small" horiz-adv-x="602" 
d="M503 266q0 94 -56 157.5t-146 63.5t-146.5 -64t-56.5 -158t56.5 -158t145.5 -64q90 0 146.5 64t56.5 159zM398 383l-41 -37q-22 24 -51 24q-31 0 -50.5 -26t-19.5 -78t20 -79t51 -27t52 26l43 -35q-34 -45 -96 -45q-65 0 -99 44t-34 116q0 70 36 114.5t97 44.5
q59 0 92 -42zM42 265q0 115 73.5 194.5t185.5 79.5t185.5 -79t73.5 -194t-73.5 -194.5t-186.5 -79.5q-112 0 -185 79t-73 194z" />
    <glyph glyph-name="uni2117.small" horiz-adv-x="601" 
d="M300 -8q-112 0 -185 79t-73 194t73.5 194.5t185.5 79.5q113 0 186 -79t73 -195q0 -115 -73.5 -194t-186.5 -79zM300 43q90 0 146.5 64t56.5 158q0 95 -56 158.5t-146 63.5t-146.5 -64t-56.5 -158t56.5 -158t145.5 -64zM206 113v309h94q63 0 93 -30.5t30 -68.5
q0 -39 -30 -69.5t-94 -30.5h-33v-110h-60zM266 275h32q63 0 63 48q0 47 -64 47h-31v-95z" />
    <glyph glyph-name="Euro.LT" 
d="M42 397v65h61q15 118 64.5 190t135.5 72q92 0 146 -85l-58 -43q-34 53 -86 53q-101 0 -119 -187h224l-17 -65h-211q-1 -16 -1 -41t1 -43h191l-17 -66h-170q19 -182 125 -182q53 0 88 54l58 -44q-54 -85 -150 -85q-174 0 -204 257h-61v66h56q-1 22 -1 43t1 41h-56z" />
    <glyph glyph-name="dollar.LT" 
d="M345 787l-22 -115q56 -23 94 -78l-61 -43q-23 32 -48 47l-38 -195q36 -19 58.5 -34.5t48.5 -39t38.5 -54t12.5 -67.5q0 -83 -59.5 -132t-147.5 -49q-16 0 -24 1l-21 -108l-48 7l21 109q-71 21 -114 87l59 45q25 -41 70 -59l46 238q-34 17 -55.5 30.5t-46 35.5t-36.5 50.5
t-12 64.5q0 77 52.5 118.5t124.5 41.5q21 0 39 -3l22 109zM348 207q0 39 -24 65.5t-69 51.5l-44 -224h11q56 1 91 28.5t35 78.5zM141 532q0 -35 21 -58t64 -47l36 186q-6 1 -21 1q-45 0 -72.5 -22.5t-27.5 -59.5z" />
    <glyph glyph-name="sterling.LT" 
d="M42 336v68h74q-32 71 -32 131q0 82 48 135.5t138 53.5q103 0 165 -74l-53 -55q-43 54 -110 54q-53 0 -78.5 -32t-25.5 -81q0 -51 35 -132h204v-68h-177q27 -68 27 -118q0 -61 -39 -113q2 -1 9 -5.5t9 -6t9 -5.5t10 -5.5t9.5 -4.5t10.5 -4.5t10.5 -3.5t11.5 -3t11.5 -1.5
t13.5 -0.5q34 0 53.5 12t37.5 33l49 -55q-54 -65 -133 -65q-39 0 -76.5 18.5t-64.5 37t-40 18.5q-15 0 -22.5 -11t-9 -22.5t-1.5 -30.5h-77q0 68 22 102.5t75 34.5q10 0 26 -4q23 40 23 77q0 54 -35 126h-107z" />
    <glyph glyph-name="yen.LT" 
d="M54 297v65h117l-145 352h84l87 -220q26 -67 40 -117h3q14 50 40 117l86 220h85l-146 -352h118v-65h-144v-85h144v-65h-144v-147h-81v147h-144v65h144v85h-144z" />
    <glyph glyph-name="zero.LT" 
d="M239 -10q-193 0 -193 367t193 367q192 0 192 -367t-192 -367zM239 65q57 0 82.5 71.5t25.5 220.5t-25.5 220.5t-82.5 71.5t-83 -72t-26 -220t26 -220t83 -72z" />
    <glyph glyph-name="one.LT" 
d="M202 611l-162 -65v80l221 93h21v-646h139v-73h-379v73h160v538z" />
    <glyph glyph-name="two.LT" 
d="M233 650q-43 0 -70.5 -32t-27.5 -103q0 -18 1 -28h-78q-2 16 -2 34q0 100 51.5 151.5t126.5 51.5q84 0 128.5 -53.5t44.5 -142.5q0 -92 -57.5 -197t-179.5 -256v-2h254v-73h-368v47q143 179 205 282.5t62 196.5q0 62 -24.5 93t-65.5 31z" />
    <glyph glyph-name="three.LT" 
d="M236 -10q-82 0 -129.5 50.5t-47.5 148.5q0 18 2 36h77q-1 -10 -1 -29q0 -133 99 -133q47 0 78 37t31 105q0 70 -38.5 112t-110.5 42q-23 0 -42 -4v26l160 258v2h-244v73h310l29 -63l-146 -234v-2q75 -9 120.5 -66.5t45.5 -141.5q0 -96 -53.5 -156.5t-139.5 -60.5z" />
    <glyph glyph-name="four.LT" 
d="M209 438l-86 -145v-2h143v133q0 76 3 119h-2q-17 -36 -58 -105zM18 218v34l285 467h44v-428h105l-28 -73h-77v-218h-81v218h-248z" />
    <glyph glyph-name="five.LT" 
d="M429 214q0 -101 -53.5 -162.5t-141.5 -61.5q-80 0 -127.5 50.5t-47.5 148.5q0 20 2 36h77q-1 -10 -1 -29q0 -133 99 -133q48 0 78.5 38.5t30.5 111.5q0 71 -32.5 111t-94.5 40q-48 0 -91 -20l-47 32l42 338h309l-27 -73h-214l-27 -218l2 -1q33 15 71 15q91 0 142 -64.5
t51 -158.5z" />
    <glyph glyph-name="six.LT" 
d="M159 402l2 -2q34 18 79 18q89 0 139 -59.5t50 -149.5q0 -99 -51.5 -159t-132.5 -60q-91 0 -143.5 69.5t-52.5 194.5q0 147 77.5 268t219.5 202l38 -63q-174 -108 -225 -259zM133 255q0 -91 29 -141.5t80 -50.5q43 0 73 37t30 109q0 62 -31.5 98.5t-88.5 36.5
q-49 0 -87 -20q-5 -40 -5 -69z" />
    <glyph glyph-name="seven.LT" 
d="M403 714l30 -63q-218 -273 -221 -651h-83q6 205 64 366t141 273v2h-297v73h366z" />
    <glyph glyph-name="eight.LT" 
d="M239 -10q-85 0 -139 54.5t-54 142.5q0 64 29.5 111t86.5 67v2q-41 16 -72 57t-31 111q0 82 48 135.5t132 53.5t131.5 -53.5t47.5 -135.5q0 -70 -30.5 -111t-71.5 -57v-2q57 -20 86 -67t29 -111q0 -89 -53.5 -143t-138.5 -54zM239 63q44 0 76 33.5t32 96.5q0 61 -30.5 95
t-77.5 41q-48 -7 -78.5 -41t-30.5 -95q0 -63 32 -96.5t77 -33.5zM239 399q95 19 95 133q0 55 -27 87t-68 32q-42 0 -69 -32t-27 -87q0 -114 96 -133z" />
    <glyph glyph-name="nine.LT" 
d="M319 312l-2 2q-34 -18 -79 -18q-89 0 -139 59.5t-50 148.5q0 99 51.5 159.5t132.5 60.5q90 0 143 -69.5t53 -194.5q0 -147 -78 -267.5t-219 -202.5l-38 63q173 107 225 259zM345 459q0 91 -29 141.5t-80 50.5q-43 0 -73 -37t-30 -109q0 -62 31.5 -99t88.5 -37q46 0 86 21
q6 36 6 69z" />
    <glyph glyph-name="Euro.OP" 
d="M39 397v65h61q15 118 64.5 190t135.5 72q92 0 146 -85l-58 -43q-34 53 -86 53q-101 0 -119 -187h224l-17 -65h-211q-1 -16 -1 -41t1 -43h191l-17 -66h-170q19 -182 125 -182q53 0 88 54l58 -44q-54 -85 -150 -85q-174 0 -204 257h-61v66h56q-1 22 -1 43t1 41h-56z" />
    <glyph glyph-name="dollar.OP" 
d="M344 787l-22 -115q56 -23 94 -78l-61 -43q-23 32 -48 47l-38 -195q36 -19 58.5 -34.5t48.5 -39t38.5 -54t12.5 -67.5q0 -83 -59.5 -132t-147.5 -49q-16 0 -24 1l-21 -108l-48 7l21 109q-71 21 -114 87l59 45q25 -41 70 -59l46 238q-34 17 -55.5 30.5t-46 35.5t-36.5 50.5
t-12 64.5q0 77 52.5 118.5t124.5 41.5q21 0 39 -3l22 109zM347 207q0 39 -24 65.5t-69 51.5l-44 -224h11q56 1 91 28.5t35 78.5zM140 532q0 -35 21 -58t64 -47l36 186q-6 1 -21 1q-45 0 -72.5 -22.5t-27.5 -59.5z" />
    <glyph glyph-name="sterling.OP" 
d="M45 336v68h74q-32 71 -32 131q0 82 48 135.5t138 53.5q103 0 165 -74l-53 -55q-43 54 -110 54q-53 0 -78.5 -32t-25.5 -81q0 -51 35 -132h204v-68h-177q27 -68 27 -118q0 -61 -39 -113q2 -1 9 -5.5t9 -6t9 -5.5t10 -5.5t9.5 -4.5t10.5 -4.5t10.5 -3.5t11.5 -3t11.5 -1.5
t13.5 -0.5q34 0 53.5 12t37.5 33l49 -55q-54 -65 -133 -65q-39 0 -76.5 18.5t-64.5 37t-40 18.5q-15 0 -22.5 -11t-9 -22.5t-1.5 -30.5h-77q0 68 22 102.5t75 34.5q10 0 26 -4q23 40 23 77q0 54 -35 126h-107z" />
    <glyph glyph-name="yen.OP" 
d="M54 297v65h117l-145 352h84l87 -220q26 -67 40 -117h3q14 50 40 117l86 220h85l-146 -352h118v-65h-144v-85h144v-65h-144v-147h-81v147h-144v65h144v85h-144z" />
    <glyph glyph-name="zero.OP" horiz-adv-x="451" 
d="M37 246q0 118 51 187t137 69q87 0 137.5 -69t50.5 -187t-50.5 -187t-137.5 -69q-86 0 -137 69t-51 187zM335 246q0 90 -29.5 137.5t-80.5 47.5t-80.5 -47.5t-29.5 -137.5q0 -91 29 -138t81 -47q51 0 80.5 47.5t29.5 137.5z" />
    <glyph glyph-name="one.OP" horiz-adv-x="427" 
d="M201 391l-161 -67v80l218 93h20v-428h140v-69h-376v69h159v322z" />
    <glyph glyph-name="two.OP" horiz-adv-x="442" 
d="M219 532q-42 0 -71.5 -29.5t-29.5 -96.5q0 -18 1 -28h-74q-3 24 -3 34q0 95 53 143t123 48q80 0 125 -50t45 -120q0 -43 -14.5 -83t-51 -87.5t-71.5 -85.5t-103 -106v-2h259v-69h-370v47q23 24 67 70t61.5 65t48 53.5t43 53.5t28 45.5t20.5 48.5t5 46q0 45 -25.5 74
t-65.5 29z" />
    <glyph glyph-name="three.OP" horiz-adv-x="407" 
d="M195 -232q-82 0 -129 50t-47 149q0 18 2 36h75q-2 -20 -2 -30q0 -69 27.5 -101.5t73.5 -32.5q47 0 79.5 38t32.5 105q0 70 -39.5 112.5t-112.5 42.5q-23 0 -42 -4v26l166 262v2h-250v69h309l29 -64l-148 -233v-2q75 -9 120.5 -66.5t45.5 -142.5q0 -96 -52 -156t-138 -60z
" />
    <glyph glyph-name="four.OP" horiz-adv-x="443" 
d="M197 219l-91 -148v-2h151v140q0 77 3 120h-2q-17 -35 -61 -110zM9 0v34l284 463h41v-428h104l-25 -69h-79v-222h-77v222h-248z" />
    <glyph glyph-name="five.OP" horiz-adv-x="426" 
d="M397 -8q0 -102 -52 -163t-140 -61q-80 0 -127 50.5t-47 148.5q0 18 2 36h75q-1 -10 -1 -30q0 -69 27 -101.5t73 -32.5q49 0 80.5 39t31.5 112q0 71 -33 112t-95 41q-48 0 -93 -21l-44 30l42 340h307l-26 -69h-216l-27 -220l2 -1q30 12 70 12q92 0 141.5 -63.5
t49.5 -158.5z" />
    <glyph glyph-name="six.OP" horiz-adv-x="457" 
d="M147 402l2 -2q32 17 80 17q89 0 137 -59t48 -149q0 -99 -50 -159t-131 -60q-90 0 -140.5 69t-50.5 195q0 148 76.5 268.5t216.5 201.5l37 -62q-173 -106 -225 -260zM120 255q0 -91 30 -142.5t81 -51.5q44 0 74.5 38t30.5 109q0 63 -32 100.5t-90 37.5q-48 0 -88 -21
q-6 -38 -6 -70z" />
    <glyph glyph-name="seven.OP" horiz-adv-x="417" 
d="M374 492l29 -64q-219 -275 -223 -650h-80q7 204 67 367t144 276v2h-302v69h365z" />
    <glyph glyph-name="eight.OP" horiz-adv-x="464" 
d="M232 -10q-84 0 -137 54t-53 143q0 64 29 111t86 67v2q-41 15 -71 56.5t-30 111.5q0 82 46 135.5t130 53.5t130 -53.5t46 -135.5q0 -70 -30 -111t-70 -57v-2q57 -20 85.5 -67t28.5 -111q0 -89 -53 -143t-137 -54zM232 61q45 0 78.5 34.5t33.5 97.5q0 61 -31.5 95t-80.5 41
q-49 -7 -80.5 -41t-31.5 -95q0 -63 33.5 -97.5t78.5 -34.5zM232 399q98 19 98 133q0 56 -28 88.5t-70 32.5t-70 -32.5t-28 -88.5q0 -113 98 -133z" />
    <glyph glyph-name="nine.OP" horiz-adv-x="457" 
d="M310 90l-2 2q-32 -17 -80 -17q-89 0 -137.5 59t-48.5 148q0 99 50.5 159.5t131.5 60.5q89 0 139.5 -69.5t50.5 -194.5q0 -148 -76 -269t-217 -201l-36 61q173 108 225 261zM336 237q0 91 -29.5 142.5t-81.5 51.5q-43 0 -74 -38t-31 -110q0 -63 32 -100.5t90 -37.5
q48 0 88 21q6 28 6 71z" />
    <glyph glyph-name="Euro.OT" 
d="M41 397v65h61q15 118 64.5 190t135.5 72q92 0 146 -85l-58 -43q-34 53 -86 53q-101 0 -119 -187h224l-17 -65h-211q-1 -16 -1 -41t1 -43h191l-17 -66h-170q19 -182 125 -182q53 0 88 54l58 -44q-54 -85 -150 -85q-174 0 -204 257h-61v66h56q-1 22 -1 43t1 41h-56z" />
    <glyph glyph-name="dollar.OT" 
d="M345 787l-22 -115q56 -23 94 -78l-61 -43q-23 32 -48 47l-38 -195q36 -19 58.5 -34.5t48.5 -39t38.5 -54t12.5 -67.5q0 -83 -59.5 -132t-147.5 -49q-16 0 -24 1l-21 -108l-48 7l21 109q-71 21 -114 87l59 45q25 -41 70 -59l46 238q-34 17 -55.5 30.5t-46 35.5t-36.5 50.5
t-12 64.5q0 77 52.5 118.5t124.5 41.5q21 0 39 -3l22 109zM348 207q0 39 -24 65.5t-69 51.5l-44 -224h11q56 1 91 28.5t35 78.5zM141 532q0 -35 21 -58t64 -47l36 186q-6 1 -21 1q-45 0 -72.5 -22.5t-27.5 -59.5z" />
    <glyph glyph-name="sterling.OT" 
d="M45 336v68h74q-32 71 -32 131q0 82 48 135.5t138 53.5q103 0 165 -74l-53 -55q-43 54 -110 54q-53 0 -78.5 -32t-25.5 -81q0 -51 35 -132h204v-68h-177q27 -68 27 -118q0 -61 -39 -113q2 -1 9 -5.5t9 -6t9 -5.5t10 -5.5t9.5 -4.5t10.5 -4.5t10.5 -3.5t11.5 -3t11.5 -1.5
t13.5 -0.5q34 0 53.5 12t37.5 33l49 -55q-54 -65 -133 -65q-39 0 -76.5 18.5t-64.5 37t-40 18.5q-15 0 -22.5 -11t-9 -22.5t-1.5 -30.5h-77q0 68 22 102.5t75 34.5q10 0 26 -4q23 40 23 77q0 54 -35 126h-107z" />
    <glyph glyph-name="yen.OT" 
d="M54 297v65h117l-145 352h84l87 -220q26 -67 40 -117h3q14 50 40 117l86 220h85l-146 -352h118v-65h-144v-85h144v-65h-144v-147h-81v147h-144v65h144v85h-144z" />
    <glyph glyph-name="zero.OT" 
d="M50 246q0 118 51 187t137 69q87 0 137.5 -69t50.5 -187t-50.5 -187t-137.5 -69q-86 0 -137 69t-51 187zM348 246q0 90 -29.5 137.5t-80.5 47.5t-80.5 -47.5t-29.5 -137.5q0 -91 29 -138t81 -47q51 0 80.5 47.5t29.5 137.5z" />
    <glyph glyph-name="one.OT" 
d="M204 391l-161 -67v80l218 93h20v-428h140v-69h-376v69h159v322z" />
    <glyph glyph-name="two.OT" 
d="M235 532q-42 0 -71.5 -29.5t-29.5 -96.5q0 -18 1 -28h-74q-3 24 -3 34q0 95 53 143t123 48q80 0 125 -50t45 -120q0 -43 -14.5 -83t-51 -87.5t-71.5 -85.5t-103 -106v-2h259v-69h-370v47q23 24 67 70t61.5 65t48 53.5t43 53.5t28 45.5t20.5 48.5t5 46q0 45 -25.5 74
t-65.5 29z" />
    <glyph glyph-name="three.OT" 
d="M236 -232q-82 0 -129 50t-47 149q0 18 2 36h75q-2 -20 -2 -30q0 -69 27.5 -101.5t73.5 -32.5q47 0 79.5 38t32.5 105q0 70 -39.5 112.5t-112.5 42.5q-23 0 -42 -4v26l166 262v2h-250v69h309l29 -64l-148 -233v-2q75 -9 120.5 -66.5t45.5 -142.5q0 -96 -52 -156t-138 -60z
" />
    <glyph glyph-name="four.OT" 
d="M208 219l-91 -148v-2h151v140q0 77 3 120h-2q-17 -35 -61 -110zM20 0v34l284 463h41v-428h104l-25 -69h-79v-222h-77v222h-248z" />
    <glyph glyph-name="five.OT" 
d="M426 -8q0 -102 -52 -163t-140 -61q-80 0 -127 50.5t-47 148.5q0 18 2 36h75q-1 -10 -1 -30q0 -69 27 -101.5t73 -32.5q49 0 80.5 39t31.5 112q0 71 -33 112t-95 41q-48 0 -93 -21l-44 30l42 340h307l-26 -69h-216l-27 -220l2 -1q30 12 70 12q92 0 141.5 -63.5
t49.5 -158.5z" />
    <glyph glyph-name="six.OT" 
d="M157 402l2 -2q32 17 80 17q89 0 137 -59t48 -149q0 -99 -50 -159t-131 -60q-90 0 -140.5 69t-50.5 195q0 148 76.5 268.5t216.5 201.5l37 -62q-173 -106 -225 -260zM130 255q0 -91 30 -142.5t81 -51.5q44 0 74.5 38t30.5 109q0 63 -32 100.5t-90 37.5q-48 0 -88 -21
q-6 -38 -6 -70z" />
    <glyph glyph-name="seven.OT" 
d="M403 492l29 -64q-219 -275 -223 -650h-80q7 204 67 367t144 276v2h-302v69h365z" />
    <glyph glyph-name="eight.OT" 
d="M238 -10q-84 0 -137 54t-53 143q0 64 29 111t86 67v2q-41 15 -71 56.5t-30 111.5q0 82 46 135.5t130 53.5t130 -53.5t46 -135.5q0 -70 -30 -111t-70 -57v-2q57 -20 85.5 -67t28.5 -111q0 -89 -53 -143t-137 -54zM238 61q45 0 78.5 34.5t33.5 97.5q0 61 -31.5 95t-80.5 41
q-49 -7 -80.5 -41t-31.5 -95q0 -63 33.5 -97.5t78.5 -34.5zM238 399q98 19 98 133q0 56 -28 88.5t-70 32.5t-70 -32.5t-28 -88.5q0 -113 98 -133z" />
    <glyph glyph-name="nine.OT" 
d="M320 90l-2 2q-32 -17 -80 -17q-89 0 -137.5 59t-48.5 148q0 99 50.5 159.5t131.5 60.5q89 0 139.5 -69.5t50.5 -194.5q0 -148 -76 -269t-217 -201l-36 61q173 108 225 261zM346 237q0 91 -29.5 142.5t-81.5 51.5q-43 0 -74 -38t-31 -110q0 -63 32 -100.5t90 -37.5
q48 0 88 21q6 28 6 71z" />
    <glyph glyph-name="Euro.small" horiz-adv-x="410" 
d="M16 174v59h49q-1 16 -1 32q0 15 1 29h-49v59h54q14 85 57 135.5t116 50.5q75 0 126 -72l-55 -40q-30 41 -70 41q-77 0 -94 -115h189l-17 -59h-178q-1 -12 -1 -29q0 -18 1 -32h162l-16 -59h-140q17 -112 98 -112q43 0 73 41l55 -40q-50 -71 -132 -71q-143 0 -173 182h-55z
" />
    <glyph glyph-name="dollar.small" horiz-adv-x="410" 
d="M301 578l-19 -81q41 -15 78 -55l-51 -46q-22 23 -42 33l-29 -126q28 -13 47 -24t40 -28.5t31.5 -41t10.5 -52.5q0 -62 -49.5 -99.5t-122.5 -37.5q-15 0 -22 1l-18 -80l-47 10l18 77q-59 17 -95 66l51 45q22 -33 59 -44l36 157q-37 16 -60.5 30.5t-43 42.5t-19.5 64
q0 57 42.5 89.5t104.5 32.5q18 0 36 -3l18 80zM289 157q0 25 -17 42t-50 33l-34 -144q45 -2 73 16t28 53zM132 391q0 -39 61 -68l28 118q-8 1 -20 1q-33 0 -51 -13.5t-18 -37.5z" />
    <glyph glyph-name="sterling.small" horiz-adv-x="410" 
d="M212 164q0 -40 -29 -80q44 -21 79 -21q43 0 77 34l46 -52q-48 -53 -115 -53q-44 0 -93.5 27t-61.5 27q-22 0 -22 -46h-75q0 113 78 113q15 0 30 -5q17 26 17 52q0 33 -26 83h-95v63h59q-23 50 -23 87q0 63 41 104.5t117 41.5q88 0 147 -60l-50 -52q-39 41 -93 41
q-42 0 -62 -21t-20 -54q0 -35 26 -87h175v-63h-145q18 -43 18 -79z" />
    <glyph glyph-name="yen.small" horiz-adv-x="410" 
d="M204 294h2q14 39 29 73l74 163h82l-122 -254h95v-59h-120v-61h120v-59h-120v-97h-78v97h-121v59h121v61h-121v59h96l-122 254h82l74 -163q13 -28 29 -73z" />
    <glyph glyph-name="zero.small" horiz-adv-x="411" 
d="M372 266q0 -274 -167 -274q-166 0 -166 274q0 273 166 273q167 0 167 -273zM292 266q0 202 -87 202q-45 0 -65.5 -49.5t-20.5 -152.5q0 -104 20.5 -153.5t65.5 -49.5t66 49.5t21 153.5z" />
    <glyph glyph-name="one.small" horiz-adv-x="372" 
d="M169 437l-135 -47v74l193 70h20v-467h116v-67h-328v67h134v370z" />
    <glyph glyph-name="two.small" horiz-adv-x="380" 
d="M190 468q-77 0 -77 -90q0 -12 2 -26h-74q-3 12 -3 32q0 75 44 115t108 40q73 0 112.5 -42t39.5 -110q0 -66 -46 -138.5t-146 -179.5v-2h206v-67h-319v45q120 129 172.5 203t52.5 139q0 40 -20 60.5t-52 20.5z" />
    <glyph glyph-name="three.small" horiz-adv-x="382" 
d="M188 -8q-71 0 -112.5 38.5t-41.5 112.5q0 19 3 33h74q-2 -13 -2 -27q0 -86 78 -86q38 0 62.5 23.5t24.5 68.5q0 48 -31 77t-90 29q-1 0 -40 -3v27l129 175v2h-200v68h270l28 -53l-121 -162v-2q60 -9 97.5 -52.5t37.5 -104.5q0 -72 -46 -118t-120 -46z" />
    <glyph glyph-name="four.small" horiz-adv-x="410" 
d="M18 153v35l243 346h41v-314h89l-26 -67h-63v-153h-78v153h-206zM224 220v91q0 53 1 70h-2q-15 -24 -41 -63l-65 -96v-2h107z" />
    <glyph glyph-name="five.small" horiz-adv-x="385" 
d="M354 162q0 -77 -46.5 -123.5t-122.5 -46.5q-68 0 -110 39t-42 113q0 18 3 32h74q-2 -13 -2 -27q0 -86 79 -86q38 0 62.5 24.5t24.5 73.5q0 48 -26.5 75t-77.5 27q-42 0 -75 -13l-43 29l37 251h269l-26 -68h-180l-21 -139l2 -1q21 7 52 7q80 0 124.5 -48t44.5 -119z" />
    <glyph glyph-name="six.small" horiz-adv-x="399" 
d="M207 -8q-77 0 -122.5 52.5t-45.5 146.5q0 109 66.5 198t188.5 150l35 -61q-142 -75 -183 -171l1 -1q26 11 57 11q76 0 119 -45.5t43 -113.5q0 -75 -44.5 -120.5t-114.5 -45.5zM205 62q35 0 58.5 24t23.5 71q0 42 -25.5 66.5t-71.5 24.5q-38 0 -68 -13q-3 -24 -3 -46
q0 -61 22.5 -94t63.5 -33z" />
    <glyph glyph-name="seven.small" horiz-adv-x="358" 
d="M324 530l26 -55q-184 -198 -185 -475h-80q10 274 168 460v2h-244v68h315z" />
    <glyph glyph-name="eight.small" horiz-adv-x="413" 
d="M206 -8q-73 0 -119.5 41t-46.5 109q0 92 85 128v2q-73 39 -73 121q0 63 41 104.5t113 41.5q73 0 114 -41.5t41 -104.5q0 -83 -74 -121v-2q85 -35 85 -128q0 -68 -46.5 -109t-119.5 -41zM206 61q36 0 61.5 22t25.5 64q0 40 -24.5 63t-62.5 28q-38 -5 -62 -28t-24 -63
q0 -42 25.5 -64t60.5 -22zM206 302q35 7 56 30t21 59t-22 57t-55 21t-54.5 -21t-21.5 -57t21 -59t55 -30z" />
    <glyph glyph-name="nine.small" horiz-adv-x="399" 
d="M105 -8l-34 61q141 76 183 171h-2q-23 -10 -56 -10q-77 0 -120 45t-43 113q0 75 44.5 121t114.5 46q78 0 123 -52.5t45 -146.5q0 -109 -66.5 -198t-188.5 -150zM209 282q36 0 68 14q4 20 4 45q0 61 -23 94.5t-64 33.5q-34 0 -57.5 -24t-23.5 -72q0 -42 25 -66.5t71 -24.5
z" />
    <glyph glyph-name="zero.dnom" horiz-adv-x="334" 
d="M167 -6q-139 0 -139 223t139 223t139 -223t-139 -223zM167 53q67 0 67 164t-67 164t-67 -164t67 -164z" />
    <glyph glyph-name="one.dnom" horiz-adv-x="306" 
d="M131 356l-113 -39v63l159 57h24v-378h95v-59h-273v59h108v297z" />
    <glyph glyph-name="two.dnom" horiz-adv-x="334" 
d="M163 381q-26 0 -43 -17t-17 -54q0 -8 3 -25h-68q-3 13 -3 29q0 62 37 94t92 32q61 0 93 -33t32 -89q0 -55 -37 -114t-116 -143v-2h165v-59h-265v39q96 103 139 164t43 114q0 32 -15 48t-40 16z" />
    <glyph glyph-name="three.dnom" horiz-adv-x="334" 
d="M166 -6q-60 0 -94.5 30.5t-34.5 93.5q0 14 3 30h64q-2 -11 -2 -25q0 -71 63 -71q30 0 48.5 20t18.5 56q0 38 -23 60.5t-69 22.5q-15 0 -36 -3v27l102 138v2h-161v59h223l25 -46l-96 -129v-2q48 -10 77.5 -44.5t29.5 -83.5q0 -60 -38 -97.5t-100 -37.5z" />
    <glyph glyph-name="four.dnom" horiz-adv-x="334" 
d="M180 0v127h-169v32l198 278h40v-251h74l-24 -59h-50v-127h-69zM180 186v75q0 19 2 47h-2q-13 -20 -25 -36l-59 -84v-2h84z" />
    <glyph glyph-name="five.dnom" horiz-adv-x="334" 
d="M37 118q0 15 3 30h64q-2 -12 -2 -25q0 -36 17.5 -53.5t45.5 -17.5q30 0 48.5 20.5t18.5 59.5q0 81 -80 81q-34 0 -61 -11l-40 23l30 209h226l-24 -59h-146l-15 -108l1 -1q19 6 42 6q65 0 102 -40t37 -99q0 -62 -38.5 -100.5t-101.5 -38.5q-58 0 -92.5 31t-34.5 93z" />
    <glyph glyph-name="six.dnom" horiz-adv-x="334" 
d="M171 -6q-64 0 -102 43t-38 119q0 89 55 162.5t156 123.5l31 -51q-111 -57 -148 -135l1 -1q20 6 42 6q64 0 100 -37.5t36 -92.5q0 -62 -37 -99.5t-96 -37.5zM170 53q26 0 44 19.5t18 56.5q0 34 -19 53.5t-54 19.5q-28 0 -54 -10q-3 -13 -3 -35q0 -49 18 -76.5t50 -27.5z
" />
    <glyph glyph-name="seven.dnom" horiz-adv-x="284" 
d="M268 434l26 -46q-150 -161 -153 -388h-69q8 217 132 373v2h-197v59h261z" />
    <glyph glyph-name="eight.dnom" horiz-adv-x="334" 
d="M167 -6q-61 0 -100 34t-39 89q0 71 69 105v2q-59 31 -59 98q0 51 34 84.5t95 33.5t95.5 -33.5t34.5 -84.5q0 -67 -59 -98v-2q68 -33 68 -105q0 -55 -39 -89t-100 -34zM167 53q28 0 48 17.5t20 49.5q0 31 -19 49.5t-49 23.5q-30 -5 -48.5 -23.5t-18.5 -49.5
q0 -32 19.5 -49.5t47.5 -17.5zM167 249q59 13 59 71q0 29 -16.5 45t-42.5 16q-25 0 -41.5 -16t-16.5 -45q0 -58 58 -71z" />
    <glyph glyph-name="nine.dnom" horiz-adv-x="334" 
d="M92 -8l-31 51q111 56 148 135l-1 1q-18 -6 -42 -6q-64 0 -99.5 37.5t-35.5 92.5q0 62 37 99.5t95 37.5q64 0 102.5 -43.5t38.5 -119.5q0 -89 -55.5 -162t-156.5 -123zM175 232q29 0 55 10q2 12 2 35q0 49 -17.5 76.5t-49.5 27.5q-27 0 -45 -19.5t-18 -57.5
q0 -33 19 -52.5t54 -19.5z" />
    <glyph glyph-name="plus.dnom" horiz-adv-x="334" 
d="M31 193v57h106v107h60v-107h107v-57h-107v-107h-60v107h-106z" />
    <glyph glyph-name="minus.dnom" horiz-adv-x="334" 
d="M304 193h-273v57h273v-57z" />
    <glyph glyph-name="equal.dnom" horiz-adv-x="334" 
d="M31 128v57h273v-57h-273zM31 258v57h273v-57h-273z" />
    <glyph glyph-name="parenleft.dnom" horiz-adv-x="206" 
d="M46 217q0 72 34 141t81 119l30 -25q-78 -105 -78 -235q0 -132 78 -235l-30 -26q-47 50 -81 119t-34 142z" />
    <glyph glyph-name="parenright.dnom" horiz-adv-x="206" 
d="M160 217q0 -73 -34 -142t-81 -119l-30 26q79 102 79 235q0 131 -79 235l30 25q47 -50 81 -119t34 -141z" />
    <glyph glyph-name="zero.numr" horiz-adv-x="334" 
d="M167 274q-139 0 -139 223t139 223t139 -223t-139 -223zM167 333q67 0 67 164t-67 164t-67 -164t67 -164z" />
    <glyph glyph-name="one.numr" horiz-adv-x="306" 
d="M131 636l-113 -39v63l159 57h24v-378h95v-59h-273v59h108v297z" />
    <glyph glyph-name="two.numr" horiz-adv-x="334" 
d="M163 661q-26 0 -43 -17t-17 -54q0 -8 3 -25h-68q-3 13 -3 29q0 62 37 94t92 32q61 0 93 -33t32 -89q0 -55 -37 -114t-116 -143v-2h165v-59h-265v39q96 103 139 164t43 114q0 32 -15 48t-40 16z" />
    <glyph glyph-name="three.numr" horiz-adv-x="334" 
d="M166 274q-60 0 -94.5 30.5t-34.5 93.5q0 14 3 30h64q-2 -11 -2 -25q0 -71 63 -71q30 0 48.5 20t18.5 56q0 38 -23 60.5t-69 22.5q-15 0 -36 -3v27l102 138v2h-161v59h223l25 -46l-96 -129v-2q48 -10 77.5 -44.5t29.5 -83.5q0 -60 -38 -97.5t-100 -37.5z" />
    <glyph glyph-name="four.numr" horiz-adv-x="334" 
d="M180 280v127h-169v32l198 278h40v-251h74l-24 -59h-50v-127h-69zM180 466v75q0 19 2 47h-2q-13 -20 -25 -36l-59 -84v-2h84z" />
    <glyph glyph-name="five.numr" horiz-adv-x="334" 
d="M37 398q0 15 3 30h64q-2 -12 -2 -25q0 -36 17.5 -53.5t45.5 -17.5q30 0 48.5 20.5t18.5 59.5q0 81 -80 81q-34 0 -61 -11l-40 23l30 209h226l-24 -59h-146l-15 -108l1 -1q19 6 42 6q65 0 102 -40t37 -99q0 -62 -38.5 -100.5t-101.5 -38.5q-58 0 -92.5 31t-34.5 93z" />
    <glyph glyph-name="six.numr" horiz-adv-x="334" 
d="M171 274q-64 0 -102 43t-38 119q0 89 55 162.5t156 123.5l31 -51q-111 -57 -148 -135l1 -1q20 6 42 6q64 0 100 -37.5t36 -92.5q0 -62 -37 -99.5t-96 -37.5zM170 333q26 0 44 19.5t18 56.5q0 34 -19 53.5t-54 19.5q-28 0 -54 -10q-3 -13 -3 -35q0 -49 18 -76.5t50 -27.5z
" />
    <glyph glyph-name="seven.numr" horiz-adv-x="284" 
d="M268 714l26 -46q-150 -161 -153 -388h-69q8 217 132 373v2h-197v59h261z" />
    <glyph glyph-name="eight.numr" horiz-adv-x="334" 
d="M167 274q-61 0 -100 34t-39 89q0 71 69 105v2q-59 31 -59 98q0 51 34 84.5t95 33.5t95.5 -33.5t34.5 -84.5q0 -67 -59 -98v-2q68 -33 68 -105q0 -55 -39 -89t-100 -34zM167 333q28 0 48 17.5t20 49.5q0 31 -19 49.5t-49 23.5q-30 -5 -48.5 -23.5t-18.5 -49.5
q0 -32 19.5 -49.5t47.5 -17.5zM167 529q59 13 59 71q0 29 -16.5 45t-42.5 16q-25 0 -41.5 -16t-16.5 -45q0 -58 58 -71z" />
    <glyph glyph-name="nine.numr" horiz-adv-x="334" 
d="M92 272l-31 51q111 56 148 135l-1 1q-18 -6 -42 -6q-64 0 -99.5 37.5t-35.5 92.5q0 62 37 99.5t95 37.5q64 0 102.5 -43.5t38.5 -119.5q0 -89 -55.5 -162t-156.5 -123zM175 512q29 0 55 10q2 12 2 35q0 49 -17.5 76.5t-49.5 27.5q-27 0 -45 -19.5t-18 -57.5
q0 -33 19 -52.5t54 -19.5z" />
    <glyph glyph-name="plus.numr" horiz-adv-x="334" 
d="M31 473v57h106v107h60v-107h107v-57h-107v-107h-60v107h-106z" />
    <glyph glyph-name="minus.numr" horiz-adv-x="334" 
d="M304 473h-273v57h273v-57z" />
    <glyph glyph-name="equal.numr" horiz-adv-x="334" 
d="M31 408v57h273v-57h-273zM31 538v57h273v-57h-273z" />
    <glyph glyph-name="parenleft.numr" horiz-adv-x="206" 
d="M46 497q0 72 34 141t81 119l30 -25q-78 -105 -78 -235q0 -132 78 -235l-30 -26q-47 50 -81 119t-34 142z" />
    <glyph glyph-name="parenright.numr" horiz-adv-x="206" 
d="M160 497q0 -73 -34 -142t-81 -119l-30 26q79 102 79 235q0 131 -79 235l30 25q47 -50 81 -119t34 -141z" />
    <glyph glyph-name="fraction.afrc" horiz-adv-x="400" 
d="M0 303v62h400v-62h-400z" />
    <glyph glyph-name="onehalf.afrc" horiz-adv-x="400" 
d="M169 820l-113 -39v63l159 57h24v-378h95v-59h-273v59h108v297zM198 150q-26 0 -43 -17t-17 -54q0 -8 3 -25h-68q-3 14 -3 29q0 62 37 94t92 32q61 0 93 -33t32 -89q0 -55 -37 -114t-116 -143v-2h165v-59h-265v39q96 103 139 164t43 114q0 32 -15 48t-40 16zM0 303v62h400
v-62h-400z" />
    <glyph glyph-name="onethird.afrc" horiz-adv-x="400" 
d="M169 820l-113 -39v63l159 57h24v-378h95v-59h-273v59h108v297zM0 303v62h400v-62h-400zM201 -237q-60 0 -94.5 30.5t-34.5 93.5q0 13 3 30h64q-2 -11 -2 -25q0 -71 63 -71q30 0 48.5 20t18.5 56q0 38 -23 60.5t-69 22.5q-15 0 -36 -3v27l102 138v2h-161v59h223l25 -46
l-96 -129v-2q48 -10 77.5 -44.5t29.5 -83.5q0 -60 -38 -97.5t-100 -37.5z" />
    <glyph glyph-name="twothirds.afrc" horiz-adv-x="400" 
d="M198 845q-26 0 -43 -17t-17 -54q0 -8 3 -25h-68q-3 13 -3 29q0 62 37 94t92 32q61 0 93 -33t32 -89q0 -55 -37 -114t-116 -143v-2h165v-59h-265v39q96 103 139 164t43 114q0 32 -15 48t-40 16zM0 303v62h400v-62h-400zM201 -237q-60 0 -94.5 30.5t-34.5 93.5q0 13 3 30
h64q-2 -11 -2 -25q0 -71 63 -71q30 0 48.5 20t18.5 56q0 38 -23 60.5t-69 22.5q-15 0 -36 -3v27l102 138v2h-161v59h223l25 -46l-96 -129v-2q48 -10 77.5 -44.5t29.5 -83.5q0 -60 -38 -97.5t-100 -37.5z" />
    <glyph glyph-name="onequarter.afrc" horiz-adv-x="400" 
d="M169 820l-113 -39v63l159 57h24v-378h95v-59h-273v59h108v297zM215 -231v127h-169v32l198 278h40v-251h74l-24 -59h-50v-127h-69zM215 -45v75q0 19 2 47h-2q-13 -20 -25 -36l-59 -84v-2h84zM0 303v62h400v-62h-400z" />
    <glyph glyph-name="threequarters.afrc" horiz-adv-x="400" 
d="M215 -231v127h-169v32l198 278h40v-251h74l-24 -59h-50v-127h-69zM215 -45v75q0 19 2 47h-2q-13 -20 -25 -36l-59 -84v-2h84zM0 303v62h400v-62h-400zM201 458q-60 0 -94.5 30.5t-34.5 93.5q0 14 3 30h64q-2 -11 -2 -25q0 -71 63 -71q30 0 48.5 20t18.5 56q0 38 -23 60.5
t-69 22.5q-15 0 -36 -3v27l102 138v2h-161v59h223l25 -46l-96 -129v-2q48 -10 77.5 -44.5t29.5 -83.5q0 -60 -38 -97.5t-100 -37.5z" />
    <glyph glyph-name="onefifth.afrc" horiz-adv-x="400" 
d="M169 820l-113 -39v63l159 57h24v-378h95v-59h-273v59h108v297zM67 -113q0 15 3 30h64q-2 -12 -2 -25q0 -36 17.5 -53.5t45.5 -17.5q30 0 48.5 20.5t18.5 59.5q0 81 -80 81q-34 0 -61 -11l-40 23l30 209h226l-24 -59h-146l-15 -108l1 -1q19 6 42 6q65 0 102 -40t37 -99
q0 -62 -38.5 -100.5t-101.5 -38.5q-58 0 -92.5 31t-34.5 93zM0 303v62h400v-62h-400z" />
    <glyph glyph-name="twofifths.afrc" horiz-adv-x="400" 
d="M198 845q-26 0 -43 -17t-17 -54q0 -8 3 -25h-68q-3 13 -3 29q0 62 37 94t92 32q61 0 93 -33t32 -89q0 -55 -37 -114t-116 -143v-2h165v-59h-265v39q96 103 139 164t43 114q0 32 -15 48t-40 16zM67 -113q0 15 3 30h64q-2 -12 -2 -25q0 -36 17.5 -53.5t45.5 -17.5
q30 0 48.5 20.5t18.5 59.5q0 81 -80 81q-34 0 -61 -11l-40 23l30 209h226l-24 -59h-146l-15 -108l1 -1q19 6 42 6q65 0 102 -40t37 -99q0 -62 -38.5 -100.5t-101.5 -38.5q-58 0 -92.5 31t-34.5 93zM0 303v62h400v-62h-400z" />
    <glyph glyph-name="threefifths.afrc" horiz-adv-x="400" 
d="M67 -113q0 15 3 30h64q-2 -12 -2 -25q0 -36 17.5 -53.5t45.5 -17.5q30 0 48.5 20.5t18.5 59.5q0 81 -80 81q-34 0 -61 -11l-40 23l30 209h226l-24 -59h-146l-15 -108l1 -1q19 6 42 6q65 0 102 -40t37 -99q0 -62 -38.5 -100.5t-101.5 -38.5q-58 0 -92.5 31t-34.5 93z
M0 303v62h400v-62h-400zM199 458q-60 0 -94.5 30.5t-34.5 93.5q0 14 3 30h64q-2 -11 -2 -25q0 -71 63 -71q30 0 48.5 20t18.5 56q0 38 -23 60.5t-69 22.5q-15 0 -36 -3v27l102 138v2h-161v59h223l25 -46l-96 -129v-2q48 -10 77.5 -44.5t29.5 -83.5q0 -60 -38 -97.5
t-100 -37.5z" />
    <glyph glyph-name="fourfifths.afrc" horiz-adv-x="400" 
d="M67 -113q0 15 3 30h64q-2 -12 -2 -25q0 -36 17.5 -53.5t45.5 -17.5q30 0 48.5 20.5t18.5 59.5q0 81 -80 81q-34 0 -61 -11l-40 23l30 209h226l-24 -59h-146l-15 -108l1 -1q19 6 42 6q65 0 102 -40t37 -99q0 -62 -38.5 -100.5t-101.5 -38.5q-58 0 -92.5 31t-34.5 93z
M213 464v127h-169v32l198 278h40v-251h74l-24 -59h-50v-127h-69zM213 650v75q0 19 2 47h-2q-13 -20 -25 -36l-59 -84v-2h84zM0 303v62h400v-62h-400z" />
    </font>
</defs>
</svg>
